<?xml version="1.0" encoding="utf-8"?>
<!-- Generator: Adobe Illustrator 25.2.3, SVG Export Plug-In . SVG Version: 6.00 Build 0)  -->
<svg version="1.1" id="Layer_1" xmlns="http://www.w3.org/2000/svg" xmlns:xlink="http://www.w3.org/1999/xlink" x="0px" y="0px"
	 viewBox="0 0 40 40" style="enable-background:new 0 0 40 40;" xml:space="preserve">
<style type="text/css">
	.st0{fill:#D50032;}
</style>
<path class="st0" d="M32.9,36.4c0.1-0.1,0.1-0.1,0.1-0.1V36c-0.1-0.1-0.1-0.1-0.1-0.3c0.1,0,0-0.1,0-0.1c0-0.2-0.1-0.4,0-0.6
	c0-0.1,0-0.1-0.1-0.2c-0.1-0.1-0.1-0.1-0.2-0.3c0-0.1-0.1-1.4-0.1-1.5l-0.1-0.1c-0.1-0.1-0.1,1.1-0.1,1c0-0.1,0-0.1-0.1-0.2
	c0-0.1-0.1-0.2,0-0.3v-0.1c0-0.1-0.1-0.1-0.1-0.3c0.1-0.1,0-0.1-0.1-0.3c-0.1-0.1-0.1-0.3,0.1-0.3c0-0.1,0.1-0.1,0.1-0.1
	c0.1-0.1,0.2-0.3,0.3-0.5c0-0.1,0.1-0.1,0.1-0.1c0.1-0.1,0.2-0.3,0.2-0.5c0-0.1-0.1-0.2-0.1-0.3v-0.7v-0.1v-0.3
	c0.1-0.3,0-0.5-0.1-0.7c-0.1-0.1-0.1-0.3,0-0.4v-0.3c-0.1-0.1-0.1-0.2-0.1-0.3c0.1-0.1,0.1-0.1,0.1-0.3c0.1-0.1,0.1-0.1,0.1-0.3
	c0.1,0,0.1-0.1,0.1-0.1v-0.4c-0.1-0.7-0.1-2.8-0.1-3.5c0-0.7-0.1-1.4-0.1-2.1c0-1,0-2.1-0.1-3.1v-1.9c0-0.4,0-0.9-0.1-1.3v-1.7
	c0-0.8-0.1-1.6-0.1-2.4v-0.1c-0.1-0.1-0.1-0.1-0.1-0.3V8.7V7.6c0-0.3,0.1-0.7,0-1.1c-0.1-0.5-0.1-1.1-0.1-1.7V3.5
	c-0.1-0.5-0.1-1.1-0.1-1.7V1.5c0-0.1-0.1-0.2-0.1-0.3c-0.1-0.1-0.3-0.3-0.3-0.5s-0.1-0.1-0.1-0.1c-0.1-0.1-0.3-0.1-0.3-0.3
	c-0.1-0.1-0.2-0.1-0.3-0.1c-0.1,0-0.1,0-0.1-0.1c-0.1-0.1-0.1-0.1-0.3-0.1h-0.1c-0.1-0.1-0.1-0.1-0.2-0.1H30c-0.5,0-1,0-1.5-0.1
	c-0.1,0-0.1,0.1-0.1,0.1c-0.1,0.1-0.1,0.1-0.2,0c0,0.1-0.1,0.1-0.3,0.1h-1.4c-0.8,0.1-1.6,0-2.3,0c-0.1,0-0.3,0.1-0.4,0.1
	c-0.1,0.1-0.1,0.1-0.1,0.1h-0.3h-1.7h-2h-1.8h-1.7h-0.3c-0.1-0.1-0.3,0-0.4,0h-0.1H15c-0.1,0-0.2,0-0.3,0.1c-0.1,0-0.1,0.1-0.2,0.1
	h-0.5c-0.3,0-0.5-0.1-0.7,0c-0.1,0.1-0.3,0.1-0.5,0.1h-0.1c-0.1,0-0.3,0-0.3-0.1c-0.1-0.1-0.1-0.1-0.2-0.1h-0.3
	c-0.5,0.1-1,0.1-1.5,0.1c-0.1,0-0.1,0-0.3,0.1c-0.1-0.1-0.3-0.1-0.4-0.1H9.7C9.3,0.4,9,0.5,8.6,0.3H8.5C8.5,0.4,8.5,0.5,8.4,0.5H8.1
	C8.1,0.5,8.1,0.5,8,0.5C8,0.5,8,0.5,8,0.5c0-0.1,0-0.1-0.1-0.1c-0.1,0.1-0.1,0.1,0,0.3H8C8,0.8,8.1,0.9,8.1,0.9V1C8,1,8,1,8,0.9
	c0,0,0-0.1-0.1-0.1H7.8v0.1c-0.1,0-0.2,0-0.3-0.1c0,0.1-0.1,0.1-0.2,0.1C7.2,0.9,7.2,1,7.2,1.1C7.1,1.3,7,1.5,6.8,1.6
	C6.8,1.7,6.7,1.7,6.7,1.7c0,0.1-0.1,0.2-0.1,0.3C6.5,2.1,6.5,2.2,6.5,2.3c0,0.2-0.1,0.4-0.1,0.6V3v0.3v1.1v0.1c0,0,0.1,0.1,0.1,0
	c0-0.1,0-0.1,0.1-0.1c0,0,0.1,0,0.1-0.1c0,0.1,0.1,0.1,0.1,0.1C6.6,4.5,6.6,4.6,6.5,4.5H6.4v0.1v1.3h0.1c0,0,0,0.1,0.1,0.1L6.4,6
	v0.1v2V12v3.5v0.9c0,0.1,0.1,0.1,0.1,0.2c-0.1,0.1-0.1,0.3-0.1,0.4v0.5V18v0.5c0,0.1,0.1,0.3,0,0.5l0.1,0.1v0.2
	c0,0.1-0.1,0.1-0.1,0.2v1.3c0,0.7,0,1.5,0.1,2.2v2.5v2.5c0.1,0,0.4,0,0.5,0c0.1,0.1,0.1,0,0.1,0h0.1c0.1,0.1,0.2,0.1,0.3,0
	c0.1,0,0.1,0,0.1,0c0.1,0,0.1,0,0.2,0.1h0.1c0.1-0.1,0.3,0,0.4,0c0.3,0,0.5,0.1,0.7,0.1C9,28,9.1,27.9,9.1,27.9v-0.2
	c0.1-0.1,0.1-0.1,0.1-0.3c0-0.1,0.1-0.1,0.1-0.2c0.1-0.1,0-0.2,0.1-0.3c0.1-0.1,0-0.3-0.1-0.3c-0.1-0.1-0.1-0.2-0.1-0.3
	c-0.1-0.1-0.1-0.2-0.1-0.3c0-0.1,0-0.1,0.1-0.2h0.1c0.1,0,0.1,0,0.1-0.1c0.1-0.1,0.1-0.3,0.1-0.4v-0.1c0.1-0.1,0-0.1,0.1-0.3
	c0.1-0.1,0.1-0.1,0.1-0.3v-0.1c0,0.1,0.1-0.1,0.1-0.3v-0.1c0.1-0.1,0.1-0.3,0.1-0.3c0-0.1,0.1-0.1,0.1-0.1c0.1-0.1,0-0.1,0.1-0.2
	c0.1-0.1,0.1-0.1,0.1-0.2c0,0,0-0.1,0.1-0.1c0-0.1,0.1-0.3,0.1-0.3c-0.1-0.1,0-0.1,0.1-0.3c0.1-0.1,0.1-0.3,0.1-0.4
	c0-0.1,0.1-0.3,0.1-0.3c0,0,0-0.1,0.1-0.1v-0.1c0.1-0.1,0.1-0.1,0.1-0.2l0.1-0.1c0-0.1,0.1-0.1,0.1-0.2c0.1-0.1,0.1-0.2,0.1-0.3
	v-0.1c0-0.1,0.1-0.1,0.1-0.1c0.1,0,0.1-0.1,0-0.1v-0.1c0.1-0.1,0,0,0-0.1c0.1-0.1,0.1-0.1,0.1-0.1s0.1-0.1,0.1-0.1
	c0-0.1,0.3-0.5,0.3-0.6c0.1-0.1,0.1-0.2,0.3-0.3c0.1-0.1,0.3-0.1,0.5-0.3c0.1-0.1,0.2-0.1,0.3-0.1h0.1H13c0.1,0,0.2,0.1,0.3,0V19
	c0.1,0.1,0.4,0.1,0.5,0.1c-0.1,0.2,0,0.3,0.1,0.5v0.1c-0.1,0.1-0.1,0.1-0.1,0.3l-0.1,0.1c-0.1,0.1,0,0.1,0.1,0.1h0.1
	c0.1,0.1,0.1,0.1,0,0.1l-0.1,0.1c-0.1,0.1-0.1,0.3-0.2,0.5c-0.1,0.1-0.1,0.1-0.1,0.3c0,0-0.1,0-0.1,0.1c-0.1,0.1-0.1,0.3-0.2,0.4
	c0,0.1-0.1,0.1-0.1,0.1C13.1,22,13,22.1,13,22.1C13,22.2,13,22.3,13,22.3v0.1c0,0.1-0.1,0.1-0.1,0.3c-0.1,0.1-0.1,0.1-0.1,0.3
	c0,0.1-0.1,0.1-0.1,0.1c0,0.1-0.1,0.2-0.1,0.3v0.2c0.1,0.1,0,0.1-0.1,0.1c0,0.1,0,0.1-0.1,0.1c-0.1,0.1-0.1,0.1-0.1,0.3
	c0,0.1,0,0.2-0.1,0.3c-0.1,0.1-0.1,0.2-0.1,0.3v0.1c0.1-0.1,0.1,0,0.1,0.1C12.3,25,12.3,25,12.3,25c-0.1,0.1,0,0.2-0.1,0.3
	c-0.1,0,0,0,0,0v0.1v0.1c-0.1,0.1-0.1,0.1-0.1,0.2c0,0.1,0.1,0.2,0.1,0.3v0.1c0,0.1-0.1,0.3,0,0.3c0,0,0,0.1-0.1,0.1v0.2
	c0,0.2,0,0.3-0.1,0.5c0,0.3-0.1,0.5-0.1,0.7c0.1,0.1,0.2,0.1,0.3,0.1c0.1,0,0.1,0,0.1-0.1h0.1c0.3,0,0.5,0.1,0.7,0.1
	c0.1-0.1,0.1-0.1,0.1-0.1c0.3,0.1,0.5,0,0.7,0.1c0.1,0.1,0.1,0.1,0.3,0.1c0.2,0,0.5-0.2,0.4-0.5v-0.3c0-0.1,0-0.1,0.1-0.1
	c0.1-0.2,0.1-0.5,0.1-0.7c0-0.3,0-0.5,0.1-0.9v-0.1c0.1-0.1,0.1-0.3,0.1-0.5v-0.1C15,25,15,25,15,24.8c0-0.1-0.1-0.3,0-0.3v-0.1
	v-0.5v-1.1c0-0.3-0.1-0.5-0.1-0.7c0-0.2,0.1-0.4,0-0.6c0-0.1-0.3-0.5-0.3-0.7c-0.1-0.1-0.1-0.3-0.1-0.5c0.1-0.1,0-0.1-0.1-0.1
	c-0.1-0.1-0.1-0.1-0.1-0.2v-0.4c0-0.1,0-0.2-0.1-0.3c0-0.1-0.1-0.1-0.1-0.3c0-0.1,0-0.1-0.1-0.3c-0.1-0.1-0.2-0.3-0.3-0.5
	c-0.1-0.1-0.1-0.1-0.2-0.2c-0.1-0.1-0.1-0.1-0.1-0.1c-0.1-0.1-0.7-1.3-0.8-1.4c-0.1-0.1-0.4-0.5-0.5-0.7c-0.1-0.1-0.1-0.1-0.1-0.1
	c-0.1-0.1-0.3-0.3-0.4-0.4c-0.1-0.1-0.1-0.1-0.3-0.3c-0.1-0.1-0.3-0.2-0.3-0.3c0,0.1,0,0.1-0.1,0v-0.1c0-0.1,0-0.1-0.1-0.1
	c-0.1-0.1-0.2-0.2-0.3-0.3c0-0.1,0-0.1,0-0.1c0-0.1-0.1-0.1-0.1-0.2c-0.1-0.1-0.2-0.2-0.2-0.3c0-0.1-0.1-0.1-0.1-0.3
	c-0.1-0.1-0.1-0.2-0.3-0.3c-0.1-0.1-0.1-0.2-0.3-0.3c-0.1-0.1-0.1-0.2-0.1-0.3v-0.1c-0.1-0.1-0.1-0.1-0.1-0.1
	c-0.1-0.1-0.1-0.1-0.1-0.1c0.1-0.1,0.1-0.3,0.1-0.3c-0.1-0.3,0.1-0.4,0.2-0.5c0.1-0.1,0.1-0.1,0.1-0.3h0.1c0.1,0,0.1,0,0.1-0.1
	c0-0.1,0.1-0.2,0.1-0.3c0-0.1,0.1-0.1,0.1-0.1s0.1-0.1,0.1-0.2c0.1-0.1,0.1-0.1,0.2-0.2c0.1-0.1,0.1-0.2,0.3-0.3
	c0.1,0,0.1,0,0.1-0.1c0.1-0.1,0.2-0.2,0.3-0.3c0.1-0.1,0.3-0.3,0.4-0.5c0.1-0.1,0.1-0.1,0.1-0.2c0.1,0,0.1-0.1,0.1-0.1
	c0.1,0,0.1,0,0.1-0.1h0.3c0.1,0,0.1,0,0.2-0.1h0.1c-0.1-0.1-0.1-0.1-0.3,0l-0.1-0.1c-0.1,0-0.1-0.1-0.1-0.1
	c-0.1-0.1-0.3-0.2-0.3-0.3c0,0.1-0.1,0.1-0.1,0.1c0-0.1,0-0.1-0.1-0.1c-0.1-0.1-0.5-0.3-0.6-0.4c0,0,0.1-0.1,0.2-0.2
	c0.3-0.3,0.4-0.3,0.6-0.5c0-0.1,0-0.1,0.1-0.1c0-0.1,0-0.3,0.1-0.3C12,6,12,6,12.1,5.8l0.1,0.3C12.2,6.1,12.3,6,12.3,6
	c0.1-0.1,0.1-0.3,0.2-0.3c0.1-0.1,0.1-0.3,0.2-0.5c0,0,0-0.1-0.1-0.1c-0.1-0.1-0.1-0.1,0-0.3c0-0.1,0.1-0.1,0.1-0.2
	c0-0.1,0-0.1,0.1-0.1V4.4c0.1,0,0.2,0,0.3,0.1c0.1,0.1,0.3,0.2,0.5,0.3c0.1,0.1,0.1,0.1,0.2,0.2c0.1,0.1,0.1,0.1,0.1,0.1
	C14,5.2,14,5.2,14.1,5.2c0,0.1,0.1,0.1,0.1,0.1c0.1,0.1,0.3,0.2,0.3,0.3c0.1,0.1,0.2,0.1,0.3,0.3C14.8,6,15,6,15,6.1
	c0.1,0.1,0.3,0.2,0.3,0.3c0.1,0.3,0.1,0.5,0.1,0.9v0.2c-0.1,0.2-0.2,0.4-0.3,0.7C15,8.1,15,8.3,15,8.3C15,8.3,15,8.4,15,8.4
	l-0.1,0.1H15h0.1c0.1,0.1,0.1,0.1,0.3,0h0.3h0.7c0.1,0,0.2,0,0.3,0.1h0.1H17c0.1,0,0.2-0.1,0.3-0.1c0.1,0.1,0.1,0.1,0.1,0h0.1
	c0.1,0.1,0.3,0.1,0.4,0H18h0.3c0.1,0,0.2,0,0.3,0.1h0.1c0.1-0.1,0.3,0,0.5-0.1c0.1,0.1,0.1,0.1,0.1,0.1c0.1,0.1,0.1,0.1,0.2,0.1
	c0.1-0.1,0.3-0.1,0.3,0h0.1c0.2-0.1,0.4-0.1,0.6-0.1h0.1c0.1-0.1,0.3-0.1,0.5-0.1h0.1c0.3,0,0.5,0,0.7-0.1h0.1
	c0.3,0,0.4-0.1,0.6-0.1c0.1-0.1,0.3-0.1,0.3,0c0.1,0,0.2,0.1,0.3,0.1c0.1,0.1,0.1,0.1,0.2,0.1s0.1,0.1,0.1,0.1h0.3
	c0.1,0,0.2,0,0.3-0.1c0.1,0,0.1,0,0.3,0.1h0.1c0.1,0,0.3-0.1,0.4,0H25c0.1-0.1,0.1-0.1,0.2,0c0.1,0.1,0.2,0.1,0.3,0
	c0.1-0.1,0.1-0.1,0.2-0.1c0.1,0.1,0.3,0.1,0.5,0.1h0.2c0,0,0.1,0.1,0.1,0c0.1-0.1,0.3,0,0.4,0.1c0.1,0,0.1-0.1,0.2-0.1
	c0.1-0.1,0.1-0.1,0.1-0.3c-0.1-0.1,0-0.2,0.1-0.3c0.1-0.1,0.3,0,0.3,0.1V8v0.4c0.1-0.1,0.1-0.1,0.3-0.1c0,0,0.1-0.1,0.1-0.1
	c0.1-0.1,0.1-0.1,0.1-0.1c0.1,0.1,0.2,0.1,0.3,0.1c0.2,0.1,0.3,0.1,0.5,0.2l0.1,0.1c-0.1,0.2-0.1,0.3-0.1,0.3
	c-0.1,0.1-0.1,0.1-0.3,0.2c0,0.1-0.1,0.1-0.1,0.2h-0.9H27h-0.7h-0.7h-0.9h-1.1c-0.1,0-0.1,0.1-0.2,0.1c0,0.1,0,0.2,0.1,0.3
	c-0.1,0.1-0.1,0.1-0.1,0.2c-0.1,0.2-0.1,0.3-0.3,0.5c0,0.1-0.1,0.1-0.1,0.2c-0.1,0.1-0.1,0.1-0.1,0.2c-0.1,0.1-0.1,0.1-0.1,0.1
	c-0.1,0.1-0.1,0.3-0.2,0.3c-0.1,0.2-0.3,0.4-0.5,0.5c-0.1,0.1-0.1,0.1-0.2,0.3c-0.1,0.1-0.2,0.2-0.3,0.3c-0.1,0-0.1,0.1-0.1,0.1
	c-0.1,0.1-0.1,0.1-0.1,0.2c-0.1,0.1-0.1,0.1-0.2,0.2c-0.1,0.1-0.3,0.2-0.3,0.3c0,0-0.1,0-0.1,0.1c-0.1,0.1-0.1,0.1-0.2,0.2
	c-0.1,0-0.1,0.1-0.1,0.1c-0.1,0.1-0.1,0.1-0.2,0.3c-0.1,0-0.1,0-0.1,0.1c-0.1,0.1-0.3,0.3-0.5,0.4h-0.1c-0.3,0.1-0.3,0.1-0.3,0.3
	c0.1,0.1,0.1,0.1-0.1,0.1c-0.1,0-0.1,0.1-0.1,0.1H19c-0.1,0.1-0.2,0.2-0.3,0.2L18.6,15c-0.1,0.1-0.1,0.1-0.1,0.1
	c-0.1,0-0.1,0-0.2,0.1c-0.1,0.1-0.1,0.1-0.2,0.1S18,15.2,18,15.2c-0.1-0.1-0.1-0.1-0.3,0c-0.1,0.1-0.1,0.1-0.1,0.3
	c-0.1,0.1-0.1,0.2-0.3,0.3c0-0.1-0.1-0.1-0.2-0.1c-0.1,0-0.1-0.1-0.2-0.1c-0.1-0.1-0.1-0.1-0.1-0.1c-0.1-0.1-0.1-0.1-0.2-0.1
	c-0.1,0-0.1,0.1-0.3,0.1c-0.1,0-0.1-0.1-0.2-0.1c-0.1,0-0.1-0.1-0.1-0.1c0-0.1-0.1-0.1-0.1-0.2c-0.1-0.1,0-0.2-0.1-0.2
	c-0.1-0.1-0.2-0.2-0.3-0.3l-0.1-0.1c-0.1-0.1-0.1-0.2-0.3-0.3c-0.1-0.1-0.1-0.1-0.2-0.2c-0.1-0.1-0.1-0.1-0.2-0.1
	c-0.1,0-0.1-0.1-0.1-0.1c-0.1,0-0.1,0-0.1-0.1c-0.1-0.1-0.1-0.1-0.2-0.1c-0.1-0.1-0.1-0.1-0.3-0.2C14,13,14,13,14,13
	c0,0.1-0.1,0.1-0.1,0.1c-0.1,0.1-0.1,0.2-0.1,0.3c0.1,0.1,0.1,0.3,0.3,0.3c0.1,0,0.1,0.1,0.1,0.1c0.1,0.1,0.1,0.1,0.2,0.3
	c0,0.1,0.1,0.1,0.1,0.1c0.1,0.1,0.1,0.1,0.2,0.3c0.1,0.1,0.1,0.1,0.1,0.3c0,0,0,0.1,0.1,0.1l0.1,0.3c0.1,0.1,0.1,0.1,0.1,0.1
	c0.1,0.1,0.1,0.1,0.1,0.3c0,0,0,0.1,0.1,0.1c0.1,0.1,0.1,0.2,0.2,0.3c0.1,0.1,0.1,0.1,0.1,0.1c0.1,0.1,0.3,0.2,0.3,0.3
	c0,0.1,0,0.1,0.1,0.1c0.1,0.1,0.1,0.3,0.1,0.4v0.1c0.1,0.1,0.1,0.1,0.1,0.1c0.1,0,0.1,0.1,0.1,0.1l0.1,0.1c0.1,0.1,0.1,0.1,0.1,0.2
	c0,0.1,0.1,0.1,0.1,0.1c0.1,0.1,0.1,0.3,0.2,0.4c-0.1,0.1,0.1,0.2,0.1,0.3c0,0.1,0.1,0.1,0.1,0.1c0,0.1,0.1,0.3,0.1,0.3
	c0.1,0.1,0.1,0.3,0.1,0.5c0.1,0.1,0.1,0.3,0.1,0.3s0.1,0.1,0.1,0.2s0.1,0.1,0.1,0.1l0.1,0.1c0,0,0.1,0.1,0.1,0.2
	c0,0.1,0,0.1,0.1,0.1c0.1,0.1,0.1,0.3,0.1,0.5c0,0.2,0,0.3,0.1,0.3c0,0.1,0.1,0.1,0.1,0.1c0,0.1,0,0.2,0.1,0.3
	c0,0.2-0.1,0.4-0.1,0.6c0.1,0.1,0,0.3,0,0.5c0,0.1-0.3,0.1-0.3,0.1s0.2,0.1,0.2,0.3v0.1c0.1,0.1,0.1,0.2,0,0.3c-0.1,0-0.1-0.1-0.2,0
	c0,0.1,0.1,0.1,0.1,0.2V24c0.1,0.2,0.1,0.4,0.2,0.6v0.1v0.5c0,0.1,0.1,0.1,0.1,0.2c0.1,0.1-0.1,0.1-0.1,0.1c-0.1,0-0.1,0.1-0.1,0.1
	c-0.1,0.1,0.1,0.1,0.1,0.2C18,26,17.9,26,18,26c0.1,0.1,0,0.1-0.1,0.1h-0.1c-0.1,0.1,0.1,0.1,0.1,0.3c0,0.1,0,0.2-0.1,0.3
	c0.1,0.1,0.1,0.1,0.1,0.1c-0.1-0.1,0,0.3-0.1,0.3v0.1c0,0.1,0.1,0.1,0,0.2c0,0,0.1,0.1,0,0.1c0,0.1,0,0.2,0.1,0.3
	c0.1,0.1-0.1,0.2,0,0.3v0.1c-0.1,0.2,0.1,0.3,0.1,0.5c0,0.1-0.1,0.3-0.1,0.5c0,0.4-0.1,0.7-0.1,1.1c0,0.1,0.5,0.2,0.5,0.3l0.1,0.1
	c0.1,0.1,0.1,0,0.1,0h0.3h0.3c0.1,0,0.2,0.1,0.3,0.1h0.1c0.1-0.1,0.2-0.1,0.3-0.1c0.1-0.1,0.1-0.1,0.1,0h0.3h0.3H21h0.5
	c0.1,0,0.1,0,0.2,0.1h0.1h0.2c0.1-0.1,0.1,0,0.2,0h0.2c0,0,0.1-0.1,0.1-0.1c0.1,0.1,0.2,0,0.3-0.1c0.1,0.1,0.2,0.1,0.3,0.1
	c0.1,0,0.1-0.1,0.3-0.1c0.1,0.1,0.1,0.1,0.3,0h0.1c0.1,0.1,0.3,0.1,0.5,0c0.1,0.1,0.1,0.1,0.1,0.1c0.1,0,0.1-0.1,0.1-0.1
	c0.1,0.1,0.1,0.1,0.3,0.1c0.1-0.1,0.2-0.1,0.3,0s0.1,0.1,0.2,0.1c0.1-0.1,0.1-0.1,0.2-0.1h0.1c0.1,0,0.2-0.1,0.3,0
	c0.1,0,0.1-0.1,0.1-0.1h0.1c0.1,0,0.3,0.1,0.4,0.1h0.1c0.1-0.1,0.3-0.1,0.4-0.1c0.3,0,0.7-0.1,0.9-0.1c0.1-0.1,0.3-0.1,0.4,0
	c0.2-0.1,0.4-0.2,0.7-0.1v0.1c-0.1,0.1-0.1,0.1-0.2,0.2c-0.1,0.1-0.3,0.3-0.4,0.5c-0.1,0.1-0.1,0.1-0.1,0.3
	c-0.1,0.1-0.3,0.2-0.3,0.3c-0.1,0.1-0.1,0.1-0.3,0.1h-1.2h-0.9h-0.5h-0.4c-0.2,0-0.5,0.1-0.7,0.1h-0.9h-1.3h-0.7h-0.7
	c-0.3,0-0.6,0-0.9,0.1h-0.5h-0.7h-0.9h-1.1c-0.3,0-0.5,0.1-0.8,0.1h-0.7h-0.9h-1h-0.3h-0.4h-0.7c-0.5,0.1-0.9,0.1-1.5,0.1H9.7H9.3
	H8.9H8H7.1c-0.2,0-0.3,0-0.5,0.1v0.5c0,0.1,0,0.1-0.1,0.1v2.4v2.7v0.3c0.1,0.1,0.1,0.3,0.2,0.3c0.1,0.1,0.1,0.3,0.2,0.3
	C6.9,39,7,39.1,7,39.1c0,0.1,0.1,0.2,0.1,0.3c0.1,0.1,0.1,0.1,0.2,0.1c0.3,0,0.5,0.1,0.7,0.3c0.1,0,0.1,0,0.1,0.1h0.3
	C8.5,40,8.6,40,8.7,39.9C8.8,40,8.8,40,8.9,40c0.3,0,0.5-0.1,0.7-0.1c0,0,0.1-0.1,0.1-0.1h0.1c0.1,0,0.1,0.1,0.2,0.1
	c0.1,0,0.1-0.1,0.2-0.1c0.1,0.1,0.2,0.1,0.3,0.1h0.5c0-0.1,0-0.1,0-0.1c0.1,0,0.1,0.1,0.1,0.1c0.1,0.1,0.1,0.1,0.2,0.1
	c0.2,0,0.3-0.1,0.5-0.2c0.1-0.1,0.2-0.2,0.3-0.3c0.1,0,0.1,0.1,0.2,0.1c0.1,0.1,0.1,0.1,0.1,0.2c0.2,0,0.3,0.1,0.3,0.1
	c0.1,0,0.2,0.1,0.3,0c0.1,0,0.3,0,0.4,0.1h0.1H14h1.7c0.3,0,0.6-0.1,0.9-0.1h0.9h2.8h0.7h0.9c0.1,0,0.3,0,0.5-0.1
	c0.1,0,0.3,0.1,0.5,0h0.5c0.2,0.1,0.3,0,0.5-0.1c0.1-0.1,0.1-0.1,0.1,0s0.1,0.1,0.1,0.1c0.1,0,0.3,0.1,0.5,0v-0.1
	c0-0.1,0-0.1-0.1-0.2c0.1-0.1,0.1,0,0.1,0.1c0.1,0,0.1,0.1,0.1,0.1c0.1,0.1,0.1,0.1,0.1,0.1c0.1-0.1,0.1-0.1,0.1-0.1
	c0,0.1,0.1,0.1,0.1,0.1c0.3,0.1,1.1,0,1.3-0.1v-0.1h0.1v-0.1h0.1c0,0.1,0.1,0.1,0.1,0.1c0.1,0,0.1,0.1,0.1,0.1
	c0.1,0.1,0.1,0.1,0.1,0.1c0.1,0,0.3-0.1,0.3-0.1c0.1,0,0.1,0.1,0.1,0.1c0.1,0,0.1,0.1,0.1,0.1h1.1c0.1,0,0.2-0.1,0.3-0.1
	c0.1-0.1,0.1-0.1,0.3,0c0.1,0,0.1,0.1,0.1,0.1c0.3,0,1.7,0,1.9-0.1c0.1-0.1,0.3-0.1,0.5-0.1c0.1-0.1,0.1-0.1,0.1-0.1
	c0.1-0.1,0.1-0.1,0.2-0.1c0.1,0,0.1-0.1,0.1-0.1h0.1c0.2,0.1,0.2,0.1,0.3-0.1c0.1-0.1,0.1-0.1,0.1-0.2l0.1-0.1
	c0.1-0.1,0.1-0.1,0.1-0.3c0.1-0.1,0.1-0.1,0.1-0.1c0.1-0.1,0.1-0.1,0.1-0.3v-0.1c0-0.1,0-0.1,0.1-0.1c0-0.1,0-0.1,0.1-0.1v-0.1
	c-0.1-0.3-0.1-0.5,0-0.9c0.1-0.1,0.1-0.3,0.1-0.3C32.8,36.5,32.8,36.5,32.9,36.4z"/>
<path class="st0" d="M14.4,10.4c0.1,0.1,0.1,0.1,0.1,0.1c0.1,0.1,0.1,0.1,0.2,0.1c0.1,0.1,0.2,0.1,0.3,0.3c0.2,0.1,0.4,0.3,0.6,0.4
	c0.1,0.1,0.1,0.2,0.1,0.3c0.1,0,0.3,0.1,0.3,0.1c0.1,0,0.1,0.1,0.1,0.1c0.1,0.1,0.3,0.1,0.5,0.3c0.1,0,0.2,0.1,0.3,0.1
	c0.1,0,0.1,0.1,0.1,0.1c0.1,0.1,0.3,0.1,0.4,0.2c0.1,0.1,0.1,0.1,0.1,0.1c0.1,0.1,0.1,0.1,0.1,0c0.1-0.1,0.2-0.1,0.3-0.1
	c0,0,0.1-0.1,0.1-0.1c0,0,0.1,0,0.1-0.1c0.1-0.1,0.2-0.1,0.3-0.3c0.1-0.1,0.1-0.1,0.1-0.1c0.1-0.1,0.2-0.1,0.3-0.1
	c0.1-0.1,0.1-0.2,0.2-0.3c0.1-0.1,0.1-0.1,0.2-0.1c0.1-0.1,0.1-0.1,0.1,0h0.1v-0.1c0-0.1,0-0.1,0.1-0.1c0-0.1,0.1-0.1,0.1-0.1
	c0-0.1,0.1-0.1,0.1-0.1c0.1-0.1,0.1-0.1,0.1-0.1c0.1-0.1,0.3-0.3,0.4-0.3c0.1-0.1,0.1-0.1,0.1-0.1c0.1-0.1,0.1-0.1,0.1-0.1
	c0-0.1,0-0.1,0.1-0.1c0.1-0.1,0.1-0.1,0.1-0.3c0-0.1,0.1-0.3,0.1-0.3c0.1,0,0.1-0.1,0.1-0.1c-0.1-0.1-0.1-0.1-0.1-0.1H20v0.1
	c0,0.1,0,0.1-0.1,0.2c-0.1,0.1-0.1,0.1-0.2,0.1c-0.2,0-0.3,0.1-0.5,0.1c-0.3,0.1-0.5,0.1-0.7,0.1c-0.3,0-0.5,0.1-0.8,0.1
	c-0.4,0.1-0.8,0.1-1.1,0.1c-0.4,0.1-0.7,0.1-1.1,0.1c-0.4,0.1-0.9,0.1-1.3,0.1h-0.1c0.1,0.1,0.1,0.1,0.1,0.1
	C14.3,10.3,14.4,10.3,14.4,10.4z"/>
</svg>
