<?xml version="1.0" encoding="utf-8"?>
<!-- Generator: Adobe Illustrator 25.2.3, SVG Export Plug-In . SVG Version: 6.00 Build 0)  -->
<svg version="1.1" id="Layer_1" xmlns="http://www.w3.org/2000/svg" xmlns:xlink="http://www.w3.org/1999/xlink" x="0px" y="0px"
	 viewBox="0 0 40 40" style="enable-background:new 0 0 40 40;" xml:space="preserve">
<style type="text/css">
	.st0{fill:#D50032;}
</style>
<path class="st0" d="M32.8,35.8c0-0.1-0.1-0.1,0.1-0.1v-0.1c-0.1-0.1-0.1-0.4-0.1-0.5c0.1-0.1,0.1-0.9,0.1-0.9
	c-0.1-0.1-0.1-0.3-0.1-0.5c-0.1-0.1,0-0.1,0-0.1s0.1-0.1,0-0.1v-0.1c0-0.1,0-0.1-0.1-0.1c0.1-0.1,0.1-0.1,0-0.1
	c-0.1-0.1-0.1-0.1-0.1-0.2c0-0.1,0-0.1,0.1-0.2c0.1-0.1,0.1-0.1,0.1-0.2c0-0.1-0.1-0.7-0.1-0.7c0.1-0.1,0.1-0.1,0.1-0.2
	c0-0.1,0.1-0.1,0.1-0.2c0-0.1,0-0.2-0.1-0.3v-0.1c0.1-0.2,0.1-0.4,0-0.6v-0.5v-0.2c0.1-0.1,0-0.3,0-0.3c-0.1-0.1-0.1-0.1-0.1-0.3
	v-0.2c-0.1,0-0.1-0.1-0.1-0.1c0,0.1-0.1,0.2-0.1,0.3c0,0.1,0,0.1-0.1,0.1c-0.1,0.1-0.2,0.3-0.1,0.6V30c0,0.1-0.1,0.3-0.1,0.3
	c-0.1,0.1-0.1,0.1-0.1,0.2c0,0.1-0.1,0.1-0.1,0.1c-0.1,0-0.1,0-0.1-0.1c-0.1,0-0.1,0-0.2,0.1s-0.1,0.1-0.1,0.2
	c-0.1,0.1-0.1,0.1-0.2,0.1c-0.1,0-0.3-0.1-0.3-0.1c-0.1,0-0.1,0-0.1,0.1c0,0-0.1,0.1-0.1,0.1c-0.1,0.1-0.2,0.1-0.3,0.1
	C30.7,31,30.5,31,30.4,31c-0.1,0-0.1,0-0.2,0.1c-0.1,0.1-0.1,0.1-0.3,0.1c-0.1,0.1-0.3,0.1-0.4,0.1c-0.2,0.1-0.4,0.1-0.6,0.1
	c-0.1,0.1-0.1,0.1-0.3,0.1c-0.1,0-0.3,0.1-0.3,0.1c-0.1,0.1-0.2,0.1-0.3,0.1c-0.1-0.1-0.1-0.1-0.3-0.1c-0.1-0.1-0.3-0.3-0.5-0.5
	c-0.1-0.1-0.3-0.3-0.5-0.5c-0.2-0.2-0.4-0.4-0.7-0.5c-0.3-0.3-0.5-0.5-0.9-0.7c-0.5-0.4-1-0.9-1.4-1.2c-0.3-0.3-0.6-0.5-0.9-0.7
	c-0.1,0-0.2-0.1-0.3-0.1c-0.1-0.1-0.3-0.2-0.3-0.3c-0.1-0.3-0.1-0.4-0.3-0.5c-0.3-0.2-0.5-0.5-0.7-0.7c-0.1-0.1-0.2-0.1-0.3-0.1
	c-0.1-0.1-0.3-0.1-0.4-0.3c-0.1-0.1-0.1-0.1-0.2-0.1c-0.1,0.1-0.1,0.1,0,0.2c0.1,0.1,0.1,0.1,0.1,0.3c0,0.1,0.1,0.3,0.1,0.5
	c0,0.1,0.1,0.1,0.1,0.3c0.1,0.3,0.3,0.5,0.5,0.7c0.3,0.3,0.5,0.5,0.7,0.7c0.2,0.1,0.4,0.3,0.6,0.5c0.2,0.1,0.3,0.3,0.5,0.4
	c0.2,0.1,0.3,0.3,0.5,0.4c0.1,0.1,0.1,0.1,0.1,0.1s0.1,0.1,0.1,0c0.1-0.1,0.3-0.1,0.3,0c0.1,0,0.1,0.1,0.2,0.1
	c0.1,0.1,0.1,0.1,0.1,0.1c0.1,0,0.1,0.1,0.1,0.1c0.1,0.1,0.1,0.1,0.1,0.2c0.1,0.1,0.1,0.3,0.1,0.3c0.1,0.1,0.1,0.2,0.2,0.3
	c0.1,0.1,0.3,0.3,0.5,0.5c0.1,0.1,0.2,0.1,0.3,0.3c0.2,0.2,0.4,0.4,0.6,0.6c0.1,0.1,0.3,0.2,0.5,0.3c0.1,0.1,0.3,0.2,0.5,0.3
	c0.2,0.1,0.4,0.3,0.6,0.5c0.1,0.1,0.3,0.1,0.5,0.3c0.1,0,0.1,0.1,0.1,0.1c0.1,0.1,0.2,0.2,0.3,0.3c0.1,0.1,0.3,0.2,0.4,0.3
	c0.1,0.1,0.1,0.1,0.3,0.1c0.1,0.1,0.1,0.1,0.1,0.1c0.1,0,0.1,0.1,0.1,0.1h0.1c-0.1,0.1-0.1,0.1-0.1,0.1h-0.2c-0.1,0-0.3,0-0.4,0.1
	h-0.1h-0.5c-0.1,0-0.1,0-0.2-0.1c-0.1-0.1-0.1-0.1-0.1-0.1c-0.1-0.1-0.1-0.1-0.1-0.1c0-0.1,0-0.1-0.1-0.1c-0.1-0.1-0.3-0.3-0.4-0.3
	c-0.3-0.1-0.4-0.3-0.6-0.5c-0.1-0.1-0.2-0.1-0.3-0.3c-0.3-0.2-0.5-0.5-0.7-0.7c-0.1,0-0.1-0.1-0.1-0.1c-0.1-0.1-0.3-0.2-0.3-0.3
	c-0.1,0-0.1-0.1-0.2-0.1c-0.1-0.1-0.2-0.1-0.3-0.3c-0.1-0.1-0.1-0.1-0.1-0.1l-0.1-0.1c-0.1-0.1-0.2-0.3-0.3-0.3
	c-0.1-0.1-0.3-0.2-0.3-0.3c-0.1-0.1-0.1-0.1-0.2-0.1c0,0-0.1,0-0.1-0.1c-0.1-0.1-0.3-0.3-0.3-0.3c-0.1-0.1-0.3-0.3-0.5-0.3
	c-0.1-0.1-0.3-0.2-0.3-0.3c-0.1-0.1-0.2-0.2-0.3-0.3c-0.2-0.2-0.5-0.4-0.7-0.6c-0.2-0.1-0.4-0.3-0.6-0.5c-0.1-0.1-0.3-0.2-0.3-0.3
	c-0.1-0.1-0.3-0.2-0.4-0.3c-0.1-0.1-0.2-0.2-0.3-0.3c-0.1-0.1-0.2-0.1-0.3-0.3c-0.1-0.1-0.7-0.1-0.7-0.3c-0.1-0.1-0.2-0.3-0.3-0.5
	c-0.1-0.1-0.3-0.2-0.5-0.3c-0.1-0.1-0.1-0.1-0.3-0.1c0-0.1,0-0.1,0.1-0.1c0-0.1,0-0.1-0.1-0.1c-0.1,0-0.1-0.1-0.1-0.1
	c-0.1-0.1-0.1-0.2-0.1-0.3v-0.1c0-0.1-0.1-0.1-0.1-0.3c-0.1,0-0.1-0.1-0.1-0.1c0-0.1-0.1-0.1-0.1-0.1c0.1-0.1,0-0.1,0-0.1L17.5,24
	V24c0.2-0.1,0.3-0.1,0.5,0.1c0.3,0.3,0.5,0.4,0.9,0.5c0.2,0.1,0.3,0.2,0.5,0.3h0.1c0.1,0.1,0.1,0.1,0.1,0l0.1-0.1h0.1h0.1
	c0.1,0,0.2-0.1,0.1-0.3c0-0.1,0-0.1-0.1-0.1c0-0.1,0-0.1-0.1-0.1c-0.1-0.1-0.3-0.3-0.5-0.3c-0.1-0.1-0.3-0.1-0.3-0.2
	c-0.1,0-0.1-0.1-0.1-0.1c-0.2-0.2-0.4-0.4-0.6-0.6c-0.3-0.3-0.5-0.5-0.7-0.7c-0.1-0.1-0.2-0.2-0.3-0.3v-0.1C17,22,17,21.9,16.8,21.7
	c-0.1-0.1-0.3-0.3-0.4-0.3c-0.1-0.1-0.1-0.1-0.1-0.1C16.2,21.1,16.1,21,16,21c-0.3-0.2-0.5-0.4-0.7-0.6c-0.1-0.1-0.1-0.1-0.3-0.2
	c-0.1,0-0.1-0.1-0.3-0.1c-0.2-0.2-0.4-0.4-0.6-0.6c-0.1-0.1-0.1-0.1-0.1-0.1C14,19.2,14,19.2,13.9,19c-0.1-0.1-0.3-0.1-0.3-0.1
	c-0.1-0.1-0.1-0.1-0.1-0.2v-0.1c0-0.1-0.1-0.2-0.1-0.3c-0.1,0-0.1-0.1-0.1-0.1c-0.2-0.2-0.4-0.3-0.6-0.5c-0.3-0.2-0.5-0.4-0.7-0.6
	c-0.3-0.2-0.5-0.4-0.7-0.6c-0.3-0.2-0.4-0.4-0.6-0.6c-0.1-0.1-0.3-0.3-0.5-0.5c-0.1-0.1-0.2-0.1-0.3-0.1c-0.1-0.1-0.1,0-0.2,0.1
	c-0.1,0.1-0.1,0.1-0.2,0.2c-0.1,0.1-0.1,0.1-0.1,0.1s-0.2,0.1-0.2,0.2c0,0.1,0.1,0.1,0.1,0.1c0.2,0.2,0.4,0.5,0.6,0.7
	c0.1,0.1,0.3,0.3,0.4,0.5c0.1,0.1,0.3,0.3,0.5,0.4c0.2,0.2,0.4,0.3,0.6,0.5c0.1,0.1,0.2,0.2,0.3,0.3c0.1,0.1,0.1,0.1,0.2,0.2
	c0.1,0.1,0.1,0.1,0.3,0.1c0.1,0,0.1,0,0.3,0.1c0.1,0.1,0.3,0.2,0.4,0.3c0,0.1,0.1,0.1,0,0.3c0,0,0,0.1-0.1,0.1c0,0.1,0,0.2,0.1,0.3
	c0.1,0.1,0.1,0.1,0.1,0.3c0.1,0.1,0.2,0.3,0.3,0.4c0.3,0.3,0.7,0.6,1,0.9c0.3,0.3,0.6,0.5,0.9,0.7c0.2,0.2,0.4,0.4,0.6,0.6
	c0.1,0.1,0.2,0.2,0.3,0.3c0,0.1,0.1,0.1,0.1,0.1c0,0.1,0.1,0.1,0.1,0.2c0.1,0.1,0.3,0.2,0.3,0.3c0.1,0.1,0.1,0.3-0.1,0.3
	c-0.1,0.1-0.1,0.1-0.2,0.1H16c-0.1,0-0.2-0.1-0.3-0.1c-0.1,0-0.1-0.1-0.1-0.1c-0.1,0.1-0.1,0-0.3-0.1c-0.1-0.1-0.3-0.1-0.5-0.3
	c-0.1-0.1-0.2-0.2-0.3-0.3c-0.1-0.1-0.3-0.3-0.3-0.4c-0.1-0.1-0.2-0.2-0.3-0.3c-0.3-0.3-0.6-0.5-0.9-0.7c-0.3-0.3-0.5-0.5-0.8-0.8
	c-0.3-0.3-0.6-0.7-0.9-0.9c-0.3-0.3-0.7-0.7-1-0.9c-0.3-0.3-0.7-0.7-1-0.9c-0.3-0.3-0.6-0.7-0.9-0.9c-0.3-0.3-0.5-0.5-0.9-0.9
	c-0.1-0.1-0.1-0.1-0.1-0.1c-0.2-0.1-0.3-0.3-0.5-0.5c-0.1-0.1-0.3-0.3-0.5-0.5H6.6c-0.1,0.1-0.1,0.1-0.1,0.1v0.3v0.5v0.4V17v0.1h0.1
	c0,0.1-0.1,0.1-0.1,0.1l-0.1,0.1v0.7v0.5v0.5v0.3c0,0,0,0.1,0.1,0.1v0.1c-0.1,0.1-0.1,0.1,0,0.1V20v0.2c0,0.1-0.1,0.1-0.1,0.1V21
	v0.5v0.5v0.5v0.5v0.7v0.8v0.5v0.6v0.5v0.5v0.5c0,0.2,0.1,0.4,0.1,0.6v0.3v0.3v0.2v0.1v0.7v0.2V30v1.6v0.5c0,0.1,0,0.1,0.1,0.1
	c0.1,0.1,0.1,0.1,0.1,0.2c0.1,0.1,0.1,0.2,0.1,0.3c-0.1,0.1-0.1,0.2-0.1,0.3c0,0.1,0,0.1-0.1,0.2v0.1v0.7v0.7v0.5v0.3v0.3v0.1v0.5
	v0.5v0.6c0,0.3,0.1,0.5,0.2,0.7c0.1,0.1,0.1,0.3,0.2,0.3C7,38.9,7,39,7,39.1c0.1,0.1,0.1,0.2,0.2,0.3c0.1,0.1,0.1,0.1,0.3,0.1
	c0.2,0,0.4,0.1,0.6,0.3c0.1,0.1,0.1,0.1,0.1,0.1c0.1,0.1,0.1,0.1,0.1,0.1h0.3c0.1,0,0.1,0.1,0.2-0.1c0.1,0,0.1,0,0.1,0.1
	C8.9,40,8.9,40,8.9,40c0.1-0.1,0.3,0,0.3,0h0.1c0.1-0.1,0.3-0.1,0.5-0.1c0.1,0,0.1-0.1,0.1-0.1c0.1,0,0.2,0.1,0.3,0.1l0.2-0.1
	c0.1-0.1,0.1-0.1,0.1,0c0.1,0.1,0.2,0.1,0.3,0.1h0.3c0.1,0,0.1,0,0.1-0.1c0-0.1,0.1-0.1,0.1-0.1c0.1,0.1,0.1,0.1,0.1,0.1
	c0.1,0.1,0.1,0.1,0.2,0.1h0.1c0.2-0.1,0.4-0.1,0.5-0.3c0.1-0.1,0.1-0.1,0.1-0.1c0.2-0.1,0.3-0.1,0.3-0.2c0.1-0.1,0.1-0.1,0.1-0.1
	c0.1,0.1,0.1,0.1,0.1,0.1c0,0.1,0.1,0.1,0.1,0.2c0.1,0.1,0.1,0.1,0.1,0.1c0.1,0,0.2,0.1,0.3,0.1c0.1,0,0.1-0.1,0.3-0.1h0.1
	c0.1,0.1,0.3,0.1,0.3,0.1h0.1h0.5H15h0.5h0.7c0.3,0,0.5,0,0.7-0.1h0.6h0.1h0.1c0.2,0.1,0.3,0,0.5,0h0.9h0.5h0.3h0.4h0.5
	c0.1,0,0.3,0,0.5-0.1h0.1c0.1,0.1,0.3,0.1,0.5,0.1h0.3h0.2h0.3H23c0.1-0.1,0.1-0.1,0.1-0.1c0.1,0.1,0.2,0.1,0.3,0h0.1h0.7
	c0.1,0,0.3,0,0.3-0.1c0.1-0.1,0.1-0.1,0.2,0c0.1,0,0.1,0.1,0.1,0.1c0.1,0.1,0.3,0,0.5,0c0-0.1-0.1-0.2-0.1-0.3c0.1,0,0.1,0,0.2,0.1
	c0,0.1,0,0.1,0.1,0.1h0.1c0.1-0.1,0.1-0.1,0.1-0.1v0.1c0,0.1,0,0.1,0.1,0.1h0.5h0.6h0.2c0.1-0.1,0.1-0.1,0-0.2
	c-0.1-0.1-0.1-0.1,0-0.1c0-0.1,0.1-0.1,0.1,0c0.1,0.1,0.1,0.1,0.1,0.2h0.1v0.1c0.1,0,0.1,0,0.2-0.1c0.1-0.1,0.1-0.1,0.1-0.1
	c0.1,0.1,0.1,0.1,0.2,0.1c0.1,0.1,0.1,0.1,0.1,0.1h0.9c0.1,0,0.3-0.1,0.5-0.1H29c0.1-0.1,0.2-0.1,0.3,0h0.1c0.3,0.1,0.5,0.1,0.8,0
	c0.1,0,0.3-0.1,0.4-0.1c0.1-0.1,0.2-0.1,0.3-0.1c0.1-0.1,0.1-0.1,0.1-0.1s0-0.1,0.1-0.1c0.1,0,0.1-0.1,0.2-0.1
	c0.1-0.1,0.1-0.1,0.1-0.1c0.1,0,0.1,0.1,0.1,0.1c0.1,0,0.1,0,0.1-0.1c0.1-0.1,0.1-0.2,0.3-0.3c0-0.1,0.1-0.1,0.1-0.1
	c0.1,0,0.1-0.1,0.1-0.1v-0.1c0.1-0.1,0.1-0.1,0.1-0.2c0.1-0.1,0.1-0.1,0.1-0.3v-0.3c0-0.1,0-0.1,0.1-0.1c0,0,0.1-0.1,0.1-0.1
	c0-0.2,0-0.3-0.1-0.5c0-0.1,0-0.1,0.1-0.3c0.1-0.1,0.1-0.3,0.1-0.3v-0.1c0-0.1,0.1-0.1,0.1-0.1c-0.1,0-0.1,0-0.1-0.1
	c0,0,0-0.1,0.1-0.1s0.1-0.1,0.1-0.1v0.3v-0.1V36C32.8,35.9,32.8,35.8,32.8,35.8z"/>
<path class="st0" d="M6.7,13.1c0.1,0,0.1,0.1,0.2,0.1H7C7,13.3,7,13.3,7,13.5s0,0.3,0.1,0.4c0.1,0,0.1,0.1,0.2,0.1
	c0.1,0.1,0.1,0.1,0.1,0.1c0.3,0.3,0.6,0.5,0.9,0.8C8.3,15,8.4,15,8.5,15C8.5,15,8.6,15,8.7,15c0.2-0.1,0.4-0.3,0.5-0.4
	c0.1-0.1,0.1-0.1,0.1-0.3c-0.1-0.2-0.3-0.3-0.4-0.5c-0.3-0.3-0.6-0.5-0.9-0.9c-0.3-0.3-0.7-0.6-0.9-0.9C7.1,12,7,12,7,12
	c-0.1-0.1-0.2-0.1-0.2-0.1c-0.1,0-0.1-0.1-0.1-0.1c-0.1,0.1-0.1,0.1-0.1,0.3v0.7L6.7,13.1C6.6,13.1,6.6,13.1,6.7,13.1z"/>
<path class="st0" d="M33,7.4c-0.1-0.1,0-0.1,0-0.1V6.6c-0.1-0.1-0.1-0.3-0.1-0.5V5.5V5V4.4V3.7c0-0.2-0.1-0.4-0.1-0.6V2.6V2V1.4
	c0-0.1-0.1-0.1-0.1-0.1c-0.1-0.1-0.3-0.3-0.3-0.5c-0.1-0.1-0.1-0.1-0.1-0.1c-0.1-0.1-0.3-0.1-0.3-0.3c-0.1-0.1-0.2-0.1-0.3-0.1
	c-0.1,0.1-0.1,0.1-0.1,0c-0.1,0-0.1-0.1-0.1-0.1c-0.1,0-0.1-0.1-0.2,0c-0.1-0.1-0.1-0.1-0.1-0.1h-0.5C30.7,0,30.5,0,30.3,0h-0.8
	h-0.7c-0.1,0-0.1,0-0.1,0.1c-0.1,0.1-0.1,0.1-0.1,0C28.6,0,28.6,0,28.6,0c-0.1,0.1-0.3,0.1-0.3,0.1l-0.1,0.1h-0.5h-0.8h-1.2h-0.8
	c-0.1,0-0.2,0.1-0.3,0.1c-0.1,0-0.1,0.1-0.1,0.1H24h-0.5H23h-0.5H22h-0.6h-0.5h-0.5h-0.8H19h-0.5h-0.5h-0.5H17h-0.5
	c-0.1,0-0.1,0-0.2-0.1c-0.1-0.1-0.1,0-0.2,0C16,0.3,16,0.3,16,0.3h-0.5c-0.1,0-0.1,0-0.1,0.1c-0.1,0-0.2,0.1-0.3,0H15h-0.6
	c-0.1,0-0.3,0-0.4,0.1c-0.1,0-0.2,0-0.3,0.1h-0.1h-0.3c-0.1,0-0.3,0-0.4-0.1c0-0.1-0.1-0.1-0.1-0.1h-0.5c-0.2,0-0.5,0-0.7,0.1h-0.2
	H11c-0.1,0-0.3,0.1-0.3,0.1h-0.1c0,0.1-0.1,0.1-0.1,0.1c-0.1-0.1-0.2-0.1-0.3-0.1c-0.3,0-0.5,0-0.7,0.1H9.4c-0.1,0-0.3,0-0.5-0.1
	H8.8c-0.1,0-0.1,0-0.1,0.1C8.7,0.5,8.6,0.5,8.5,0.5c-0.1-0.1-0.2,0-0.3,0v0.1c-0.1,0-0.1,0-0.1-0.1V0.4H8.1C8,0.5,7.9,0.5,8,0.6
	c0,0.1,0,0.1,0.1,0.1c0.1,0,0.1,0.1,0.1,0.1h0.1C8.3,0.9,8.3,1,8.3,1.1c-0.1,0-0.1,0.1-0.1,0c0,0-0.1,0-0.1-0.1c0,0,0-0.1-0.1-0.1
	c0-0.1,0-0.1-0.1-0.1H7.9v0.1C7.9,0.9,7.7,0.9,7.7,0.8C7.5,0.9,7.5,0.9,7.4,0.9C7.3,0.9,7.3,1,7.3,1.1C7.2,1.2,7.1,1.4,7,1.6
	c-0.1,0-0.1,0.1-0.1,0.1C6.8,1.9,6.8,2,6.6,2.1c0,0.1-0.1,0.1-0.1,0.2c0.1,0.1,0,0.3,0,0.5c0,0.1,0,0.1-0.1,0.1c0,0.1,0,0.2,0,0.3V4
	v0.5c0,0.1,0.1,0.1,0.1,0.1c0.1,0,0.1-0.1,0.1-0.1c0.1-0.1,0.1-0.1,0.1-0.1v0.2c0,0.1-0.1,0.1-0.1,0.1C6.6,4.6,6.6,4.6,6.6,4.6
	c-0.1,0.1,0,0.2,0,0.3c-0.1,0.1,0,0.3,0,0.4v0.3V6h0.1C6.6,6,6.6,6,6.6,6.1c-0.1,0-0.1,0-0.1,0.1v0.1v0.5v0.5v0.6v0.8V9v0.3v0.5v0.5
	V11c0,0.1,0,0.1,0.1,0.2V11h0.1c0.3,0,0.5-0.1,0.7-0.1c0.1,0,0.1-0.1,0.1-0.1c0.2,0,0.3,0.1,0.5,0.3c0.1,0.1,0.1,0.1,0.1,0.1
	c0.4,0.3,0.8,0.7,1.2,1.1c0.1,0,0.1,0.1,0.1,0.1l0.2-0.2c0.1-0.1,0.1-0.1,0.1-0.1c0.1,0,0.1-0.1,0.1-0.1c0.1,0,0.1,0,0.2,0.1
	c0.1,0,0.3,0,0.3,0.1c0.2,0.1,0.3,0.1,0.5,0.2c0.1,0.1,0.1,0.1,0.1,0.1h0.1c0.1,0,0.1,0.1,0.1,0.1c0.4,0.1,0.4,0.1,0.4,0.2
	c0.1,0.1,0.1,0.2,0.2,0.3c0.1,0.1,0.1,0.1,0.1,0.1c0.1,0.1,0.2,0.2,0.3,0.3c0.1,0.1,0.1,0.1,0.1,0.1c0,0.1,0,0.1,0.1,0.3
	c0,0.1-0.1,0.1-0.1,0.1c-0.1,0.1-0.1,0.1-0.1,0.1c-0.1,0.1-0.1,0.3,0.1,0.5l0.1-0.1c-0.1,0.1,0,0.1,0.1,0.1c0.1,0.1,0.1,0.1,0.1,0.3
	c0,0.1,0,0.1,0.1,0.1c0.1,0.1,0.2,0.1,0.3,0.1c0.1,0.1,0.2,0.2,0.3,0.3c0.1,0.1,0.1,0.1,0.2,0.2c0.1,0.1,0.3,0.1,0.3,0.3
	c0.1,0.1,0.2,0.2,0.3,0.3c0.1,0.1,0.1,0.1,0.1,0.1l0.1-0.1c0.1,0,0.1,0,0.2-0.1c0-0.1,0.1-0.1,0.1-0.1s0.1,0,0.1-0.1
	c0.1-0.1,0.1-0.1,0.2-0.1c0.1-0.1,0.1-0.2,0.2-0.3c0.1-0.1,0.1-0.1,0.2-0.1h0.4H15c0.2,0.1,0.3,0.1,0.5,0.2c0.1,0.1,0.1,0.2,0.3,0.3
	C15.8,16,15.9,16,16,16c0.1,0.1,0.1,0.1,0.1,0.1c0.1,0.1,0.1,0.1,0.1,0.2c0.1,0.1,0.3,0.1,0.4,0.3c0.1,0.1,0.1,0.1,0.1,0.1
	s0,0.3,0.1,0.4c-0.1,0.1-0.1,0.2-0.1,0.3l-0.1,0.1c-0.1,0.1-0.3,0.1-0.3,0.1c-0.1,0.1-0.3,0.1-0.3,0.1c-0.1,0.1-0.2,0.2-0.2,0.3
	c0,0.1,0.1,0.3,0.1,0.3c0.1,0.1,0.2,0.1,0.3,0.2c0.2,0.2,0.4,0.3,0.5,0.5c0,0,0,0.1,0.1,0.1c0.1,0.1,0.3,0.2,0.4,0.3l0.3,0.3
	c0,0.1,0.1,0.1,0.1,0.2c0.1,0.1,0.1,0.1,0.1,0.1c0.1,0,0.1,0.1,0.1,0.1c0.1-0.1,0.2-0.2,0.3-0.3c-0.1,0-0.1,0-0.1-0.1
	c0.1,0,0.1-0.1,0.1-0.1c0-0.1,0.1-0.1,0.1-0.1c0.1-0.1,0.1-0.1,0.2-0.1h0.1c0.1-0.1,0.1-0.1,0.3-0.1c0.1-0.1,0.1-0.1,0.2-0.3
	c0.1-0.1,0.1-0.2,0.3-0.3l0.1-0.1c0.1-0.1,0.1-0.1,0.1-0.1c0.1,0,0.2,0,0.3,0.1h0.1h0.1c0.1,0,0.2,0,0.3-0.1c0,0,0.1,0,0.1,0.1
	c0.1,0.1,0.3,0.1,0.5,0.1c0.1,0.1,0.1,0.1,0.1,0.1V19c-0.1,0.1-0.1,0.1,0,0.2c0.1,0.1,0.3,0.3,0.3,0.4c0.1,0.1,0.1,0.1,0.2,0.3
	c0.1,0.1,0.1,0.3,0.2,0.5c0,0.1,0,0.1,0.1,0.1c0,0.1,0.1,0.1,0.1,0.1c0.1,0.1,0.1,0.2-0.1,0.3c-0.1,0.1-0.2,0.1-0.3,0.2
	c-0.1,0.1-0.1,0.1-0.3,0.1c-0.1,0.1-0.3,0.1-0.3,0.1c-0.1,0-0.1,0.1-0.3,0.1c-0.1,0.1-0.3,0.1-0.3,0.3c-0.1,0.1,0,0.3,0.1,0.3
	c0.1,0.1,0.1,0.1,0.1,0.1c0.1,0.1,0.1,0.1,0.1,0.1c0.1,0.1,0.1,0.1,0.1,0.1c0.1,0.1,0.3,0.2,0.3,0.3c0.1,0.1,0.3,0.3,0.5,0.5
	l0.1,0.1l0.1,0.1c0-0.1,0.1,0,0.1,0c0.1,0.1,0.1,0.1,0.2,0.2c0.1,0.1,0.3,0.3,0.5,0.5c0.1-0.1,0.1-0.1,0.2-0.3v-0.1
	c0-0.1,0.1-0.1,0.1-0.2c0.1-0.1,0.1-0.1,0.1-0.1c0.1-0.1,0.1-0.1,0.1-0.1c0.1-0.1,0.1-0.1,0.2-0.2c0.1-0.1,0.1-0.1,0.1-0.1
	c0.1,0,0.1-0.1,0.1-0.1c0.1,0,0.1,0,0.1-0.1h0.1c0.1-0.1,0.1-0.1,0.2-0.2c0.1-0.1,0.1-0.1,0.2-0.3c0.1-0.1,0.1-0.1,0.2-0.1
	c0,0,0.1-0.1,0.1-0.1c0.1-0.1,0.1-0.1,0.1-0.1c0.1-0.1,0.1-0.1,0.2-0.2c0.1-0.1,0.3-0.1,0.4-0.1c0.1,0.1,0.3,0.1,0.3,0.1
	c0,0,0,0.1,0.1,0.1C25,22,25,22,25.1,22.1c0.1,0.1,0.1,0.1,0.3,0.2c0,0.1,0.1,0.1,0.1,0.1c0.1,0.1,0.1,0.1,0.1,0.1
	c0.1,0.1,0.1,0.1,0,0.1c-0.1,0-0.1,0.1,0,0.1c0.1,0.1,0.2,0.3,0.3,0.3c0.1,0.1,0.1,0.1,0.2,0.2c0.1,0.2,0.1,0.3,0.1,0.5
	c0,0.1,0.1,0.1,0.1,0.2c0.1,0.1,0.1,0.2,0.1,0.3c0,0.1-0.1,0.2-0.3,0.3c-0.2,0.1-0.3,0.2-0.5,0.3C25.3,25,25.1,25,25,25.2l-0.1,0.1
	c-0.1,0.1-0.1,0.1-0.1,0.1c-0.1,0-0.2,0.1-0.3,0.1c-0.1,0-0.1,0.1-0.1,0.1c-0.1,0.1-0.1,0.3-0.1,0.5c0.1,0.1,0.1,0.1,0,0.1
	c0.1,0.1,0.1,0.1,0.3,0.3l0.1,0.1c0.1,0.1,0.2,0.2,0.3,0.3c0.1,0.1,0.1,0.1,0.1,0.1c0.1,0.1,0.2,0.2,0.3,0.3
	c0.1,0.1,0.2,0.1,0.3,0.3h0.1h0.5h0.7h0.7c0.1,0,0.1,0,0.1-0.1h0.2h0.7c0.1,0,0.2,0,0.3-0.1v-0.1c0.1-0.1,0.1-0.3,0.2-0.5
	c0-0.1,0-0.1,0.1-0.1c0.1-0.2,0-0.4,0-0.6v-0.1c-0.1-0.1-0.1-0.3-0.2-0.5c-0.1-0.1-0.1-0.3,0-0.3V25c-0.1-0.1-0.1-0.1-0.1-0.1
	c0-0.1,0-0.3,0.1-0.3c0-0.1,0.1-0.3,0.1-0.5C29,24,29,24,29.1,23.9c0.1-0.1,0.1-0.1,0.1-0.1c0.1-0.1,0.2-0.1,0.3-0.2
	c0-0.1,0-0.1,0.1-0.1l0.1-0.1c0.1-0.1,0.1-0.1,0.1-0.1h0.2c0.1,0,0.3,0,0.4,0.1h0.1c0.1,0,0.2-0.1,0.3-0.1c0.1-0.1,0.3-0.1,0.5-0.1
	c0.1,0,0.1,0.1,0.1,0h0.1c0.1-0.1,0.1-0.1,0.1-0.2c0.1,0,0.1-0.1,0.2,0c0.1,0,0.1,0,0.1,0.1c0.1,0,0.1,0.1,0.1,0.1v0.2
	c0,0.1-0.1,0.3-0.1,0.3v0.1v0.5v0.1v0.2v0.1V25l0.1,0.6c0.1,0.1,0.1,0.3,0.1,0.4c0.1,0.1,0.1,0.2,0.1,0.3c0.1,0,0.1-0.1,0.1-0.1
	c-0.1-0.2,0.1-0.9,0.1-1.1v-0.5c0-0.2-0.1-0.4-0.1-0.6v-0.5v-0.5c0-0.2,0.1-0.4,0.1-0.6v-0.5v-0.6v-0.5v-0.6
	C32,19.8,32,19.6,32,19.4v-0.7v-0.5v-0.5c0-0.2,0.1-0.3,0.1-0.5v-0.5C32,16.4,32,16.3,32,16.1v-0.5v-0.4v-0.5v-0.6
	c0-0.3-0.1-0.5-0.1-0.7v-0.7v-0.5V12c0.8-0.1,0.8-0.1,0.8-0.2c0-1.3,0.1-2.7,0.1-4C33,7.6,33,7.5,33,7.4z M13.6,10.2
	c0,0.1-0.1,0.3,0,0.4c0,0.1,0,0.1-0.1,0.1c-0.1,0.1-0.1,0.2-0.1,0.3c-0.1,0-0.1,0.1-0.1,0.1c-0.1,0.1-0.1,0.1-0.1,0.1
	c-0.1,0.1-0.1,0.1-0.1,0.2c-0.1,0.1-0.1,0.1-0.1,0.3c-0.1,0.1-0.1,0.2-0.2,0.3h-0.1l-0.1,0.1c0,0.1-0.1,0.1-0.1,0.1h-0.1
	c-0.1,0-0.2,0-0.3-0.1c0-0.1-0.1-0.1-0.1-0.1c-0.2-0.1-0.3-0.1-0.3-0.3c0-0.1-0.1-0.1-0.1-0.1c-0.1-0.1-0.1-0.2-0.2-0.3
	c-0.1-0.1-0.1-0.1-0.1-0.1C11.4,11,11.4,11,11.4,11v-0.1c-0.1-0.1-0.1-0.3-0.2-0.4l-0.1-0.1v-0.1c0-0.1,0-0.1-0.1-0.2
	c0-0.1,0-0.1-0.1-0.2c-0.1,0-0.1-0.1-0.1-0.1c0.1-0.1-0.1-0.2-0.1-0.3c-0.1-0.1-0.1-0.1-0.1-0.2c0,0,0-0.1-0.1-0.1
	c-0.1-0.1-0.1-0.1,0.1-0.3c0.1-0.1,0.1-0.1,0.1-0.2c0-0.1,0.1-0.1,0.1-0.2H11c0.1,0.1,0.1,0.1,0.3,0.1h0.1h0.1
	c0.1,0,0.1,0.1,0.2,0.1l0.3,0.1C11.9,8.9,12,9,12.1,9c0.1,0.1,0.1,0.1,0.2,0.1h0.2h0.1c0.1,0.1,0.1,0.1,0.3,0.1v0.1
	c0.1,0.1,0.1,0.2,0.3,0.1c0.1,0,0.1,0,0.2,0.1c0.1,0.1,0.1,0.2,0.1,0.3c0,0.1,0,0.2,0.1,0.3c0,0.1,0.1,0.1,0.1,0.1v0.1H13.6z
	 M19.8,13.7c-0.1,0.1-0.2,0.1-0.2,0.3c0,0.1-0.1,0.1-0.1,0.1c0,0.1-0.1,0.1,0,0.2c0.1,0.2,0,0.3-0.1,0.4c-0.1,0.1-0.1,0.1-0.1,0.1
	c-0.1,0.1-0.1,0.2-0.2,0.3C19,15.2,19,15.3,19,15.4c0,0.1,0,0.1-0.1,0.1c0,0.1-0.1,0.1-0.2,0.1c-0.1,0-0.1,0-0.2,0.1h-0.1
	c-0.1-0.1-0.2,0-0.3-0.1h-0.1h-0.1h-0.2c0-0.1-0.1-0.1-0.1-0.1c-0.1-0.1-0.1-0.1-0.3-0.1c-0.1,0-0.1-0.1-0.3-0.1
	c0-0.1,0-0.1-0.1-0.1c0-0.1-0.1-0.1-0.1-0.1C17.1,15,17,15,16.9,14.9c-0.1-0.1-0.1-0.2-0.1-0.3v-0.1v-0.1c0-0.1,0-0.1-0.1-0.1
	c0-0.1-0.1-0.1,0-0.1v-0.3h-0.1c-0.1-0.1-0.1-0.1-0.1-0.2c0-0.1,0-0.1-0.1-0.3c0-0.1,0-0.1,0.1-0.2c0-0.1-0.1-0.2,0-0.3
	c-0.1-0.1,0-0.3,0.1-0.4c0-0.1,0-0.1-0.1-0.2c0-0.1-0.1-0.1-0.1-0.1c0-0.1,0.1-0.2,0.1-0.2c0.1-0.1,0.1-0.1,0.1-0.1S16.9,12,17,12
	v0.1c0.1,0,0.1-0.1,0.1,0c0.1,0.1,0.1,0.1,0.1,0.1c0.1-0.1,0.1,0,0.1,0.1l0.1,0.1c0.1,0,0.1,0,0.2,0.1c0.1,0.1,0.1,0.1,0.1,0.1
	c0.1-0.1,0.2,0,0.3,0.1c0.1,0.1,0.2,0.1,0.3,0.1s0.1,0,0.1,0.1c0.1,0,0.3,0.1,0.3,0.1c0,0.1,0.1,0.1,0.2,0.1h0.1
	c0.1,0,0.1,0.1,0.1,0.1l0.3,0.3c0.1,0,0.1,0.1,0.1,0.1c0.1-0.1,0.1-0.1,0.1,0c0.1,0.1,0.1,0.1,0.1,0.3
	C19.7,13.6,19.7,13.6,19.8,13.7z M25.2,17.9c0,0.1-0.1,0.1-0.1,0.1c-0.1,0-0.1,0.1-0.1,0.1h-0.2c-0.1,0.1-0.1,0.1-0.2,0.1
	c-0.1,0-0.1,0.1-0.2,0.1c-0.1,0.1-0.3,0.1-0.4,0.1c-0.2,0.1-0.3,0.1-0.4,0.4c-0.1,0.1-0.1,0.1-0.1,0.1c-0.1,0-0.1,0-0.1,0.1
	c-0.1,0.1-0.1,0.1-0.1,0.1c-0.1,0.1-0.1,0.1-0.1,0.1c-0.1,0.1-0.1,0.1-0.1,0.1c-0.1,0-0.1-0.1-0.2-0.1c-0.1-0.1-0.2-0.1-0.3-0.2
	h-0.1C22.7,19,22.7,19,22.7,19c-0.1-0.1-0.1-0.3-0.1-0.3c-0.1-0.1-0.1-0.1-0.1-0.1c-0.1-0.1-0.1-0.1-0.1-0.1
	c-0.1-0.1-0.1-0.1-0.2-0.3c0-0.1,0-0.1-0.1-0.1c0-0.1-0.1-0.1,0-0.1c0-0.1-0.1-0.1-0.1-0.1c-0.1-0.1-0.1-0.3-0.3-0.5
	c0-0.1,0-0.1,0.1-0.1c-0.1-0.1-0.1-0.2-0.1-0.3c0-0.1-0.1-0.1,0-0.1c0-0.1,0-0.1-0.1-0.1c-0.1-0.1-0.1-0.2-0.1-0.3
	c0-0.1,0-0.2-0.1-0.3c-0.1-0.1-0.1-0.2-0.1-0.3c0.1,0,0.1-0.1,0.2-0.1c0.1,0,0.3,0,0.3,0.1c0.2,0.1,0.4,0.1,0.6,0.1
	c0.1,0,0.1-0.1,0.1-0.1c0.1-0.1,0.1-0.1,0.3,0h-0.1c0.1,0,0.1,0.1,0.2,0.1c0.1,0.1,0.1,0.1,0.1,0.1c0.1,0,0.1,0,0.1,0.1
	c0,0.1,0.1,0.1,0.1,0.1c0.1,0.1,0.2,0.1,0.3,0.1l0.1,0.1c0.1,0.1,0.1,0.1,0.2,0.1h0.1l0.4,0.3c0,0.1-0.1,0.1-0.1,0.1
	c0.1,0.1,0.1,0.1,0.2,0.1c0.1,0,0.1,0,0.1,0.1c0.1,0.1,0.1,0.1,0.1,0.1c0,0.1,0,0.2,0.1,0.3C25.1,17.3,25.1,17.5,25.2,17.9z
	 M30.4,21.5v0.1c0,0.1-0.1,0.1-0.1,0.2c-0.1,0.1-0.1,0.1-0.1,0.1c-0.1,0.1-0.1,0.1-0.1,0.3c-0.1,0.1-0.1,0.3-0.1,0.5
	c0,0.1-0.1,0.2-0.1,0.3c-0.1,0.1-0.1,0.1-0.3,0.1c-0.1-0.1-0.1-0.1-0.3-0.1c-0.1-0.1-0.1-0.1-0.3,0C29.1,23,29,23,28.9,23
	c-0.1,0.1-0.2,0.1-0.3,0.1c-0.1,0.1-0.3,0.1-0.5,0.1c-0.1-0.1-0.3,0-0.4-0.1C27.6,23,27.6,23,27.5,23c-0.1,0-0.2,0-0.3-0.1h-0.1
	c-0.1-0.1-0.1-0.1-0.2-0.2c-0.1-0.1-0.1-0.1-0.1-0.1c0,0-0.1-0.1-0.1-0.1c-0.1-0.1-0.1-0.1-0.1-0.2c0-0.1,0-0.3-0.1-0.4
	c0,0,0.1-0.1,0.1-0.1c-0.1-0.1,0.1-0.3-0.1-0.3c-0.1,0-0.1-0.1-0.1-0.1c0.1-0.1,0-0.1,0-0.2c-0.1-0.1-0.1-0.1,0-0.2
	c0.1-0.1,0.1-0.1,0.1-0.3c0-0.1,0-0.1,0.1-0.1v-0.1c0-0.1,0.1-0.1,0.1-0.3v-0.3c-0.1-0.1-0.1-0.3-0.1-0.4v-0.2
	c0.1-0.1,0.1-0.2,0.3-0.3c0.1,0.1,0.1,0.1,0.2,0.1c0.1,0.1,0.3,0.1,0.5,0.1c0.1,0,0.1,0,0.2,0.1c0.1,0.1,0.1,0.1,0.1,0.1
	c0.1,0.1,0.2,0.1,0.3,0.1c0.1,0.1,0.2,0.1,0.3,0.1c0.1,0,0.1,0,0.1,0.1c0.1,0.1,0.2,0.1,0.3,0.1c0.1,0,0.1,0.1,0.1,0.1
	C29,19.9,29,20,29.2,20c0,0,0.1,0,0.1,0.1c0.1,0.1,0.1,0.1,0.2,0.2c0.1,0.1,0.1,0.1,0.3,0.2c0.1,0.1,0.3,0.1,0.4,0.3h0.1
	c0.1,0.1,0.1,0.1,0.1,0.3c0,0.1,0.1,0.1,0.1,0.1c0,0.1,0.1,0.1,0.1,0.1c0.1,0.1,0.1,0.1,0.1,0.3C30.5,21.3,30.5,21.4,30.4,21.5z"/>
</svg>
