<?xml version="1.0" encoding="utf-8"?>
<!-- Generator: Adobe Illustrator 25.2.3, SVG Export Plug-In . SVG Version: 6.00 Build 0)  -->
<svg version="1.1" id="Layer_1" xmlns="http://www.w3.org/2000/svg" xmlns:xlink="http://www.w3.org/1999/xlink" x="0px" y="0px"
	 viewBox="0 0 40 40" style="enable-background:new 0 0 40 40;" xml:space="preserve">
<style type="text/css">
	.st0{fill:#D50032;}
</style>
<path class="st0" d="M8.5,1.2C8.5,1.2,8.5,1.2,8.5,1.2l0.1-0.1C8.6,1,8.6,1,8.6,1V0.9c0.1-0.1,0.1-0.1,0.3-0.1C9,0.8,9,0.8,9,0.9
	c0-0.1,0.1-0.1,0.1-0.1c0-0.1,0.1-0.1,0.1-0.1c-0.1,0,0.1,0,0.1-0.1h0.1h0.1c0.1,0,0.2,0.1,0.2,0c0.1-0.1,0.1,0,0.3,0
	c0,0,0.1,0.1,0.1,0.1c0-0.1,0.1-0.1,0.3-0.1V0.5l0.1-0.1h0.2c0.1-0.1,0.1-0.1,0.1-0.1h0.3v0.1c0,0,0.1,0,0.1-0.1h0.5h0.1
	c0.1,0,0.1,0.1,0.3,0h0.4v0.1c0.1-0.1,0.1-0.1,0.2-0.1s0.1,0,0.1-0.1c0.1,0.1,0.1,0.1,0.1,0.1h0.1C13,0.4,13,0.4,13,0.3h0.1
	c0,0.1,0.1,0.1,0.1,0.1c0.1,0.1,0.1,0.1,0.1,0.2c-0.1,0.1,0,0.3,0.1,0.3c0.1,0.1,0.1,0,0.1,0c0-0.1-0.1-0.1-0.1-0.1s-0.1-0.1,0-0.1
	V0.3h0.1h0.1c0,0.1,0,0.1,0.1,0.1c0.1-0.1,0-0.1,0.1-0.1H14c0.1,0,0.3,0,0.5-0.1l0.1,0.1c0.1-0.1,0.2-0.1,0.3-0.1
	c0.1,0.1,0.1,0.1,0.2,0.1c0.1-0.1,0.1-0.1,0.2,0c0.1,0,0.1,0,0.1-0.1h0.1h0.1c0.1,0.1,0.2,0.1,0.3,0.1c0.1-0.1,0.1-0.1,0.2-0.1
	C16,0.2,16,0.3,16,0.3s0.1,0,0.1-0.1c0,0,0.1-0.1,0.1,0h0.1h0.1c0.1-0.1,0.1-0.1,0.1-0.1c0.1,0.1,0.2,0.1,0.3,0.1h0.1
	C17,0.1,17,0.2,17.2,0.1c0,0.1-0.1,0.1-0.1,0.1h0.3h0.1h0.3h0.1h0.2C18,0.3,18,0.4,18,0.3c0.1,0,0.1,0.1,0.1,0.1h0.2
	c0-0.1,0.1,0,0.1,0h0.3c0.1-0.1,0.1-0.1,0.2,0h0.1c0.1,0,0.1-0.1,0.2-0.1c0.1,0,0.1,0,0.3,0.1V0.3V0.3h0.2c0,0,0.1,0.1,0.1,0
	c0.1,0.1,0.1,0,0.3-0.1C20,0.2,20,0.3,20,0.3C20,0.2,20,0.2,20,0.1c0.1-0.1,0.1-0.1,0.1,0c0,0,0.1,0,0.1,0.1v0.1
	c0.1,0.1,0.1,0.1,0.2,0.1c0,0,0-0.1-0.1-0.1h0.1c0.1,0.1,0.1,0.1,0.2,0.1c0.1-0.1-0.1-0.1,0-0.1c0.1,0.1,0.1,0.1,0.1,0.1
	c0.1,0.1,0.1,0.1,0.1,0.1c0-0.1,0.1-0.1,0.1-0.1c0.1-0.1,0.1-0.1,0.2,0.1h0.1c0.1-0.1,0.1,0,0.2,0c0.1,0,0.1,0.1,0.1,0.1
	s0,0.1,0.1,0.1c0.1-0.1,0.1-0.1,0.3-0.1H22h0.2c0.1,0,0.1,0,0.3-0.1h0.1c0.1,0.1,0.1,0.1,0.2,0.1s0.2,0.1,0.3,0.1
	c0.1,0,0.2,0,0.3-0.1c0.1,0,0.1,0,0.3,0.1h0.3H24h0.1c0,0.1,0.1,0.1,0.1,0.1c0.1,0,0.1,0,0.1,0.1l0.1-0.1c0-0.1,0.1-0.1,0.1-0.1h0.1
	c0.1,0,0.1-0.1,0.1-0.1c0.1,0.1,0.1,0,0.1,0c0-0.1,0.1-0.1,0.1-0.1c0.1,0.1,0.1,0,0.1,0c0.1-0.1,0.1-0.1,0.1,0
	c0.1-0.1,0.1-0.1,0.3,0c0.1-0.1,0.2-0.1,0.3,0c0.1,0.1,0.1,0,0.1,0c-0.1-0.1-0.1-0.1,0-0.1c0.1,0,0.1-0.1,0.1-0.1
	c0.1,0,0.1,0,0.1,0.1c0.1,0.1,0.1,0.1,0.3,0.1c0.1-0.1,0.1-0.1,0.1,0v0.1c0.1,0.1,0.1,0.1,0.1,0c0,0,0.1-0.1,0.1,0
	c0.1,0,0.1-0.1,0.2-0.1c0.1-0.1,0.1-0.1,0.1,0.1c0.1,0,0.1-0.1,0.1-0.1h0.1C27,0.3,27,0.3,27,0.3c0,0,0.1,0,0.1,0.1h0.1
	c0.1,0,0.1,0.1,0.1,0.1c0.1-0.1,0.1-0.1,0.3-0.1l0.1,0.1h0.1c0.1,0,0.2-0.1,0.3-0.1c0.1,0,0.1,0.1,0.1,0.1h0.1
	c0.1,0.1,0.1,0.1,0.3-0.1c0,0,0.1,0,0.1,0.1c0.1,0.1,0.1,0.1,0.1,0.1c0-0.1,0.1-0.1,0.1-0.1h0.4c0.1,0,0.1,0.1,0.3,0.1
	c0.1-0.1,0.1,0,0.1,0h0.1c0.1,0.1,0.1,0.1,0.1,0l0.1-0.1c0,0.1,0,0.1,0.1,0.1c0,0.1,0.1,0.1,0.1,0c0.1,0,0.2,0,0.3,0.1
	c0,0,0.1,0,0.1,0.1c0.1-0.1,0.1-0.1,0.1,0.1c0.2,0,0.3,0.1,0.5,0.1c0.1,0,0.1,0.1,0.1,0.1c0.1,0,0.1,0.1,0.1,0.1
	c-0.1,0.1-0.1,0.2,0,0.3h0.1V1c0.1,0.1,0.1,0.1,0.1,0.2c0.1,0.1,0.1,0.2,0.1,0.3c0,0.1,0,0.1,0.1,0.1c0.1,0,0.1,0.1,0.1,0.1
	c0,0.1,0,0.2,0.1,0.3c0,0.1,0,0.1,0.1,0.1C32,2.3,32,2.3,32.1,2.4l0.1,0.1c0,0.1,0,0.1,0.1,0.1c0.1,0.1,0.1,0.1,0.1,0.3h0.1
	c-0.1,0.1,0.1,0.2,0.1,0.3c0.1,0.1,0.1,0.1,0.1,0.2s0,0.3,0.1,0.3c0.1,0.1,0.1,0.1,0,0.1v0.3c0.1,0.1,0,0.1,0,0.3v0.1
	c-0.1,0.1-0.1,0.1-0.1,0.1h0.1c0,0.1,0,0.1-0.1,0.2v0.4c0,0.1,0.1,0.1,0.1,0.2v0.3c0,0.1-0.1,0.1-0.1,0.1c-0.1,0.1-0.1,0.1,0,0.1
	c0,0.1,0,0.1-0.1,0.1V6c0.1,0.1,0,0.3-0.1,0.3v0.3v0.1h-0.1V6.5c0,0.1,0,0.1,0.1,0.1c0.1,0.1,0.1,0.1,0.1,0.2v0.1V7
	c0.1,0,0.1,0.1,0.1,0.2c-0.1,0.1,0,0.1,0,0.2v1.3v0.1c0,0,0.1,0,0.1,0.1V9c0,0.1,0.1,0.3,0,0.5v0.3V10v0.2v0.6c0,0.1,0,0.1-0.1,0.1
	c-0.1,0.1-0.2,0.3-0.1,0.6c0,0.1-0.1,0.1-0.1,0.2v0.1v0.1v0.6v0.1v0.1v0.6v-0.1v0.1v0.6v0.1v0.1v0.6v0.1v0.1v0.6v0.1v0.1v0.6v0.1
	v0.1c0,0.2,0.1,0.3,0.1,0.5c0.1,0.1,0.1,0.1,0.1,0.3v0.3c0,0.2,0,0.4-0.1,0.6c0,0.1,0.1,0.1,0.1,0.1v0.7V19c0,0.2,0,0.4-0.1,0.6
	c0,0,0.1,0.1,0.1,0.1V20v0.3v0.2v0.1c0.1,0.1,0.1,0.3,0.1,0.5v0.5v0.1v0.3V22v0.5v0.1v0.3v0.3v0.1v0.5v0.1c0.1,0.1,0.1,0.1,0.1,0.1
	v4.2v0.1c-0.3-0.1-0.3-0.1-0.3-0.1v0.1h0.2v0.6c-0.1,0-0.1,0-0.2,0.1c0-0.1-0.1-0.1-0.1-0.1c-0.1-0.1-0.1-0.1-0.1,0
	c0,0.1-0.1,0-0.2,0c-0.1,0-0.2,0.1-0.3,0h-0.1h-0.3c-0.2,0-0.5,0.1-0.7,0h-0.3c-0.3,0-0.5,0-0.7,0h-0.4c-0.1,0.1-0.1,0.1-0.1,0.1
	C29.3,29,29.1,29,29.1,29c-0.1,0.1-0.1,0.1,0,0.1v0.1c0,0.1,0,0.2,0.1,0.3v0.1c0.1,0.1,0.1,0.3,0.1,0.5c0,0.1,0.1,0.2,0.2,0.3
	c0.1,0.1,0.3,0.1,0.5,0.1c0.3,0,0.6-0.1,0.9-0.1c0.1,0,0.2,0.1,0.3,0.1h0.1c0.2-0.1,0.4-0.1,0.6-0.1c0.1,0,0.1,0.1,0.3,0.1
	c0.1,0,0.3-0.1,0.3-0.2c0.1-0.1,0.1-0.1,0.1-0.3l0.1-0.1c0.1-0.1,0.1-0.1,0.1-0.1l0.1-0.1c0.1,0,0.1-0.1,0.1-0.1
	c0,0.1,0.1,0.1,0.1,0.1v1.5c0,0.1-0.1,0.1,0.1,0.1v0.1v0.1v6.4v0.1h-0.6c-0.1,0.1-0.1,0.2-0.1,0.3c0,0,0,0.1-0.1,0.1
	c-0.1,0-0.2,0-0.3,0.1c0,0.1-0.1,0.1-0.1,0c0,0.1,0,0.1-0.1,0.1c-0.1,0.1-0.1,0.1-0.1,0.2C31.6,39,31.6,39,31.5,39
	c-0.1,0-0.1,0-0.1,0.1c0,0.1-0.1,0.1-0.1,0.2c0-0.1-0.1-0.1-0.1-0.1l-0.1,0.1C31,39.3,31,39.4,31,39.4L31,39.5
	c-0.1,0-0.3,0.1-0.3,0.1c-0.1,0-0.3,0.1-0.3,0c-0.1,0-0.1,0.1-0.1,0.1s-0.1,0-0.1,0.1c-0.1-0.1-0.1-0.1-0.2-0.1
	c-0.1-0.1-0.1-0.1-0.1-0.3v-0.1c-0.1-0.1-0.1-0.1-0.1-0.1v-0.1c0.1-0.1,0-0.1,0-0.2c-0.1-0.1-0.1-0.1-0.1-0.2c0-0.1,0-0.1-0.1-0.1
	v-0.1c-0.1-0.1-0.1-0.1-0.3-0.1h-0.3c-0.1,0-0.1,0.1-0.2,0.1c-0.1,0-0.1,0-0.1,0.1c-0.1,0.1-0.1,0.1-0.1,0.2c-0.1,0-0.1,0-0.1,0.1
	c0,0.1,0,0.1-0.1,0.1c0-0.1-0.1-0.1-0.1-0.1C28.2,38.8,28,39,28,39.1c-0.1,0-0.1,0.1-0.1,0.1c0,0.1,0,0.1-0.1,0.1
	c-0.1,0.1-0.2,0.1-0.3,0.1c-0.1,0-0.1,0.1-0.1,0.1h-0.1h-0.1c-0.1,0-0.1,0.1-0.1,0.1c-0.1,0-0.2,0-0.3-0.1c-0.1-0.1-0.1-0.1-0.1-0.2
	c-0.1-0.1-0.2-0.1-0.3-0.1h-0.1c-0.1,0-0.1,0.1-0.2,0h-0.1c-0.1,0.1-0.1,0.1-0.2,0.3h-0.1v0.1l-0.1,0.1c-0.1,0-0.1,0-0.1,0.1
	c-0.1,0.1-0.1,0.1-0.1,0.1h-0.3h-0.1c-0.1,0.1-0.1,0.1-0.2,0h-0.1c0,0.1-0.1,0.1-0.1,0.1h-0.1c-0.1,0-0.1-0.1-0.2-0.1
	c0,0-0.1,0.1-0.1,0.1h-0.1c-0.1,0-0.1,0-0.1-0.1c-0.1,0-0.2-0.1-0.3-0.1h-0.1c-0.1-0.1-0.1-0.1-0.1-0.1c-0.1,0-0.1,0.1-0.1,0.1
	c-0.1,0.1-0.2,0.1-0.3,0.1h-0.1c-0.1-0.1-0.3,0.1-0.5,0.1h0.2c-0.1,0.1-0.1,0.1-0.1,0c-0.1,0.1-0.3,0.1-0.4,0.1
	c-0.1,0-0.3,0.1-0.4,0.1c0,0-0.1,0-0.1-0.1c-0.1-0.1-0.1-0.1-0.1,0.1c-0.1,0-0.3,0.1-0.3-0.1c-0.1,0.1-0.1,0.1-0.1,0.1
	c-0.1,0.1-0.1,0-0.1,0c-0.1-0.1-0.1-0.1-0.3-0.1c-0.1,0.1-0.1,0.1-0.2,0.1c-0.1-0.1-0.2-0.1-0.3,0.1c0,0,0-0.1-0.1-0.1
	c0,0-0.1,0-0.1,0.1c0-0.1,0-0.1-0.1-0.1c-0.1,0.1-0.1,0.1-0.3,0.1c-0.1,0-0.1,0-0.1-0.1c0-0.1-0.1-0.1-0.1,0c0,0,0,0.1,0.1,0.1
	c-0.1-0.1-0.2,0-0.3-0.1h-0.2c-0.1,0-0.1,0-0.1-0.1c-0.1,0-0.2,0-0.3,0.1h-0.1c-0.1,0-0.1-0.1-0.1-0.1c0-0.1-0.1-0.1-0.1-0.1
	c-0.1,0.1-0.1,0.1-0.1,0c-0.1-0.1-0.3-0.1-0.4,0h-0.2c-0.2,0-0.3-0.1-0.5,0h-0.3c-0.1,0-0.1,0-0.1-0.1l-0.1,0.1c0,0-0.1,0.1-0.1,0
	c-0.2,0-0.3-0.1-0.5-0.1h-0.1c-0.1,0-0.1,0.1-0.1,0.1c-0.1,0-0.1-0.1-0.1-0.1h-0.1c-0.1,0.1-0.2,0.1-0.3,0.1h-0.1
	c-0.1,0-0.1,0-0.1-0.1c-0.1,0.1-0.1,0.1-0.1,0.1c-0.1,0.1-0.3,0-0.3-0.1c-0.1,0-0.1-0.1-0.1,0h-0.3c-0.1,0-0.1,0-0.1-0.1
	c-0.1,0-0.1,0-0.1,0.1c-0.1-0.1-0.1-0.1-0.3-0.1c-0.1,0-0.3,0-0.3-0.1h-0.4c-0.1-0.1-0.1-0.1-0.2-0.1c-0.1,0-0.1-0.1-0.1-0.1
	c-0.1,0-0.1,0.1-0.1,0c-0.1-0.1-0.3,0.1-0.4,0c0-0.1,0-0.1-0.1-0.1c-0.1,0-0.1,0.1-0.1,0.1s-0.1,0-0.2,0.1h-0.1
	c0-0.1-0.1-0.1-0.1-0.1v0.1c-0.1,0-0.2,0.1-0.3-0.1l-0.1,0.1c-0.1-0.1-0.2-0.1-0.3-0.1c-0.1-0.1-0.1-0.1-0.1,0h-0.1
	c-0.1,0-0.1-0.1-0.2,0c-0.1,0-0.1-0.1-0.3-0.1c-0.1-0.1-0.3-0.1-0.5-0.1H9.6c-0.1-0.1-0.1-0.1-0.3-0.1H9.2c-0.1,0-0.1,0-0.1-0.1
	C9,39,8.9,39,8.8,39c-0.1,0.1-0.1,0.1-0.1,0.1C8.6,39,8.7,39,8.8,39c-0.1-0.1-0.1-0.1-0.1-0.1c-0.1,0.2-0.2,0.1-0.2,0
	c0,0,0-0.1-0.1-0.1c0-0.1,0-0.1-0.1-0.1c0-0.1-0.1-0.1-0.1-0.1s0-0.1-0.1-0.1v-0.1c0-0.1,0-0.1-0.1-0.1H8V38L7.9,38
	c-0.1,0-0.1,0-0.1-0.1c0,0,0-0.1-0.1-0.1c-0.1-0.1-0.1-0.1-0.1-0.1c0-0.1-0.1-0.1-0.1-0.1v-0.3v-0.1c0-0.1-0.1-0.3,0-0.4v-0.1H7.4
	v-0.1c0-1.9,0-3.7-0.1-5.6v-0.1c0.1-0.1,0-0.1,0-0.1v-0.2c0-0.1-0.1-0.3-0.1-0.5v-0.1c-0.1-0.1-0.1-0.1,0-0.2
	c0.1-0.1,0.1-0.3,0.1-0.4v-0.1V29c0.1,0.1,0.3,0.1,0.3,0.1c0.1,0,0.1,0,0.3,0.1c0.1,0.1,0.1,0.1,0.2,0.1h0.1h0.2
	c0.1,0,0.1,0,0.1-0.1c0.1-0.1,0.1-0.1,0.2-0.2C8.9,29,9,28.9,9,28.9h0.3h0.4l0.1-0.1c0.1,0.1,0.3,0,0.3-0.1c0,0,0.1,0,0.1-0.1h0.1
	c0.1,0,0.1-0.1,0.2,0c0.1,0.1,0.3,0.1,0.5,0.1h0.1c0.1-0.1,0.1-0.1,0.3-0.1c0-0.1,0.1-0.1,0.1-0.1h0.2c0.1-0.1,0.1-0.1,0.3-0.1
	c0.1,0.1,0.1,0.1,0.2,0.1h0.1c0.1-0.1,0.1-0.1,0.3-0.1c0.1,0,0.1,0,0.1-0.1c0.1,0,0.2,0,0.3-0.1c0.1-0.1,0.2-0.1,0.3-0.1
	c0.1,0,0.2-0.1,0.3-0.1c0.1-0.1,0.1-0.1,0.2-0.1c0.1-0.1,0.1-0.1,0.3-0.1c0.1-0.1,0.2-0.1,0.3-0.1c0.1,0,0.2,0,0.3,0.1
	c0.1,0,0.1,0.1,0.1,0c0.1,0,0.1-0.1,0.1-0.1c0-0.1,0.1-0.1,0.1-0.2c0.1-0.1,0.2-0.1,0.3-0.1c0.1,0,0.1,0,0.3-0.1
	c0.1-0.1,0.2-0.1,0.3-0.1c0.1-0.1,0.1-0.1,0.3-0.1c0.1,0,0.2-0.1,0.3-0.1c0.1-0.1,0.1-0.1,0.3-0.1c0.1,0,0.1-0.1,0.2-0.1
	c0.1-0.1,0.1-0.1,0.1-0.1c0.1,0,0.1-0.1,0.2-0.1c0.1-0.1,0.1-0.1,0.3-0.1c0.1,0,0.1,0,0.1-0.1c0.1,0,0.2-0.1,0.3-0.1
	c0.1-0.1,0.1-0.1,0.1-0.1c0.1-0.1,0.3-0.1,0.4-0.3c0.1-0.1,0.2-0.1,0.3-0.1c0.1-0.1,0.1-0.1,0.1-0.1c0.1-0.1,0.1-0.1,0.3-0.1
	c0.1-0.1,0.2-0.1,0.3-0.1c0.1,0,0.1-0.1,0.1-0.1c0.1-0.1,0.3-0.1,0.4-0.3c0.1,0,0.1-0.1,0.3-0.1c0-0.1,0.1-0.1,0.1,0
	c0.1,0.1,0.3,0.1,0.3,0.1c0.1,0,0.1,0,0.1,0.1v0.1c0.1,0,0.1,0.1,0.3,0.1c0.1,0.1,0.1,0.1,0.2,0.1H21l0.1,0.1c0,0.1,0.1,0.1,0.1,0.1
	c0.1,0,0.3,0.1,0.3,0.1c0.1,0.1,0.3,0.1,0.3,0.3c0.1,0,0.1,0,0.1,0.1c0.1,0,0.2,0.1,0.3,0.2v0.5c-0.1,0.1-0.1,0.1-0.2,0.1h-0.5h-0.4
	H21h-0.1h-0.5h-0.1c-0.1-0.1-0.1,0-0.3-0.1h-0.2c-0.1-0.1-0.1,0-0.2,0h-0.3h-0.3c-0.2,0-0.3,0.1-0.5,0.1c-0.1,0.1-0.1,0.1-0.2,0.1
	c-0.1,0-0.1,0.1-0.1,0.1c0,0,0,0.1-0.1,0.1c-0.1,0.1-0.3,0.3-0.3,0.5c-0.1,0.1-0.1,0.2-0.3,0.1L17.4,28c-0.1,0.1-0.1,0.1-0.1,0.2
	c0,0.1-0.1,0.2,0,0.3c0,0.1,0.1,0.1,0.1,0.3c0.1,0.1,0.1,0.1,0.2,0.3c0,0.1,0.1,0.1,0.1,0.1c0.1,0.1,0.1,0.1,0.1,0.1
	c0.1,0.1,0.1,0.1,0.1,0.1c0.1,0.1,0.1,0.1,0.2,0.2c0.1,0.1,0.1,0.1,0.1,0.1v0.1c0.3,0.2,0.5,0.4,0.8,0.5c0.1,0.1,0.3,0.2,0.3,0.3
	c0,0.1,0.1,0.1,0.1,0.1c0,0.1,0.1,0.1,0.1,0.1c0.1,0,0.1,0,0.1,0.1c0.1,0.1,0.1,0.1,0.1,0.1c0.2,0,0.4,0.1,0.5,0.1
	c0.1,0.1,0.1,0.1,0.1,0.1c0.1,0,0.1,0.1,0.3,0.1c0.1,0.1,0.1,0.1,0.1,0.1c0.1,0,0.1,0.1,0.2,0.1c0.1-0.1,0-0.3-0.1-0.4
	c-0.1-0.1-0.1-0.1-0.1-0.2c0-0.1-0.1-0.1-0.1-0.1c-0.1-0.1-0.1-0.1-0.1-0.3c0-0.1,0.1-0.3,0.3-0.3c0.1-0.1,0.1-0.1,0.1-0.1h0.1h0.1
	c0.1,0,0.2-0.1,0.3,0h0.3h0.7c0.1,0,0.3-0.1,0.3-0.1s0.1,0.1,0.1,0.1c0.1,0.1,0.3,0.1,0.5,0.1c0.1,0.1,0.1,0.1,0.2,0.1
	c0.1,0.1,0.3,0.1,0.4,0.1c0.3,0.1,0.5,0,0.8,0c0.2,0,0.4,0.1,0.6,0.1c0.2,0,0.4-0.1,0.6-0.1c0.1-0.1,0.1-0.1,0.1-0.1
	c0.1-0.1,0.3-0.2,0.3-0.3c0.1,0,0.1-0.1,0.1-0.1v-0.5v-0.1c-0.1-0.1-0.1-0.3,0.1-0.5c0.1-0.1,0-0.2,0-0.3c0-0.1-0.1-0.1-0.1-0.1
	c0-0.1,0-0.3-0.1-0.4V28c-0.1-0.1-0.1-0.1-0.2-0.3c-0.1,0-0.1-0.1-0.1-0.1c-0.1-0.1-0.1-0.1-0.3-0.1c-0.1,0-0.1,0-0.1-0.1
	c-0.1-0.1-0.3-0.1-0.4-0.1c-0.1-0.1-0.1-0.1-0.1-0.1c-0.1,0.1-0.2,0-0.3-0.1L24.7,27c-0.1,0-0.3-0.1-0.5-0.1c-0.1,0-0.1-0.1-0.2-0.1
	c-0.1-0.1-0.1-0.1-0.3-0.1c-0.1,0-0.1,0-0.1-0.1c-0.1-0.1-0.2-0.1-0.3-0.1c-0.1-0.1-0.1-0.1-0.3-0.1c-0.1,0-0.1-0.1-0.3-0.1
	c-0.1-0.1-0.3-0.1-0.4-0.1c-0.1,0-0.1,0-0.1-0.1c-0.1-0.1-0.3-0.1-0.4-0.2c-0.1-0.1-0.3-0.1-0.3-0.1c-0.1-0.1-0.3-0.1-0.5-0.3H21
	c-0.1,0-0.1-0.1-0.2-0.1c-0.1,0-0.1-0.1-0.3-0.1l-0.1-0.1c-0.1-0.1-0.1-0.1,0-0.1l0.1-0.1c0.2-0.1,0.3-0.1,0.5-0.3l0.3-0.1
	c0.1-0.1,0.1-0.1,0.1-0.1c0.1-0.1,0.1-0.1,0.2-0.1c0.1-0.1,0.3-0.1,0.5-0.3c0.1-0.1,0.2,0,0.3,0.1c0.1,0.1,0.3,0.3,0.5,0.3
	c0.2,0.1,0.3,0.3,0.5,0.4c0.4,0.3,0.8,0.5,1.2,0.9c0.3,0.3,0.7,0.5,1,0.7c0.2,0.1,0.5,0.3,0.7,0.5c0.2,0.1,0.3,0.3,0.5,0.3
	c0.1,0.1,0.3,0.3,0.4,0.3c0.1,0.1,0.3,0.3,0.5,0.4l0.1,0.1h0.1c0.1,0,0.1,0,0.3-0.1c0.1-0.1,0.2-0.1,0.3-0.1
	c0.1-0.1,0.2-0.1,0.3-0.2c0.1-0.1,0.3-0.2,0.3-0.3c0.1-0.1,0.3-0.3,0.3-0.4c0.1-0.1,0.1-0.1,0.3-0.2c0.1,0,0.1,0,0.1-0.1
	c0.1-0.1,0.1-0.1,0.1-0.1c0.1-0.1,0.1-0.1,0.1-0.2c0.1-0.1,0.1-0.1,0.1-0.1l0.1-0.1h0.1c0.1,0,0.1-0.1,0.1-0.1
	c-0.1-0.1-0.1-0.1,0-0.1c0-0.1-0.1-0.1-0.1-0.1c-0.1,0-0.1-0.1-0.1-0.1C30,25.7,30,25.7,30,25.7c-0.1-0.1-0.1-0.1-0.2-0.1
	c0-0.1-0.1-0.1-0.1-0.1c0.1-0.1,0-0.1-0.1-0.1c0,0-0.1,0-0.1-0.1c-0.1-0.1-0.2-0.1-0.3-0.1c-0.1-0.1-0.3-0.1-0.3-0.2
	c-0.3-0.1-0.5-0.3-0.7-0.4c-0.1-0.1-0.2-0.1-0.3-0.3c-0.2-0.2-0.4-0.3-0.7-0.5c-0.1-0.1-0.2-0.2-0.3-0.3c-0.3-0.2-0.5-0.4-0.7-0.6
	c-0.3-0.3-0.6-0.5-0.9-0.8l-0.1-0.1c-0.1-0.1-0.2-0.3-0.3-0.3c-0.1-0.1-0.2-0.1-0.3-0.3c-0.1-0.1-0.3-0.3-0.5-0.4
	c-0.1-0.1-0.2-0.2-0.3-0.3c-0.1-0.1-0.1-0.1-0.1-0.1c-0.1-0.2-0.3-0.3-0.5-0.5C23.1,20,23,20,22.9,20h-0.5h-0.5c0,0-0.1,0-0.1,0.1
	c-0.1,0-0.1,0.1-0.2,0.1c-0.1,0.1-0.3,0.1-0.4,0.3c-0.1,0.1-0.2,0.1-0.3,0.3c-0.1,0.1-0.1,0.1-0.3,0.2c-0.1,0.1-0.1,0.1-0.1,0.1
	c-0.1,0.1-0.1,0.1-0.3,0.3c-0.1,0.1-0.1,0.1-0.2,0.2c-0.1,0.1-0.2,0.2-0.3,0.3c-0.1,0.1-0.2,0.2-0.3,0.3c-0.2,0.1-0.3,0.3-0.5,0.3
	c-0.1,0.1-0.3,0.2-0.5,0.3c0,0-0.1,0-0.1,0.1c-0.1,0-0.1,0.1-0.3,0.1c-0.1,0.1-0.3,0.1-0.4,0.1c-0.1,0.1-0.3,0.2-0.5,0.2
	c-0.1,0-0.1,0-0.1,0.1c-0.1,0.1-0.2,0.1-0.3,0c0-0.1-0.1-0.1-0.1,0c-0.1,0.1-0.3,0-0.3-0.1C16.4,23,16.2,23,16.1,23
	C16,22.9,16,22.9,16,22.9c-0.1-0.1-0.3-0.1-0.4-0.1c-0.1,0-0.1-0.1-0.3-0.1c-0.1,0-0.3-0.1-0.3-0.2c-0.2-0.1-0.4-0.2-0.5-0.3
	c-0.1-0.1-0.1-0.1-0.1-0.1c-0.1-0.1-0.3-0.1-0.4-0.2l-0.1-0.1c-0.1,0-0.3-0.1-0.4-0.1l-0.6-0.3c-0.1-0.1-0.3-0.2-0.5-0.3
	c0-0.1-0.1-0.1-0.1-0.1c-0.1,0-0.1,0-0.1-0.1c-0.7-0.3-1.4-0.7-2.1-1c0.3,0.4,0.1,0.3,0,0.3c-0.1-0.1-0.1-0.1-0.2-0.1H9.8
	c0.1,0.1,0.1,0.3,0.1,0.4c0.1,0.1,0.1,0.1,0.1,0.2c0.1,0.1,0.1,0.3,0.1,0.4c0.1,0,0.1,0.1,0.2,0.1c0.1,0.1,0.3,0.1,0.4,0.1h0.1
	c0.1,0.1,0.1,0.1,0.2,0.1c0,0,0.1,0,0.1,0.1l0.3,0.1c0.1,0.1,0.1,0.1,0.2,0.1c0.1,0.1,0.2,0.1,0.3,0.2c0,0.1,0.1,0.1,0.1,0.1H12
	c0.1-0.1,0.2-0.1,0.3,0c0.1,0,0.1,0.1,0.1,0.1c0.1,0.1,0.2,0.1,0.3,0.1c0.1,0,0.2,0.1,0.3,0.1c0.1,0.1,0.3,0.1,0.4,0.2
	c0.1,0.1,0.1,0.1,0.3,0.1c0.1,0.1,0.3,0.1,0.3,0.2L14,23c0.2,0.1,0.3,0.1,0.5,0.3c0.1,0,0.1,0.1,0.2,0.1c0.1,0.1,0.3,0.1,0.5,0.2
	c0.1,0,0.1,0.1,0.1,0.1c0.2,0,0.3,0.1,0.5,0.2c0.1,0.1,0.2,0.1,0.3,0.1c0.1,0,0.1,0.1,0.2,0.1h0.1c0.1,0.1,0.3,0.1,0.4,0.3
	c-0.1,0.1-0.2,0.1-0.3,0.2c-0.1,0.1-0.2,0.1-0.3,0.1H16c-0.1,0-0.2,0.1-0.3,0.1c-0.1,0-0.1,0.1-0.1,0.1c-0.1,0.1-0.1,0.1-0.3,0.1
	c-0.2,0.1-0.5,0.1-0.7,0.1c-0.1,0-0.1,0.1-0.1,0.1h-0.1c-0.1,0-0.3,0.1-0.4,0.1c-0.1,0-0.1,0.1-0.2,0.1c-0.1,0-0.1,0.1-0.3,0.1
	c-0.1,0.1-0.2,0.1-0.3,0.1c-0.1,0-0.2,0-0.3,0.1c-0.1,0.1-0.2,0-0.3,0h-0.2c-0.2,0-0.4,0.1-0.5,0.1h-0.3c-0.1,0-0.1,0.1-0.2,0.1
	h-0.1c-0.1,0-0.3,0.1-0.5,0.1c-0.1,0-0.3,0.1-0.5,0.1C10.5,26,10.4,26,10.3,26c-0.1,0-0.1,0.1-0.2,0.1H10c-0.1-0.5-0.3-0.6-0.4-0.6
	c-0.1,0-0.1-0.1-0.2-0.1c-0.1-0.1-0.2-0.1-0.3,0.1H9.1c-0.1-0.1-0.1-0.1-0.2,0H8.8c-0.1-0.1-0.2,0-0.3,0.1c-0.2-0.1-0.3-0.1-0.5-0.1
	c-0.2-0.1-0.3,0.1-0.3,0.3v0.1c-0.1,0-0.1,0.1-0.1,0.1c0.1,0.1,0.1,0.2,0,0.3c-0.1,0.3-0.1,0.5-0.1,0.9v0.3
	c-0.1,0.1-0.1,0.1-0.1,0.2c-0.1-0.1-0.1-0.2-0.1-0.3c0-0.1,0.1-0.1-0.1-0.1v-0.1c0.1-0.1,0.1-0.3,0.1-0.3c0-0.1,0-0.3,0.1-0.3v-0.2
	v-0.1c0.1-0.1,0.1-0.1,0-0.1v-0.2v-0.5c0.1-0.3,0-0.5,0-0.7v-0.1V24c0.1-0.2,0-0.3,0-0.5v-0.1c-0.1-0.1-0.1-0.1-0.1-0.1
	c0-0.1,0.1-0.3,0.1-0.4c0-0.1-0.1-0.2-0.1-0.3c0-0.1,0-0.1,0.1-0.1v-0.1c0.1-0.1,0.1-0.1,0-0.2v-0.5v-0.3v-0.1
	c0.1-0.3,0.1-0.5,0.1-0.8v-0.2H7.3c0-0.1,0-0.3-0.1-0.5c-0.1-0.1-0.1-0.2-0.1-0.3v-0.1l0.1-0.1c-0.1-0.1-0.1-0.1-0.1-0.1
	c-0.1,0-0.1-0.1,0-0.1c0.1-0.1,0.1-0.1,0.1-0.3v-0.1c0,0.2,0,0.3,0,0.3c0.1-0.1,0.1-0.3,0-0.4c0-0.1,0.1-0.1,0.1-0.1l0.1-0.1
	c-0.1-0.1,0-0.1,0-0.3c0-0.1,0.1-0.1-0.1-0.3c0.1-0.1,0-0.2,0-0.3c-0.1-0.1-0.1-0.3,0-0.4V17c0-0.1,0-0.1-0.1-0.1
	c0.1,0,0.1,0.1,0.1,0.1V17c0-0.1,0-0.3-0.1-0.3v-0.1c-0.1,0-0.1-0.1-0.1-0.1V16v-0.1c0.1,0.1,0,0.1,0.1,0.1c0.1,0,0.1-0.1,0.1-0.1
	c0-0.1-0.1-0.2,0-0.3v-0.1v-0.2c0-0.1-0.1-0.1-0.1-0.1c-0.1-0.1-0.1-0.1-0.1-0.1c0.1-0.1,0.1-0.3,0.1-0.4v-0.3
	c-0.1-0.2-0.1-0.4-0.1-0.6v-0.1c0.1-0.1,0.1-0.1,0.1-0.1v-0.3V13v-0.4v-0.1V12V12c0.1-0.1,0.1-0.3,0-0.5v-0.1
	c0.1,0.1,0.1,0.1,0.1,0.1c0-0.1,0.1-0.1,0-0.1V11v-0.1c0.1-0.1,0.1-0.3,0.1-0.5c0,0-0.1,0-0.1-0.1H7.3v-0.1c0.1-0.1,0.1-0.1,0-0.1
	C7.3,10,7.3,10,7.4,9.9V9.8c0.1-0.1,0-0.3,0-0.3V9.4C7.3,9.8,7.3,9.8,7.3,9.8c-0.1,0-0.1,0-0.1-0.1c0-0.1,0-0.1,0.1-0.3
	c0-0.1-0.1-0.1-0.1-0.1c0.1-0.1,0.1-0.1,0.1-0.1C7.4,9.1,7.4,9,7.4,8.8L7.3,8.8H7.3c0-0.1-0.1-0.2,0-0.3c0.1-0.1,0-0.1,0-0.1
	c0-0.1-0.1-0.1,0-0.1C7.2,8.1,7.2,8.1,7.2,8.1c0.1-0.2-0.1-0.4,0-0.7h0.1c-0.1-0.1,0-0.1-0.1-0.2c0-0.1,0-0.2,0.1-0.3
	c0-0.1,0.1-0.2-0.1-0.3c0-0.1,0-0.3-0.1-0.4C7.1,6.1,7.2,6,7.2,6C7.3,6,7.3,6,7.3,5.9V5.6V5.5c-0.1-0.1-0.1-0.1,0-0.3V5
	C7.2,4.9,7.2,4.8,7.2,4.7c0-0.1,0.1-0.1,0-0.3V4.3V4.1c0-0.1-0.1-0.1,0.1-0.2V3.8V3.7c0.1,0,0.1,0,0.1-0.1c0-0.1,0-0.3,0.1-0.3
	c0.1-0.1,0.1-0.1,0.1-0.1C7.7,3,7.7,2.9,7.7,2.8c0-0.1,0.1-0.1,0.1-0.1V2.7c-0.1,0-0.1,0.1-0.1,0.1c0-0.1,0-0.2,0.1-0.3
	c0.1,0,0.1,0,0.1,0c0-0.1,0.1-0.1,0.1-0.3l0.1-0.1V2.1V1.9H8c0-0.1,0.1-0.1,0.1-0.2c0.1,0,0.1,0.1,0.2,0.1c0-0.1-0.1-0.1-0.1-0.1
	c-0.1-0.1-0.1-0.1,0-0.1V1.4C8.3,1.4,8.4,1.3,8.5,1.2v0.1C8.5,1.3,8.5,1.3,8.5,1.2z M7.3,22.5v0.3V22.5z M25.9,17.2
	c-0.1,0-0.1,0.1-0.2,0.1c-0.1,0-0.1,0.1-0.3,0.1c-0.1,0-0.1,0.1-0.2,0.1l-0.1,0.1c-0.2,0-0.4,0.1-0.5,0.2c0-0.1-0.1-0.1-0.2-0.1
	c-0.2,0.1-0.4,0.1-0.5,0.3c0,0.1-0.1,0.1-0.1,0.1l-0.3,0.1c-0.1,0.1-0.2,0.1-0.3,0.1c-0.1,0.1-0.2,0.1-0.3,0.1
	C23,18.5,23,18.6,23,18.7c0.1,0.1,0.1,0.1,0.3,0.2l0.1,0.1c0.3,0,0.4,0.1,0.5,0.2c0.1,0.1,0.3,0.1,0.3,0.3l0.1,0.1
	c0.1,0.1,0.1,0.1,0.1,0.1c0.1,0.1,0.1,0.2,0.3,0.3c0.1,0.1,0.1,0.1,0.1,0.1c0.1,0.1,0.1,0.1,0.2,0.1c0.1,0.1,0.3,0.1,0.3,0.3
	c0,0.1,0.1,0.1,0.1,0.1c0.1,0,0.1,0,0.1,0.1c0.1,0.1,0.1,0.3,0.1,0.4v0.1c0.1,0.1,0.1,0,0.3,0c0.1,0.1,0.1,0.1,0.2,0.1
	c0,0.1,0.1,0.1,0.1,0.1c0.1,0,0.2,0.1,0.3,0.1c0,0.1,0.1,0.1,0.1,0.1c0.2-0.1,0.5-0.1,0.7-0.1c0-0.1,0-0.1,0.1-0.1
	c0,0-0.1-0.1,0-0.1c0.1-0.1,0.1-0.3,0.1-0.3c0.1-0.1,0.1-0.1,0.1-0.1c-0.1-0.1-0.1-0.1,0-0.2c0.1-0.1,0.1-0.3,0.1-0.5v-0.1
	c0.1-0.1,0.1-0.1,0.1-0.1c0-0.1,0-0.1,0.1-0.3v-0.1l0.1-0.1c-0.1-0.1-0.1-0.2-0.1-0.3c0.1-0.1,0-0.1,0-0.1c-0.1-0.2-0.2-0.3-0.3-0.5
	c-0.1-0.1-0.1-0.1-0.1-0.1c-0.1-0.1-0.1-0.3-0.3-0.3C27,18.1,27,18.1,27,17.9c0-0.1-0.1-0.1-0.1-0.2c-0.1,0-0.1-0.1-0.2-0.1
	c-0.1,0-0.1-0.1-0.1-0.1c0-0.1-0.1-0.1-0.1-0.2c-0.1,0-0.1,0-0.1-0.1c-0.1-0.1-0.1-0.1-0.2-0.1C25.9,17.2,25.9,17.2,25.9,17.2z"/>
</svg>
