<?xml version="1.0" encoding="utf-8"?>
<!-- Generator: Adobe Illustrator 25.2.3, SVG Export Plug-In . SVG Version: 6.00 Build 0)  -->
<svg version="1.1" id="Layer_1" xmlns="http://www.w3.org/2000/svg" xmlns:xlink="http://www.w3.org/1999/xlink" x="0px" y="0px"
	 viewBox="0 0 40 40" style="enable-background:new 0 0 40 40;" xml:space="preserve">
<style type="text/css">
	.st0{fill:#D50032;}
</style>
<path class="st0" d="M22.8,17.6C22.8,17.7,22.8,17.7,22.8,17.6c0,0.1-0.1,0.1-0.1,0.1s0,0.1-0.1,0.1h-0.1c0,0.1-0.1,0.1-0.1,0.1
	c-0.1,0.1-0.1,0.1-0.1,0.3c0,0.1-0.1,0.1-0.1,0.1c-0.1,0-0.1,0.1-0.1,0.1c-0.1,0.1-0.1,0.1-0.2,0.1c-0.1,0-0.2,0-0.3-0.1h-0.1
	c-0.1-0.1-0.1-0.1-0.2-0.2c-0.1-0.1-0.1-0.1-0.3-0.2c-0.1,0-0.1-0.1-0.1-0.1c-0.1-0.1-0.1-0.1-0.1-0.1l-0.1-0.1
	c-0.1-0.1-0.2-0.1-0.3-0.1c-0.1-0.1-0.1-0.1-0.2-0.2v-0.1v-0.1v-0.1v-0.1v-0.1c-0.1-0.1,0-0.1,0-0.1s0-0.1-0.1-0.1
	c0.1-0.1,0.1-0.1,0-0.1v-0.1v-0.3v-0.1c-0.1-0.1-0.1-0.2-0.1-0.3h0.1c0.1-0.1,0.3-0.1,0.3-0.1c0.1-0.1,0.1-0.1,0.1-0.1
	c0.1-0.1,0.1,0,0.1-0.1c0.1-0.1,0.1-0.1,0.1-0.1c0-0.1,0.1-0.1,0.1-0.1h0.1c0-0.1,0.1-0.1,0.1-0.2c0-0.1,0-0.1,0.1-0.1
	c0.1,0,0.1,0,0.1-0.1c0.1-0.1,0.1-0.1,0.1-0.1c-0.1-0.1-0.4-0.1-0.4-0.1c-0.1,0-0.1-0.1-0.2-0.1c-0.1,0-0.1-0.1-0.1-0.1
	c-0.1,0-0.1-0.1-0.2-0.1c0-0.1-0.1-0.2,0-0.3c0-0.1,0.1-0.1,0.1-0.2v-0.1V14c0.1-0.1,0.1-0.1,0.1-0.1c0.1-0.1,0.1-0.1,0.1-0.1
	c0-0.1,0.1-0.1,0.1-0.1c0.1-0.1,0.1-0.1,0.1-0.2v-0.1c0.1-0.1,0.1-0.1,0.1-0.2c0.1,0,0.1-0.1,0.1-0.1c0.1-0.1,0.1-0.1,0.1-0.1
	l0.1-0.1c0-0.1,0.1-0.1,0.1-0.1c0-0.1,0-0.1,0.1-0.1c0.1-0.1,0.1-0.1,0.1-0.1c0-0.1,0-0.1,0.1-0.1l0.1-0.1l0.1-0.1
	c0.1-0.1,0.1-0.1,0.1-0.1c0.1-0.1,0.1-0.1,0.1-0.1c0.1-0.1,0.1-0.1,0.1-0.2c0.1-0.1,0.1-0.1,0.1-0.3c0,0,0.1-0.1,0.1-0.1
	c0.1,0,0.1-0.1,0.1-0.1c0.1-0.1,0.1-0.2,0.3-0.3c0.1-0.1,0.1-0.1,0.1-0.1c0-0.1,0.1-0.1,0.1-0.1h0.1c0-0.1,0.1-0.1,0.1-0.2
	c0-0.1,0.1-0.1,0.1-0.1c0-0.1,0.1-0.1,0.1-0.1c0.1-0.1,0.2-0.2,0.3-0.3c0.1-0.1,0.1-0.2,0.2-0.2h0.5c0.1-0.1,0.1-0.1,0.1-0.2
	c0.1,0,0.1-0.1,0.1-0.1c0-0.1,0.1-0.1,0.1-0.1l0.1-0.1c0-0.1,0.1-0.1,0.1-0.1L24.8,9c0-0.1,0.1-0.1,0.1-0.1c0.1-0.1,0.1-0.1,0.1-0.1
	L25,8.7c0,0,0-0.1,0.1-0.1c0.1,0,0.1-0.1,0.1-0.1c0,0,0.1,0,0.1-0.1c0.1,0,0.1-0.1,0.1-0.1c0.1-0.1,0.1-0.1,0.1-0.1
	c0.1,0,0.1-0.1,0.1-0.1c0.1-0.1,0.1-0.1,0.1-0.1c0,0,0.1,0,0.1,0.1c0.1,0.1,0.1,0.2,0.1,0.3c-0.1,0.1,0,0.1,0.1,0.1
	c-0.1,0-0.1,0.1-0.1,0.1c0.1,0.1,0,0.1,0.1,0.3v0.1L25.9,9c0.1,0.1,0.1,0.1,0.1,0.2v0.1c0,0.1,0.1,0.1,0.1,0.1
	c-0.1,0.1-0.1,0.2,0,0.3c0.1,0.2,0.1,0.4,0.2,0.6c0.1,0.1,0.1,0.1,0.1,0.2v0.1c-0.1,0.1,0,0.1,0.1,0.1c0.1,0.1,0.1,0.3,0.1,0.4
	c0,0.1,0.1,0.2,0.1,0.3c0.1,0.1,0.1,0.1,0.1,0.3v0.1c-0.1,0.1,0,0.1,0.1,0.1c0,0.1,0.1,0.1,0.1,0.2c0,0.1,0.1,0.1,0.1,0.2
	c0,0.1,0,0.1-0.1,0.2c-0.1,0.1,0,0.1-0.1,0.1h0.1c0.1,0,0.2,0.1,0.3,0.2c0.1,0.1,0.1,0.1,0.1,0.1c0,0.1,0,0.1-0.1,0.1
	c-0.1,0.1-0.1,0.2,0,0.3c0.1,0.1,0.1,0.1,0.1,0.1l0.1,0.1c0.1,0,0.1,0.1,0.1,0.1c0.1,0.1,0.1,0.1,0.1,0.2c0.1,0.2,0.1,0.3,0.1,0.5
	c0,0,0,0.1-0.1,0.1c0,0,0,0.1-0.1,0.1c-0.1,0-0.1,0-0.3,0.1H27c-0.1-0.1-0.2,0-0.3,0h-0.2c-0.1,0-0.1,0-0.1,0.1
	c-0.1,0.1-0.1,0.1-0.1,0.1h-0.1c0,0.1-0.1,0.1-0.1,0.1c-0.1,0-0.1,0-0.2,0.1c-0.1,0.1-0.1,0.1-0.2,0.1c-0.1,0.1-0.1,0.1-0.2,0.1
	c-0.1,0-0.1,0.1-0.1,0.1c-0.1,0-0.1,0-0.1,0.1h-0.1c-0.1,0-0.1,0.1-0.1,0.1c-0.1,0-0.1,0.1-0.1,0.1c-0.1,0-0.1,0-0.1,0.1
	c0,0.1-0.1,0.1-0.1,0.1l-0.1,0.1c0,0.1-0.1,0.1-0.1,0.1c-0.1,0-0.1,0.1-0.1,0.1c-0.1,0.1-0.2,0.2-0.3,0.3c0,0-0.1,0-0.1,0.1
	c-0.1,0.1-0.1,0.1-0.2,0.2c0.3-0.1,0.3-0.1,0.1,0c0,0.1-0.1,0.1-0.1,0.1v0.1l-0.1-0.1H24H24c0,0-0.1,0-0.1,0.1h-0.1
	c-0.1,0-0.1,0.1-0.1,0.1c-0.1,0.1-0.1,0.1-0.1,0.1c-0.1,0.1-0.1,0.1-0.1,0.1c0,0.1-0.1,0.1-0.1,0.1s-0.1,0-0.1-0.1
	c-0.1,0-0.1,0.1-0.1,0.1l-0.1,0.1c0,0.1-0.1,0.1-0.1,0.1c-0.1,0.1-0.1,0.1-0.1,0.1C22.9,17.6,22.9,17.6,22.8,17.6z"/>
<path class="st0" d="M33.4,12.6c0.1-0.1,0.1-0.3,0.1-0.5c0,0-0.1-0.1-0.1-0.1c-0.1,0-0.1-0.1-0.1-0.1c-0.1-0.1-0.1-0.2,0-0.3v-0.3
	c0-0.1,0-0.1,0.1-0.1V11c-0.1-0.1-0.1-0.2-0.1-0.3c0.1-0.1,0-0.1,0-0.1c-0.1,0-0.1,0-0.1-0.1c0.1-0.1,0.1-0.1,0.1-0.2v-0.1
	c0.1-0.1,0-0.1,0-0.1c-0.1-0.1-0.1-0.2-0.1-0.3c0.1-0.1,0.1-0.1,0.1-0.1V9.4c0.1-0.1,0.1-0.1,0-0.1c0-0.1,0-0.1,0.1-0.3V9
	c-0.1,0-0.1-0.1-0.1-0.1V8.7V8.6c0.1-0.1,0.1-0.1,0.1-0.3V8.1V7.9c0.1-0.1,0-0.2-0.1-0.3c-0.1-0.1-0.1-0.1,0-0.1
	c0-0.1,0-0.1-0.1-0.1V7.3l0.1-0.1c-0.1-0.1-0.1-0.1-0.1-0.1c0.1,0,0.1,0,0.1-0.1v0.4c0-0.1,0-0.2-0.1-0.3c0-0.1-0.1-0.1,0-0.2
	c0.1,0,0.1-0.1,0-0.1c0-0.1,0.1-0.1,0-0.2c0.1-0.1,0-0.1,0-0.1c0.1-0.1,0.1-0.1,0.1-0.3V6.2V6.1c-0.1-0.1,0-0.3,0.1-0.3V5.6V5.5
	c0.1-0.1,0.1-0.1,0.1-0.2c-0.1-0.1-0.1-0.1-0.1-0.1C33.3,5,33.3,5,33.3,4.8c0,0-0.1-0.1,0-0.1c0-0.1,0-0.1,0.1-0.1
	c0-0.1-0.1-0.1,0-0.2V4.2C33.3,4.1,33.3,4,33.3,4c0-0.1,0.1-0.3,0.1-0.4c0-0.1,0-0.1-0.1-0.1c0-0.1,0.1-0.1,0.1-0.1
	c-0.1,0-0.1,0-0.1-0.1V3.3c0-0.1,0-0.1,0.1-0.1c0.1,0,0.1-0.1,0-0.1c0-0.1-0.1-0.1,0-0.1V2.7c0-0.1,0-0.2-0.1-0.3V2.3l0.1-0.1
	c0-0.1-0.1-0.1-0.1-0.1c0-0.1,0-0.2-0.1-0.3V1.5c-0.1-0.1-0.1-0.3-0.2-0.3c-0.1,0-0.1-0.1-0.1-0.1C32.9,1,32.8,1,32.7,1
	c0-0.1,0-0.1-0.1-0.1l-0.1-0.1c-0.1-0.1-0.3-0.1-0.3-0.3c-0.1-0.1-0.3-0.1-0.3-0.1c-0.1,0-0.1-0.1-0.1-0.1c-0.1-0.1-0.1-0.1-0.1-0.1
	c-0.1-0.1-0.8-0.1-0.9-0.1h-0.1c-0.1-0.1-0.1,0-0.1,0c-0.1,0.1-0.1,0.1-0.1,0.1h-0.1h-0.2c0-0.1-0.1-0.1-0.1-0.1C30,0.1,30,0,29.9,0
	c-0.1,0-0.1-0.1-0.2,0h-0.1h-0.1c-0.1,0-0.2,0.1-0.3,0.1h-0.1c-0.1,0-0.1,0.1-0.2,0h-0.3c0,0.1-0.1,0.1-0.1,0.1h-0.1
	c-0.1,0-0.3,0.1-0.4,0.1c-0.1,0.1-0.1,0.1-0.1,0c-0.1-0.1-0.1-0.1-0.3-0.1h-0.1c-0.1,0.1-0.1,0.1-0.3,0.1c-0.1,0-0.1,0-0.1,0.1
	c-0.1,0.1-0.1,0.1-0.2,0.1c0,0-0.1,0-0.1,0.1c-0.1,0.1-0.2,0.1-0.3,0c0-0.1-0.1-0.1-0.1-0.1c-0.1-0.1-0.1,0-0.1,0
	c-0.1,0.1-0.2,0.1-0.3,0.1c0-0.1,0-0.1-0.1-0.1c0-0.1,0-0.1-0.1-0.1c-0.1,0.1-0.2,0-0.3,0h-0.4h-0.5c-0.1,0-0.1,0.1-0.2,0.1h-0.1
	c-0.1,0.1-0.1,0-0.1,0.1c-0.1,0-0.1-0.1-0.2-0.1c-0.1,0.1-0.2,0-0.3,0h-0.1c-0.1,0.1-0.1,0.1-0.2,0C24,0.2,24,0.2,24,0.2h-0.4
	c-0.1,0-0.2,0-0.3,0.1h-0.3h-0.1h-0.1h-0.1c-0.1,0.1-0.1,0.1-0.1,0V0.2h-0.5h-0.1c-0.1,0.1-0.3,0.1-0.5,0.1h-0.1h-0.1h-0.3
	c-0.2-0.1-0.3,0.1-0.5,0h-0.1c-0.1,0-0.2-0.1-0.3,0c-0.1,0.1-0.1,0.1-0.2,0.1c-0.1,0-0.1-0.1-0.1,0c-0.1,0-0.1,0-0.1-0.1h-0.1h-0.5
	c-0.1,0-0.2,0-0.3,0.1c0-0.1-0.1-0.1-0.1-0.1c-0.1,0.1-0.3-0.1-0.3,0.1c-0.1,0-0.2,0-0.3-0.1h-0.1c-0.2,0-2.3-0.1-2.5,0h-0.3
	c-0.1-0.1-0.1,0-0.3,0h-0.1c-0.1,0-0.1,0-0.2,0.1h-0.1c-0.1-0.1-0.1,0-0.1,0c-0.1,0.1-0.1,0.1-0.1,0.1c-0.1-0.1-0.1,0-0.1,0
	c-0.1,0-0.1,0.1-0.1,0.1h-0.1c-0.1-0.1-0.1-0.1-0.2-0.1c-0.1,0.1-0.1,0-0.3,0.1H14c-0.1-0.1-0.1-0.1-0.2-0.1
	c-0.1-0.1-0.2-0.1-0.3-0.1c-0.1,0.1-0.1,0.1-0.2,0.1c-0.1,0.1-0.1,0-0.1,0c-0.1-0.1-0.1-0.1-0.2-0.1H13h-0.6c-0.1,0-0.1,0-0.3,0.1
	h-0.2c-0.2-0.1-0.5-0.1-0.7,0c-0.1-0.1-0.3-0.1-0.3-0.1h-0.2h-0.1c-0.1,0-0.1,0-0.2,0.1c-0.1,0-0.1,0.1-0.3,0.1H9.9H9.6
	c-0.1,0-0.1,0.1-0.1,0.1c-0.1,0-0.1,0.1-0.2,0.1C9.2,0.5,9.2,0.6,9,0.6C9,0.7,9,0.7,8.9,0.8C8.8,0.8,8.8,0.9,8.6,0.9
	C8.5,0.9,8.4,1,8.4,1.2C8.2,1.3,8.2,1.5,8.2,1.6C8.1,1.7,8.1,1.7,8,1.7C8,1.7,8,1.7,8,1.8C8,1.9,7.9,1.9,7.9,2
	C7.8,2.1,7.8,2.1,7.8,2.1C7.8,2.2,7.8,2.3,7.8,2.3c0,0.1-0.1,0.1-0.1,0.3S7.6,2.7,7.6,2.9C7.6,2.9,7.6,3.1,7.6,3.2v0.1
	C7.5,3.4,7.5,3.5,7.5,3.7v0.1v0.1v0.4c0,0.1,0,0.3,0.1,0.4v0.1c0,0.1-0.1,0.1,0,0.2C7.6,5,7.6,5,7.6,5c0.1,0.1,0.1,0.1,0.1,0.3v0.1
	v0.2v0.1v0.1C7.6,5.9,7.6,6,7.7,6c0,0,0,0.1,0.1,0.2v0.1v0.2c0,0-0.1,0-0.1,0.1c-0.1,0-0.1,0-0.1,0.1c0.1,0.1,0,0.3-0.1,0.4
	C7.5,7,7.5,7.1,7.5,7.1c0.1,0,0.1,0,0.3,0.1c0,0,0,0.1-0.1,0.1C7.6,7.4,7.6,7.5,7.6,7.7C7.7,7.8,7.7,7.9,7.7,8S7.6,8.3,7.6,8.5
	c0,0,0,0.1-0.1,0.1c-0.1,0.1-0.1,0.2,0,0.3c0,0.1,0,0.1-0.1,0.1c-0.1,0-0.1,0.1-0.1,0.1c0,0.1,0,0.1-0.1,0.1v0.1
	c0,0.1,0.1,0.1,0.1,0.1s0.1,0.1,0.1,0.1c0.1,0.1,0.1,0.1,0.1,0.2V10c-0.1,0,0,0.1,0,0.1c0,0.1,0,0.1,0.1,0.2c0,0.1,0,0.1-0.1,0.1
	H7.6c0.1,0.1,0.1,0.2,0.1,0.3c0,0.1,0,0.1,0.1,0.1c0,0,0,0.1,0.1,0.1v-0.1c0.1,0.1,0.1,0.1,0.1,0.3H8C8,11,8,11,8,11.1l0.1,0.1
	c0.1,0.1,0.1,0.2,0.1,0.3c0,0.1,0,0.1,0.1,0.1H8.2c-0.1,0.1-0.1,0.1-0.1,0.1c0,0.1,0,0.1,0.1,0.2c0,0.1,0,0.1-0.1,0.1L8,12.3
	C8,12.3,8,12.3,8,12.3c-0.1,0-0.1-0.1-0.1-0.1c-0.1,0-0.2,0-0.3,0.1c0,0.1-0.1,0.1-0.1,0.1c0-0.1-0.1,0-0.1,0
	c-0.1,0.1-0.1,0.1-0.1,0.1c-0.1,0.1-0.1,0.1-0.1,0.1v0.1v0.1v0.1l0.1,0.1v0.1v0.3c0,0.1,0,0.1-0.1,0.1c-0.1,0,0,0.1-0.1,0.1v-0.3
	l0.1,0.1v0.1c-0.1,0.1-0.1,0.1,0,0.3c0.1,0.1,0.1,0.1,0,0.1V14c0,0.1,0,0.3-0.1,0.4l0.1,0.1v0.2c-0.2-0.1-0.2,0-0.1,0.1
	c0.1,0.1,0.1,0.1,0,0.1V15c0,0.1,0,0.2,0.1,0.3c0.1,0.1,0,0.1,0,0.1s0,0.1-0.1,0.1c0.1,0.1,0.1,0.1,0.1,0.1c0.1,0.1,0.1,0.1,0.1,0.1
	s0,0.1-0.1,0.2c-0.1,0-0.1,0.1-0.1,0.1c0.1,0.1,0.1,0.1,0,0.1c0,0.1,0,0.3,0.1,0.3c0,0.1,0.1,0.1,0.1,0.3c0.1,0.1,0,0.2,0.1,0.3
	c-0.1,0.1,0,0.1,0,0.1c0.1,0.1,0.1,0.2,0,0.3c-0.1,0.1-0.1,0.3-0.1,0.3c0,0.1-0.1,0.3,0,0.4v0.1c-0.1,0.1-0.1,0.1,0,0.3
	c-0.1,0.1,0,0.1,0,0.2v0.1v0.1c0,0.1,0.1,0.1,0,0.2c0.1,0.1,0,0.1,0,0.1v0.1c0.1,0.1,0.1,0.1,0,0.1c0,0.1,0,0.1,0.1,0.3
	c0,0-0.1,0-0.1,0.1c0,0.1-0.1,0.1,0,0.1c0.1,0.1,0,0.1,0.1,0.1v0.1c0,0.1,0,0.1-0.1,0.1c0,0.1,0,0.1,0.1,0.1v0.1
	c-0.1,0.1-0.1,0.1,0,0.2C7.4,21,7.4,21,7.4,21v0.3c-0.1,0.1,0,0.1,0,0.1v0.1c-0.1,0.1-0.1,0.3-0.1,0.5v0.1v0.1
	c0.1,0.1,0.1,0.1,0.1,0.1c-0.1,0.1,0.1,0.1,0,0.3c0.1,0.1,0,0.2-0.1,0.3v0.3v0.4c-0.1,0.1-0.1,0.2,0,0.3v0.3
	c-0.1,0.1-0.1,0.3-0.1,0.4s0,0.3,0.1,0.4v0.1v0.1c0.1,0.1,0.1,0.1,0.1,0.1v0.1c0.1,0.1,0.1,0.1,0.1,0.3c0.1,0.1,0.1,0.1,0.1,0.2
	c0,0.1-0.1,0.2-0.1,0.3v0.1c0.1,0.1,0.1,0.1,0.1,0.1s0.1,0.1-0.1,0.3c0.1,0,0.1,0.1,0.1,0.1V27v0.4v0.1v0.1v0.1v0.1
	c-0.1-0.7-0.1-0.7-0.1-0.7c-0.1,0.1-0.1,0.1-0.1,0.2v0.1c0,0.1,0,0.1,0.1,0.1c0.1,0.1,0.1,0.1,0.1,0.2c0,0.1-0.1,0.2-0.1,0.3
	c-0.1,0.1-0.1,0.2-0.1,0.3c0,0.1,0,0.1,0.1,0.1c0,0,0,0.1,0.1,0.1c0.1,0.1,0.1,0.1,0,0.2c-0.1,0.1,0,0.1,0,0.2
	c0.1,0,0.1,0.1,0.1,0.1c-0.1,0.1,0,0.2-0.1,0.3v0.1c0.1,0.1,0.1,0.3,0.1,0.3V30v0.1H7.4v0.1c-0.1,0.1-0.1,0.2-0.1,0.3
	c-0.1,0.1,0,0.1,0,0.3V31v0.2v-0.1c0.1,0.1,0.1,0.3,0,0.4c0,0.1,0.1,0.3,0.1,0.4c0.1,0.1,0,0.1,0,0.2c0,0.1,0,0.1,0.1,0.3
	c-0.1,0.1-0.1,0.2-0.1,0.3c-0.1,0.1-0.1,0.1,0,0.1c0.1,0.1,0,0.1-0.1,0.2c-0.1,0.1-0.1,0.1,0,0.1v0.1c-0.1,0.1,0,0.2,0,0.3
	s-0.1,0.3,0,0.4c-0.1,0.1,0,0.3,0,0.4c0,0.1,0,0.1-0.1,0.1v-0.1c0.1,0.1,0.1,0.2,0,0.3v0.1c0.1,0.1,0.1,0.1,0.1,0.2v0.1
	c0,0.1,0,0.1,0.1,0.1c0,0.1,0,0.1-0.1,0.1v0.1v0.1c0.1,0.1,0.1,0.2,0.1,0.3c-0.1,0.1,0,0.1,0,0.1C7.5,36,7.5,36,7.5,36.1
	c-0.1,0.1-0.1,0.1-0.1,0.1c0.1,0.1,0.1,0.1,0,0.1c0,0.1,0.1,0.1,0.1,0.1c-0.1,0.1-0.1,0.2-0.1,0.3v0.1c0.1,0.1,0.1,0.2,0,0.3v0.1
	v0.3c0,0.1-0.1,0.1-0.1,0.1c0.1,0.1,0,0.2,0.1,0.3c0,0.1,0,0.2,0.1,0.3c0.1,0.1,0.1,0.3,0.1,0.3c0,0.1,0,0.1,0.1,0.1
	c0,0.1,0.1,0.1,0.1,0.1c0-0.1,0.1,0,0.1,0.1c0.1,0.1,0.1,0.1,0.1,0.2v0.1C8,39.3,8,39.3,8,39.3C8,39.4,8,39.5,8.1,39.5
	c0.1,0.1,0.1,0,0.1,0c0.1-0.1,0.1,0,0.1,0.1c0.1,0,0.1,0.1,0.1,0.1c0.1,0,0.1,0.1,0.1,0.1c0,0.1,1.8,0.1,1.8,0.1l0.1-0.1
	c0.1,0.1,0.1,0.1,0.3,0.1h0.1h0.1c0,0.1,0.1,0.1,0.1,0.1v-0.1h0.2c0.1,0,0.1,0.1,0.1,0c0.1,0,0.1,0,0.1,0.1c0.1-0.1,0.1-0.1,0.2-0.1
	c0-0.1,0-0.1,0.1-0.1c0.1,0,0.1,0.1,0.2,0h0.1c0.1,0,0.1-0.1,0.2-0.1c0.1,0,0.1,0,0.1,0.1c0.1,0.1,0.1,0.1,0.1,0.1h0.3
	c0.1,0,0.1,0.1,0.1,0c0.1-0.1,0.1-0.1,0.2-0.1h0.1h0.1c0.2-0.1,0.2-0.2,0.3-0.2h0.1h0.1c0.1,0.1,0.1,0,0.2-0.1
	c0-0.1,0.1-0.1,0.1-0.1c0.1,0,0.1,0,0.2,0.1h0.1c0.1-0.1,0.1-0.1,0.3-0.1c0.1,0.1,0.1,0.1,0.1,0.1c0.1-0.1,0.2-0.1,0.3-0.1
	c0.1,0,0.1,0,0.1,0.1c0.1-0.1,0.3-0.1,0.4-0.1v0.1c0.1,0.1,0.1,0.1,0.1,0.1c0.1,0.1,0.2,0.1,0.3,0.1c0.1,0.1,0.3,0.1,0.5,0.1
	c0.1,0,0.3,0.1,0.5,0.1h1h1.6c0,0,0.1,0,0.1-0.1h-0.1c-0.1,0-0.5,0-0.5-0.1c-0.1-0.1-0.1-0.1-0.1-0.1c0-0.1-0.1,0-0.1,0
	c-0.1,0.1-0.1,0.1-0.2,0c-0.1,0-0.1-0.1-0.1-0.1c-0.1,0.1-0.1,0-0.1,0c-0.1,0-0.1,0.1-0.1,0.1c0.1-0.1,0-0.1-0.1-0.1v-0.1
	c0.1-0.1,0.1-0.1,0.1-0.3l0.1-0.1c0-0.1,0-0.1,0.1-0.1l0.1-0.1v-0.1c0.1-0.1,0.1-0.1,0.1-0.1v-0.1c0.1,0,0.2-0.1,0.3-0.1
	c0.1-0.1,0.1-0.1,0.1-0.1c0.1-0.1,0.1-0.1,0.1-0.2v0.1c0.1-0.1,0.1-0.1,0.1-0.3c0-0.1,0-0.1,0.1-0.2c0,0,0-0.1,0.1-0.1
	c0-0.1,0-0.1,0.1-0.1v-0.1v-0.1v-0.1v-0.1c0-0.1-0.1-0.1-0.1-0.1c0-0.2,0-0.4,0.1-0.5v-0.1c0.1-0.1,0.1-0.1,0-0.3v-0.1
	c0-0.1,0-0.1-0.1-0.1c0-0.1,0.1-0.1,0.1-0.2c0.1-0.1,0.1-0.1,0.1-0.1v-0.1c0-0.1,0.1-0.2-0.1-0.3c-0.1,0-0.1,0-0.1-0.1
	c0-0.1,0-0.1,0.1-0.3c0-0.1,0-0.1-0.1-0.1c0-0.1,0-0.1-0.1-0.2c0.1-0.1,0.1-0.1,0.1-0.2c0-0.1,0-0.1,0.1-0.1c0.1-0.1,0.1-0.1,0-0.3
	v-0.2c0,0,0-0.1-0.1-0.1v0.1c0-0.1-0.1-0.1-0.1-0.1v-0.1c0-0.1-0.1-0.1-0.1-0.2v-0.2L18.4,33v-0.3v-0.1c0-0.1-0.1-0.1-0.1-0.2
	c0-0.1,0.1-0.1,0.1-0.1c0.1,0,0.2-0.1,0.3-0.1c0.1,0,0.1-0.1,0.1-0.1v-0.2c0-0.1,0-0.1-0.1-0.2c0.1-0.1,0.1-0.1,0-0.1
	c0-0.1-0.1-0.1-0.1-0.1c0-0.1-0.1-0.1,0-0.1c0,0,0-0.1-0.1-0.1v-0.1c0-0.1-0.1-0.1-0.1-0.2c0-0.1,0.1-0.1,0.1-0.2v-0.1v-0.1
	c0.1-0.1,0.1-0.1,0.1-0.2c0-0.1,0-0.1,0.1-0.2c0-0.1,0.1-0.1,0.1-0.1c0.1-0.1,0.1-0.1,0.1-0.2v-0.1v-0.1c-0.1-0.1-0.1-0.1-0.1-0.1
	c-0.1-0.1-0.1-0.3,0-0.3c0.1-0.1,0.1-0.2,0.1-0.3v-0.1c0-0.1,0.1-0.2,0-0.3c0-0.1,0.1-0.3,0.1-0.4v-0.2c0.1-0.1,0.1-0.2,0.1-0.3
	c0-0.1,0-0.1,0.1-0.2c0-0.1,0.1-0.1,0.1-0.2c-0.1-0.1,0-0.1,0-0.3s0.1-0.1,0.1-0.3c0,0,0-0.1,0.1-0.1v-0.1c-0.1-0.1-0.1-0.1-0.1-0.1
	c0.1-0.1,0.1-0.1,0.1-0.3s0.1-0.2,0.1-0.3c0.1-0.1,0.1-0.2,0.1-0.3v-0.1c0-0.1,0.1-0.2,0.1-0.3c0.1-0.1,0.1-0.1,0-0.1v-0.1
	c0.1-0.1,0.1-0.1,0.1-0.1v-0.1c0.1-0.1,0.1-0.1,0.1-0.2v-0.1c0.1-0.1,0.1-0.1,0.1-0.3c0-0.1,0.1-0.1,0.1-0.2c0-0.1,0.1-0.1,0-0.1
	c0,0,0-0.1,0.1-0.1v-0.1c0.1-0.1,0.1-0.1,0.1-0.2c0-0.1,0.1-0.1,0.1-0.3c0.3,0.6,0.3,0.6,0.3,0.5V23v-0.1c0-0.1,0.1-0.1,0.1-0.2
	c0.1-0.1,0.1-0.1,0.1-0.2c0-0.1,0-0.1,0.1-0.1c0.1-0.1,0.1-0.1,0.1-0.1c0-0.1,0.1-0.2,0.1-0.3c0.1-0.1,0.3-1.1,0.3-1.1
	c-0.1-0.1-0.1-0.1-0.1-0.2c0.1-0.1-0.1-0.1-0.1-0.1l-0.1-0.1c-0.1-0.1-0.2-0.1-0.3-0.1c-0.1,0-0.1-0.1-0.1-0.1
	c-0.1,0-0.1-0.1-0.1-0.1c-0.1,0-0.1-0.1-0.2-0.1c-0.1-0.1-0.1-0.1-0.1-0.1c-0.1-0.1-0.1-0.1-0.2-0.2c0-0.1-0.1-0.1-0.1-0.1
	c-0.1-0.1-0.1-0.1-0.1,0c-0.1-0.1-0.1-0.2-0.1-0.3c0-0.1-0.1-0.1-0.1-0.2c-0.1-0.1-0.1-0.3-0.3-0.3C19,18.5,19,18.5,19,18.3v-0.1
	c-0.1-0.1,0-0.1-0.1-0.2c0-0.1,0.1-0.2-0.1-0.3v0.1c0.1-0.1,0-0.1-0.1-0.1v-0.1v-0.1c-0.1-0.1-0.1-0.1,0-0.2v-0.1
	c0-0.1-0.1-0.1-0.1-0.1v-0.1V17c0-0.1,0-0.1,0.1-0.2c0-0.1,0-0.1-0.1-0.1v-0.1c0-0.1,0-0.1,0.1-0.1c-0.1-0.1-0.1-0.1-0.1-0.2
	c0-0.1,0-0.1,0.1-0.1c0-0.1,0-0.1,0.1-0.1c0-0.1-0.1-0.1,0-0.1v-0.1v-0.1v-0.1c-0.1-0.1,0-0.3-0.1-0.3c0.1-0.1,0.1-0.1,0.1-0.2v-0.1
	V15v-0.1c-0.1,0-0.1-0.1-0.1-0.1c-0.1-0.1-0.1-0.1-0.1-0.1c-0.1-0.1-0.1-0.1-0.2-0.1v-0.1c-0.1,0-0.1-0.1-0.1-0.1
	c-0.1-0.1-0.1,0-0.1,0.1c-0.1-0.1-0.1-0.1-0.1-0.1c0-0.1-0.1-0.1-0.1-0.1s-0.1,0-0.1-0.1C18.2,14.1,18,14,18,14
	c-0.1-0.1-0.1-0.1-0.2-0.1c0-0.1-0.1-0.1-0.1-0.1c-0.1-0.1-0.1-0.2-0.3-0.2c0,0,0-0.1-0.1-0.1c-0.1-0.1-0.1-0.1-0.3-0.1v-0.1
	c-0.1,0-0.3,0-0.3-0.1c-0.1-0.1-0.2-0.1-0.3-0.1c-0.1-0.1-0.1-0.1-0.3-0.1c-0.1,0-0.2-0.1-0.3-0.1c-0.1-0.1-0.1-0.1-0.1-0.1
	c-0.1-0.1-0.1-0.1-0.1-0.1c0-0.1-0.1-0.1-0.1-0.1h-0.1c-0.1-0.1-0.1-0.1-0.1-0.1c-0.1,0-0.1-0.1-0.1-0.1c-0.1-0.1-0.1-0.1-0.2-0.1
	h-0.1h-0.1c-0.1-0.1-0.1-0.1-0.3-0.1c-0.1-0.1-0.2-0.1-0.3-0.2c-0.1-0.1-0.1,0-0.2,0.1c-0.1,0.1-0.1,0.1-0.1,0.1h-0.1L14.1,12
	l0.1-0.1c-0.1,0-0.1-0.1-0.1-0.1c0-0.1,0-0.1-0.1-0.1c0-0.1-0.1-0.1-0.1-0.1c-0.1,0-0.1,0-0.1-0.1c-0.1,0-0.1-0.1-0.1-0.1
	c-0.1,0-0.1-0.1-0.1-0.1l-0.1-0.1c-0.1,0-0.2-0.1-0.3-0.1C13.1,11,13,11,12.8,10.9l-0.1-0.1h-0.5l-0.1-0.1h-0.1
	c-0.1-0.1-0.1-0.1-0.1-0.1c-0.1,0.1-0.2,0-0.2-0.1c-0.1-0.1-0.1-0.1-0.2-0.1v-0.2c-0.1,0-0.1-0.1-0.2-0.1h-0.1L11.3,10
	c-0.1,0-0.1,0-0.1-0.1c-0.1-0.1-0.1-0.2,0-0.3c0-0.1,0.1-0.1,0-0.2c0.1,0,0.1-0.1,0.1-0.1c0-0.1-0.1-0.1-0.1-0.1
	c-0.1,0.8-0.1,0.7-0.1,0.7c-0.1-0.1-0.1-0.1-0.1-0.1s-0.1-0.1,0-0.1C11,9.5,11,9.4,11,9.4c0,0,0-0.1,0.1-0.1c0-0.1,0-0.1-0.1-0.1
	c0-0.1-0.1-0.1-0.1-0.1C11,8.9,11,8.9,11.1,8.8V8.7c0.1-0.1,0.1-0.1,0.1-0.3c0,0,0-0.1-0.1-0.1c0-0.1,0-0.1,0.1-0.1l0.1-0.1
	c0,0,0-0.1-0.1-0.1h0.1c0.1,0,0.1,0,0.2-0.1c0.1,0,0.1-0.1,0.2-0.1c0.1-0.1,0.1-0.1,0.2-0.1c0,0,0.1,0,0.1-0.1c0-0.1,0.1-0.1,0.1,0
	c0,0.1,0.1,0.1,0.1,0.1c0.1,0,0.2-0.1,0.3-0.1c0.1-0.1,0.2-0.1,0.3-0.1c0.1,0,0.1,0.1,0.2,0.1c0.1,0,0.1,0,0.1,0.1
	c0.1,0,0.2-0.1,0.3-0.1V7.6c0.1,0,0.1-0.1,0.1-0.1h0.1c-0.1,0.1-0.1,0.2,0,0.3v0.3v0.1c0,0.1,0,0.1-0.1,0.3v0.1
	c0.1,0.1,0.1,0.1,0.1,0.1s0.3,0,0.3,0.1c0,0.1-0.1,0.2-0.1,0.3c0.1,0.1,0,0.1,0.1,0.2c0,0.1,0,0.1,0.1,0.2c0,0,0.1,0.1,0.1,0.1
	l0.1,0.1c0.1,0.1,0.1,0.1,0.1,0.1C13.9,9.9,14,10,14.1,10c0.1,0.1,0.1,0.1,0.1,0.1c0,0.1,0.1,0.1,0.1,0.1c0.1,0,0.1,0.1,0.1,0.1
	c0.1,0.1,0.1,0.1,0.1,0.1c0.1,0.1,0.1,0.1,0.1,0.1c0.1,0.1,0.1,0.1,0.2,0.1c0.1,0.1,0.1,0.1,0.1,0.1c0.1,0,0.1,0.1,0.1,0.1
	c0.1,0.1,0.2,0.1,0.3,0.1c0.1,0,0.2,0.1,0.3,0.1c0.1,0.1,0.1,0.1,0.2,0.3h0.1c0.1,0.1,0.1,0.1,0.1,0.1c0.1,0,0.1,0.1,0.1,0.1
	c0.1,0,0.1,0.1,0.2,0.1c0.1,0.1,0.2,0.1,0.3,0.2c0.1,0,0.1,0.1,0.1,0.1c0.1,0.1,0.2,0.1,0.3,0.1C17,12,17.1,12,17.1,12
	c0.1,0.1,0,0.1,0,0.2c0.1-0.1,0.1-0.1,0.1-0.1c0.1,0.1,0.1,0.1,0.1,0.1h0.1c0.1,0.1,0.1,0.1,0.1,0.1l0.1,0.1c0.1,0,0.1,0.1,0.2,0.1
	c0.1,0.1,0.1,0.1,0.1,0.1c0.1,0.1,0.2,0.1,0.3,0.2C18,13,18,13,18,13s0,0.1,0.1,0.1c0,0.1,0.1,0.1,0.2,0.1c0.1,0,0.1,0.1,0.1,0.1
	c0,0.1,0.1,0.1,0.1,0.1c0.1,0,0.1,0.1,0.1,0.1c0.1,0.1,0.3,0.1,0.3,0.1c0.1,0.1,0.1,0.1,0.1,0.1v-0.1H19c0.1-0.1,0,0.1,0.1-0.1v-0.1
	c0,0,0-0.1,0.1-0.1c0-0.1,0.1-0.1,0.1-0.1s0.1-0.1,0-0.1c0-0.1,0.1-0.1,0.1-0.1c0.1-0.1,0.1-0.3,0.2-0.3h0.1c-0.1,0-0.1-0.1-0.1-0.1
	c0.1-0.1,0.1-0.1,0.1-0.1c0.1,0,0.1-0.1,0.1-0.1c0-0.1,0-0.1,0.1-0.2c0,0-0.1,0.1,0,0.1c0-0.1,0.1-0.1,0.1-0.2h0.1v-0.1v-0.1
	c-0.1,0-0.1-0.1-0.1-0.1c0.1-0.1,0.1-0.1,0.1-0.1c0.1,0,0.1-0.1,0.1-0.1c0-0.1,0-0.1,0.1-0.2c0.1,0,0.1,0,0.1-0.1l0.1-0.3
	c0.1,0,0.1-0.1,0.1-0.1c0.1-0.1,0.1-0.1,0.1-0.2c0.1-0.1,0.1-0.1,0.1-0.2c0-0.1,0.1-0.1,0.1-0.1c0.1-0.1,0.1-0.3,0.1-0.4
	c0.1,0,0.1-0.1,0.1-0.1c0.1-0.1,0.1-0.1,0.1-0.3c0-0.1,0-0.1,0.1-0.2c0-0.1,0-0.1,0.1-0.1c0.1-0.1,0.2-0.1,0.3-0.2
	c0.1-0.1,0.1-0.1,0.1-0.1c0.1,0,0.1-0.1,0.1-0.1c0.1-0.1,0.1-0.1,0.1-0.1h0.1c0.1,0,0.1-0.1,0.1-0.1c0.1-0.1,0.1-0.1,0.1-0.2
	l0.1-0.3c0-0.1,0-0.1,0.1-0.1c0.1,0,0.1-0.1,0.3-0.1l0.1-0.1c0-0.1,0.1-0.1,0.1-0.1c0-0.1,0.1-0.1,0.1-0.1L22.7,7
	c0.1-0.1,0.1-0.1,0.1-0.1s0-0.1,0.1-0.1V6.6c0-0.1,0-0.1,0.1-0.1c0.1,0,0.1,0,0.1-0.1h0.5c0-0.1,0-0.1-0.1-0.1
	c0.1-0.1,0.1-0.3,0.3-0.4c0-0.1,0-0.1,0.1-0.1c0-0.1,0.1-0.1,0.1-0.1C24,5.7,24,5.6,24,5.6c0-0.1,0.1-0.1,0.1-0.1h0.1
	c0.1,0.1,0.1,0,0.1,0c0.1-0.1,0.3-0.1,0.4-0.2c0-0.1,0-0.1,0.1-0.1v0.3l0.1-0.1c0.1-0.1,0.1-0.1,0.1-0.1H25V5C25,5,25,5,25,4.9
	c0-0.1,0-0.1-0.1-0.1c0-0.1-0.1-0.1,0-0.1c0-0.1,0-0.2-0.1-0.3V4.2c0-0.1-0.1-0.1,0-0.3c-0.1-0.1-0.1-0.1-0.1-0.1
	c0.1-0.1-0.1-0.3-0.1-0.3c0.3-0.1,0.1-0.1,0.1-0.1c-0.1-0.1,0-0.2-0.1-0.3c0-0.1-0.1-0.1-0.1-0.1c0.1-0.1,0.1,0,0.1,0h0.1
	c0-0.1,0.1-0.1,0.1-0.1c0.1,0,0.1,0,0.1,0.1h0.1h0.3c0.1,0,0.3,0.1,0.3,0.1c0.1,0.1,0.1,0.1,0.1,0.1c0.1,0,0.1,0,0.2,0.1v0.1H26
	c0.1,0,0.1,0,0.1,0.1c0,0.1,0.1,0.1,0.1,0.1c0.3-0.1,0.3-0.1,0.3,0c0.1,0.1,0.1,0.1,0.1,0.1c0.1,0.1,0.1,0.1,0.2,0.1c0-0.1,0,0,0,0
	c0.1,0.1,0.1,0.1,0.2,0.1c0.1,0.1,0.2,0.1,0.3,0.2h0.1C27.5,4,27.5,4,27.7,4.1c0.1,0.1,0.3,0.1,0.3,0.2H28c0.1,0,0.3,0,0.4,0.1h0.1
	l0.3,0.1c0.1,0.1,0.1,0.1,0.2,0.2c0,0.1,0.1,0.1,0.1,0.1C29,5,29,5,29.1,5c0,0.1,0.1,0.1,0.1,0.1v0.1c-0.3,0.1-0.3,0.1-0.4,0.4
	c0.1-0.1,0.1-0.1,0-0.1c-0.1,0.1-0.1,0.1-0.1,0.2c0,0.1,0,0.1-0.1,0.2c0,0.1-0.1,0.1-0.1,0.1s0.1,0.1,0,0.1c0,0.1-0.1,0.1-0.1,0.1
	v0.1c0.1,0.1,0,0.1,0,0.1s-0.1,0.1,0.1,0.2v0.1C28.5,7,28.5,7,28.5,7.1c0.1,0.1,0.1,0,0.1,0.1c0,0.1,0.1,0.1,0.1,0.1
	c-0.1,0.1-0.1,0.1,0,0.1c0,0.1,0,0.1-0.1,0.1c-0.1,0.1-0.1,0.1-0.1,0.1c0.1,0,0.1,0.1,0.1,0.1c0,0.1,0,0.1,0.1,0.2
	c0.1,0.1,0.1,0.1,0.1,0.1c0.1,0.1,0.1,0.1,0,0.1v0.1c0.1,0.1,0,0.1,0,0.1v0.1c0.1,0.1,0.1,0.1,0.1,0.1c0,0.1,0.1,0.1,0.1,0.3v0.3
	l-0.1,0.1c0,0.1-0.1,0.1,0,0.2V9.4c0.1,0.1,0.1,0.1,0.1,0.2s0,0.1,0.1,0.1v0.1V10c0,0.1,0,0.1,0.1,0.3v0.1c-0.1,0.1,0,0.1,0.1,0.1
	C29,10.5,29,10.5,29,10.6c0.1-0.1,0.1-0.1,0.1,0.1h-0.1c0,0.1-0.1,0.1,0,0.1c0,0,0.1,0.1,0.1,0.1c-0.1,0-0.1,0.1-0.1,0.1
	c0.1,0,0.1,0.1,0.1,0.1c0.1,0,0.1,0.1,0,0.1v0.1c0,0,0,0.1-0.1,0.1l0.1,0.1c0,0.1,0.1,0.1,0,0.2c0,0,0,0.1,0.1,0.1
	c0,0.1,0.1,0.1,0.1,0h0.1c0.1,0.1,0.1,0.1,0.1,0.2c-0.1,0.1-0.1,0.1-0.1,0.1c0,0,0.1,0.1,0.1,0.1c0,0.1,0.1,0.1,0.1,0.1
	c0.1,0,0.1,0,0.1,0.1v0.1c0,0.1,0,0.1,0.1,0.2c0.1,0.1,0.1,0.1,0.1,0.2c0,0.1,0,0.1,0.1,0.1c0.1,0.1,0.1,0.3,0.1,0.4
	c0,0-0.1,0,0,0.1c0.1,0.1,0.1,0.1,0,0.1v0.1c0.1,0.1,0.1,0.1,0.1,0.2c0,0,0,0.1,0.1,0.1c0,0.1,0.1,0.1,0.1,0.1s0,0.1,0.1,0.3h0.1
	c0,0.1,0,0.1,0.1,0.1v0.1c0,0.1,0.1,0.1,0.1,0.1c0.1,0.1,0.1,0.2,0.1,0.3v-0.5v0.1c0.1,0.1,0.1,0.1,0.1,0.2v0.1c0,0.1-0.1,0.2,0,0.3
	l0.1,0.1c-0.1,0.1,0,0.1,0,0.1v0.1c0.1,0.1,0.1,0.1,0.1,0.3V16v0.1v0.1c0.1,0.1-0.4,0.7-0.5,0.7c0,0.1,0,0.1-0.1,0.1
	c0,0.1-0.1,0.2-0.2,0.2c-0.1,0-0.1,0.1-0.1,0.1c0,0.1-0.1,0.1-0.1,0.2c-0.1,0.1-0.1,0.1-0.1,0.1c-0.1,0.1-1.3,0.1-1.4,0.1
	c-0.1-0.1-0.1-0.1-0.2,0c-0.1,0.1-0.1,0.1-0.2,0.1c-0.1,0-0.3,0.3-0.4,0.4c-0.1,0.1-0.1,0.1-0.1,0c-0.1,0-0.1,0-0.2,0.1
	c-0.1,0-0.1,0.1-0.1,0v0.1c-0.1,0.1-0.1,0.1-0.2,0.1c-0.1-0.1-0.1,0.1-0.2,0.1c-0.1,0-0.1,0.1-0.2,0.1c-0.1,0.1-0.1,0.1-0.1,0.1
	c0,0.1-0.1,0.1-0.1,0.1c-0.1,0.1-0.1,0.1-0.2,0.1c-0.1,0.1-0.1,0.1-0.2,0.3c-0.2-0.3-0.3-0.3-0.3-0.2c-0.1,0.1-0.1,0.1-0.3,0.2v0.1
	c-0.1,0.1-0.1,0.1-0.1,0.1c-0.1,0.1-0.1,0.1-0.1,0.2C25,20,25,20,24.9,20c0,0.1-0.1,0.1-0.1,0.1l-0.1,0.1v0.1
	c-0.1,0-0.1,0.1-0.1,0.1c-0.1,0.1-0.1,0.1-0.2,0.2v0.1c-0.1,0.1-0.2,0.4-0.2,0.5c-0.1,0.1-0.1,0.1-0.1,0.3c-0.1,0.1-0.1,0.1-0.1,0.1
	c-0.1,0-0.1,0-0.1,0.1c0,0.1-0.1,0.1-0.1,0.3C24,22,24,22.2,23.9,22.2v0.1c0.1,0.1,0,0.1-0.1,0.1v0.1c0,0.1-0.1,0.2-0.1,0.3V23
	c0,0.1-0.1,0.1-0.1,0.1c-0.1,0-0.1,0.1-0.1,0.1c-0.1,0.1-0.1,0.2-0.1,0.3v0.1c-0.1,0.1-0.1,0.1-0.1,0.2c0,0.1-0.1,0.1-0.1,0.1V24
	v0.1c0,0.1,0,0.1-0.1,0.1v0.1l-0.1,0.1c-0.1,0.1-0.1,0.1,0,0.2v0.1c0,0.1,0,0.1,0.1,0.1V25c-0.1,0-0.1,0-0.1-0.1
	c0,0.1,0,0.2-0.1,0.3c-0.1,0.1,0,0.2-0.1,0.3v0.1c0.1,0.1,0,0.1,0,0.1L23,25.8v0.1v0.3c-0.1,0.1-0.2,0.1-0.1,0.2
	c0.1,0,0.1,0.1,0,0.1v0.1v0.1c-0.1,0.1-0.1,0.1-0.1,0.2V27l-0.1,0.1c0.1,0.1,0.1,0.1,0.1,0.1l0.1,0.1v0.1c0,0.1,0,0.1-0.1,0.1h-0.1
	c-0.1,0.1-0.1,0.3-0.1,0.5v0.3c0,0.1,0,0.1,0.1,0.1c-0.1,0.1-0.1,0.2,0,0.3c-0.1,0.1-0.1,0.1-0.1,0.1v0.1c0,0.1,0.1,0.1,0.1,0.1
	c-0.1,0.1-0.1,0.1-0.1,0.2v0.1c-0.1,0.1-0.1,0.1,0,0.2V30c0.1,0,0,0.1,0,0.1v0.1c0,0.1-0.1,0.2-0.1,0.3c0,0.1,0,0.1,0.1,0.1
	c0.1,0.1,0.1,0.1,0,0.1c-0.1,0.1,0,0.2,0,0.3v0.1v0.7V32v0.1v0.1c0,0.1-0.1,0.1-0.1,0.1c0.1,0.1,0.1,0.2,0.1,0.3
	c0,0.1,0.1,0.3,0.1,0.4c0,0.3,0,0.5,0.1,0.7v0.5c0,0.1,0.1,0.3,0.1,0.5v0.5c0.1,0.2,0.1,0.4,0.1,0.5v0.3c0,0.1,0,0.3,0.1,0.3
	c0.1,0.3,0.1,0.5,0.1,0.7v0.1c0.1,0.1,0.1,0.2,0.1,0.3c0,0.1,0.1,0.1,0.1,0.3V38c0.1,0.1-0.1,0.3,0.1,0.4c0,0.1,0.1,0.2,0.1,0.3
	c0,0.1,0.1,0.3,0.1,0.5c0,0.1,0.1,0.1,0.1,0.1c0,0.1,0.1,0.1,0.1,0.1c0,0,0.1,0,0.1,0.1c0.1,0.1,0.1,0.1,0.1,0.3h-0.1
	c0.1,0,0.1,0,0.1-0.1c0-0.1,0.1-0.1,0.2-0.2c0,0.1,0.1,0.1,0.1,0.1s0,0.1,0.1,0.1h0.1c0.3,0.1,0.7,0.1,1.1,0.1c0.1,0,0.1,0,0.3-0.1
	c0.1,0,0.1-0.1,0.1-0.1c0.1,0,0.3,0,0.5-0.1h0.1c0.2-0.1,0.4,0,0.6-0.1h0.1c0.1,0.1,0.1,0.1,0.1,0.1c0.1,0,0.2,0,0.3,0.1
	c0.1-0.1,0.1-0.1,0.2,0.1c0.1,0.1,0.2,0.1,0.3,0.1h0.5h0.1h0.1h0.5l0.1-0.3c0.2,0.1,0.4,0,0.7,0.1c0-0.1,0.1-0.1,0.1-0.1h0.3
	l0.1,0.1h0.5h0.1c0.1,0,0.1-0.1,0.1,0c0.1,0,0.2-0.1,0.3-0.1h1c0.1-0.1,0.1-0.1,0.1,0c0.1-0.1,0.1-0.1,0.1-0.1c0.1,0.1,0.1,0,0.2,0
	c0.1,0.1,0.1,0.1,0.3,0h0.1c0.1,0,0.1-0.1,0.2-0.1c0.1-0.1,0.1-0.1,0.1-0.1c0.1-0.1,0.1-0.1,0.1-0.1c0.1-0.1,0.1-0.1,0-0.2
	c0-0.1,0-0.1,0.1-0.1c0.1-0.1,0.1-0.1,0-0.1v-0.1c0-0.1,0.1-0.2,0.1-0.3v-0.1c0.1-0.1,0.1-0.2,0.1-0.3v-0.1c0-0.1,0.1-0.1,0-0.1
	c0-0.1,0-0.1,0.1-0.1c0-0.1,0.1-0.2,0-0.3V37c0-0.1,0.1-0.1,0.1-0.1c-0.1,0,0-0.1,0-0.1v-0.3c0-0.1,0.1-0.1,0-0.3
	c0-0.1,0.1-0.1,0.1-0.2v-0.2c-0.1-0.1-0.1-0.1-0.1-0.1c0.1-0.1,0.1-0.1,0.1-0.1c-0.1-0.1,0-0.1,0-0.1v-0.2V35c0-0.1-0.1-0.1-0.1-0.1
	c-0.1,0-0.1-0.1-0.1-0.1v-0.1c0-0.1-0.1-0.2-0.1-0.3c0-0.1,0-0.1-0.1-0.3L33,34c-0.1-0.1-0.1-0.1-0.1-0.1c0.1-0.1,0.1-0.1,0.1-0.1
	c0-0.1,0-0.2,0.1-0.3c0.1,0,0.1-0.1,0.1-0.1c-0.1-0.1-0.1-0.2-0.1-0.3c0.1-0.1,0.1-0.1,0-0.1c0-0.1,0-0.1,0.1-0.1
	c0-0.1,0.1-0.1,0.1-0.1l0.1-0.1c0.1,0,0.1,0,0.1-0.1v-0.1l-0.1-0.1c-0.1-0.1-0.1-0.1-0.1-0.1c-0.1-0.1-0.1-0.1,0-0.1
	c0.1,0,0.1-0.1,0.1-0.1c0.1-0.1,0.1-0.1,0.1-0.1c-0.1-0.1-0.1-0.1-0.1-0.2c-0.1-0.1-0.1-0.1-0.1-0.1v-0.1c0-0.1,0-0.1,0.1-0.1
	c0-0.1,0.1-0.1,0-0.1v-0.1c-0.1-0.1-0.1-0.1-0.1-0.3c-0.1-0.1,0-0.1-0.1-0.2v-0.1c0-0.1,0.1-0.1,0.1-0.1c0-0.1,0.1-0.2,0.1-0.3
	c0.1-0.1,0.1-0.1,0-0.1c-0.1-0.1-0.1-0.1-0.1-0.1c0.1-0.1,0-0.1,0-0.1c-0.1-0.1-0.1-0.1-0.1-0.1v-0.1V29c0.1-0.1,0-0.1,0-0.1
	C33,28.8,33,28.7,33,28.7s0.1-0.1,0.1-0.2v-0.3v-0.1C33,27.9,33,27.9,33,27.8c-0.1-0.1-0.1-0.1-0.1-0.3c0,0,0.1-0.1,0-0.1v-0.1
	c0,0,0-0.1,0.1-0.1c0-0.1,0-0.1-0.1-0.2c-0.1-0.1-0.1-0.1-0.1-0.1l0.1-0.1c-0.1,0-0.1-0.1-0.1-0.1v-0.3c0.1-0.1,0.1-0.1,0.1-0.2
	c0-0.1,0.1-0.1,0.1-0.2v-0.3c0-0.1,0.1-0.1,0-0.1c-0.1-0.1,0-0.1,0-0.3c0-0.1-0.1-0.1-0.1-0.1v0.7H33c0-0.1,0.1,0,0.1,0
	c0.1-0.1,0.1-0.1,0.1-0.1c0.1-0.1,0.1-0.1,0.1-0.3c0-0.1-0.1-0.1,0-0.3c0.2,0,0.2,0,0.2-0.1V25c-0.1-0.1-0.1-0.1-0.1-0.2
	c0-0.1,0-0.1,0.1-0.2c-0.1-0.1-0.1-0.1-0.1-0.2c0-0.1,0-0.1-0.1-0.1c0-0.1-0.1-0.1-0.1-0.1c0-0.1,0-0.1-0.1-0.1
	c-0.1-0.1-0.1-0.1,0-0.3c0-0.1,0.1-0.1,0.1-0.1c-0.1-0.1,0-0.1,0-0.2c0-0.1,0.1-0.3,0.1-0.3V23c0.1,0,0.1-0.1,0.1-0.1
	c0-0.1-0.1-0.2,0-0.3v-0.1v-0.4V22c0.1-0.1,0.1-0.1,0.1-0.3c-0.1-0.1-0.1-0.3,0-0.4c0.1,0,0.1-0.1,0-0.1c0-0.1-0.1-0.1-0.1-0.3V21
	c0.1-0.1,0.1-0.1,0.1-0.2v-0.1c0.1-0.1,0-0.2,0-0.3v-0.2c0-0.1-0.1-0.1,0-0.1c0.1-0.1,0-0.1,0-0.2c-0.1-0.1,0-0.2,0-0.3
	s0.1-0.1,0-0.3v-0.1v-0.1V19c0-0.1-0.1-0.1,0-0.3c0,0-0.1,0-0.1-0.1c-0.1-0.1,0-0.1,0-0.1c0.1-0.1,0.1-0.2,0-0.3v0.3
	c0-0.1,0.1-0.1,0.1-0.2c0,0-0.1,0-0.1-0.1c0.1-0.1,0.1-0.1,0.1-0.2c0-0.1,0-0.1,0.1-0.1v-0.1c-0.1-0.1-0.1-0.1-0.1-0.3
	c0,0,0-0.1,0.1-0.1c0.1-0.1,0.1-0.1,0.1-0.2c-0.1-0.1-0.1-0.2,0-0.3v-0.1c-0.1-0.1-0.1-0.1,0-0.1v-0.1c0-0.1,0-0.1-0.1-0.1
	c0.1-0.1,0.1-0.1,0-0.1v-0.1c0.1-0.1,0.1-0.1,0.1-0.1c-0.1-0.1,0-0.2-0.1-0.3v-0.1V16c-0.1-0.1-0.1-0.1-0.1-0.1v-0.1v-0.1v-0.2
	c-0.1-0.1-0.1-0.1,0-0.2v-0.1C33.3,15,33.3,15,33.3,15c0-0.1,0-0.2-0.1-0.3c0,0,0-0.1,0.1-0.1v-0.1c-0.1-0.1-0.1-0.1-0.1-0.2
	l0.1-0.1v-0.1V14c0-0.1,0.1-0.1,0.1-0.1c-0.1-0.1-0.1-0.1-0.1-0.1c0.1-0.1,0.1-0.2,0.1-0.3c0-0.1,0.1-0.1,0-0.2v-0.1v-0.1
	c0.1-0.1,0.1-0.1,0.1-0.3v0.1c0-0.1-0.1-0.1-0.1-0.1s0-0.1-0.1-0.1L33.4,12.6L33.4,12.6z M20.7,9.2c-0.1,0.1-0.3,0.1-0.3,0.3
	c0,0.1-0.1,0.1-0.1,0.2c-0.3,0.3-0.5,0.6-0.7,0.9c-0.1,0.1-0.3,0.2-0.5,0.3c-0.2,0.1-0.4,0.3-0.6,0.5c-0.1,0.1-0.3,0.1-0.3-0.1
	c-0.1-0.1-0.1-0.3-0.3-0.3c-0.1,0-0.1-0.1-0.1-0.1c-0.1-0.3-0.4-0.5-0.7-0.5c-0.1,0-0.1-0.1-0.2-0.2c-0.1-0.1-0.2-0.3-0.3-0.5
	c-0.1-0.1-0.2-0.2,0-0.3V9.4V8.9c0.1-0.1,0.1-0.2,0.1-0.3C16.9,8.5,17,8.4,17,8.3C17.1,8.1,17.1,8,17.3,8c0.1-0.1,0.3-0.1,0.5-0.1
	v0.1c0.1-0.1,0.1-0.1,0.2-0.1c0.2-0.1,0.5-0.1,0.7-0.1c0.3-0.1,0.5-0.1,0.7-0.1c0.1,0,0.1,0.1,0.1,0.1c0.1,0.2,0.3,0.3,0.5,0.4
	c0.2,0.1,0.3,0.3,0.5,0.3c0.1,0.1,0.3,0.3,0.3,0.5C20.9,9.1,20.8,9.2,20.7,9.2z"/>
</svg>
