<?xml version="1.0" encoding="utf-8"?>
<!-- Generator: Adobe Illustrator 25.2.3, SVG Export Plug-In . SVG Version: 6.00 Build 0)  -->
<svg version="1.1" id="Layer_1" xmlns="http://www.w3.org/2000/svg" xmlns:xlink="http://www.w3.org/1999/xlink" x="0px" y="0px"
	 viewBox="0 0 40 40" style="enable-background:new 0 0 40 40;" xml:space="preserve">
<style type="text/css">
	.st0{fill:#D50032;}
</style>
<path class="st0" d="M6.6,14.1c0.1,0.1,0.1,0.1,0.1,0.1v0.1c0.1,0,0.1-0.1,0.1-0.1C6.9,14.2,7,14.2,7,14.1l0.1-0.1
	c0.2-0.1,0.3-0.2,0.5-0.3c0.1,0,0.3-0.1,0.3-0.2c0.2-0.1,0.3-0.2,0.5-0.3c0.1,0,0.2-0.1,0.3-0.1L8.8,13L8.9,13
	c0.1,0,0.1-0.1,0.1-0.1l0.1-0.1c0.1-0.1,0.1-0.1,0.2-0.1c0.1-0.1,0.1-0.1,0.1-0.1c0.1,0,0.1-0.1,0.3-0.1c0.1-0.1,0.2-0.1,0.3-0.1
	h0.1c0.1-0.1,0.1-0.1,0.1-0.1s0.1,0,0.1-0.1V12c0.1-0.1,0.1-0.1,0.1-0.2c-0.1-0.1-0.1-0.1-0.1-0.1c-0.1-0.1-0.1-0.1-0.1-0.1
	c-0.1-0.1-0.1-0.1-0.2-0.2c-0.1,0.1-0.1,0.1-0.2,0c-0.1,0-0.2,0-0.3,0.1c-0.1,0.1-0.1,0.1-0.2,0.1c-0.1,0.1-0.1,0.1-0.1,0.1
	c-0.1,0.1-0.1,0.1-0.2,0.1H8.7c-0.1-0.1-0.1,0-0.1,0.1c0,0-0.1,0.1-0.1,0.1c-0.1,0-0.1,0.1-0.1,0.1l-0.1,0.1c0,0.1-0.1,0.1-0.1,0.1
	c-0.1,0-0.1,0.1-0.1,0.1l-0.1,0.1c-0.1,0.1-0.2,0.1-0.3,0.2v0.1c-0.1,0-0.1,0.1-0.2,0.1C7.6,13,7.6,13,7.6,13
	c-0.1,0-0.1,0.1-0.1,0.1c-0.1,0.1-0.1,0.1-0.3,0.1c-0.1,0-0.1,0.1-0.3,0.1c0,0.1-0.1,0.1-0.1,0.1c-0.1,0-0.1,0.1-0.2,0.1
	c-0.2-0.3-0.2-0.2-0.2-0.2v0.5C6.5,13.9,6.6,14,6.6,14.1z"/>
<path class="st0" d="M33.2,36.1V36v-0.1c0-0.1-0.1-0.1-0.1-0.2c0-0.1-0.1-0.1,0-0.1c0.1,0,0.1-0.1,0.1-0.1c-0.1-0.2-0.1-0.4-0.1-0.7
	l-0.4-2.9c0.1-0.1,0.1-0.1,0.1-0.2v-0.1c0.1,0,0.1-0.1,0.1-0.1v-0.1c0.1-0.1,0.1-0.1,0.1-0.2c0.1-0.1,0.1-0.1,0.1-0.1
	c0-0.1-0.1-0.2-0.1-0.3c0.1-0.2,0-0.4,0-0.6v-0.5v-0.2c0-0.1,0-0.3-0.1-0.4c0-0.1-0.1-0.1-0.1-0.3c-0.1-0.1-0.1-0.3,0-0.4
	c0-0.1,0-0.1-0.1-0.3c-0.1-0.1,0-0.2,0-0.3c0-0.1,0.1-0.2,0.1-0.3c0-0.1,0-0.1,0.1-0.1c0.1,0,0.1-0.1,0.1-0.1c-0.1-0.1,0-0.1,0-0.1
	c0.1-0.1,0.1-0.1,0.1-0.1v-0.5c0-0.2-0.1-0.4-0.1-0.6v-0.5v-0.7v-0.6v-0.5c0-0.1,0-0.3-0.1-0.5v-0.6V22v-0.5V21v-0.6
	c-0.1-0.3-0.1-0.5-0.1-0.7v-0.6v-0.7v-0.6v-0.7c-0.1-0.2-0.1-0.4-0.1-0.5v-0.5v-0.6V15v-0.6c-0.1-0.3-0.1-0.5-0.1-0.7V13v-0.7v-0.6
	c0-0.3,0-0.5-0.1-0.7v-0.5V10V9.2V8.7c0-0.2,0-0.5-0.1-0.7V7.3V6.6V6V5.2V4.7c-0.1-0.2-0.1-0.3-0.1-0.5V3.6V3V2.5
	c0-0.2,0-0.4-0.1-0.6v0.1V1.5c0-0.1,0-0.1-0.1-0.1c-0.1-0.1-0.3-0.3-0.3-0.5c0.2-0.1,0.1-0.1,0.1-0.1c-0.1-0.1-0.3-0.2-0.3-0.3
	c-0.1-0.1-0.2-0.1-0.3-0.1h-0.2c-0.1,0-0.1,0-0.1-0.1c-0.1,0-0.1,0-0.1,0.1c-0.1-0.1-0.2-0.1-0.3-0.1H30h-0.8h-0.5
	c-0.1,0-0.1,0-0.1,0.1c-0.1,0.1-0.1,0.1-0.2-0.1c0,0-0.1,0-0.1-0.1h-0.1C28.2,0,28.1,0,28,0c-0.1,0.1-0.2,0.1-0.3,0.1h-0.5h-0.6
	h-0.6h-0.5h-0.5c-0.1,0-0.2,0.1-0.3,0.1h-0.2c-0.1,0.1-0.3,0-0.3,0H24h-0.8h-0.5h-0.5H22h-0.7h-0.7h-0.5h-0.5H19h-0.3h-0.3h-0.9H17
	h-0.7h-0.1c-0.1-0.1-0.1-0.1-0.1,0h-0.3h-0.5c-0.1,0-0.1,0.1-0.1,0.1c-0.1,0.1-0.1,0.1-0.3,0.1h-0.3h-0.3c-0.1,0-0.3,0-0.5,0.1
	c-0.2,0.1-0.4,0.1-0.7,0.1c-0.2,0-0.3-0.1-0.5-0.1c0-0.1-0.1-0.1-0.1-0.1c-0.4,0-0.7,0-1,0c-0.2,0-0.3,0.1-0.5,0.1h-0.5h-0.2
	c0,0.1,0,0.1-0.1,0.1c0,0.1-0.1,0.1-0.1,0c-0.1-0.1-0.2-0.1-0.3-0.1H9.7c-0.2,0-0.4,0-0.5,0.1c-0.1,0-0.1-0.1-0.3-0.1H8.8
	c-0.1,0-0.1-0.1-0.1,0.1c0,0.1-0.1,0.1-0.1,0.1H8.3H8.2v0.1c-0.1,0-0.1-0.1-0.1-0.1c0-0.1,0-0.1-0.1-0.1c0,0-0.1,0.1-0.1,0.1
	c0,0.1,0,0.1,0.1,0.2c0.1,0,0.1,0,0.1,0l0.1,0.1C8.3,0.8,8.3,0.9,8.3,1C8.3,1,8.2,1,8.2,1C8.1,1,8.1,0.9,8.1,0.8s-0.1,0-0.2,0
	C7.9,0.8,7.9,0.9,7.9,1C7.8,0.9,7.7,0.8,7.6,0.8C7.6,0.8,7.4,0.9,7.3,0.9c0,0-0.1,0.1-0.1,0.1L7.1,1.3c0,0.1,0,0.1-0.1,0.1
	C7,1.4,7,1.4,7,1.4C6.8,1.5,6.8,1.7,6.7,1.9C6.6,1.9,6.6,2,6.6,2.1c0,0.1-0.1,0.1,0,0.1c0,0.2,0,0.4-0.1,0.5
	C6.4,2.9,6.4,3.1,6.4,3.3v0.1v0.2v0.1c0.1,0,0.1-0.1,0.1-0.1c0.1-0.1,0.1-0.1,0.1-0.1c0,0.1,0.1,0.1,0.1,0.1c0,0.1-0.1,0.1-0.1,0.1
	H6.4v0.1v1.1V5h0.1c0,0,0,0.1-0.1,0.1c0-0.1,0,0,0,0.1v0.3v1.2v1.4V9V10v0.7v0.5v0.5v0.5h0.1V12c0.1,0,0.1,0,0.1,0.1L6.7,12
	c0-0.1,0-0.1,0.1-0.1h0.1c0.1-0.1,0.3-0.2,0.5-0.3c0.5-0.4,1.1-0.7,1.6-1.1c0.5-0.3,1-0.7,1.4-0.9c0.5-0.3,0.8-0.6,1.4-0.9
	c0.1,0,0.1-0.1,0.1-0.1c0.1-0.1,0.1-0.1,0.2-0.1c0.3-0.1,0.5-0.3,0.7-0.5c0.1-0.1,0.1-0.1,0.3-0.1V7.6C13,7.5,13,7.5,13.1,7.5
	c0.1,0,0.1-0.1,0.1-0.1c0.1-0.1,0.1-0.1,0.3-0.1c0.1,0,0.1-0.1,0.2-0.1C13.7,7.1,13.8,7,13.9,7c0.1-0.1,0.3-0.1,0.4-0.3
	c0.1,0,0.1-0.1,0.1-0.1c0.1-0.1,0.1-0.1,0.2-0.1c0.1-0.1,0.1-0.1,0.3-0.1c0.1-0.1,0.2-0.1,0.3-0.2C15.2,6.1,15.2,6,15.3,6
	c0.3,0.1,0.3,0.1,0.3,0c0.1-0.1,0.1-0.1,0.3-0.1H16c0.1-0.1,0.2-0.1,0.3-0.2c0.1-0.1,0.1-0.1,0.1-0.1c0.1-0.1,0.1-0.1,0.2-0.1
	c0.1-0.1,0.1-0.1,0.1-0.1l0.1-0.1c0.1,0.1,0.1,0,0.2-0.1C17,5.2,17,5.1,17,5.1c0.1,0,0.1-0.1,0.1-0.1c0.1,0,0.1-0.1,0.1-0.1
	c0.1,0,0.1-0.1,0.1-0.1c0.2,0,0.3,0,0.3,0c0.1-0.1,0.1-0.1,0.1-0.1c0.1-0.1,0.3-0.2,0.5-0.3c0.1-0.1,0.1-0.1,0.2-0.1
	c0.1,0,0.1-0.1,0.1-0.1C18.4,4.1,18.4,4,18.6,4c0.1-0.1,0.1-0.1,0.1-0.1c0.1-0.1,0.3-0.1,0.3-0.2C19,3.6,19,3.6,19,3.6h0.1
	c0.1-0.1,0.3-0.1,0.3-0.3c0.1,0,0.1-0.1,0.1-0.1l0.1-0.1C19.7,3.1,19.7,3,19.8,3c0.1,0,0.1-0.1,0.1-0.1c0.1-0.1,0.1-0.1,0.2-0.1h0.1
	c0-0.1,0-0.1,0.1-0.1c0-0.1,0.1-0.1,0.1-0.1c0.1,0,0.1-0.1,0.2-0.1c0-0.1,0.1-0.1,0.1-0.1c0.1,0.1,0.1,0.1,0.1,0
	c0-0.1,0.1-0.1,0.1-0.1C20.8,2.1,21,2.1,21,2c0.3,0.1,0.4,0.1,0.4,0.1h0.1c0.1,0.1,0.1,0.1,0.2-0.1c0.1,0,0.1-0.1,0.1,0
	c0.1,0.1,0.1,0,0.2-0.1c0.1,0.1,0.3,0.1,0.3,0.1c0.1,0.1,0.1,0.1,0.1,0.1h0.1c0.1,0.1,0.1,0.1,0.1,0h0.1c0.1-0.1,0.1-0.1,0.3,0.1
	c0.1,0.1,0.2,0.2,0.3,0.2c0.1,0,0.2,0.1,0.3,0.1c0.1,0,0.1,0.1,0.1,0.1l-0.1,0.1c-0.1-0.1-0.3,0-0.5,0c-0.1,0.1-0.3,0.1-0.4,0.2
	c0,0,0,0.1-0.1,0.1c-0.1,0-0.2,0.1-0.3,0.1h-0.1C22,3,22,3.1,22,3.2l-0.1,0.1c-0.1,0-0.1,0.1-0.2,0.1h-0.1c-0.1-0.1-0.1,0-0.2,0.1
	c0,0.1,0,0.1,0,0.1h-0.1c-0.1,0-0.1,0.1-0.1,0.1C21,3.8,20.9,4,20.8,4h-0.1c-0.1,0-0.1-0.1-0.2,0c-0.1,0-0.1,0-0.1,0.1l-0.1,0.1
	c-0.1,0.1-0.1,0.1-0.2,0.1l-0.1,0.1c-0.1,0-0.1,0.1-0.1,0.1C20,4.5,20,4.6,20,4.6c-0.2,0-0.3,0-0.4,0c-0.1,0-0.1,0.1-0.1,0.1
	c0,0.1-0.1,0.1-0.1,0.1l-0.1,0.1c-0.1,0-0.1,0.1-0.1,0v0.1L19.2,5h-0.1H19v0.1h0.1C19,5.2,19,5.2,19,5.2c-0.1,0.1-0.3,0.1-0.3,0.1
	c-0.1,0.1-0.1,0.1-0.1,0.1c-0.1,0.1-0.2,0.1-0.3,0.1c-0.1,0.1-0.2,0.1-0.3,0.2L18,5.9L17.9,6c-0.3-0.1-0.4-0.1-0.4-0.1
	c-0.1,0-0.1,0.1-0.1,0.1c-0.1,0-0.1,0.1-0.1,0.1l-0.1,0.1l-0.1,0.1c-0.1,0.1-0.1,0.1-0.1,0.1c-0.1,0-0.1,0.1-0.1,0.1h-0.1
	c-0.1,0.1-0.1,0.1-0.1,0.1c0,0.1-0.1,0.1-0.1,0.1v0.1c-0.1,0-0.1,0.1-0.1,0.1L16.5,7c-0.1,0-0.2,0.1-0.3,0.1c-0.1,0-0.1,0.1-0.1,0.1
	S16.1,7.3,16,7.3c-0.1-0.1-0.1,0-0.1,0.1c-0.1,0-0.1,0.1-0.1,0.1c-0.3-0.2-0.3-0.2-0.3-0.2c-0.1,0.1-0.3,0.1-0.3,0.3
	c-0.1,0-0.1,0-0.1,0.1c0,0.1-0.1,0.1-0.1,0.1c-0.1-0.1-0.2,0.1-0.3,0.1l-0.1,0.1C14.7,8,14.5,8,14.5,8.1l-0.1,0.1
	c-0.1,0.1-0.1,0.1-0.1,0.1s-0.1,0-0.1,0.1c-0.1,0.1-0.1,0.1-0.2,0.1c-0.1,0-0.1,0.1-0.1,0.1s-0.1,0.1-0.1,0.1
	c-0.1,0.1-0.1,0.1-0.1,0.1c-0.1,0-0.1,0.1-0.2,0.1h-0.1c-0.1,0.1-0.1,0.1-0.1,0.1c0,0.1-0.1,0.1-0.1,0.2c-0.3,0.2-0.6,0.3-0.8,0.5
	c-0.1,0.1-0.1,0.1-0.1,0.1c-0.3-0.1-0.3-0.1-0.3-0.1V10c0.1,0,0.3,0,0.5,0.1l0.1-0.1c0.1-0.1,0.2-0.1,0.3-0.1h0.1
	c0.1-0.1,0.1-0.1,0.3-0.1c0.1,0,0.1,0.1,0.2,0.1s0.1,0,0.1-0.1c0.3-0.1,0.5-0.3,0.8-0.5c0.1-0.1,0.3-0.3,0.5-0.3
	c0.1-0.1,0.3-0.1,0.4-0.3h0.1c0.1,0,0.3-0.1,0.4-0.2c0-0.1,0.1-0.1,0.1-0.1c0,0,0-0.1,0.1-0.1c0-0.1,0.1-0.1,0.2-0.1H16
	c0-0.1,0.1-0.1,0.1-0.1c0.1,0,0.1-0.1,0.3-0.2h0.1V7.8c0.1-0.1,0.1-0.1,0.2-0.1c0.1-0.1,0.2-0.1,0.3-0.1c0.1-0.1,0.1-0.1,0.3-0.1
	c0.1-0.1,0.2-0.1,0.3-0.3c0,0,0.1,0,0.1-0.1c0.1,0,0.1-0.1,0.2-0.1l0.1-0.1c0.1-0.1,0.1-0.1,0.1-0.1c0.1,0.1,0.1,0,0.3-0.1
	c0.1-0.1,0.1-0.1,0.3-0.2c0.1-0.1,0.1-0.1,0.1-0.1h0.1c0.1-0.1,0.1-0.1,0.2-0.2h0.1C18.9,6.1,19,6,19.1,6l0.1-0.1
	c0.2,0.1,0.3,0,0.3-0.1h0.1c0.1-0.1,0.1-0.1,0.3-0.2c0.1-0.1,0.1-0.1,0.2-0.1c0.1,0,0.1-0.1,0.1-0.1c0.1-0.1,0.1-0.1,0.3-0.1
	c0-0.1,0.1-0.1,0.1-0.1c0.1-0.1,0.1-0.1,0.2-0.1c0,0,0.1,0,0.1-0.1h0.1c0.1-0.1,0.2-0.1,0.3-0.2c0.1-0.1,0.3-0.1,0.3-0.3
	c0.1,0.1,0.1,0.1,0.2,0h0.1V4.4c0.1,0,0.1-0.1,0.1-0.1c0.1,0,0.1,0.1,0.1,0c0.1,0,0.1-0.1,0.1-0.1h0.1C21.9,4.1,22,4,22,4
	C22,4,22,4,22,3.9c0.1,0,0.1-0.1,0.3-0.1l0.1-0.1c0.1-0.1,0.1-0.1,0.1-0.1c0.1,0,0.1-0.1,0.1-0.1c0,0,0-0.1,0.1-0.1
	c0.1,0,0.3-0.1,0.3-0.1c0.1,0,0.2-0.2,0.3-0.3c0.1-0.1,0.1-0.1,0.3-0.2h0.1c0.1-0.1,0.3-0.1,0.5-0.1c0.1,0,0.1,0,0.1-0.1h0.1
	c0.1,0.1,0.3,0.1,0.4,0.2c0.1,0,0.1,0,0.1,0.1C24.8,3,25,3,25,3c0.3,0.2,0.3,0.3,0.3,0.3c-0.1,0.1-0.2,0.1-0.3,0.3
	c-0.1,0.1-0.1,0.1-0.3,0.1c-0.1,0.1-0.1,0.1-0.2,0.2C24.6,4,24.5,4,24.4,4c-0.3,0.1-0.5,0.2-0.7,0.5c-0.1,0-0.1,0.1-0.1,0.1
	c-0.2,0-0.2,0.1-0.3,0.1c-0.1,0.1-0.1,0.1-0.3,0.1c-0.1,0.1-0.3,0.2-0.5,0.3c-0.1,0-0.1,0.1-0.1,0.1l-0.1,0.1
	c-0.1,0-0.1,0.1-0.1,0.1c-0.1,0.1-0.2,0.1-0.2,0.1C22,5.5,22,5.5,21.9,5.5c-0.1,0-0.1,0.1-0.2,0.1c-0.1,0.1-0.3,0.1-0.3,0.2
	C21.3,5.9,21.1,6,21,6.1c-0.1,0.1-0.1,0.1-0.2,0.1c-0.1,0.1-0.2,0.1-0.3,0.2c-0.2,0.1-0.3,0.3-0.5,0.3c-0.1,0.1-0.2,0.1-0.3,0.1
	C19.7,7,19.7,7,19.5,7c-0.2,0.1-0.4,0.3-0.7,0.4c-0.1,0.1-0.3,0.2-0.5,0.3c-0.1,0.1-0.3,0.2-0.5,0.3c-0.1,0.1-0.3,0.1-0.5,0.3
	c-0.3,0.2-0.5,0.3-0.8,0.5C16.7,8.9,16.6,9,16.5,9c-0.1,0-0.1,0.1-0.1,0.1h-0.1c-0.1,0.1-0.2,0.1-0.3,0.2c-0.1,0.1-0.3,0.3-0.5,0.3
	c-0.1,0-0.1,0.1-0.1,0.1c-0.1,0.1-0.2,0.1-0.3,0.2c-0.1,0.1-0.3,0.1-0.3,0.3c-0.1,0.1-0.1,0.1-0.1,0.1c-0.1,0.1-0.1,0.1-0.2,0.1v0.1
	c0.1,0.1,0.2,0.2,0.2,0.4c0,0.1,0,0.1,0.1,0.1c0,0.1,0.1,0.1,0.1,0.1s0.1,0.1,0.1,0.1c0.1,0.1,0.1,0.1,0.1,0.3
	c0.1,0.1,0.1,0.2,0.2,0.3c0-0.1,0,0,0,0c-0.1,0.1-0.1,0.1-0.1,0.2c-0.1,0.1-0.1,0.2-0.1,0.3c0.1,0.1,0.1,0.1,0.1,0.3
	c0,0.1,0.1,0.1,0.1,0.1c0.1,0.1,0.1,0.1,0.1,0.2h0.1V13c0.1,0.2,0.1,0.3,0.2,0.5c0,0.1,0.1,0.1,0.1,0.2c0,0.1,0.1,0.1,0.1,0.1
	c0.1,0.1,0.1,0.1,0.1,0.1c0.1,0.1,0,0.1,0,0.3v0.1c0.1,0.1,0.1,0.1,0.1,0.2c0,0.1,0,0.2,0.1,0.3C16,14.8,16,14.8,16,15
	c0.1,0.1,0.1,0.3,0.3,0.5c0.1,0.1,0.1,0.3,0.2,0.5c0.1,0.1,0.1,0.3,0.3,0.5c0.1,0.1,0.1,0.3,0.1,0.4c0.1,0.2,0.2,0.3,0.3,0.5
	c0.1,0.1,0.1,0.3,0.2,0.5c0.1,0.1,0.1,0.3,0.3,0.5c0.1,0.1,0.1,0.3,0.2,0.5c0.1,0.1,0.1,0.3,0.2,0.5c0.1,0.1,0.1,0.2,0.1,0.3
	c0,0.1,0.1,0.1,0.1,0.1c0.1,0.1,0.1,0.1,0.1,0.2c0.1,0.3,0.3,0.5,0.4,0.7c0.1,0.1,0.2,0.3,0.3,0.5c0.1,0.2,0.3,0.4,0.4,0.6
	c0.1,0.1,0.1,0.1,0.1,0.2c0.1,0.1,0.1,0.3,0.2,0.5l0.1,0.1c0,0.1,0.1,0.1,0.1,0.2s0,0.1,0.1,0.1c0.2,0,0.3,0.1,0.3,0.3
	c0,0.1,0.1,0.1,0.1,0.1c0.1,0.1,0.1,0.1,0.1,0.1c0,0.1,0.1,0.1,0.1,0.1c0.1,0.1,0.1,0.1,0.1,0.1c0.1,0.1,0.2,0.2,0.3,0.3
	c0,0.1,0.1,0.1,0.1,0.1c0.1,0.1,0.2,0.3,0.3,0.4c0.1,0.1,0.1,0.1,0.1,0.3c0.1,0.3,0.3,0.5,0.6,0.7c0.1,0.1,0.2,0.2,0.3,0.3
	c0.1,0.1,0.1,0.1,0.3,0.3c0.1,0.1,0.1,0.1,0.1,0.1c0.1,0.1,0.3,0.3,0.3,0.3c0.1,0.1,0.3,0.3,0.5,0.4c0.1,0.1,0.1,0.1,0.3,0.3
	c0.1,0,0.1,0.1,0.1,0.1c0.1,0.1,0.1,0.1,0.1,0.1c0.1,0.1,0.1,0.1,0.1,0.1c0.1,0,0.2,0.1,0.3,0.2c0,0.1,0.1,0.1,0.1,0.1
	c0.1,0.1,0.1,0.3-0.1,0.4c0,0-0.1,0.1-0.1,0.1c-0.1,0.1-0.1,0.1-0.3,0.1c-0.1,0-0.1,0.1-0.1,0.1c-0.1,0-0.1,0.1-0.1,0.1
	c0,0.1-0.1,0.1-0.1,0.1c-0.1,0.1-0.1,0.1-0.1,0.1c-0.1,0.1-0.1,0.1-0.1,0.2c-0.2,0.2-0.3,0.3-0.5,0.5l-0.1,0.1
	c-0.1,0.1-0.1,0.1-0.3,0.3c-0.1,0.1-0.2,0.1-0.3,0c-0.1,0-0.1-0.1-0.3-0.1c-0.1-0.1-0.3-0.1-0.5-0.2c-0.1-0.1-0.1-0.1-0.1-0.1h0.1
	c-0.1-0.1-0.3-0.1-0.5-0.3c-0.1-0.1-0.3-0.1-0.5-0.1c-0.1-0.1-0.2-0.1-0.3-0.1c-0.2-0.1-0.3-0.2-0.5-0.3c-0.1-0.1-0.2-0.1-0.3-0.2
	c-0.1,0-0.1-0.1-0.1,0c-0.1,0-0.1-0.1-0.1-0.1c-0.1-0.1-0.1-0.1-0.3-0.1h-0.1c-0.1-0.1-0.1-0.1-0.1-0.1h-0.1
	c-0.1-0.1-0.2-0.1-0.3-0.1c-0.1,0-0.1,0-0.1-0.1c-0.1,0-0.3-0.1-0.3-0.1c-0.1-0.1-0.2-0.1-0.3-0.1h-0.1c0-0.1-0.1-0.1-0.1-0.1
	l-0.1-0.1c-0.1-0.1-0.3-0.1-0.3-0.1c-0.1,0-0.1-0.1-0.1-0.1c-0.1-0.1-0.3-0.1-0.4-0.2c-0.1,0-0.1,0-0.1-0.1C16.4,27,16.2,27,16.2,27
	l-0.1-0.1c-0.2-0.1-0.3-0.1-0.5-0.1c-0.1-0.1-0.1-0.1-0.3-0.1c-0.1-0.1-0.2-0.1-0.3-0.2L15,26.4c-0.1,0-0.1-0.1-0.1-0.1
	c-0.1-0.1-0.1-0.1-0.1-0.1h-0.5c-0.1-0.1-0.2-0.1-0.3-0.2c-0.1,0-0.2-0.1-0.3-0.1h-0.1c-0.1,0-0.3-0.1-0.3-0.2
	c-0.1-0.1-0.1-0.1-0.1-0.1c-0.1-0.1-0.1-0.1-0.1-0.1c-0.1-0.1-0.3-0.2-0.5-0.3c-0.1-0.1-0.1-0.1-0.2-0.1c-0.1-0.1-0.1-0.1-0.2-0.1
	c-0.1-0.1-0.1-0.1-0.3-0.1l-0.1-0.1c-0.1-0.4-0.1-0.5-0.2-0.5c-0.1-0.1-0.1-0.1-0.3-0.1c-0.1-0.1-0.2-0.1-0.3-0.2h-0.1
	c-0.1-0.1-0.1-0.1-0.2-0.1v-0.1c0-0.1,0-0.1-0.1-0.1s-0.1,0-0.1-0.1c-0.1,0-0.1-0.1-0.1-0.1l-0.1-0.1c-0.1-0.1,0-0.1,0.1-0.1h0.1
	v-0.1c0-0.1,0-0.3,0.1-0.3c0.1-0.1,0.1-0.1,0.1-0.1c0.1-0.1,0.1-0.1,0.1-0.2c0.1-0.1,0.1-0.1,0.1-0.1v-0.1c0.1-0.1,0.1-0.1,0.1-0.3
	h0.1c0-0.1,0.1-0.1,0-0.1l0.1-0.1c0-0.1,0.1,0,0.1,0c0.3,0.1,0.3,0.1,0.3,0.1l0.1-0.1c0-0.1,0.1-0.1,0.1-0.2
	c0.1-0.1,0.1-0.1,0.1-0.1c0.1,0.1,0.3,0.1,0.3,0.1c0.1-0.1,0.1-0.1,0.3-0.2c0.1,0,0.2,0,0.3,0.1v-0.1c-0.1,0-0.1-0.1-0.1-0.1
	l-0.1-0.1c-0.1-0.1,0-0.1,0.1-0.1s0.2,0,0.3,0.1c0.1,0.1,0.1,0.1,0.1,0.1c0.1,0.1,0.1,0.1,0.2,0.1c0,0.1,0.1,0.1,0.1,0.1
	c0.1,0.1,0.1,0.1,0.2,0.1c0.1,0.1,0.2,0.1,0.3,0.2c0.1,0.1,0.1,0.1,0.2,0.1c0.1,0.1,0.1,0.1,0.1,0.1c0.1,0,0.1,0.1,0.1,0.1
	c0.1,0,0.2,0.1,0.3,0.1c0.1,0.1,0.1,0.1,0.2,0.3c0,0,0.1,0.1,0.1,0.1c0.1,0.1,0.2,0.1,0.3,0.2c0.1,0,0.1,0.1,0.2,0.1
	c0.1,0.1,0.2,0.2,0.3,0.3c0.1,0.1,0.1,0.1,0.1,0.1c0.1,0.1,0.3,0.2,0.4,0.3c0.1,0,0.1,0.1,0.1,0.1c0.3,0.2,0.5,0.3,0.7,0.5
	c0.1,0.1,0.1,0.1,0.3,0.1h0.3c0.1,0.1,0.2,0.1,0.3,0.3h0.1c0.1,0.1,0.3,0.1,0.4,0.1h0.1c0.1-0.1,0.3,0.1,0.5,0.1
	c0.1,0,0.1,0,0.2,0.1c-0.1-0.1-0.1-0.1-0.1-0.1c-0.1-0.1-0.1-0.1-0.1-0.1c-0.1-0.1-0.1-0.1-0.2-0.1c-0.1-0.1-0.1-0.1-0.2-0.2
	c-0.1-0.1-0.3-0.2-0.3-0.3C18,24,18,24,17.8,23.9c-0.1,0-0.1-0.1-0.1-0.1c0-0.1-0.1-0.1-0.1-0.3c-0.1-0.1-0.1-0.2-0.3-0.3
	c-0.1-0.1-0.1-0.1-0.1-0.2c-0.1-0.1-0.1-0.2-0.2-0.3c-0.1-0.1-0.1-0.1-0.1-0.2c-0.1-0.1-0.1-0.1-0.3-0.1v-0.1c0-0.1,0-0.1-0.1-0.2
	h-0.1c0-0.1-0.1-0.1-0.1-0.2c-0.1,0-0.1-0.1-0.1-0.1c-0.1-0.1-0.1-0.1-0.1-0.3c0-0.1-0.1-0.1-0.1-0.1c-0.1-0.1-0.1-0.1-0.1-0.1v-0.1
	c0-0.1-0.1-0.2-0.1-0.3c0-0.1-0.1-0.1-0.1-0.1C16,20.9,16,20.9,16,20.8l-0.5-0.2c0,0,0-0.1-0.1-0.1c-0.1-0.1-0.1-0.3-0.3-0.3
	c-0.1-0.1-0.3-0.2-0.3-0.3c-0.1-0.1-0.1-0.1-0.1-0.2c-0.1-0.1-0.1-0.1-0.1-0.3c0-0.1,0-0.2-0.1-0.3c0,0-0.1,0-0.1-0.1
	c0-0.1-0.1-0.2-0.1-0.3c0-0.1-0.1-0.1-0.1-0.1c-0.1,0-0.1-0.1-0.1-0.1c-0.1-0.1-0.1-0.1-0.1-0.1c0-0.1-0.1-0.1-0.1-0.1
	c0-0.1-0.1-0.1-0.1-0.1c-0.1-0.1-0.1-0.3-0.2-0.3c-0.1-0.1-0.1-0.1-0.1-0.2c-0.3-0.1-0.3-0.1-0.3-0.1c-0.1-0.1-0.1-0.1-0.1-0.2
	c-0.1-0.1,0-0.1,0-0.1c-0.1-0.1-0.1-0.1-0.1-0.1c-0.1-0.1-0.1-0.1-0.1-0.1c-0.1-0.1-0.1-0.1-0.1-0.1c-0.1-0.1-0.1-0.2-0.3-0.3
	c0-0.1,0.1-0.1,0.1-0.1v-0.1C13,16.3,13,16.3,13,16.2c-0.1,0-0.1-0.1-0.1-0.1c0-0.1-0.1-0.1-0.1-0.1c-0.1-0.1-0.1-0.1-0.1-0.1
	l-0.1-0.1c-0.1-0.1-0.1-0.1-0.1-0.2c0,0,0-0.1-0.1-0.1c-0.1-0.1-0.1-0.1-0.1-0.2c0-0.1,0-0.1-0.1-0.1c-0.1-0.1-0.1-0.2-0.1-0.3
	c0-0.1-0.1-0.1-0.1-0.1c-0.1-0.1-0.2-0.2-0.3-0.3c-0.1,0-0.1-0.1-0.1-0.1c0-0.1,0-0.1-0.1-0.2c-0.1,0.4-0.1,0.3-0.2,0.3
	c-0.1-0.1-0.1-0.1-0.1-0.3c0-0.1-0.1-0.1-0.1-0.3c0,0-0.1,0-0.1-0.1c-0.1-0.1-0.1-0.1-0.1-0.2c0-0.1-0.1-0.1-0.1-0.2
	c0-0.1-0.1-0.2-0.1-0.3c-0.1-0.1-0.1-0.3-0.2-0.3l-0.1-0.1c0,0.1,0.1,0.2,0.1,0.3c-0.1,0.1-0.1,0.1-0.2,0.1
	c-0.2,0.1-0.3,0.2-0.5,0.3c-0.1,0.1-0.1,0.1-0.3,0.1c-0.1,0.1-0.3,0.2-0.4,0.3c-0.1,0-0.1,0.1-0.1,0.1c-0.1,0.1-0.3,0.2-0.4,0.3
	c-0.1,0.1-0.1,0.1-0.1,0.1c-0.1,0.1-0.1,0.1-0.2,0.1c-0.1,0-0.1,0.1-0.1,0.1c-0.1,0.1-0.3,0.2-0.4,0.3c-0.1,0.1-0.1,0.1-0.3,0.2
	c-0.3,0.1-0.5,0.3-0.7,0.5c-0.1,0.1-0.1,0.1-0.1,0.1c-0.1,0.1-0.1,0.1-0.3,0.1c0,0.1,0.1,0.1,0.1,0.1S7,16,6.9,16
	c-0.1,0.1-0.1,0.1-0.1,0.3c0,0,0,0.1-0.1,0.1c-0.1,0.1-0.1,0.1-0.1,0.1s-0.1-0.1-0.2-0.1v0.7v0.1v0.1c0.1,0.1,0.1,0.1,0.1,0.1
	c-0.1,0.1-0.1,0.1,0,0.1c0,0.1,0.1,0.1,0,0.1c0,0.1,0,0.1,0.1,0.2H6.4v0.3v0.5c0,0.1,0.1,0.3,0.1,0.5s-0.1,0.3-0.1,0.5
	c0,0.2,0.1,0.3,0.1,0.5v0.5v0.5v0.5v0.6v0.9v1v0.9v0.7v0.7c0,0.1-0.1,0.1,0,0.2c0.1,0.3,0,0.5,0,0.8c0.1,0.3,0,0.5,0,0.8v0.4v0.2
	c0,0.1,0.1,0.1,0.1,0.1c0.1,0.1,0.1,0.1,0.1,0.2c0,0.1,0.1,0.2,0,0.3v0.1c0,0.1,0,0.2-0.1,0.3V30v0.6v0.9v0.7v0.4v0.1h0.1v3.6
	c0,0.1-0.1,0.1-0.1,0.1v0.4v0.3v0.6V38c0,0,0,0.1,0.1,0.1c0.1,0.1,0.1,0.3,0.1,0.5C6.8,38.7,7,38.8,7,38.9C7,39,7.1,39,7.1,39.1
	c0,0.1,0.1,0.1,0.1,0.3c0.1,0.1,0.1,0.1,0.3,0.1c0.3,0.1,0.5,0.2,0.7,0.4C8.1,39.9,8.1,40,8.3,40h0.3c0.1,0,0.1,0,0.3-0.1
	c0-0.1,0.1,0,0.1,0C8.9,40,9,40,9.1,40h0.3c0.2,0,0.3,0,0.5-0.1c0.1,0,0.1,0,0.1-0.1c0.1,0.1,0.2,0.1,0.3,0.1c0.1,0,0.1,0,0.2-0.1
	h0.1c0.1,0.1,0.1,0.1,0.3,0.1h0.3c0.1,0,0.1,0,0.2-0.1c0-0.1,0-0.1,0.1-0.1l0.1,0.1c0.1,0.1,0.1,0.1,0.1,0.1h0.1h0.1
	c0.2-0.1,0.3-0.1,0.5-0.3c0-0.1,0.1-0.1,0.1-0.1c0.1-0.1,0.1-0.1,0.1-0.1c0.1-0.1,0.1-0.1,0.1-0.1c0.1,0.1,0.1,0.1,0.1,0.2
	c0.1,0.1,0.1,0.1,0.1,0.2c0.1,0.1,0.1,0.1,0.2,0.1h0.3h0.2c0.1-0.1,0.1-0.1,0.1,0c0.1,0,0.2,0.1,0.3,0h0.1h0.6h0.7h0.5h0.5h0.7h0.7
	c0.1,0,0.1,0,0.1-0.1h0.1c0.1,0.1,0.2,0.1,0.3,0.1h0.3h1.2c0.3,0,0.5,0,0.8-0.1h0.8h0.5h0.5h0.3h0.1h0.6c0.1,0,0.1,0,0.1-0.1
	c0.1,0.1,0.1,0.1,0.3,0.1c0.1,0,0.1-0.1,0.1,0h0.5h0.3c0.1,0,0.2-0.1,0.3-0.1h0.2h0.1c0,0.1,0.1,0.1,0.1,0.1h0.5
	c-0.1-0.1-0.1-0.2-0.1-0.3c0.1-0.1,0.1,0,0.2,0.1l0.1,0.1c0.1,0.1,0.1,0.1,0.1,0c0-0.1,0.1-0.1,0.1-0.1v0.1c0,0.1,0,0.1,0.1,0.1h0.9
	c0.1-0.1,0.3,0,0.5,0h0.3c0-0.1,0-0.2-0.1-0.3c-0.1,0-0.1-0.1,0-0.1c0-0.1,0.1-0.1,0.1,0c0.1,0.1,0.1,0.1,0.1,0.2h0.1v0.1
	c0.1,0.1,0.3,0,0.3-0.1c0-0.1,0-0.1,0.1-0.1c0.1,0.1,0.1,0.1,0.2,0.1h0.1H29h0.4c0.1,0,0.2,0,0.3-0.1c0.1-0.1,0.1-0.1,0.3,0
	c0.1,0.1,0.1,0.1,0.1,0.1h0.8c0.1-0.1,0.3-0.1,0.4-0.1c0.1,0,0.2-0.1,0.3-0.1c0.1,0,0.1-0.1,0.1-0.1c0-0.1,0-0.1,0.1-0.1
	c0.1,0,0.1-0.1,0.2-0.1c0.1-0.1,0.1-0.1,0.1-0.1c0.1,0.1,0.1,0.1,0.1,0.1c0.1,0,0.1,0,0.1-0.1c0.1-0.1,0.1-0.2,0.3-0.3
	c0.1-0.1,0.1-0.1,0.1-0.1c0,0,0.1,0,0.1-0.1s0-0.1,0.1-0.1c0.1-0.1,0.1-0.1,0.1-0.2c0.1-0.1,0.1-0.1,0.1-0.3v-0.1
	c0-0.1-0.1-0.1,0.1-0.1v-0.1V37c0-0.1,0-0.2,0.1-0.3c0-0.1,0-0.2,0.1-0.3v-0.2C33,36.1,33,36,33,36C33,36,33,36,32.9,36
	c-0.1-0.1,0-0.1,0.1-0.1v0.3H33.2z M27.8,27.7v0.1v0.1v0.3c0.1,0.1,0.1,0.3,0,0.4c-0.1,0.1-0.1,0.2-0.1,0.3
	c-0.1,0.1-0.1,0.1-0.1,0.1c-0.1,0.1-0.1,0.1-0.1,0.3c0.1,0.1,0,0.1,0,0.2c-0.1,0-0.1,0.1-0.1,0.1c0,0.1-0.1,0.1-0.1,0.3
	C27.4,30,27.4,30,27.2,30c-0.1-0.1-0.1-0.1-0.2-0.1C26.7,30,26.4,30,26.1,30c-0.1,0-0.1,0-0.1,0.1c-0.1,0-0.3-0.1-0.4-0.1h-0.1
	c-0.1,0-0.3-0.1-0.3-0.1c-0.1-0.1-0.3-0.1-0.3-0.1c-0.1-0.1-0.2,0-0.3,0.1c-0.1,0-0.1,0.1-0.1,0.1c-0.2-0.1-0.4-0.2-0.6-0.2
	c-0.1-0.2-0.1-0.3-0.1-0.5C24,29.1,24,29,24,28.9c0.1,0,0.1-0.1,0-0.1c-0.1-0.1,0.1-0.1,0.1-0.3l0.1-0.1c0-0.1,0.1-0.2,0.1-0.3
	c0-0.1-0.1-0.1-0.1-0.1c-0.1-0.1-0.1-0.2,0-0.3c0.1-0.1,0.2-0.3,0.4-0.3c0.1,0,0.1,0,0.1-0.1c0.1-0.1,0.1-0.1,0.3-0.1
	c0.1,0,0.2-0.1,0.3,0.1h0.1c0.1-0.1,0.4-0.1,0.5-0.3c0.1-0.1,0.1-0.1,0.1-0.1c0.1-0.1,0.3-0.1,0.4-0.1c0-0.1,0-0.1,0.1-0.1h0.1
	c0-0.1,0.1-0.1,0.1-0.1c0.1,0,0.3-0.1,0.3-0.1c0.1,0,0.1-0.1,0.1-0.1c0.3,0,0.5-0.1,0.7,0.1c0,0,0,0.1,0.1,0.1
	c0.1,0.1,0.1,0.1,0.1,0.1c0,0.1,0,0.3-0.1,0.3v0.1C27.9,27.4,27.9,27.6,27.8,27.7z"/>
</svg>
