<?xml version="1.0" encoding="utf-8"?>
<!-- Generator: Adobe Illustrator 25.2.3, SVG Export Plug-In . SVG Version: 6.00 Build 0)  -->
<svg version="1.1" id="Layer_1" xmlns="http://www.w3.org/2000/svg" xmlns:xlink="http://www.w3.org/1999/xlink" x="0px" y="0px"
	 viewBox="0 0 40 40" style="enable-background:new 0 0 40 40;" xml:space="preserve">
<style type="text/css">
	.st0{fill:#D50032;}
</style>
<path class="st0" d="M32.9,33.1c0-0.1-0.1-0.1-0.1-0.1c-0.1-0.1-0.1-0.1-0.2-0.2c0,0.2-0.1,0.5-0.3,0.6c-0.1,0.1-0.3,0.1-0.4,0.1
	c-0.6-0.1-0.8,0-1.4,0c-0.2,0-0.3-0.1-0.5-0.3c0-0.1-0.1-0.1-0.1-0.3C30,32.7,30,32.6,30,32.6c0-0.1,0-0.1-0.1-0.3v-0.1
	C30,32.1,30,32,30.1,32c0.1-0.1,0.1-0.1,0.2-0.1c0,0.1,0.1,0.1,0.1,0c0.1,0,0.3,0,0.4-0.1c0.1,0,0.2-0.1,0.3-0.1
	c0.3-0.1,0.5,0,0.8,0H32c0.1,0.1,0.3,0.1,0.5,0.1l0.1,0.1v-0.7h0.1c0.1-0.1,0.1-0.1,0.1-0.1c0.1-0.1,0.1-0.1,0.1-0.3
	c-0.1,0-0.1-0.1-0.1-0.1v-3.1v-0.1h-0.2v-0.1h0.1V23h-0.1c0.1-0.1,0.1-0.1,0.1-0.1c0-0.2-0.1-0.4-0.1-0.6c0-0.1,0.1-0.1,0.1-0.2
	c0-0.2-0.1-0.4-0.1-0.6c0-0.1,0.1-0.1,0.1-0.2c0-0.1-0.1-0.1-0.1-0.2c0-0.1,0.1-0.3,0.1-0.5c0-0.2,0-0.4-0.1-0.6
	c0-0.2,0-0.4-0.1-0.6v-0.3v-0.6v-0.2v0.1v-0.5v-0.6V17v-0.3c0-0.1,0-0.2-0.1-0.3c-0.1-0.1-0.2-0.3-0.1-0.5v-0.5v-0.5v-0.3v-0.6v-0.5
	v-0.6v-0.2v-0.6v-0.5v-0.6v-0.2c0-0.2,0-0.3,0.1-0.5c0.1-0.1,0.1-0.3,0.1-0.5V9.2c0-0.1-0.1-0.3-0.1-0.3V8.6h-0.1V8.5V7.2V7.1
	L32.3,7c-0.1-0.1-0.1-0.1-0.1-0.2c-0.1-0.1-0.1-0.1-0.1-0.1c0-0.1,0-0.2-0.1-0.2c-0.1-0.1-0.1-0.1-0.1-0.1c0.1-0.1,0-0.1,0-0.1
	l0.1-0.1h0.3c0-0.1,0.1-0.3,0.1-0.4c0.1-0.1,0-0.1,0-0.2c0-0.1,0.1-0.1,0.1-0.1v0.2c-0.1-0.1-0.1-0.1,0-0.1c0.1-0.1,0.1-0.1,0.1-0.1
	c0-0.1,0.1-0.3,0-0.4c-0.1,0-0.1-0.1-0.1-0.1c0-0.1,0.1-0.3,0.1-0.3V4.4h-0.1c0-0.1,0-0.1,0.1-0.1c0,0,0.1,0,0.1-0.1V4V3.8
	c0-0.1,0-0.1-0.1-0.2c0-0.1-0.1-0.2-0.1-0.3c0.1-0.1,0.1-0.1,0-0.1c-0.1-0.1-0.1-0.3-0.3-0.3c-0.1-0.1-0.1-0.1-0.1-0.2l-0.1,0.1
	c0-0.1-0.1-0.1-0.1-0.1C32,2.5,32,2.4,32,2.4C32,2.3,32,2.2,32,2.2c-0.1-0.1-0.1-0.1-0.1-0.3c-0.1-0.1-0.1-0.1-0.1-0.2
	c-0.1-0.1-0.1-0.1-0.1-0.1c0-0.2-0.1-0.3-0.1-0.5c-0.1,0-0.1,0.1-0.1,0.1c-0.1,0-0.1-0.1-0.1-0.1c0-0.1,0.1-0.1,0.1-0.1V0.9
	c-0.1-0.1-0.1-0.1-0.1-0.1h-0.1c-0.1,0-0.2,0-0.3-0.1c-0.1-0.1-0.1-0.1-0.3-0.1c-0.1-0.1-0.1-0.1-0.1,0c-0.1-0.1-0.1-0.1-0.1-0.1
	c-0.1,0-0.1-0.1-0.1,0c-0.1,0-0.2,0.1-0.2-0.1c-0.1,0-0.1,0.1-0.2,0.1c-0.1-0.1-0.1-0.1-0.3-0.1c-0.1,0-0.1-0.1-0.3-0.1
	c-0.1,0-0.3,0.1-0.5,0.1v0.1c-0.1,0-0.1-0.1-0.2-0.1c-0.1-0.1-0.1-0.1-0.1-0.1c-0.1,0.1-0.1,0.1-0.2,0.1h-0.1
	c-0.1-0.1-0.1-0.1-0.1-0.1h-0.2h-0.3c-0.1,0-0.1-0.1-0.3-0.1c-0.1,0-0.1,0.1-0.1,0.1c-0.1-0.1-0.1-0.1-0.1-0.1h-0.2
	c-0.1,0-0.1,0-0.1-0.1c-0.1-0.1-0.1-0.1-0.1,0c0,0.1-0.1,0.1-0.1,0.1L27,0.1c-0.1,0.1-0.1,0.1-0.3,0.1h-0.2c0-0.1,0-0.1,0.1-0.1
	h-0.1c-0.1,0.1-0.2,0.1-0.3,0c-0.1-0.1-0.1-0.1-0.2,0c-0.5,0.1-0.5,0.1-0.6,0.2h-0.1c-0.1-0.1-0.1-0.1-0.1-0.1c-0.1,0-0.1,0-0.1,0.1
	c-0.1,0-0.2-0.2-0.3-0.1c-0.1,0-0.1-0.1-0.2,0.1h-0.1h-0.1c-0.1,0.1-0.1,0.1-0.3,0.1c-0.1,0-0.1,0-0.1,0.1c-0.1-0.1-0.1-0.1-0.2-0.1
	c0-0.1-0.1-0.1-0.1-0.1c-0.1,0.1-0.3,0.1-0.3,0.1c-0.1-0.1-0.3-0.1-0.4,0c-0.2-0.1-0.4-0.1-0.6-0.1c-0.1,0-0.1,0-0.1-0.1
	c-0.1-0.1-0.1-0.1-0.1,0.1h-0.3c-0.1,0-0.2,0.1-0.3,0.1H22c-0.1,0-0.1,0-0.2,0.1V0.4c-0.1,0-0.2-0.1-0.3-0.1c-0.1,0.1-0.1,0.1-0.1,0
	s-0.1-0.1-0.1-0.1c-0.1,0-0.1,0.1-0.1,0.1l-0.1,0.1h-0.4c-0.1,0-0.1-0.1-0.1-0.1v0.1v0.1c0,0-0.1,0-0.1-0.1h-0.1c0,0,0,0.1-0.1,0.1
	c-0.1,0.1-0.1-0.1-0.2-0.1c0,0,0.1,0,0.1-0.1c-0.1,0-0.1,0-0.1-0.1c0,0-0.1,0-0.1,0.1c-0.1,0.1-0.1,0.1-0.1,0.1h-0.1h-0.1
	c-0.1,0-0.1,0-0.1,0.1c0-0.1-0.1-0.1-0.2-0.1c0,0-0.1,0.1-0.1,0.1c-0.1-0.1-0.1-0.1-0.1-0.1c-0.1,0-0.2,0.1-0.3,0.1
	c-0.1,0-0.1,0.1-0.1,0c-0.1-0.1-0.1,0-0.2,0c-0.1,0.1-0.1,0.1-0.2,0.1h-0.3c-0.1-0.1-0.1-0.1-0.1-0.1s-0.1-0.1-0.1-0.1H18
	c0,0.1-0.1,0.1-0.1,0.1c0,0-0.1-0.1-0.1,0c-0.1,0.1-0.1,0.1-0.3,0c-0.1,0-0.1,0.1-0.1-0.1c-0.1,0-0.1,0-0.2,0.1
	c-0.1,0.1-0.1,0.1-0.2,0.1c-0.1-0.1-0.1-0.1-0.3-0.1c-0.1,0-0.1,0-0.1,0.1v0.1c-0.1-0.1-0.1-0.1-0.1-0.1c-0.1,0-0.1,0-0.1-0.1
	c0,0.1-0.1,0.1-0.1,0.1V0.4c-0.1,0.1-0.1,0.1-0.3,0.1c-0.1,0.1-0.3,0.1-0.3,0c-0.1-0.1-0.2-0.1-0.2,0c-0.1,0.1-0.1,0-0.1,0
	c-0.1-0.1-0.1-0.1-0.2,0.1c-0.1-0.1-0.1-0.1-0.2-0.1c-0.1,0-0.1,0-0.3,0.1c-0.1-0.1-0.1-0.1-0.1,0c-0.1,0-0.1,0.1-0.1,0.1
	c-0.1,0-0.3,0-0.3,0.1c0.1-0.1-0.1-0.1-0.1-0.1c0,0-0.1,0.1-0.1,0.1h0.1c-0.6,0-0.6-0.1-0.6-0.2c-0.1,0.1-0.1,0.1-0.1,0.1
	c-0.1,0-0.1,0.1-0.1,0.2c0,0.1,0.1,0.2,0.1,0.3c-0.1-0.1-0.2-0.1-0.1-0.3c0.1-0.1,0.1-0.1,0-0.3c-0.1,0-0.1,0-0.2-0.1h-0.1
	c-0.1,0.1-0.1,0.1-0.2,0h-0.1c-0.1,0-0.1-0.1-0.2-0.1c0,0-0.1,0-0.1,0.1s0,0.1-0.1,0.1c-0.1,0-0.1,0.1-0.1,0.1
	c-0.1-0.1-0.1-0.1-0.2-0.1c-0.1,0-0.3,0.1-0.3,0.1h-0.1c-0.1,0-0.2-0.1-0.3-0.1c0,0-0.1,0.1-0.1,0c-0.2-0.1-0.3,0.1-0.4,0.1V0.5
	h-0.2c-0.1,0-0.2,0-0.2,0.1c-0.1,0.1-0.1,0.1-0.3,0c0,0.1,0,0.1-0.1,0.2c-0.1,0-0.3-0.1-0.3,0.1C10,0.7,9.9,0.7,9.8,0.7H9.7H9.5
	c-0.1,0-0.1,0.1-0.3,0.1c-0.1,0-0.1,0.1-0.1,0.1c-0.1,0-0.1,0-0.1,0.1C9,1,9,1,9,1c0,0.1-0.1,0-0.1,0C8.8,1,8.7,1.1,8.6,1.1
	c0.1,0.1,0,0.1-0.1,0.2c0,0,0,0,0,0.1c0,0.1,0,0.1-0.1,0.1c0,0,0,0-0.1-0.1c0,0.1-0.1,0.1-0.1,0.1v0.1c-0.1,0.1-0.1,0.1,0,0.2
	c0.1,0,0.1,0,0.1,0.1H8.2c0,0-0.1,0-0.1-0.1C8.1,2,8,2,8,2.1c0,0.1-0.1,0.2-0.1,0.3v0.1c-0.1,0-0.1,0.1-0.1,0.2H7.7
	c-0.1,0-0.1,0.1-0.1,0.2c0.1-0.1,0.1-0.1,0.2-0.1v0.1C7.7,2.9,7.7,3,7.7,3.1C7.6,3.3,7.4,3.5,7.4,3.7c0,0-0.1,0.1-0.1,0.2
	c-0.1,0-0.1,0.1-0.1,0.1C7.2,3.9,7.2,4,7.2,4.1c0,0.2,0,0.4,0,0.6V5v0.2c0.1,0.1,0.1,0.2,0,0.3v0.1c0,0.1,0.1,0.1,0.1,0.2
	c0,0.1,0,0.2-0.1,0.3c0,0.1,0.1,0.1,0,0.1c0-0.1,0,0,0,0.1v0.4h0.1C7.3,6.9,7.3,7,7.3,7c0,0.1,0,0.1-0.1,0.1c-0.1,0-0.1,0.1-0.1,0.2
	l0.1,0.1c0.1,0.1,0.1,0.1,0.1,0.2c-0.1,0-0.1,0.1-0.1,0.1c0,0.1,0,0.3,0.1,0.3v0.5c0.1,0,0.1,0,0.1,0.1c-0.1,0-0.1,0-0.1,0.1
	c0,0-0.1,0-0.1,0.1c0,0,0.1,0.1,0.1,0.1v0.1V9c0,0.1-0.1,0.1,0,0.1v0.1c0,0,0-0.1,0.1-0.1c0.1,0.1,0.1,0.3,0.1,0.5L7.3,9.7
	c0,0.1,0,0.1,0.1,0.2c0.1,0.1,0.1,0.1,0,0.2v0.1c0.1,0.1,0.1,0.1,0.1,0.1c0,0.1,0,0.3-0.1,0.3c-0.1,0.1,0,0.3,0,0.3v0.3l-0.1-0.1
	v0.1c0,0.1,0.1,0.3,0.1,0.3c0,0.1-0.1,0.3-0.1,0.5v0.3v0.7c-0.1,0.3-0.1,0.5-0.1,0.8c0.1,0.1,0.1,0.3,0.1,0.5v0.1
	c-0.1,0.1-0.1,0.1-0.1,0.1s0,0.1,0.1,0.1c0.1,0,0.1,0.1,0.1,0.1c0.1,0.1,0.1,0.2,0.1,0.3c-0.1,0.1-0.1,0.2,0,0.3
	c0,0.1-0.1,0.1-0.1,0.1v0.5c0,0.1,0.1,0.1,0.1,0.1c0,0.1,0.1,0.3,0.1,0.3c0,0.1-0.1,0.1-0.1,0.1v0.2c0,0.1,0.1,0.3,0.1,0.5v0.2v0.1
	c0,0.1,0.1,0.1,0.1,0.1c0,0.1,0,0.3-0.1,0.3V18c-0.1,0.1-0.1,0.1-0.1,0.1c0.1,0.1,0.1,0.1,0.1,0.2c0,0.1,0,0.2-0.1,0.3v-0.1
	c-0.3,0.1-0.3,0.1-0.3,0.3c0,0.1,0.1,0.1,0.1,0.2c0.1,0.1,0.1,0.1,0,0.1v0.3c0,0.1,0.1,0.3,0.1,0.5c0.1,0,0.1,0.1,0.1,0.1v0.3
	c0,0.2,0.1,0.4-0.1,0.6c-0.1,0.1,0,0.3,0,0.4v0.2v2.9v1v0.1c0.1,0.1,0.1,0.1,0.1,0.1s0.1,0.1,0.1,0.1c0,0-0.1,0-0.1,0.1v0.2
	c0,0.1-0.1,0.1-0.1,0.2V26c-0.1,0.2,0,0.4-0.1,0.6v0.1c0.1,0,0.1,0.1,0.1,0.1c0,0.1,0,0.2,0.1,0.3l0.1,0.9c0.1-0.1,0.1-0.2,0.3-0.3
	c0.1-0.3,0.2-0.5,0.3-0.7C8,26.9,8,26.9,8,26.7l0.1-0.9c0.1-0.3,0.1-0.5,0.3-0.7C8.4,25,8.4,25,8.4,25c0.1-0.1,0.1,0,0.1,0.1
	c0.1,0.1,0.1,0.2,0.1,0.3c0,0.1,0.1,0.2,0.1,0.3c0.1,0.1,0.1,0.3,0.1,0.5c0.1,0.1,0.2,0.2,0.3,0.1C9,26.2,9,26.1,9,26.1
	c0.2-0.2,3.8-3.4,6.7-5.8c0,0-0.3-0.3-0.5-0.5h-0.1H15V20c0,0,0.1,0,0.1,0.1v0.1L15,20.2c-0.1-0.1-0.3-0.1-0.4,0.1
	c-0.1,0.1-0.3,0-0.4-0.1c0-0.1-0.1-0.1-0.1-0.3c-0.1-0.1-0.1-0.2-0.1-0.3c-0.1-0.1-0.1-0.3,0-0.4c0.1-0.1,0.1-0.2,0.1-0.3
	c0.1-0.3,0.2-0.5,0.3-0.6c0.1-0.1,0.3-0.1,0.4,0c0.1,0.1,0.1,0.1,0.3,0.2c0.3,0.3,0.5,0.5,0.6,0.7c0.2,0.3,0.4,0.5,0.6,0.7
	c0-0.1,2.8-2.2,2.8-2.2c-0.1-0.1-0.5-0.1-0.6-0.1c-0.1-0.1-0.1-0.1-0.3-0.1c-0.1-0.1-0.3-0.1-0.4-0.1c-0.1,0-0.3,0-0.4-0.1
	c-0.1-0.1-0.3-0.1-0.5-0.2c-0.1-0.1-0.2-0.1-0.3-0.2s-0.1-0.1-0.3-0.1c-0.2-0.1-0.4-0.2-0.6-0.3c-0.1-0.1-0.3-0.1-0.5-0.2
	c-0.1-0.1-0.3-0.2-0.5-0.3c-0.1-0.1-0.3-0.2-0.5-0.3c-0.1,0.1-0.1,0.3-0.1,0.5c-0.1,0.1-0.1,0.1-0.1,0v0.3c-0.1,0.1,0.1,0.1,0.1,0.3
	v0.1c-0.1,0.1,0,0.2,0,0.3c0,0,0.1,0,0.1,0.1s0.1,0.4,0.1,0.5v0.1v0.1c-0.1-0.1-0.1-0.1-0.1-0.1c-0.8-0.3-0.6-0.3-1.5-0.3V17
	C13,16.9,13,16.7,13,16.6l-0.1-0.1c-0.1,0,0-0.1,0-0.1c0-0.1-0.1-0.1-0.1-0.3V16c0-0.1-0.1-0.1-0.1-0.3v-0.1c0.1-0.1,0-0.3-0.1-0.3
	c0-0.1-0.1-0.3-0.1-0.5c0-0.1-0.1-0.3-0.1-0.4c-0.1-0.2-0.1-0.4-0.1-0.6v-0.1c0-0.1-0.1-0.3-0.1-0.5v-0.1c0-0.1-0.1-0.1-0.1-0.3
	c0-0.1,0.1-0.3,0.1-0.3c0.1-0.1,0.1-0.2,0.3-0.3h0.1c0.3-0.1,0.3-0.2,0.5-0.3c0.1-0.1,0.1-0.1,0.3-0.1c0.1,0,0.1,0,0.2-0.1
	c0.1,0,0.1-0.1,0.1,0c0.1,0.1,0.1,0,0.1-0.1c0.1,0,0.1-0.1,0.1-0.1c0,0,0.1-0.1,0.3-0.1c0.1,0,0.1,0,0.1-0.1
	c0.1-0.1,0.3-0.1,0.3-0.1l0.1,0.1c0.1,0.1,1.4,0.9,1.4,1c0.1,0.1,0.3,0.2,0.4,0.3c0.1,0.1,0.3,0,0.5,0.1c0.4,0.2,0.7,0.3,1.1,0.5
	c0.3,0.1,0.5,0.2,0.6,0.3c0.2,0.1,0.3,0.1,0.5,0.2c0.1,0.1,0.3,0.1,0.5,0.1h0.1h0.1c0.1,0.1,0.1,0.1,0.1,0.1
	c0.1,0.1,0.3,0.1,0.3,0.1h0.1c0.1,0.1,0.3,0.1,0.5,0.1c0.1,0.1,0.3,0.1,0.5,0.1H22h0.3h0.3c0.3,0,0.7-0.2,1-0.1
	c0.1,0.1,0.1,0.1,0.1,0c0.1-0.1,0.1,0,0.3,0h0.1c0.1-0.1,0.1-0.1,0.1-0.1s0.1,0,0.1-0.1c0.1-0.1,0.1-0.1,0.1-0.1
	c0.1,0,0.1,0.1,0.1,0.1c0,0.1,0.1,0.1,0.1,0.1c0.1,0,0.1,0,0.2,0.1v0.1c0.1,0.1,0.1,0.1,0.2,0.3c0,0.1,0.1,0.1,0.1,0.1v0.1
	c0.1,0.1,0.1,0.1,0.1,0.2c0.1,0,0.1,0,0.1,0.1v0.2c0,0.1,0,0.1-0.1,0.3V16c0,0.1,0,0.1-0.1,0.2v0.1v0.2v0.1c0,0.1-0.1,0.2-0.1,0.3
	V17c0,0.1-0.1,0.1-0.1,0.1c0.1,0.1-0.1,0.1-0.1,0.3c0,0.1-0.1,0.2-0.1,0.3c-0.1,0,0,0.1-0.1,0.1v0.1c0.1,0.1-0.1,0.3-0.1,0.4v0.1
	c-0.1,0.1-0.1,0.1-0.2,0.2l-0.1,0.1c-0.1,0.1-0.3,0.1-0.3,0.2h-0.1h-0.1c-0.1,0-0.1,0.1-0.1,0.1c-0.1,0-0.1,0.1-0.2,0.1h-0.3
	c-0.1,0-0.1,0.1-0.1,0.1c-0.3,0.1-0.5,0.2-0.6,0.4c-0.3,0.1-0.5,0.3-0.7,0.5c-0.3,0.1-0.5,0.3-0.7,0.5c-0.3,0.3-0.6,0.5-1,0.8
	c-0.3,0.2-0.5,0.4-0.6,0.6c-0.1,0.1-0.1,0.1-0.3,0.3c0.3,0.3,0.5,0.5,0.8,0.7c0.2,0.2,0.4,0.4,0.6,0.5c0.1,0.1,0.3,0.3,0.5,0.5
	c0.4,0.4,0.8,0.8,1.2,1.2c0.3,0.3,0.6,0.5,0.8,0.8l0.7,0.7c0.1,0.1,0.3,0.3,0.5,0.5c0.1,0.1,0.2,0.1,0.3,0.3
	c0.3,0.3,0.5,0.6,0.8,0.8c0.3,0.3,0.6,0.5,1,0.8c0.5,0.3,0.8,0.7,1.4,1.1c0.2,0.1,0.5,0.3,0.6,0.5h0.1c0.1,0.1,0.1,0.1,0.3,0.1
	c0.1,0.1,0.3,0.1,0.4,0.1c0.1,0.1,0.2,0.1,0.3,0.1c0.1,0.1,0.2,0.1,0.3,0l0.1,0.1l0.3,0.3c0.3,0.2,0.5,0.3,0.8,0.5
	c0.2,0.1,0.5,0.1,0.6,0.3c0,0,0,0.1,0.1,0.1C31.4,32,31.4,32,31.4,32c-0.3,0.1-0.5,0.1-0.8,0.1h-0.3c-0.3,0-0.6,0-0.8,0.1h-1
	c-0.1,0-0.2,0-0.3-0.1c-0.1-0.1-0.3-0.1-0.3-0.3c-0.3-0.2-0.5-0.5-0.6-0.6c-0.5-0.4-0.8-0.8-1.2-1.3c-0.3-0.3-0.5-0.5-0.8-0.7
	c-0.3-0.3-0.5-0.5-0.7-0.7c-0.3-0.3-0.5-0.5-0.8-0.8c-0.2-0.1-0.4-0.3-0.6-0.5c-0.1-0.1-0.3-0.2-0.4-0.3c-0.1-0.1-0.2-0.1-0.3-0.3
	c-0.1-0.1-0.3-0.3-0.5-0.5c-0.1-0.1-0.2-0.1-0.3-0.3c0-0.1-0.1-0.1-0.1,0c0,0.3-0.1,0.5-0.3,0.7c-0.1,0.2-0.3,0.4-0.5,0.6
	c-0.1,0.1-0.1,0.3-0.3,0.3c-0.1,0.2-0.3,0.3-0.4,0.5c-0.1,0.3-0.3,0.5-0.4,0.8c-0.2,0.4-0.4,0.8-0.6,1.1s-0.5,0.6-0.7,0.9
	c-0.1,0.2-0.3,0.3-0.4,0.5c-0.1,0.3-0.3,0.5-0.3,0.7c-0.1,0.1-0.1,0.2-0.3,0.3c-0.1,0.1-0.3,0.1-0.3,0.1c-0.1,0-0.2,0-0.3-0.1
	c0-0.1-0.1-0.1-0.1-0.1c-0.1-0.1-0.3-0.1-0.5-0.1c-0.1,0-0.2-0.1-0.2-0.1c-0.1-0.2-0.1-0.3-0.3-0.5c-0.1-0.1-0.3-0.2-0.4-0.3
	c-0.1-0.1-0.2-0.3-0.4-0.3c-0.1-0.1-0.3-0.2-0.3-0.4c-0.1-0.1-0.1-0.1-0.1-0.1c-0.1,0-0.1,0-0.2-0.1s-0.2-0.1-0.3-0.1
	c-0.1-0.1-0.6-0.4-0.6-0.5c-0.1-0.2-0.1-0.3-0.3-0.5c-0.1-0.1-0.1-0.1-0.1-0.3c-0.1-0.1-0.1-0.1,0-0.2c0.1-0.1,0.1-0.1,0.2-0.1
	c0.1,0,0.1,0,0.2-0.1c0.1-0.1,0.1-0.1,0.3,0c0.1,0,0.3,0.1,0.3-0.1h0.1c0.1,0,0.1,0.1,0.1,0.1c0.1,0.1,0.2,0.1,0.3-0.1
	c0.1-0.1,0.1-0.1,0.2-0.1c0.1,0.1,0.1,0.1,0.3,0.1c0.1,0,0.1,0,0.3-0.1l0.1-0.1c0.1-0.1,0.3-0.3,0.4-0.4c0.1-0.1,0.2-0.2,0.3-0.3
	c0.1-0.1,0.1-0.1,0.1-0.3c0.1-0.2,0.3-0.4,0.5-0.6c0.3-0.4,0.6-0.7,0.9-1.1c0.2-0.3,0.4-0.5,0.6-0.7c0.1-0.1,0.1-0.1,0.1-0.1
	c0-0.1,0.1-0.1,0.1-0.1c0.1-0.1,0.1-0.1,0.1-0.1c0.1-0.1,0.2-0.3,0.3-0.3c0.1-0.3,0.3-0.5,0.5-0.8c0-0.1,0-0.1-0.1-0.2
	c-0.3-0.3-0.6-0.6-0.9-0.9c-0.1-0.1-0.1-0.1-0.1,0C18,22.5,18,22.6,18,22.6c-0.1,0.2-0.4,0.3-0.5,0.5c-0.2,0.2-0.4,0.4-0.6,0.6
	s-0.4,0.4-0.6,0.5c-0.1,0.1-0.3,0.3-0.5,0.4c-0.3,0.3-0.6,0.6-1,0.9c-0.4,0.4-0.8,0.7-1.2,1.1c-0.3,0.2-0.5,0.5-0.6,0.6
	c-0.2,0.1-0.4,0.3-0.6,0.4c-0.3,0.2-0.5,0.5-0.7,0.6c-0.1,0.1-0.3,0.3-0.5,0.5c-0.2,0.3-0.4,0.5-0.6,0.8c-0.2,0.3-0.4,0.5-0.6,0.7
	c-0.3,0.3-0.6,0.6-0.8,1c-0.1,0.1-0.1,0.1-0.2,0c-0.3-0.2-0.6-0.3-0.8-0.5H8.1C8,30.8,8,30.9,7.9,30.9c-0.1,0.1-0.1,0-0.2-0.1
	c0,0,0-0.1,0.1-0.1c0,0.1,0,0,0-0.1s0-0.1-0.1-0.1c-0.1-0.1-0.3-0.3-0.4-0.3v-1c-0.1,0.1-0.1,0.1-0.1,0.1c-0.1,0-0.1,0.1-0.1,0.1
	v0.2c0,0.3,0.1,0.6,0.1,0.9v5.8v0.1h0.2c0,0.1-0.1,0.2-0.1,0.3c0.1,0.3,0.1,0.5,0.1,0.6v0.1c0.1,0.1,0.1,0.1,0.2,0.1
	c0,0,0,0.1,0.1,0.1c0,0.1,0,0.1,0.1,0.1l0.1,0.1C7.9,38,8,38,7.9,38.2c0.1,0,0.1,0,0.1,0.1c-0.1,0,0,0.1,0,0.1
	c0.1,0.1,0.1,0.1,0.1,0.1c0.1,0.1,0.1,0.1,0.1,0.1c0.1-0.3,0.1-0.3,0.1-0.3c0.1,0,0.1,0.1,0.1,0.1c0,0.1,0.1,0.2,0.1,0.3
	c0.1,0,0.1,0.1,0.2,0.1c-0.1,0-0.1,0.1-0.1,0.1C8.7,39,8.7,39,8.8,39h0.1C8.9,39,9,39,9,39h0.2c0.1,0.1,0.3,0.1,0.3,0.1
	c0.2,0,0.4,0.1,0.5,0.1c0.3,0.1,0.5,0.1,0.8,0.1H11l0.1,0.1c0.1,0,0.2,0,0.3,0.1v-0.1c0.1,0.1,0.3,0.1,0.3,0.1h0.1
	c0.1,0.1,0.1,0.1,0.1,0.1c0.1-0.1,0.1-0.1,0.1-0.1h0.1c0.1-0.1,0.1-0.1,0.1,0s0.1,0.1,0.1,0.1c0.1,0.1,0.2-0.1,0.3,0h0.1
	c0.1,0,0.1,0.1,0.1,0.1c0.1,0,0.2,0,0.3,0.1c0.2,0,0.4,0.1,0.5,0.1c0.1,0,0.3,0.1,0.4,0c0.1,0,0.3,0,0.4,0.1h0.1
	c0.1,0.1,0.3,0.1,0.5,0c0,0,0-0.1,0.1-0.1c0.1,0.1,0.3,0.1,0.4,0.1c0.1,0,0.1,0,0.1-0.1c0.1-0.1,0.1-0.1,0.1,0l0.1,0.1
	c0.1,0,0.1-0.1,0.2-0.1c0.1,0.1,0.3,0.1,0.5,0.1c0.1,0,0.1,0.1,0.3-0.1c0.1,0.1,0.1,0.1,0.3,0.1c0.1,0.1,0.2,0,0.3,0
	s0.1-0.1,0.3-0.1c0.1,0.1,0.3,0.1,0.4,0.1h0.1c0.1-0.1,0.3-0.1,0.4,0c0.1,0.1,0.1,0.1,0.1,0c0.1,0,0.1,0,0.1,0.1
	c0.1,0.1,0.1,0.1,0.2,0.1c0.1,0,0.2-0.1,0.3-0.1c0.1,0,0.2,0.1,0.3,0.1c0.1,0,0.1,0,0.1-0.1c0.1,0.1,0.1,0.1,0.2,0.1
	c0.1-0.1,0.1-0.1,0.1-0.1c0.1,0,0.1,0.1,0.1,0.1l0.1,0.1c0.1,0,0.1-0.1,0.1-0.1c0.1-0.1,0.2-0.1,0.3,0.1c0.1-0.1,0.1-0.1,0.2-0.1
	l0.1,0.1c0.1-0.1,0.1-0.1,0.3-0.1c0.1,0,0.1,0.1,0.2-0.1v-0.1c0.1,0,0.1,0.1,0.2,0.1s0.2,0.1,0.3-0.1h0.6c0.1,0.1,0.2,0.1,0.3,0.1
	s0.1,0,0.1-0.1c0.1-0.1,0.1-0.1,0.1,0c0,0.1,0.1,0.1,0.1,0.1c0.1,0,0.3,0,0.4-0.1c0.1,0,0.1,0,0.2-0.1c0.1,0,0.1,0,0.1-0.1
	c0.1,0,0.1-0.1,0.1,0h0.1c0.1,0,0.3-0.1,0.5-0.1h0.1c0.1,0,0.1,0,0.3-0.1h0.1c0.1-0.1,0.1-0.1,0.1-0.1v0.1c0,0.1,0.1,0.1,0.1,0.1
	h0.1c0.1,0.1,0.1,0.1,0.3,0.1h0.2c0.1,0,0.1-0.1,0.1-0.1c0,0,0.1,0.1,0.1,0.1h0.1c0.1,0,0.1,0,0.1-0.1c0.1,0.1,0.1,0.1,0.1,0.1
	c0.1,0.1,0.1,0.1,0.2,0h0.1c0.2-0.1,0.3,0.1,0.5-0.1c0.1-0.1,0.1-0.1,0.1-0.1c0.2-0.1,0.3-0.2,0.3-0.3l0.1,0.1
	c0.1-0.1,0.1-0.1,0.2-0.1h0.1c0.1,0.1,0.3,0.1,0.3,0.2c0.1,0.1,0.1,0.1,0.2,0.1c0.1,0.1,0.1,0.1,0.2,0.1c0-0.1,0.1-0.1,0.1-0.1
	c0.1-0.1,0.1-0.1,0.2-0.1c0.1-0.1,0.1-0.1,0.3-0.1c0.1,0,0.1-0.1,0.1-0.1c0,0,0.1,0,0,0h0.3c0.1,0.1,0.3,0,0.4,0.1
	c0.1,0.1,0.3,0.1,0.5,0.1c0.2,0,0.5,0,0.6-0.1c0-0.1,0.1,0,0.1-0.1v0.1c0,0.1,0.1,0.3,0.1,0.3c0.1,0.1,0.1,0.1,0.1,0.1
	c0.1,0.1,0.1,0.1,0.1,0c0.1,0,0.1-0.1,0.2-0.1c0.1,0.1,0.3,0,0.4-0.1c0.1,0,0.1-0.1,0.3-0.1c0.1,0,0.1-0.1,0.1-0.1
	c0.1-0.1,0.1-0.2,0.3-0.3l0.1,0.1C31,39,31,38.9,31,38.9c0-0.1,0.1-0.1,0.1-0.1c0.1,0,0.1,0,0.1-0.1c0.1-0.1,0.1-0.1,0.1-0.2
	c0.1,0,0.1-0.1,0.1-0.1c0.1,0.1,0.1,0.1,0.2-0.1c0.1,0,0.1-0.1,0.1-0.1c0.1,0,0.1-0.1,0.1-0.2v-0.1c0-0.1,0-0.1,0.1-0.1
	C32,38,32.1,38,32.3,38v-0.1v-4.8H32.9z M7.3,8.8V8.6V8.8z M7.3,9C7.3,9.1,7.3,9.1,7.3,9L7.3,9z M23.9,12.3
	c-0.1,0.1-0.1,0.1-0.1,0.3c0.1,0.1-0.1,0.2-0.1,0.3h-0.1c-0.1,0-0.3,0.1-0.3,0.1c-0.1,0.1-0.2,0.1-0.3,0.3c-0.1,0-0.1,0.1-0.1,0.1
	c-0.1,0.1-0.3,0.2-0.5,0.1c-0.1,0-0.2,0-0.3,0.1C22,13.6,22,13.6,22,13.6c-0.1,0.1-0.2,0.1-0.3,0.3L21.7,14
	c-0.1-0.1-0.1-0.1-0.3-0.1c-0.1,0-0.2-0.1-0.3-0.2S21,13.5,21,13.4c-0.1-0.1-0.1-0.1-0.2-0.1c-0.1-0.1-0.1-0.2-0.3-0.3
	c-0.1-0.1-0.1-0.1-0.1-0.1v-0.1c0.1-0.1,0-0.2-0.1-0.3c-0.1-0.1-0.1-0.3-0.1-0.4c0-0.1,0-0.1-0.1-0.1c-0.1-0.1-0.1-0.3-0.2-0.3
	c-0.1-0.1-0.1-0.3-0.1-0.4v-0.1c-0.1-0.1-0.1-0.1-0.1-0.3c0-0.1-0.1-0.1-0.1-0.1c0-0.1-0.1-0.1-0.1-0.1s0-0.1-0.1-0.1
	c-0.1-0.1,0-0.1,0-0.1l-0.1-0.1c-0.1-0.1-0.1-0.1-0.1-0.1s-0.1-0.1,0-0.3c0.1-0.1,0.1-0.1,0.3-0.1c0.1,0,0.1,0,0.2,0.1
	c0.1,0.1,0.2,0.1,0.3,0.1c0.1,0,0.3-0.1,0.5-0.1c0.1-0.1,0.1,0,0.3,0.1c0.1-0.1,0.1-0.1,0.3-0.1c0.1,0.1,0.2,0.1,0.3,0.1
	c0.1-0.1,0.2,0,0.3,0.1l0.1,0.1H22c0.1,0,0.1,0,0.2,0.1c0.1,0,0.1,0.1,0.2,0.1c0.1,0,0.1-0.1,0.2-0.1c0.1,0,0.1,0.1,0.2,0.1
	c0.1,0,0.3,0.1,0.4,0.1s0.2,0.1,0.2,0.3c0.1,0.1,0.1,0.1,0.1,0.1c0.1,0.1,0.1,0.1,0.1,0.1c0,0.1,0.1,0.1,0.1,0.3
	c-0.1,0.1,0.1,0.3,0.1,0.3l0.1,0.1c0.1,0.1,0.1,0.1,0.1,0.3V12c0,0.1-0.1,0.1,0,0.1c0.1,0.1,0,0.2,0.1,0.3
	C24,12.3,23.9,12.3,23.9,12.3z"/>
</svg>
