<?xml version="1.0" encoding="utf-8"?>
<!-- Generator: Adobe Illustrator 25.2.3, SVG Export Plug-In . SVG Version: 6.00 Build 0)  -->
<svg version="1.1" id="Layer_1" xmlns="http://www.w3.org/2000/svg" xmlns:xlink="http://www.w3.org/1999/xlink" x="0px" y="0px"
	 viewBox="0 0 40 40" style="enable-background:new 0 0 40 40;" xml:space="preserve">
<style type="text/css">
	.st0{fill:#D50032;}
</style>
<path class="st0" d="M32.8,25.9c-0.1-0.3,0-0.5,0-0.7c0-0.3-0.1-0.5-0.1-0.8v-0.7v-0.5v-0.5v-0.6v-0.5V21v-0.5v-0.6v-0.5v-0.5v-0.6
	v-0.7v-1V16v-0.5v-0.6v-0.5v-0.5v-0.5v-0.8v-0.2c0-0.1,0-0.1-0.1-0.2V12c0.1-1.4,0.1-2.8,0.1-4.1V7.6V7.3V6.5v-1V4.8V4.3V3.7V3.2
	V2.6V2.1V1.7c0-0.1-0.1-0.1-0.1-0.1c-0.1-0.1-0.3-0.3-0.3-0.5c0-0.1,0-0.1-0.1-0.1c-0.1-0.1-0.2-0.1-0.3-0.3
	c-0.1-0.1-0.1-0.1-0.3-0.1c-0.1,0.1-0.1,0.1-0.1,0c-0.1-0.1-0.1-0.1-0.1-0.1c-0.1-0.1-0.1,0-0.1,0c-0.1-0.1-0.1-0.1-0.3-0.1
	c-0.1-0.1-0.3-0.1-0.5-0.1h-0.5h-0.5h-0.5c-0.1,0-0.1,0-0.1,0.1c-0.1,0.1-0.1,0-0.1-0.1C29,0.3,29,0.2,29,0.2s-0.1-0.1-0.1-0.1h-0.1
	c0,0-0.1,0.1-0.1,0.1h-0.3h-0.5h-0.5h-0.3h-0.8h-0.4c-0.1,0-0.1,0-0.2,0.1h-0.2c-0.3,0-0.7-0.1-0.9-0.1H24h-0.5h-0.7h-0.7h-0.5h-0.5
	c-0.2,0-0.3,0-0.5-0.1h-0.5h-0.5h-0.5h-0.5h-0.5c-0.1,0-0.3,0-0.5-0.1h-0.1c0,0.1-0.1,0.1-0.1,0.1c-0.1,0-0.1,0.1-0.1,0.1h-0.5H17
	c-0.1,0.1-0.1,0.1-0.3,0.1h-0.7c-0.2,0-0.4,0-0.5,0.1h-0.1l-0.1,0.1h-0.1c-0.1-0.1-0.2-0.1-0.2,0c-0.1,0.1-0.1,0.1-0.2,0
	c-0.1-0.1-0.1-0.1-0.1,0.1c-0.1-0.1-0.1-0.1-0.2-0.1c-0.1,0-0.2,0.1-0.3,0.1c0-0.1-0.1-0.1-0.1,0c0,0-0.1,0.1-0.1,0.1
	c-0.1,0-0.2,0-0.3,0.1c0-0.1-0.1-0.1-0.1-0.1c-0.1,0-0.1,0.1-0.1,0.1v0.1c-0.1,0-0.1-0.1-0.1-0.1l-0.1,0.1c0,0.1-0.1,0.1,0,0.3
	c0,0.1,0,0.2,0.1,0.3c-0.2-0.3-0.3-0.4-0.3-0.5c0.1-0.1,0.1-0.1,0-0.2c0-0.1-0.1-0.1-0.2-0.2c0,0,0,0.1-0.1,0.1
	c-0.1,0.1-0.1,0.1-0.2,0V0.3c-0.1,0-0.1,0-0.2-0.1v0.1c-0.1,0.1-0.1,0.1-0.1,0.1c-0.1,0-0.1,0.1-0.1,0.1c-0.1,0-0.1-0.1-0.1-0.1
	h-0.3h-0.1c-0.1,0-0.2-0.1-0.3-0.1c0,0-0.1,0.1-0.1,0c-0.1,0-0.3,0.1-0.4,0.1V0.3h-0.1c-0.1,0-0.2,0-0.3,0.1c-0.1,0.1-0.1,0.1-0.3,0
	c0,0.1-0.1,0.1-0.1,0.2C9.9,0.5,9.8,0.5,9.7,0.7C9.6,0.7,9.5,0.7,9.5,0.6c-0.1,0-0.1,0.1-0.1,0.1c-0.1,0-0.2-0.1-0.3,0
	C9,0.7,9,0.7,8.9,0.7c-0.1,0-0.1,0.1-0.1,0c-0.1,0-0.1,0-0.2,0.1c0,0-0.1,0.1-0.1,0.1C8.3,0.9,8.3,0.9,8.2,1c0.1,0.1,0,0.1-0.1,0.2
	c-0.1,0.1,0,0.1,0,0.1s0,0.1-0.1,0.1V1.3C7.9,1.4,7.9,1.4,7.9,1.4c0,0.1,0,0.1-0.1,0.1c0,0.1,0,0.1,0.1,0.1c0,0.1,0,0.1,0.1,0.1
	c-0.1,0-0.1,0-0.1,0S7.7,1.7,7.7,1.7c0,0.1-0.1,0.2-0.1,0.3c-0.1,0.1,0,0.1,0,0.3c0,0.1,0,0.1-0.1,0.1C7.4,2.4,7.3,2.5,7.3,2.6
	c-0.1,0-0.1,0-0.1-0.1c0,0.1,0,0.2-0.1,0.3c0.1-0.1,0.1-0.1,0.1-0.1v0.1c0,0.1,0,0.1-0.1,0.3C7.2,3.2,7,3.3,7,3.5
	c0,0.1-0.1,0.1-0.1,0.2v0.1C6.8,3.9,6.8,3.9,6.8,4v0.1v0.5v0.3c0,0.1,0,0.1,0.1,0.3c0.1,0.1,0,0.1,0,0.3v0.1v0.3V6
	c0,0.1,0,0.1-0.1,0.2c-0.1,0-0.1,0.1-0.1,0.1c0,0.1,0,0.3,0.1,0.4C6.8,6.8,6.9,7,6.9,7H7C6.9,7,6.9,7,6.9,7v0.1v0.3v0.1v0.1v0.3V8
	v0.1v0.4v0.5v0.3V10v0.5v0.5v0.5c-0.1,0.2-0.1,0.3-0.1,0.5v0.5v0.5v0.5v0.7v0.7c0,0.3,0,0.5-0.1,0.9v0.7V17c0,0.1,0,0.1,0.1,0.1v0.1
	c-0.1,0.1-0.1,0.1-0.1,0.1c0,0.1-0.1-0.1-0.1-0.1v0.7v0.5v0.3v0.3v0.3v0.1c0.1,0.1,0,0.1,0,0.1v0.1c0,0.1-0.1,0.2-0.1,0.3
	c0,0.1,0,0.1,0.1,0.2v0.7c0,0.2-0.1,0.3-0.1,0.5v0.4v0.8v0.7v0.8v0.7c0,0.1-0.1,0.3-0.1,0.5v0.5v0.5v0.5v0.3v0.3v0.7v1.1v0.4V30
	c0,0.5,0,1.1-0.1,1.6v0.5c0,0.1,0,0.1,0.1,0.2c0.1,0.1,0.1,0.1,0.1,0.1c0,0.1,0.1,0.2,0,0.3V33c0,0.1-0.1,0.1-0.1,0.1v0.1v1
	c-0.1,0.3,0,0.5-0.1,0.7v0.5v0.5v0.5v0.5v0.5V38V38c0.1,0.1,0.1,0.3,0.2,0.5c0.1,0.1,0.1,0.2,0.1,0.3c0.1,0.1,0.1,0.1,0.1,0.2
	C6.9,39.1,7,39.2,7,39.3c0.2-0.1,0.2,0,0.3,0c0.3,0.1,0.5,0.2,0.6,0.4C7.9,39.8,8,39.9,8,39.9h0.3c0.1,0,0.1,0,0.2-0.1
	c0-0.1,0.1,0,0.1,0c0.1,0.1,0.1,0.1,0.1,0.1h0.2c0.2,0,0.4,0,0.5-0.1h0.1c0.1,0,0.1,0,0.3,0.1c0.1,0,0.1,0,0.1-0.1
	c0-0.1,0.1-0.1,0.1-0.1c0.1,0.1,2.4,0.1,2.5,0.1h0.3c0.1,0,0.1,0,0.1-0.1c0.1-0.1,0.1-0.1,0.1-0.1c0,0.1,0.1,0.1,0.1,0.1
	c0,0.1,0.1,0.1,0.1,0.1c0.1-0.1,0.1,0,0.2-0.1c0.1-0.1,0.3-0.1,0.3-0.2l0.1-0.1c0.1,0,0.1-0.1,0.1-0.1c0.1-0.1,0.1-0.1,0.1-0.1
	c0.1,0.1,0.2,0.1,0.3,0.2c0,0.1,0.1,0.1,0.1,0.2c0,0.1,0.1,0.1,0.1,0.1c0.1,0,0.1,0.1,0.3,0.1c0.1,0,0.1-0.1,0.2-0.1H15
	c0.1,0.1,0.2,0.1,0.3,0.1h0.1h0.3h0.7h0.7h0.5c0.1,0,0.3,0.1,0.5,0c0.1,0,0.2,0.1,0.3,0h0.2h0.1h0.1c0.1,0.1,0.3,0,0.5,0.1h0.6h0.5
	h0.7h0.7h0.3h0.1c0.1,0,0.2-0.1,0.3,0h0.3H23h0.2h0.5c0.1,0,0.1,0,0.1-0.1c0.1,0.1,0.1,0.1,0.3,0.1h0.1h0.1h0.5c0.1,0,0.3,0,0.4-0.1
	c0.1,0,0.1,0,0.2,0.1c0,0.1,0.1,0.1,0.1,0.1h0.4h0.1c0-0.1-0.1-0.2-0.1-0.3c0.1,0,0.1,0,0.1,0.1c0,0.1,0.1,0.1,0.1,0.1
	c0.1,0.1,0.1,0.1,0.1,0h0.1v0.1c0,0.1,0,0.1,0.1,0.1h0.5h0.5h0.2c0.1-0.1,0-0.1-0.1-0.3c0-0.1,0.1-0.1,0.1,0c0.1,0,0.1,0.1,0.1,0.1
	h0.1v0.1c0.1,0.1,0.2-0.1,0.3-0.1c0.1,0.1,0.1,0.1,0.1,0.1h0.1c0.3,0,0.6,0.1,0.9,0.1c0.1-0.1,0.2-0.1,0.3-0.1
	c0.1-0.1,0.2-0.1,0.3,0c0.1,0,0.2,0.1,0.3,0.1c0.1,0,0.3,0,0.5-0.1c0.1,0,0.3,0,0.5-0.1c0.1,0,0.2-0.1,0.3-0.1c0,0,0.1-0.1,0.1-0.1
	s0-0.1,0.1-0.1c0.1,0,0.1-0.1,0.1-0.1c0.1,0,0.1-0.1,0.1-0.1c0-0.1,0.1-0.1,0.1-0.1v0.1c0.1,0.1,0.2,0.1,0.3-0.1
	c0.1-0.1,0.1-0.1,0.1-0.3c0.1,0,0.1-0.1,0.1-0.1c0.1,0,0.1-0.1,0.1-0.1c0.1-0.1,0.1-0.1,0.1-0.2c0.1-0.1,0.1-0.1,0.1-0.3V38
	c0-0.1,0-0.1,0.1-0.1c0,0,0.1-0.1,0.1-0.1v-0.6v-0.2c0-0.1,0.1-0.2,0.1-0.3c0-0.1,0-0.1,0.1-0.1v-0.1c0-0.1-0.1-0.1-0.1-0.1
	c-0.1,0-0.1-0.1,0-0.1c0.1,0,0.1-0.1,0.1-0.1v0.3c0,0-0.1,0-0.1-0.1c0.1-0.1,0-0.1,0-0.2c-0.1-0.1-0.1-0.1,0-0.1v-0.1
	c-0.1-0.2-0.1-0.4,0-0.6c0.1-0.1-0.1-0.2-0.1-0.3l-0.1-0.1c-0.1-0.1-0.1-2.6,0-2.7c0-0.1,0.1-0.1,0.1-0.1c0,0,0.1-0.1,0.1-0.1
	c0.1-0.1,0.1-0.1,0.1-0.3c0.1-0.1,0.1-0.3,0-0.4c-0.1,0.1-0.2,0.1-0.3,0.1c-0.1,0.1-0.1,0-0.2,0l-0.1-0.1c-0.1,0-0.1-0.1-0.1-0.1
	c-0.1-0.1-0.3-0.2-0.3-0.3h-0.1c-0.1-0.1-0.1-0.1-0.3-0.2c-0.1-0.1-0.1-0.1-0.1-0.1c-0.1-0.1-0.1-0.1-0.3-0.1
	c-0.1-0.1-0.2-0.1-0.3-0.3h-0.1c-0.1,0-0.1-0.1-0.2-0.1c-0.1-0.1-0.1-0.1-0.3-0.1h-0.1c-0.1-0.1-0.1-0.1-0.2-0.1
	c-0.1,0-0.1-0.1-0.1-0.1c0-0.1-0.1-0.1-0.1-0.1h-0.1c-0.1-0.1-0.1-0.1-0.1-0.2h-0.1c-0.1-0.1-0.1-0.1-0.1-0.1
	c-0.1-0.1-0.1-0.1-0.1-0.1h-0.1c0-0.1-0.1-0.1-0.1-0.1h-0.1h-0.1c-0.1,0.1-0.1,0.1-0.3,0.2h-0.1c-0.1,0-0.1,0.1-0.2,0.1
	c-0.1,0-0.1,0-0.1,0.1h-0.1c-0.1,0.1-0.2,0.1-0.3,0.1c-0.1,0-0.1,0-0.1,0.1c-0.1,0.1-0.3,0.1-0.3,0.2c-0.1,0-0.1,0-0.1,0.1h-0.1
	c-0.1,0-0.1,0-0.1-0.1c-0.1,0.1-0.2,0-0.3,0.1l-0.3,0.1c-0.1,0-0.1,0.1-0.1,0.1C26.4,30,26.4,30,26.3,30h-0.4c-0.1,0-0.2,0-0.3-0.1
	c-0.1-0.1-0.2-0.1-0.3-0.1c-0.1,0-0.1,0-0.1-0.1c-0.1,0-0.1-0.1-0.3,0c-0.1,0-0.1-0.1-0.2-0.1c0-0.1-0.1-0.1-0.1-0.1
	c-0.1-0.1-0.1-0.1-0.1-0.1c0-0.1-0.1-0.1-0.1-0.1h-0.1c-0.1,0.3-0.3,0.3-0.3,0.2c-0.1-0.1-0.1-0.1-0.1-0.1h-0.1
	c-0.1,0-0.1-0.1-0.1-0.1c-0.1,0-0.1-0.1-0.2,0c-0.1,0-0.3-0.1-0.3-0.1c0,0-0.1-0.1-0.1-0.1c-0.1,0-0.1-0.1-0.3-0.1l-0.1-0.1
	C22.7,29,22.6,29,22.5,29c-0.1,0-0.1-0.1-0.1-0.1h-0.1c-0.1-0.1-0.1-0.1-0.1-0.1c-0.1,0-0.1,0-0.2-0.1h-0.3c0,0-0.1,0.1-0.1,0.1
	c0-0.1-0.1-0.1-0.1-0.1c-0.1-0.1-0.1-0.1-0.2-0.1c-0.1,0.1-0.1,0-0.1-0.1c-0.1-0.1-0.1-0.1-0.2-0.1c-0.1,0.1-0.1-0.1-0.2-0.1
	c-0.1-0.1-0.1-0.1-0.3-0.1c-0.1,0-0.2-0.1-0.3-0.1c-0.1-0.1-0.1-0.1-0.1-0.1c-0.1,0-0.2-0.1-0.3-0.1v-0.1c-0.1-0.1-0.1-0.1-0.2,0
	c-0.1-0.1-0.1-0.1-0.1-0.1l-0.1-0.1c-0.1,0-0.1-0.1-0.3-0.1H19c-0.1,0.1-0.1,0-0.1-0.1c0-0.1-0.1-0.1-0.1-0.1
	c-0.1,0.1-0.1,0.1-0.1,0.1c0-0.1-0.1-0.1-0.1-0.1h-0.1h-0.1c-0.1-0.1-0.1-0.1-0.1-0.1c-0.1-0.1-0.1-0.1-0.1-0.1
	C18,27,18,26.9,18,26.9c-0.1,0-0.1-0.1-0.1-0.1c-0.1-0.1-0.1-0.1-0.1-0.1c-0.1,0-0.1-0.1-0.2-0.1s-0.1,0-0.1-0.1
	c-0.1-0.1-0.2-0.1-0.3-0.1c0,0-0.1,0-0.1-0.1c-0.1,0-0.1-0.1-0.3-0.1h-0.1c-0.1,0-0.1-0.1-0.1-0.1c-0.1-0.1-0.2-0.2-0.3-0.3
	c-0.1,0-0.3-0.1-0.4-0.1c-0.1-0.1-0.1-0.1-0.3-0.1h-0.3c-0.1-0.1-0.3-0.1-0.5-0.1h-0.1c-0.1-0.1-0.1-0.1-0.1-0.1
	c-0.1,0-0.1-0.1-0.1-0.1c-0.1,0-0.1-0.1-0.2-0.1c-0.1,0-0.1,0-0.1-0.1c-0.1,0-0.1,0-0.2-0.1C14,25.1,14,25.1,14,25.1V25
	c0.1,0,0.1,0,0.1-0.1c0,0,0.1-0.1,0.1-0.1c0.1,0,0.1,0,0.2-0.1c0.1-0.1,0.1-0.1,0.3-0.1h0.1h0.1c0.1,0.1,0.1,0.1,0.2,0h0.1
	c0.1-0.1,0.1-0.1,0.1-0.1c0.1,0,0.1-0.1,0.3-0.1v-0.1c0-0.1,0.1-0.1,0.1-0.1c0.1-0.1,0.1-0.1,0.1-0.1v-0.1c0.1,0,0.1-0.1,0.1-0.1
	l0.1-0.1c0,0,0.1-0.1,0.1,0l0.1,0.1c0,0.1,0.1,0.2,0.1,0.3v0.1v0.1v0.1C16,24.4,16,24.4,16,24.5c0,0.1,0.1,0.1,0.1,0.1
	c0.3,0.1,0.7,0.3,1,0.4c0.1,0,0.1,0.1,0.1,0h0.1c0,0.1,0.1,0.1,0.1,0.1c0.5,0.1,0.9,0.3,1.4,0.5c0.3,0.1,0.5,0.2,0.7,0.3
	c0.3,0.1,0.5,0.1,0.7,0.3c0.1,0,0.2,0.1,0.3,0.1c0.1,0.1,0.1,0.1,0.1,0.1h0.1c0.1,0.1,0.1,0.1,0.3,0.1c0.1,0,0.1,0.1,0.3,0.1
	c0.1,0.1,0.2,0.1,0.3,0.1c0.1,0,0.1,0.1,0.2,0.1c0,0.1,0.1,0.1,0.1,0.1c0.1,0.1,0.1,0.1,0.3,0.1v0.1c0.1,0.1,0.1,0.1,0.1,0.1
	c0.1,0.1,0.1,0.1,0.1,0.1c0.1,0.1,0.2,0.1,0.3,0.1c0.5,0.2,0.9,0.4,1.4,0.6c0.5,0.2,1.1,0.4,1.6,0.6h0.1c0.1,0,0.1-0.1,0.3,0h0.1
	v-0.1c0.1,0.1,0.2,0,0.3-0.1c0.1,0,0.1-0.1,0.1-0.1c0.1,0,0.1-0.1,0.1-0.1s0.1-0.1,0.1-0.1c0.1-0.1,0.1-0.2,0.2-0.3
	c0.1-0.1,0.1-0.1,0.1-0.3v-0.1c-0.1,0-0.1-0.1-0.1-0.1c0-0.1-0.1-0.1-0.1-0.1c-0.1,0-0.1,0-0.1-0.1l-0.1-0.1
	c-0.1-0.1-0.1-0.1-0.2-0.1c-0.1,0-0.1-0.1-0.1-0.1c-0.1,0-0.1-0.1-0.2-0.1H26c-0.1,0-0.1-0.1-0.2-0.1c-0.1-0.1-0.1-0.1-0.2-0.1
	c-0.1,0-0.1-0.1-0.3-0.1h-0.1c-0.1-0.1-0.1-0.1-0.3-0.1c-0.1,0-0.1,0-0.1-0.1c-0.1-0.1-0.1-0.1-0.1-0.1c0-0.1-0.1-0.1-0.1-0.1h-0.1
	c0-0.1-0.1-0.1-0.1-0.1c-0.2,1.1-0.3,1.1-0.3,1.1c-0.1,0-0.1-0.1-0.2-0.1c0,0-0.1,0-0.1-0.1c-0.1-0.1-0.1-0.1-0.2-0.1
	c-0.1,0-0.1,0.1-0.1,0.1s-0.1,0.1-0.1,0.1h-0.1c-0.1-0.1-0.1-0.1-0.1,0c0,0.1,0,0.1-0.1,0.1v-0.1c-0.1-0.1-0.1-0.1-0.3-0.2h-0.2
	v-0.1c-0.1,0.1-0.2-0.1-0.3-0.1c-0.1-0.1-0.1-0.1-0.1,0l-0.1-0.1c-0.1,0-0.1,0-0.1,0c-0.1-0.1-0.1-0.1-0.2-0.1
	c-0.1,0.1-0.1-0.1-0.3-0.1c-0.1-0.1-0.1-0.1-0.1-0.1h-0.1C21.4,26,21.3,26,21.2,26c-0.1,0-0.1-0.1-0.1-0.1c-0.1-0.1-0.3-0.1-0.3-0.1
	c-0.1,0-0.1-0.1-0.1-0.1c-0.1,0-0.1,0-0.2,0c-0.1,0.1-0.1,0-0.2,0c0-0.1,0.1-0.1,0-0.1s-0.1,0.1-0.1,0.1c-0.1,0.1-0.3,0-0.3-0.1
	c-0.1,0-0.1-0.1-0.1-0.1c0,0,0-0.1-0.1-0.1c-0.1,0.1-0.1-0.1-0.3-0.1c-0.1,0-0.1-0.1-0.1-0.1c-0.1,0-0.1-0.1-0.1-0.1
	C19,25.2,19,25.2,19,25.2c-0.1-0.1-0.1-0.1-0.2-0.1c0,0.1,0,0.1,0,0.1c-0.1,0-0.1-0.1-0.3-0.1h-0.2c-0.1,0-0.1-0.1-0.3-0.1
	c-0.1-0.1-0.1-0.1-0.3-0.1h-0.1c-0.1-0.1-0.1-0.1-0.3-0.1h-0.1c-0.1-0.1-0.1-0.1-0.3-0.1C17,24.5,17,24.4,17,24.4
	c-0.1-0.1-0.1-0.1-0.1-0.1h-0.1c-0.1-0.1-0.1-0.1-0.1,0c0,0.1-0.1,0.1-0.1,0.1s-0.1-0.1-0.1-0.1c-0.1-0.1-0.1-0.1-0.1-0.1
	s-0.1,0-0.1-0.1c-0.1-0.1-0.1-0.1-0.2-0.1C16,24,15.9,24,15.8,24c-0.1-0.1-0.1-0.1-0.3,0.1c-0.1,0-0.1,0-0.1,0.1
	c-0.1,0-0.2-0.1-0.3,0c-0.1,0-0.1-0.1-0.1-0.1c-0.1-0.1-0.1-0.1-0.2-0.1c0,0-0.1,0-0.1-0.1c-0.1-0.1-0.1-0.1-0.1-0.2h-0.1l-0.1-0.1
	l-0.1-0.1c-0.1,0.1-0.1-0.1-0.1,0c-0.1,0-0.1-0.1-0.2-0.1C14,23.5,14,23.5,14,23.6c0,0-0.1,0.1-0.1,0c-0.1-0.1-0.3-0.1-0.4-0.3
	c0,0,0-0.1-0.1-0.1c-0.1,0-0.1-0.1-0.3-0.1c0-0.1-0.1-0.1-0.1-0.1h-0.1v-0.2v-0.1c0-0.1,0.1-0.1,0.1-0.3c0.1-0.1,0.1-0.1,0.1-0.1
	c-0.1-0.1,0-0.1,0-0.3l0.1-0.1c0.1,0,0.1-0.1,0.1-0.1c-0.1-0.1-0.1-0.1,0-0.1c0.1-0.1,0.1-0.1,0.1-0.3v-0.1c0.1-0.1,0.1-0.1,0.1-0.1
	c0.1-0.1,0.1-0.1,0.1-0.2c0.1-0.1,0.1-0.1,0.1-0.2c0-0.1,0-0.1,0.1-0.2c0.1-0.1,0.1-0.1,0.1-0.3c0-0.1-0.1-0.1-0.1-0.1
	s0.1,0,0.1-0.1c0-0.1,0-0.1,0.1-0.1V20v-0.1c0-0.1,0.1-0.1,0.1-0.1c0.1-0.1,0.1-0.1,0.1-0.1s-0.1,0-0.1-0.1v-0.1h0.2h0.1
	c0,0.1,0,0.1-0.1,0.1c-0.1,0-0.1,0.1,0,0.1c0.1,0.1,0.1,0.1,0.1,0.1V20c0,0.1,0.1,0.1,0.1,0.1c0.1,0.1,0.1,0.1,0.3,0.1
	c0.1,0.1,0.1,0.1,0.2,0.1c0.1,0,0.1,0.1,0.2,0.1c0.1,0.1,0.1,0.1,0.2,0.1c0.1,0.1,0.1,0.1,0.2,0.1h0.1c0.1,0.1,0.1,0.1,0.2,0.1
	c0.1,0,0.1,0.1,0.1,0.1c0.1-0.1,0.1,0,0.1,0c0,0.1,0.1,0.1,0.1,0.1c0.1,0,0.1,0.1,0.1,0.1c0.1,0.1,0.3,0.1,0.4,0.1
	c0.1,0.1,0.1,0,0.3,0c0.1,0,0.1,0,0.1,0.1c0,0.1,0.1,0.1,0.1,0.1c0.1,0.1,0.1,0.1,0.1,0.1c0.1,0,0.1,0.1,0.1,0.1
	c0.1,0.1,0.1,0.1,0.1,0.1h0.1c0.1,0.1,0.1,0,0.3,0.1c0.1,0.1,0.3,0.1,0.4,0.1c0.1,0.1,0.3,0.1,0.4,0.2h0.1c0.1,0,0.1,0.1,0.1,0.1
	c0.1-0.1,0.1,0,0.2,0c0.1,0.1,0.1,0.1,0.2,0.1h0.2c0.1,0,0.1,0.1,0.1,0.1c0.1,0.1,0.1,0.1,0.1,0.1c0.1,0,0.1,0,0.3,0.1
	c0.1,0.1,0.1,0.1,0.3,0.1c0.1,0.1,0.1,0.1,0.2,0.1c0,0,0.1,0,0.1,0.1c0.1,0.1,0.1,0.1,0.3,0.1h0.1c0.1,0,0.1,0.1,0.1,0.1
	c0,0.1,0.1,0.1,0.1,0.1c0.1,0,0.1,0,0.2,0.1c0.1,0,0.1-0.1,0.2-0.1h0.1c0.1,0,0.1,0.1,0.1,0.1c0.1,0.1,0.1,0.1,0.2,0.1
	s0.1,0.1,0.1,0.1c0.1,0,0.1,0.1,0.2,0.1l0.1,0.1c0.1,0.1,0.1,0.1,0.1,0.1c0.1,0.1,0.1,0.1,0.1,0.1c0.1,0,0.1,0.1,0.2,0.1
	c0,0.1,0.1,0.1,0.1,0.1c0,0.1,0.1,0.1,0.1,0.1c0.1,0,0.1,0,0.1,0.1c0.1,0.1,0.2,0.1,0.3,0.1c0.1,0.1,0.1,0.1,0.1,0.1
	c0,0,0.1,0.1,0.1,0.1c0.1,0,0.1,0,0.1,0.1c0.1,0,0.1,0,0.1,0.1c0,0,0.1,0,0.1,0.1c0.1,0.1,0.1,0.1,0.3,0.1c0.1,0,0.1,0,0.1,0.1
	c0.1,0,0.2,0,0.3,0.1c-0.1-0.5,0-0.5,0-0.5c0.1,0,0.1,0,0.1,0.1c0.1,0,0.1,0.1,0.1,0.1c0.1-0.1,0.1,0,0.3,0.1c0,0.1,0.1,0.1,0.1,0.1
	c0.1,0,0.1,0.1,0.1,0.1c0.1,0.1,0.1,0.1,0.1,0.1c0.1,0,0.1,0.1,0.2,0.1l0.3,0.1h0.1c0.1-0.1,0.2,0,0.3,0.1c0.1,0,0.1,0,0.1,0.1
	c0.1,0.1,0.1,0.1,0.2,0.1c0,0.1,0.1,0.1,0.1,0.1c0.1,0,0.1,0.1,0.3,0.1c0.1,0,0.1,0,0.1,0.1l0.1-0.1c0.1-0.1,0.1-0.1,0.1-0.1
	c0.1-0.1,0.1,0,0.1,0c0.1,0,0.1,0.1,0.1,0.1c0.1,0.1,0.2,0.1,0.3,0.1h0.1c0.1,0,0.1,0.1,0.3,0c0,0,0.1,0,0.1,0.1
	c0.1,0.1,0.1,0.1,0.1,0.1c0,0.1,0.1,0.1,0.1,0.1c0.1,0.1,0.1,0.1,0.2,0.1h0.1c0.1,0.1,0.3,0.1,0.4,0.2c0.1,0.1,0.1,0.1,0.1,0.1
	c0.1,0.1,0.1,0.1,0.2,0.1c0.1,0.1,0.1,0.1,0.1,0c0.1,0,0.1-0.1,0.1-0.1c0.1-0.1,0.1-0.1,0.3-0.1h0.1v-0.1c0-0.1,0.1-0.3,0.2-0.3
	c0.1,0,0.2,0.1,0.2,0.3v0.1c0,0.1,0.1,0.2,0.1,0.3v0.3v0.1c0.1,0.1,0.1,0.1,0.1,0.1c0.1,0.1,0.1,0.1,0.1,0.1c0.1,0,0.1,0,0.1-0.1
	c0.1,0.1,0.1,0.1,0.1,0.2c0.1,0.1,0.1,0.1,0.1,0.1c0.1,0,0.1-0.1,0.1-0.1c0-0.1,0.1-0.1,0.1-0.1H31c-0.1,0.1,0,0.1,0,0.3
	c0.1,0.1,0.1,0.1,0.2,0.1c0.1,0,0.1,0.1,0.1,0.1c0.1,0.1,0.1,0.1,0.3,0.1c0.1,0.1,0.2,0.1,0.3,0.1h0.1c0.1,0.1,0.1,0.1,0.1,0.1
	c0.1,0,0.1-0.1,0.1-0.1v-0.1h0.1c0.1,0,0.1,0,0.1,0.1c0.1,0.1,0.1,0.2,0.2,0.3c0.1,0.1,0.1,0.1,0.1,0.1c0.1,0.2,0.3,0.4,0.3,0.6v0.1
	c0.1-0.1,0.1-0.1,0.1-0.1v-0.9L32.8,25.9L32.8,25.9z M13.3,20c-0.1,0.1-0.1,0.1-0.1,0.1c-0.1,0.1-0.1,0.1-0.1,0.1
	c-0.1,0.1-0.1,0.1-0.1,0.2c-0.1,0.1-0.2,0.1-0.3,0.1c0-0.1-0.1,0-0.1,0c-0.1,0-0.1,0.1-0.3,0.1c-0.1,0-0.1,0-0.1-0.1h-0.1
	c-0.1,0-0.1,0.1-0.1,0.1c-0.1,0-0.1-0.1-0.2,0h-0.2c-0.1-0.1-0.3-0.1-0.5-0.1c-0.1,0-0.7-0.3-0.7-0.4c-0.1-0.1-0.1-0.1-0.2-0.1
	c-0.1-0.1-0.1-0.1-0.2-0.3c0-0.1-0.1-0.1-0.1-0.1c-0.1-0.1-0.2-0.2-0.3-0.3c-0.1-0.1-0.1-0.1-0.1-0.3c-0.1-0.1-0.1-0.2-0.2-0.3
	c-0.1-0.1-0.1-0.1-0.2-0.3c-0.1,0-0.1,0-0.1-0.1c-0.1-0.1-0.2-0.1-0.2-0.3c-0.1-0.1-0.1-0.1-0.2-0.2c-0.1-0.1-0.2-0.2-0.3-0.2
	c0-0.1-0.1-0.3-0.1-0.4c0.1,0.1,0.1,0.1,0.2,0.1c0.1-0.1,0.2-0.3,0.4-0.3h0.1c0.1,0,0.2-0.1,0.4-0.2c0.1-0.1,0.1-0.1,0.2-0.1
	c0.1,0,0.1,0,0.2-0.1c0.1-0.1,0.1-0.1,0.1-0.1c0.1-0.1,0.1-0.1,0.1-0.1c0.1-0.1,0.1-0.1,0.2-0.1c0.1-0.1,0.1,0,0.2,0
	c0.1-0.1,0.2-0.1,0.3-0.1h0.4c0,0.1,0.1,0,0.1,0h0.1c0.1,0,0.3,0,0.3,0.1h0.1c0.1,0.2,0.1,0.2,0.1,0.3c0.2,0.1,0.3,0.3,0.5,0.5h0.1
	c0,0.1,0.1,0.1,0.1,0.2c0.1,0,0.1,0.1,0.1,0.1c0.1,0.1,0.1,0.2,0.2,0.3c0.1,0.1,0.1,0.2,0.3,0.3c0,0.1,0.1,0.1,0.1,0.1
	c0.1,0,0.1,0.1,0.1,0.1c0.1,0.1-0.1,0.3-0.1,0.3c0.1,0.1,0.1,0.1,0.1,0.2c0.1,0.1,0.1,0.1,0.1,0.2c0.1,0.1,0,0.3,0.1,0.3
	c0.1,0,0.1,0.1,0,0.1C13.4,19.7,13.4,19.9,13.3,20z"/>
</svg>
