<?xml version="1.0" encoding="utf-8"?>
<!-- Generator: Adobe Illustrator 25.2.3, SVG Export Plug-In . SVG Version: 6.00 Build 0)  -->
<svg version="1.1" id="Layer_1" xmlns="http://www.w3.org/2000/svg" xmlns:xlink="http://www.w3.org/1999/xlink" x="0px" y="0px"
	 viewBox="0 0 40 40" style="enable-background:new 0 0 40 40;" xml:space="preserve">
<style type="text/css">
	.st0{fill:#D50032;}
</style>
<path class="st0" d="M32.6,14.4c0-0.1,0-0.1,0.1-0.1c0-0.1,0-0.1-0.1-0.1V14c0-0.1-0.1-0.1-0.1-0.1c-0.1-0.1-0.1-0.1,0-0.1v-0.1
	c0.1-0.1,0.1-0.1,0.1-0.3v-0.3V13c-0.1-0.1-0.1-0.1-0.1-0.2v-0.3c0.1-0.1,0.1-0.2,0.1-0.3v-0.1c0.1-0.1,0-0.1,0-0.2
	c0-0.1-0.1-0.3,0-0.3v-0.1c-0.1-0.1-0.1-0.1-0.1-0.2v-0.1v0.1c0.1-0.1,0.1-0.1,0-0.1c0-0.1-0.1-0.1-0.1-0.1c-0.1-0.1-0.1-0.1,0-0.1
	v-0.3c0,0,0-0.1,0.1-0.1v-0.1c-0.1-0.1-0.1-0.1,0-0.2c0.1-0.1,0.1-0.1,0-0.2c-0.1-0.1,0-0.1,0-0.1c0.1-0.1,0.1-0.1,0-0.1V9.6
	c0.1-0.1,0.1-0.1,0.1-0.1c0.1-0.1,0.1-0.1,0.1-0.2V9.1c0-0.1,0.1-0.1,0.1-0.1c-0.1-0.1-0.1-0.1,0-0.2c0-0.1,0-0.2-0.1-0.3
	c-0.1-0.1-0.1-0.1-0.1-0.1c0.1-0.1,0.1-0.1,0-0.1c-0.1,0-0.1,0-0.1-0.1c0.1-0.1,0-0.1,0.1-0.2C32.6,8,32.7,8,32.7,8
	c0-0.1,0-0.3-0.1-0.3c0-0.1,0-0.1,0.1-0.2V7.4c-0.1-0.1,0-0.1,0-0.2c-0.1-0.1-0.1-0.1,0-0.1V7V6.9c0-0.1,0.1-0.1,0-0.3V6.5
	c0-0.1,0-0.3,0.1-0.3c0.1-0.1,0.1-0.2,0.1-0.3c0-0.1-0.1-0.1,0-0.1V5.7c-0.1-0.1-0.1-0.1-0.1-0.1c0-0.1-0.1-0.2-0.1-0.3V5.2
	c-0.1-0.1,0-0.1,0-0.1c0.1-0.1,0.1-0.1,0.1-0.1V4.8c0.1-0.1,0-0.1,0-0.2V4.2V3.9V3.8c-0.1-0.1,0-0.1,0-0.1c-0.2,0-0.2-0.1-0.2-0.1
	V3.5V3.3c0.1-0.1,0.1-0.1,0.1-0.1h-0.1V3c0.1-0.1,0.1-0.3,0-0.3V2.6c-0.1-0.1-0.1-0.2-0.1-0.3l0.1-0.1c0,0-0.1-0.1,0-0.2
	c0,0-0.1,0-0.1-0.1V1.9c0-0.1,0-0.2-0.1-0.3c-0.1,0-0.1-0.1-0.1-0.1c0-0.1-0.1-0.1-0.1-0.1C32.2,1.2,32.1,1.1,32,1
	c-0.1-0.1-0.1-0.1-0.1-0.1c0-0.1-0.1-0.1-0.1-0.1c-0.1-0.1-0.3-0.2-0.5-0.3c-0.1-0.1-0.2-0.1-0.3-0.1S31,0.4,31,0.3
	c-0.1-0.1-0.1-0.1-0.1-0.1c-0.1-0.1-0.1-0.1-0.1-0.1c-0.1-0.1-0.1-0.1-0.2-0.1c-0.1-0.1-0.1-0.1-0.2,0c-0.1,0.1-0.2,0.1-0.3,0h-0.1
	c-0.1,0-0.3-0.1-0.3-0.1c-0.1-0.1-0.1,0-0.3,0c-0.1-0.1-0.1,0-0.1,0c-0.1,0-0.1,0.1-0.1,0.1H29c-0.1,0-0.1,0.1-0.2,0
	c-0.1-0.1-0.2,0-0.3,0.1c-0.1-0.1-0.3,0-0.5,0.1c-0.1,0.1-0.2,0.1-0.3,0c-0.1-0.1-0.2-0.1-0.3-0.1h-0.2c-0.1,0.2-0.1,0.2-0.2,0.2
	c-0.1,0-0.1,0-0.1,0.1c0,0.1-0.1,0.1-0.1,0.1h-0.2l-0.1,0.1c-0.1,0.1-0.2,0.1-0.3,0c-0.1,0-0.1-0.1-0.1-0.1h-0.1
	c-0.1,0.1-0.1,0.1-0.2,0.1c-0.1,0-0.1,0-0.1-0.1C26,0.2,26,0.2,26,0.2c-0.1-0.1-0.2-0.1-0.3-0.1h-0.3h-0.3h-0.2
	c-0.1,0-0.2,0-0.3,0.1h-0.1c-0.1,0.1-0.3,0-0.4,0c-0.1,0.1-1.6,0-1.8,0.1c-0.1,0-0.1-0.1-0.1-0.1c-0.1-0.1-0.1-0.1-0.2-0.1h-0.3
	c-0.1,0-0.3,0.1-0.3,0c-0.1,0-0.1,0.1-0.1,0.1h-0.1h-0.2c-0.1,0.1-0.1,0.1-0.1-0.1h-0.3h-0.5H20c-0.1,0-0.2,0-0.3,0.1h-0.2
	c-0.1-0.1-0.1,0-0.3,0h-0.3c-0.1,0-0.1-0.1-0.2,0c-0.1,0.1-0.1,0.1-0.2,0.1h-0.2c0,0-0.1,0-0.1-0.1c-0.1-0.1-0.1-0.1-0.3-0.1h-0.1
	h-0.4c0,0-0.1,0-0.1,0.1c-0.1,0-0.1,0-0.1,0.1c-0.1-0.1-0.1-0.1-0.1-0.1c-0.1,0.1-0.3-0.1-0.3,0.1c-0.1-0.1-0.1,0-0.3-0.1h-0.1h-0.3
	c-0.1-0.1-0.3,0-0.4,0c0-0.1-0.1,0-0.1,0h-0.1c-0.1,0-0.1,0-0.3,0.1h-0.1c-0.1-0.1-0.1,0-0.1,0.1h-0.1C15,0.3,15,0.3,15,0.4
	c-0.1,0.1-0.1,0.1-0.1,0.1h-0.1c-0.1-0.1-0.1-0.1-0.1-0.1s-0.1,0.1-0.2,0l-0.1,0.1h-0.1c-0.1,0-0.1-0.1-0.1-0.1
	c-0.3-0.1-0.4-0.2-0.6-0.1h-0.1c-0.1,0.1-0.1,0-0.1,0c-0.1-0.1-0.1-0.1-0.2-0.1h-0.4h-0.4c-0.1,0-0.3,0.1-0.4,0.1
	C12,0.3,12,0.2,12,0.2c-0.2,0-0.3-0.1-0.5,0c0,0.1,0,0.1-0.1,0.1c-0.1-0.1-0.1-0.1-0.2-0.1H11h-0.3h-0.1c-0.1,0.1-0.3,0.1-0.5,0.1
	H9.7c-0.1,0-0.1,0.1-0.1,0.1c-0.1,0-0.1,0.1-0.2,0.1c-0.1,0-0.1,0.1-0.2,0.1C9,0.7,9,0.7,8.9,0.8C8.8,0.9,8.8,0.9,8.7,0.9
	C8.5,0.9,8.4,1.1,8.3,1.3C8.2,1.5,8.2,1.5,8.1,1.7C8.1,1.7,8.1,1.8,8,1.9C8,1.9,8,1.9,7.9,2c0,0.1-0.1,0.1-0.1,0.2
	c-0.1,0-0.1,0.1-0.1,0.1s0,0.1-0.1,0.2c0,0.1-0.1,0.2-0.1,0.3C7.6,3,7.6,3.2,7.6,3.3L7.5,3.3c0,0.1-0.1,0.1-0.1,0.2v0.1v0.3v0.5v0.1
	V5c0,0.1,0,0.3,0.1,0.4c0.1,0,0.1,0.1,0.1,0.1v0.1V6v0.1c0,0.1,0,0.1-0.1,0.1v0.1c0,0.1,0.1,0.3,0.1,0.4c0.1,0.1,0.1,0.1,0.1,0.1
	v0.1c0,0,0,0,0,0.1C7.7,7,7.7,7.1,7.7,7.1c1,0.5,2.9,1.6,3.5,1.9C11.3,9,11.3,9,11.4,9c0.2,0.1,0.4,0.2,0.5,0.2c0,0,0.1,0,0.1,0.1
	C12,9.3,12,9.3,12,9.3c0.1,0.1,0.1,0.1,0.2,0.2h0.1c0.1,0.1,0.2,0.1,0.3,0.1c0.1,0,0.1,0.1,0.1,0.1c0.1,0,0.1,0.1,0.1,0.1
	c0.1,0.1,0.1,0.1,0.1,0.1c0.1-0.1,0.1,0,0.2,0c0,0.1,0,0.1,0.1,0.1c0.1,0.1,0.1,0.1,0.2,0.1h0.1c0.1,0.1,0.1,0.1,0.2,0.1
	c0.1,0,0.1,0.1,0.2,0.1l0.1,0.1c0.1-0.1,0.1,0,0.1,0.1c0.1,0.1,0.7,0.3,0.7,0.3c0.1,0,0.1,0.1,0.1,0.1c0.1,0.1,0.1,0.1,0.1,0.1H15
	c0.1,0.1,0.1,0.1,0.2,0.1c0,0,0.1,0,0.1,0.1c0.1,0.1,0.1,0.1,0.2,0.1v0.1c0.1,0,0.1,0.1,0.2,0.1c0.1,0.1,0.1,0.1,0.1,0.1
	c0.1,0.1,0.1,0.1,0.2,0.1c0.1,0.1,0.1,0.2,0.2,0.2c0.1,0,0.1,0.1,0.1,0.1c0.1,0.1,0.1,0.1,0.1,0.1v0.1h0.1c0.1,0.1,0.2,0.1,0.3,0.2
	c0,0.1,0,0.1,0.1,0.1s0.1,0.1,0.1,0.1v0.1c0,0.1-0.1,0.1-0.1,0.2c-0.1,0-0.1,0.1-0.1,0.1h-0.1c-0.1,0.1-0.1,0.1-0.1,0.1v0.1
	c0.1,0.1,0.1,0.3-0.1,0.3c-0.1,0.1-0.1,0.1-0.1,0.3s-0.1,0.1-0.1,0.1c-0.1,0.1-0.1,0.1-0.1,0.1c-0.1,0.1-0.1,0.1-0.3,0.1l-0.1-0.1
	c-0.1,0.1-0.3,0.4-0.3,0.5h-0.1c-0.1,0.1-0.1,0.1-0.2,0.1c0,0.1,0.1,0.1,0.1,0.2l0.1,0.3c0,0.1,0.1,0.1,0.1,0.1
	c0.1,0.1,0.1,0.2,0.3,0.3c0,0.1,0.1,0.1,0.1,0.1c0,0.1,0,0.1,0.1,0.1c0.1,0.1,0.1,0.1,0.1,0.1s0.1,0,0.1,0.1l0.1,0.1
	c0,0.1,0.1,0.1,0.1,0.1c0,0,0,0.1,0.1,0.1v0.1c0.1,0.1,0.1,0.1,0.1,0.1c0.1,0.1,0.1,0.2,0.3,0.3c0.1,0.1,0.1,0.1,0.1,0.1
	c0.1,0.1,0.1,0.1,0.1,0.1c0,0,0.1,0,0.1,0.1l0.1,0.1c0.1,0.1,0.1,0.1,0.1,0.2l0.1,0.1c0.1,0,0.1,0,0.3,0.1v0.1
	c-0.1,0.1,0,0.1,0.1,0.1c0.1,0.1,0.1,0.1,0.1,0.1v0.1c0.1,0.1,0.1,0.2,0.1,0.3c0,0,0,0.1,0.1,0.1c0,0.1,0.1,0.1,0.1,0.1
	c0.1,0.1,0.1,0.2,0.2,0.3c0.1,0,0.1,0.1,0.1,0.1v-0.7h-0.2c0,0-0.1-0.1-0.1,0c-0.1,0-0.1,0.1-0.1,0.1c-0.1,0.1-0.1,0.1-0.1,0.1h-0.1
	c-0.1,0.1-0.1,0.1-0.1,0.1h-0.1c0,0.1-0.1,0.1-0.1,0.1c-0.1-0.1-0.1-0.1-0.2,0c0-0.1-0.1-0.1-0.1-0.1h-0.1l-0.1-0.1h-0.2
	c0-0.1-0.1-0.1-0.1-0.1v-0.1c-0.1,0-0.1-0.1-0.1-0.1H16c0-0.1-0.1-0.1-0.1-0.1c0-0.1-0.1-0.1-0.1-0.1c0-0.1-0.1-0.1-0.1-0.1
	c-0.1,0-0.1-0.1-0.1-0.1c0-0.1-0.1-0.1-0.1-0.1c-0.1-0.1-0.3-0.3-0.3-0.3v-0.1c-0.1,0-0.1-0.1-0.1-0.1h-0.1l-0.1-0.1
	c-0.1,0-0.1-0.1-0.1-0.1c0-0.1-0.1-0.1-0.1-0.1C15,17,15,17,15,16.9H15c0.1-0.1,0-0.1,0-0.1c-0.1-0.1-0.1-0.1-0.1-0.1s0-0.1-0.1-0.1
	v-0.1c0-0.1,0-0.1-0.1-0.2c0,0,0.1-0.1,0.1-0.1c-0.1,0-0.1-0.1-0.1-0.1v-0.1C14.7,16,14.7,16,14.7,16c0-0.1-0.1-0.2,0-0.3v-0.1
	c0-0.1-0.1-0.1,0-0.1c-0.1-0.1,0-0.1,0-0.1c0,0,0-0.1-0.1-0.1v-0.1c0.1,0,0.1-0.1,0.1-0.1c-0.1-0.1-0.1-0.1-0.1-0.1v0.1V15v-0.1
	c0-0.1-0.1-0.1-0.1-0.1c0.1-0.1,0-0.1,0-0.1s0-0.1,0.1-0.1v-0.1v-0.1c-0.1,0-0.1,0-0.1-0.1c-0.1,0-0.1-0.1-0.1-0.1
	c-0.1-0.1-0.1-0.1-0.1-0.1c-0.3-0.1-2.3,0-2.4,0h-0.6h-0.2c-0.1,0-0.1,0-0.3-0.1h-0.1c-0.2,0-0.8-0.2-1-0.3c0,0,0,0.1-0.1,0.1v0.1
	c0.1,0,0.8,0.2,0.9,0.3h0.1c0.1,0.1,0.1,0.1,0.2,0.1c0.1,0,0.3,0.1,0.3,0.1h0.1c0.1,0,0.1,0,0.1,0.1c0.1,0,0.1,0,0.3,0.1
	c0.1,0.1,0.1,0.1,0.1,0.1c0.1,0,0.1,0,0.1,0.1h0.1c0.1,0,0.1,0,0.1,0.1h0.1c0.1-0.1,0.1,0.1,0.2,0.1c0,0,0.1,0,0.1,0.1
	c0.1,0,0.1,0.1,0.1,0.1h0.1c0-0.1,0.1-0.1,0.1-0.1c0.1,0.1,0.1,0.1,0.1,0.1h0.1c0.1,0,0.1,0,0.1,0.1c0.1,0,0.1,0,0.1,0.1
	c0.1,0,0.1,0.1,0.1,0.1v0.1v0.1v0.1H13c0.1,0,0.1,0,0.1,0.1c0.1,0.1,0,0.1,0,0.1V16v0.2c0,0,0,0.1-0.1,0.1c-0.1,0.1-0.1,0.1-0.1,0.2
	v-0.1c-0.1,0.1-0.1,0.1-0.1,0.1c0.1,0.1,0.1,0.1,0,0.1v0.1c-0.1,0-0.1,0.1-0.1,0.1c0.2-0.1,0.2-0.1,0.2,0C12.9,17,12.9,17,12.9,17
	v0.1v0.1c0,0.1-1.5,1.2-1.6,1.3h-0.1h-0.2c-0.1,0.1,0,0.1-0.1,0.1c-0.1,0-0.1,0-0.1,0.1c-0.1,0.1-0.1,0.1-0.1,0.1
	c-0.1,0.1-0.1,0.1-0.1,0.1c-0.1,0,0,0.1-0.1,0.1h-0.1C10.5,19,10.5,19,10.5,19c-0.1,0.1-0.1,0.1-0.1,0.2c-0.1,0-0.1,0.1-0.1,0.1
	c0,0.1-0.1,0.1-0.1,0.1h-0.1c-0.1,0-0.1,0.1-0.2,0.1c-0.1,0.1-0.1,0.1-0.2,0.1c0-0.1,0-0.1,0,0v0.1c-0.3,0.2-0.7,0.5-0.8,0.9H9H9
	h0.1h0.1c0,0,0.1,0.1,0.1,0c0.1,0,0.1,0,0.1,0.1c0.1,0,0.1,0,0.1,0.1c0,0,0.1,0.3,0.3,0.5H9.6c-0.1,0-0.1,0-0.1-0.1H9.4H9.2H9.2
	c-0.1,0-0.1-0.1-0.1-0.1H8.8H8.8H8.6l-0.1-0.1c0,0-0.1,0-0.1-0.1c0,0.1-0.1,0.1-0.1,0.1c-0.1-0.1-0.1-0.1-0.2-0.1
	c-0.3-0.1-0.5-0.1-1.1-0.3v0.1C7.2,20.9,7.2,21,7.2,21c-0.1,0.1,0,0.1,0,0.2c0,0.1-0.1,0.1-0.1,0.2s0.1,0.1,0.1,0.2
	c0.1,0.1,0.1,0.1,0,0.2v0.1c0.1,0.1,0,0.1,0,0.2c0,0.1,0,0.1,0.1,0.3v0.3v0.1c0.1,0,0.1,0.1,0.1,0.1c0,0.1,0,0.2-0.1,0.3
	c-0.1,0.1,0,0.3,0,0.5v0.1v0.1c0.1,0.1,0,0.3,0.1,0.4c-0.1,0.1-0.1,0.1-0.1,0.2c-0.1,0.1-0.1,0.1-0.1,0.1c0,0.1,0.1,0.1,0.1,0.2
	s0,0.2-0.1,0.3v0.1c0,0.1,0,0.1,0.1,0.2c0,0.1-0.1,0.3-0.1,0.4v0.3v0.3c0.1,0.1,0.1,0.1,0.1,0.1s0,0-0.1,0c0,0.1,0.1,0.1,0.1,0.2
	s0.1,0.1,0.1,0.1v0.1v0.1c0.1,0.1-0.1,0.3,0,0.3c-0.1,0.1,0,0.1,0,0.1v2.1c0,0.1-0.1,0.1-0.1,0.3c-0.1,0.1,0,0.1,0.1,0.1v0.2
	c-0.1,0.1-0.1,0.1,0,0.1c0,0.1,0.1,0.1,0,0.1v0.2v0.1c0,0.1,0.1,0.3,0.1,0.3C7.5,30.9,7.5,31,7.5,31c-0.1,0-0.1,0.1-0.1,0.1
	s-0.1,0.1-0.1,0.1l-0.1,0.1v0.4c0,0.1,0,0.2,0.1,0.3v0.3v0.1v0.3c0.1,0.1,0.1,0.3,0.1,0.5v0.1v0.1c0,0.1,0,0.1-0.1,0.2
	c0,0.1,0,0.1,0.1,0.3c0,0.1,0,0.1-0.1,0.1c0,0.1-0.1,0.1-0.1,0.1v0.1c0.1,0,0.1,0,0.1,0.1s0,0.1-0.1,0.1v0.1v0.1v0.1
	c0,0.1,0,0.1,0.1,0.1v0.1V35v0.2v0.3c-0.1,0.1,0,0.1,0,0.1v0.3c0,0,0,0.1,0.1,0.1c0.1,0.1,0.1,0.1,0,0.1v0.2v0.1v0.1
	c0.1,0.1,0.1,0.1,0,0.1c0,0.1,0,0.1-0.1,0.3V37v0.2c0,0.1,0,0.1-0.1,0.1c0,0.1,0.1,0.1,0,0.2v0.3c0.1,0.1,0,0.1,0,0.1
	C7.3,38,7.3,38,7.3,38v0.1c0,0.1,0.1,0.1,0.1,0.2v0.1c0,0.1,0,0.1,0.1,0.2c0.1,0.1,0.1,0.2,0.2,0.3c0.1,0.1,0.1,0.1,0.1,0.3
	c0.1,0,0.1,0.1,0.1,0.1c0.1,0.1,0.1,0.1,0.1,0.1c0,0.1,0.1,0.1,0.1,0.1h0.1c0.1-0.1,0.1-0.1,0.1,0s0.3,0.1,0.3,0.3
	c0.1-0.1,0.1,0,0.2,0h0.1c0.1,0,0.1,0.1,0.2,0.1C9,39.8,9,39.9,9,39.8H9c0.1,0.1,0.2,0,0.3,0.1c0.1-0.1,0.2-0.1,0.3-0.1h0.2
	c0.1,0.1,0.1,0.1,0.3,0c0.1,0,0.1,0,0.2-0.1c0.1,0,0.1,0,0.1,0.1c0,0.1,0,0.1,0.1,0.1h0.2c0.1,0.1,0.1,0.1,0.2,0
	c0.1-0.1,0.2-0.1,0.3-0.1h0.1c0.1-0.1,0.1-0.1,0.2-0.1c0.1-0.1,0.1-0.1,0.3,0c0.1,0,0.1-0.1,0.1-0.1c0.1-0.1,0.1-0.1,0.1,0h0.3h0.1
	c0.1,0,0.1,0,0.2-0.1h0.1c0.1,0.1,0.1,0.1,0.1,0.1h0.1c0.1,0,0.1-0.1,0.3,0h0.3h0.1c0.1,0.1,0.1,0.1,0.1,0.1c0.1,0,0.3,0,0.4,0.1
	h0.1c0.1,0,0.1,0,0.1,0.1h0.1h0.1c0.3,0.1,0.7,0.1,1,0.1h0.7h0.7h0.7h0.1c0.1,0,0.2-0.1,0.3,0c0.1,0,0.1,0,0.1-0.1h0.1h0.1
	c0.1,0,0.2-0.1,0.3-0.1c0,0.1,0,0.1,0.1,0c0.1-0.1,0.1,0.1,0.3,0h0.5c0.1,0,0.1,0,0.1,0.1h0.1h0.1c0.1-0.1,0.1-0.1,0.3-0.1h0.2
	c0.1-0.1,0.1-0.1,0.1,0h0.1c0.1,0,0.2,0,0.3,0.1c0.1,0.1,0.2,0.1,0.3,0.1h0.1c0.1-0.1,0.2-0.1,0.3-0.1c0.1,0,0.3-0.1,0.5-0.1h1
	c0.3,0,2,0,2.4-0.1c0.1,0,0.3,0.1,0.5,0c0.1-0.1,0.1-0.1,0.3-0.1c0.1,0,0.2-0.1,0.3-0.1h0.1h0.3H26c0.1,0,0.1,0,0.1,0.1
	c0.1,0,0.1-0.1,0.1-0.1c0.1-0.1,0.1-0.1,0.1-0.1c0-0.1,0.1-0.1,0.1-0.1s0.1,0,0.1-0.1c0.1,0,0.2,0,0.3,0.1c0.1,0,0.1,0.1,0.1,0.1
	c0.1,0.1,0.1,0.1,0.1,0c0.1,0,0.1,0,0.1,0.1c0.1,0.1,0.1,0.1,0.3,0.1h0.4h0.5h0.1h0.1c0.1-0.1,0.1,0,0.2,0c0.2,0.1,0.5,0.1,0.7,0.1
	h0.5h0.1H30h0.1h0.1c0.1,0,0.2,0,0.3-0.1c0-0.1,0.1-0.1,0.1-0.1h0.3c0.1,0,0.1,0,0.3-0.1h0.2c0.1,0,0.1,0,0.2-0.1
	c0.1,0.1,0.1,0.1,0.3,0.1c0-0.1,0.1-0.1,0.1-0.1c0.1,0,0.1,0,0.2-0.1c0.1-0.1,0.1-0.1,0.2-0.2c0.1-0.1,0.1-0.1,0.1-0.3
	c0-0.1,0-0.1,0.1-0.1c0.1-0.1,0.1-0.1,0-0.1v-0.1c0-0.1,0.1-0.1,0.1-0.2c0.1,0,0.1-0.1,0.1-0.1c0,0,0-0.1,0.1-0.1
	c0-0.1,0.1-0.2,0.1-0.3s-0.1-0.2,0-0.3v-0.1v-0.2c0.1-0.1,0.1-0.1,0-0.3c0-0.1,0-0.1,0.1-0.1v-0.1v-0.1c0-0.1,0.1-0.1,0.1-0.3v-0.2
	c-0.1-0.1,0-0.1,0-0.2s0.1-0.1,0-0.2c-0.1,0,0-0.1,0-0.1v-0.1v-0.2v-0.1c0.1-0.1,0-0.1-0.1-0.2c-0.1,0-0.1-0.1-0.1-0.1v-0.1
	c0-0.1-0.1-0.3-0.1-0.3v-0.1c0,0,0-0.1-0.1-0.1c0.1-0.1,0.1-0.1,0.1-0.1v-0.1c-0.1-0.1-0.1-0.1-0.1-0.2c0.1-0.1,0.1-0.1,0-0.2
	l0.1-0.1c0-0.1,0.1-0.1,0.1-0.1c0-0.2,0-0.2-0.1-0.3v0.1c-0.1,0-0.1-0.1,0-0.1c0.1-0.1,0.1-0.1,0.1-0.1c0.1-0.1,0-0.1,0-0.1v-0.1
	c-0.1-0.1-0.1-0.1-0.1-0.1l-0.1-0.1v-0.1c0.1-0.1,0.1-0.1,0.1-0.1l0.1-0.1c0-0.1-0.1-0.1-0.1-0.2c-0.1-0.1-0.1-0.1-0.1-0.2
	c-0.1-0.1-0.1-0.1-0.1-0.2c0-0.1,0.1-0.2,0.1-0.2c0.1-0.1,0.1-0.2,0.1-0.3c0-0.1,0-0.1-0.1-0.1V31c0-0.1,0-0.1-0.1-0.1
	c-0.1-0.1-0.1-0.1-0.1-0.1c0.1-0.1,0-0.2,0.1-0.3c0-0.1,0-0.1-0.1-0.1l-0.1-0.1c0-0.1,0.1-0.1,0.1-0.3c0-0.1,0-0.2,0.1-0.3
	c0-0.1-0.1-0.1-0.1-0.1h-0.1v-0.1v-0.1c-0.1-0.1-0.1-0.1,0-0.3c0-0.1,0-0.1-0.1-0.2c-0.1-0.1-0.1-0.1,0-0.1v-0.1l-0.1-0.1v-0.2
	c0-0.1,0.1-0.2,0.1-0.3V28c0.1-0.1,0.1-0.1,0.1-0.1v-0.1c0-0.1,0-0.1-0.1-0.1v-0.2c0,0,0-0.1-0.1-0.1l0.1-0.1c0-0.1,0.1-0.1,0.1-0.1
	c0.1,0.1,0.1,0,0.1,0c0-0.1,0.1-0.1,0.1-0.1c0.1-0.1,0.1-0.1,0.1-0.3v-0.2c0.1-0.1,0.1-0.1,0.1-0.2v-0.2c0-0.1-0.1-0.1,0-0.2
	c0.1-0.1-0.1-0.1-0.1-0.1l0.1-0.1c0-0.1,0-0.1-0.1-0.1s-0.1-0.1-0.1-0.1l-0.1-0.1c-0.1-0.1-0.1-0.1-0.1-0.3c0.1-0.1,0.1-0.1,0.1-0.3
	c0.2,0.1,0.2-0.1,0.2-0.2v-0.1c0.1-0.1,0.1-0.1,0.1-0.1v-0.2c0-0.1,0.1-0.1,0-0.1v-0.3c0-0.1,0-0.1,0.1-0.1c0.1-0.1,0-0.1,0-0.2
	c0,0-0.1-0.1,0-0.1c0-0.1,0-0.2,0.1-0.3v-0.1c-0.1-0.1-0.1-0.1-0.1-0.1c-0.1,0-0.1,0-0.1-0.1c0.1-0.1,0.1-0.1,0-0.1v-0.1l0.1-0.1
	c0-0.1-0.1-0.3,0-0.5h-0.1v-0.3c0.1-0.1,0.1-0.1,0-0.2v-0.1c0-0.1,0-0.1,0.1-0.3c-0.1-0.1-0.1-0.2,0-0.3c0-0.1-0.1-0.1-0.1-0.1
	c0-0.1-0.1-0.1,0-0.3v-0.1c-0.1-0.1-0.1-0.1,0-0.2c0-0.1,0-0.1-0.1-0.3v-0.1c0.1-0.1,0.1-0.1,0.1-0.2c-0.1,0-0.1-0.1-0.1-0.1
	c0-0.1,0.1-0.1,0.1-0.1c0.1-0.1,0.1-0.1,0.1-0.2c-0.1-0.1,0-0.1,0-0.1c0.1-0.1,0-0.1-0.1-0.3c-0.1,0-0.1-0.1-0.1-0.1v-0.1
	c-0.1-0.1,0-0.1,0-0.1c0.1-0.1,0.1-0.1,0.1-0.1v-0.1c0-0.1-0.1-0.1,0-0.2v0.1v-0.1c0.1-0.1,0.1-0.1,0-0.1V18c0.1-0.1,0-0.1,0-0.1
	v-0.1c0-0.1,0-0.1,0.1-0.2c-0.1-0.1-0.1-0.1-0.1-0.1c0-0.1-0.1-0.1-0.1-0.1c0.1-0.1,0-0.1,0-0.2V17c0-0.1,0-0.1,0.1-0.2
	c0-0.1,0-0.1-0.1-0.1c-0.1-0.1,0-0.1,0-0.3c0,0,0.1,0,0.1-0.1c-0.1-0.1-0.1-0.1-0.1-0.1v-0.3v-0.1c0-0.1-0.1-0.1-0.1-0.3
	c0.1,0,0.1-0.1,0.1-0.2s0-0.1,0.1-0.1c0-0.1,0-0.1-0.1-0.1v-0.1c0-0.1,0-0.1,0.1-0.1v-0.1c0-0.1,0.1-0.1,0-0.2V14.4
	C32.6,14.4,32.6,14.4,32.6,14.4z M17.6,13c-0.1-0.1-0.1-0.1-0.1-0.1c-0.1-0.1-0.1-0.3-0.1-0.4c-0.1-0.2-0.1-0.4-0.1-0.7
	c0.1,0,0-0.1,0-0.1c0-0.3,0.1-0.5,0.1-0.7c-0.1-0.1,0-0.2-0.1-0.3c-0.1-0.1-0.1-0.1-0.1-0.2c-0.1-0.2-0.2-0.3-0.3-0.5
	c0-0.1,0.1-0.1,0.1-0.1c0.3-0.1,0.5,0,0.7,0c0.1,0.1,0.7,0.4,0.8,0.5c0.2,0.1,0.5,0.3,0.7,0.5c0.1,0.1,0.1,0.1,0.2,0.1
	c0.1,0.1,0.1,0.1,0.3,0.1c0.3,0.1,0.3,0.1,0.3,0.3v0.2c0.1,0.1,0.1,0.3,0.1,0.3v0.1C20,12.1,20,12.1,20,12.1
	c-0.1,0.1,0.1,0.3-0.1,0.5c-0.1,0.1,0,0.3-0.1,0.5v0.1c0,0.1-0.1,0.2-0.1,0.3c-0.1,0.1-0.3,0.1-0.5,0.1C19.1,13.4,18,13,17.9,13
	L17.6,13L17.6,13z M15.5,17.8C15.4,17.8,15.4,17.7,15.5,17.8L15.5,17.8z M26.2,29.6C26.2,29.7,26.3,29.7,26.2,29.6
	C26.2,29.7,26.2,29.6,26.2,29.6z M29.1,22.6c-0.1,0.2,0.1,0.4-0.1,0.5v0.1v0.5c0.1,0.1,0,0.1-0.1,0.1c-0.4-0.1-0.8-0.3-1.2-0.4
	c-0.2-0.1-0.7-0.1-0.8,0c-0.1,0.1-0.2,0-0.3,0.1h-0.1l-0.1,0.1c-0.1,0-0.1,0.1-0.1,0.1c-0.1,0.1-0.1,0.1-0.1,0.1
	c0,0.1,0,0.1,0.1,0.1c0.1,0.1,0,0.1-0.1,0.3c-0.1,0.1-0.1,0.2-0.1,0.3c0.1,0.1,0,0.2-0.1,0.3c-0.1,0-0.1,0.1-0.1,0.1
	c0,0.1,0,0.1-0.1,0.1v0.1C26,25.2,26,25.3,26,25.3s-0.1,0.1-0.1,0.1c0,0.1,0,0.1-0.1,0.1c-0.1,0.1-0.2,0.5-0.3,0.6
	c0.1,0.1,0.1,0.2,0.1,0.3c0.1,0.1,0.2,0.2,0.3,0.3c0.1,0,0.1,0.1,0.1,0.1c0.1,0.1,0.3,0.2,0.3,0.3c0,0.1,0.1,0.1,0.1,0.1
	c0,0.1,0,0.1,0.1,0.1c0.1,0.1,0.1,0.1,0.1,0.1c0,0.1,0,0.1,0.1,0.1c0,0.1,0.1,0.1,0.1,0.1c0,0.1,0.1,0.1,0.1,0.1
	c0,0.1,0.1,0.1,0.1,0.1c0,0.1,0.1,0.1,0.1,0.1c0,0,0,0.1,0.1,0.1c0.1,0.1,0.1,0.1,0.1,0.1c0.1,0.1,0.3,0.3,0.3,0.4
	c0.1,0.1,0.1,0.1,0.1,0.1c0,0.1,0.1,0.1,0.1,0.1c0.1,0,0.1,0.1,0.1,0.1c0.1,0.1,0.1,0.1,0.1,0.1c0.1,0.1,0.1,0.1,0.2,0.2l0.1,0.1
	c0.1,0,0.2,0,0.3,0.1c0,0,0.1,0.1,0,0.1c0,0.1,0.1,0.1,0.1,0.1l0.1,0.1v0.1c0.1,0.1,0.1,0.2,0.1,0.3c0,0,0,0.1,0.1,0.1l0.1,0.1
	c0.1,0.1,0.2,0.3,0.3,0.3c0,0.1,0.1,0.1,0.1,0.1h-0.1c-0.1,0-0.1-0.1-0.1,0.1c-0.1-0.1-0.1,0.1-0.2,0.1c-0.1,0.1-0.1,0.1-0.1,0.1
	c-0.1,0-0.1,0-0.1,0.1c-0.1,0.1-0.1,0.1-0.2,0.1H28c-0.1,0-0.1,0-0.2,0.1c-0.1-0.1-0.1-0.1-0.1-0.1h-0.1c-0.1,0-0.1-0.1-0.2-0.1
	s-0.1,0.1-0.2,0s-0.1-0.1-0.1-0.1c0-0.1,0-0.1-0.1-0.1c0-0.1-0.1-0.1-0.1-0.1l-0.1-0.1c-0.1-0.1-0.1-0.1-0.1-0.2h-0.1
	c0-0.1-0.1-0.1-0.1-0.1c-0.1,0-0.1-0.1-0.1-0.1c-0.1-0.1-0.1-0.1-0.1-0.1c-0.1-0.1-0.3-0.3-0.3-0.4c0,0-0.1,0-0.1-0.1
	c-0.1,0-0.1-0.1-0.1-0.1h-0.1c0-0.1-0.1-0.1-0.1-0.1c-0.1-0.1-0.1-0.1-0.1-0.1c-0.1-0.1-0.1-0.1-0.1-0.1v-0.1
	c-0.1,0-0.1-0.1-0.1-0.1c0-0.1-0.1-0.1-0.1-0.1c0-0.1,0-0.1-0.1-0.2c0-0.1,0-0.1-0.1-0.1c0-0.1,0-0.1-0.1-0.3c-0.1-0.1,0-0.1,0-0.1
	c-0.1-0.1-0.1-0.1-0.1-0.1c0,0,0-0.1-0.1-0.1C25,28.2,25,28.2,25,28.1c0-0.1-0.1-0.2,0-0.3c0,0-0.1,0-0.1-0.1v-0.1v-0.1
	c-0.1-0.1,0-0.1,0-0.1c0,0,0-0.1-0.1-0.1c-0.1-0.1-0.1-0.1,0-0.1v-0.1c-0.1-0.1-0.1-0.1-0.1-0.2v-0.2c-0.1-0.1-0.1-0.1-0.1-0.1v-0.1
	c-0.1-0.2-0.1-0.3-0.1-0.3c0-0.1,0-0.1-0.1-0.3c0,0,0-0.1-0.1-0.1s-0.1,0-0.2-0.1h-0.1c-0.1,0-0.3,0-0.3-0.1h-0.1
	c-0.3,0.1-2.7,0.6-2.8,0.6c-0.1,0-0.3,0-0.5,0.1c-0.1,0.1-0.2,0-0.3,0c-0.1,0.1-0.1,0.1-0.3,0.1H20c-0.3,0.1-1,0-1.3-0.1
	c0,0.1,0.1,0.1,0.1,0.1h0.1c0.1,0.1,0.1,0.1,0.1,0.1c0.1,0.1,0.8,0.1,0.8,0.1h0.1c0.1,0.1,0.2,0.1,0.3,0.1c0.1,0,0.4,0,0.5,0.1h0.1
	h0.1C20.9,27,21,27,21.1,27h0.1c0.1,0,0.1,0,0.1,0.1h0.1c0.1-0.1,0.1,0,0.3,0c0.1-0.1,0.2,0,0.3,0s0.1,0,0.1,0.1s0.1,0.1,0.1,0.1
	h0.1c0-0.1,0.1-0.1,0.1-0.1s0.1,0.1,0.2,0.1v-0.1c0.1,0,0.1,0,0.1,0.1c0.1,0,0.1-0.1,0.1,0.1h0.1c0.1-0.1,0.1,0,0.1,0.1
	c0,0,0.1,0.1,0.1,0.1v0.1c0,0.1,0,0.1,0.1,0.1h0.1c0.1-0.1,0.1-0.1,0.1,0.1V28v0.1c0.1,0.1,0.1,0.1,0.1,0.2v-0.1v0.1
	C23,28.3,23,28.3,23,28.5v0.1c-0.1,0.1-0.1,0.1,0,0.2v0.1c-0.1,0-0.1,0.1-0.1,0.1c0,0.1,0,0.1-0.1,0.1v0.1c0,0.1,0,0.1,0,0
	c-0.1,0.1-0.1,0.3-0.1,0.5c-0.1,0,0,0,0,0.1s-1,1.2-1,1.3s-0.4,0.4-0.5,0.5c0.1-0.1,0.1-0.1,0.1-0.1c-0.1,0.1,0,0.1-0.1,0.2h-0.1
	c-0.1,0.1-0.1,0.1-0.1,0.2c-0.1,0.1-0.1,0.1-0.2,0.1C20.9,32,21,32.1,21,32.1c-0.1,0-0.1,0.1-0.1,0.1c-0.1,0.1-0.1,0.1-0.2,0.1
	c-0.1,0.1-0.1,0.2-0.1,0.3l-0.1,0.1c-0.1,0.1-0.1,0.1-0.1,0.1c-0.1,0.1-0.2,0.1-0.3,0.2c-0.1,0.1-0.1,0.1-0.2,0.1
	c-0.1,0-0.1,0.1-0.1,0.1v0.1c-0.3,0.4-0.7,0.9-0.9,1.5h0.1h0.1c0.1-0.1,0.1-0.1,0.1-0.1h0.1v-0.1v0.1c0.1,0,0.1-0.1,0.1,0h0.1
	c0.1,0.1,0.1,0.1,0.1,0.1c0-0.1,0.1-0.1,0.1-0.1h0.1c0.1-0.1,0.1-0.1,0.1,0c0.1,0,0.1,0,0.1-0.1s0.1,0,0.2,0.1
	c0.1-0.1,0.1-0.1,0.1,0c0,0,0.3,0.5,0.5,0.7c0,0.1-0.1,0.1-0.1,0h-0.1c-0.1,0.1-0.1,0.1-0.3,0h-0.1h-0.1c-0.1,0-0.1,0-0.1,0.1h0.1
	H20h-0.3c0,0-0.1,0-0.1,0.1h-0.1h-0.1h-0.1c0-0.1-0.1-0.1-0.2-0.1c-0.8-0.1-0.8-0.1-2.3-0.1h-0.1c-0.1,0-0.1-0.1-0.1-0.1l-0.1-0.1
	c0,0.1,0,0.1-0.1,0.1c0-0.1-0.2,0-0.2-0.1c-0.1-0.1-0.1-0.1-0.1-0.1l-0.1-0.1c-0.1,0-0.2,0.1-0.2,0.1h-0.1c-0.1,0-0.1-0.1-0.1-0.1
	h-0.1c-0.1,0-0.1-0.1-0.2,0c-0.1-0.1-0.1-0.1-0.1-0.1h-0.1c-0.1,0-0.1,0-0.1,0.1l-0.2,0.1c0,0,0.6-0.8,0.7-0.8c0,0,0.1,0,0.1,0.1
	c0.1,0,0.1,0,0.1-0.1c0.1,0,0.1-0.1,0.1-0.1s0.1,0,0.1,0.1c-0.1,0.1,0,0.1,0.1,0.1h0.1c0,0,0-0.1-0.1-0.1c-0.1-0.1-0.1-0.1-0.1-0.1
	h-0.1c0.3-0.7,0.3-0.7,0.8-1.3c0,0.1,0.1-0.3,0.2-0.3c0.1-0.1,0.2-0.1,0.3-0.2c0.1,0,0.1-0.1,0.1-0.1c0-0.1,0.1-0.1,0.1-0.1
	c0.1-0.1,0.1-0.1,0.1-0.1v-0.1c0.1-0.1-0.1-0.1,0-0.1c0-0.1,0.1-0.5,0.3-0.5s0.3-0.5,0.3-0.5h0.1c0-0.1,0.1-0.1,0.1-0.1
	s0.1-0.1,0.1-0.1c0-0.1,0.1-0.3,0.1-0.3c0.1,0,0.1,0,0.1-0.1c0.1-0.1,0.1-0.1,0.1-0.2c0.1,0,0-0.1,0.1-0.1s0.3-0.4,0.3-0.5l0.1-0.1
	c0.1,0,0.1,0.1,0.1-0.1l0.3-0.1c0.1,0,0.1-0.1,0.2-0.1c0,0-0.1,0.1-0.1,0C19.6,29,19.6,29,19.5,29h-0.1c-0.1-0.1-0.1-0.1-0.2-0.1
	h-0.1c-0.1-0.1-0.1-0.1-0.2-0.1l-0.1-0.1c-0.1-0.1-0.1-0.1-0.1-0.1s-0.1,0-0.1-0.1h-0.1h-0.1h-0.1c-0.1,0-0.1-0.1-0.1-0.1
	c-0.8,1.1-3.3,2-4.2,2.1c-0.1,0-0.1,0.1-0.1,0.1c-0.3,0-0.5,0.1-0.5,0.1h-0.1c-0.1,0-0.1,0-0.2,0.1c-0.1-0.1-0.1-0.1-0.3,0
	c-0.1-0.1-0.3,0-0.3,0.1c-0.1,0.3-0.1,0.3-0.2,0.3c-0.1,0-0.1,0-0.1,0h-0.2c-0.1-0.1-0.1,0-0.2,0s-0.1,0-0.1,0c-0.1,0-0.2,0-0.2,0
	h-0.1c-0.1,0-0.1,0.1-0.2,0.1s-0.2,0.1-0.3,0c-0.1,0.1-0.1,0.1-0.2,0.1c-0.1-0.1-0.1,0-0.1,0c-0.1,0.1-0.1,0.1-0.1,0
	c0,0-0.1,0-0.1,0.1h-0.1c-0.1,0-0.1,0-0.2,0.1h-0.1c-0.1-0.1-0.1-0.1-0.3-0.1c-0.1,0-0.1,0.1-0.3,0v-0.1c-0.1,0.1-0.1,0.1-0.2,0.1
	c-0.1,0-0.1,0-0.1-0.1c-0.1,0-0.2-0.1-0.3,0H9C9,31.5,9,31.5,9,31.5c-0.1,0-0.1,0.1-0.1,0.1c-0.1,0-0.2,0.1-0.3-0.1
	c-0.1,0-0.1-0.1-0.1-0.1H8.4c0,0,0.1,0,0.1,0.1s0.1,0.1,0,0.1v0.1H8.4c0,0.1,0,0.1-0.1,0.1v0.1C8.2,32,8.2,32,8.2,32.1
	c0.1,0,0.1,0,0.1,0.1v-0.1c0,0.1-0.1,0.1,0,0.1v0.1c0.1,0.1,0,0.1-0.1,0.1c0.1,0,0.1,0.1,0,0.1c0,0-0.4,0.3-0.7,0.4
	c-0.1,0-0.1,0,0,0v-0.1v-0.1c0.1,0,0.1-0.1,0-0.1v-0.1c0-0.1,0.1-0.1,0-0.1c0-0.1,0.1-0.1,0-0.1c0-0.1,0-0.1,0.1-0.3
	c0,0,0-0.1-0.1-0.1v-0.1v-0.1c0-0.1,0-0.1,0.1-0.1h0.1c0.1-0.7,0.1-0.7,0.3-1.9v-0.1c0-0.1,0-0.1,0.1-0.1c0,0,0.1,0,0.1-0.1H8.1
	c0-0.1,0-0.2,0.1-0.2c0-0.1,0.1-0.1,0.1-0.1v-0.1c0.1-0.1-0.1-0.2,0-0.2h0.1c-0.1-0.1,0-0.1,0-0.1v-0.1c0.1-0.1,0.1-0.1,0.1-0.1
	c0.1,0,0.1-0.1,0.1-0.1v-0.1h0.1c-0.1-0.1,0-0.1-0.1-0.1c-0.1,0-0.1-0.1,0-0.1v-0.1c0,0,0.4,0.5,0.5,0.7C9,28.5,9,28.4,9,28.3
	l0.1-0.1c0.1-0.1,0.3-0.1,0.3,0.1v0.1h0.2h0.2c0.1,0.1,0.1,0.1,0.1,0.1c0.2,0,0.3,0,0.5,0.1h0.2c0-0.1,0.1,0,0.1-0.1
	c0.1,0,0.1,0.1,0.1,0.1c0.1,0.1,0.1,0.1,0.1,0.1H11h0.1c0.1,0,0.2,0,0.3,0.1c0.1,0,0.1,0,0.1,0.1h0.2H12c0.1,0,0.2,0,0.3,0.1
	c0.1,0,0.1,0,0.3-0.1c0.1,0,0.1,0,0.2,0s0,0,0,0h0.1c0,0,0.1,0,0.1,0.1H13c0.1-0.1,0.1-0.1,0.2-0.1h0.1c0.1-0.1,0.1,0,0.1,0
	c0.1,0,0.1,0,0.1,0h0.1h0.1l0.1,0.1h0.1h0.1c0.1-0.1,0.1-0.1,0.2-0.1h0.1h0.1h0.1c0.1,0,0.1,0.1,0.1,0.1h0.1c0.1,0,0.1,0,0.2,0.1
	c-0.1,0,0,0,0,0c0.1-0.1,0.2-0.1,0.3-0.1c0.1,0,0.2,0.1,0.3,0h0.1c0.1,0.1,0.1,0.1,0.1,0.1c0.1,0,0.2,0,0.2,0h0.1
	c0.1,0,1.6,0.1,1.8-0.1h0.1c-0.1-0.1-0.1-0.1-0.1-0.1s-0.2-0.1-0.3-0.1c-0.1,0-0.8-0.1-0.9-0.1h-0.1c-0.1-0.1-0.7-0.2-0.8-0.3
	c0,0-0.1-0.1-0.1-0.1v0.1c-0.1,0-0.3-0.1-0.3-0.3c0-0.1,0.1-0.3,0.1-0.5c0,0,0-0.1-0.1-0.1c0.1-0.5,0.1-0.8,0.3-1.2
	c0.3-0.7,0.7-1.4,1-2h0.1c0.1,0,0.3-0.1,0.3,0c0.1,0.2,0.3,0.2,0.3,0.2c0.1-0.1,0.1-0.1,0.2-0.1h0.1c0.1,0,0.1-0.1,0.1-0.1h0.1
	c0.1,0.1,0.1,0.1,0.1,0.1s0.1,0,0.1-0.1h0.1c0.1,0.1,0.1,0,0.2,0c0-0.1,0.1-0.1,0.1-0.1h0.2c0.1,0,0.1,0.1,0.3,0
	c0.1,0,0.3,0,0.3-0.1h0.1c0.1-0.1,0.1,0.1,0.1,0.1H19c0.1-0.1,0.1-0.1,0.2-0.1l0.1,0.1c0.2-0.1,0.3,0,0.5,0c0.1-0.1,0.1-0.1,0.1-0.1
	c0.1,0,0.2-0.1,0.3-0.1c0.1,0,0.1,0.1,0.1,0h0.1c0.1,0.1,0.1,0.1,0.3,0.1h0.1c0.1,0,0.1-0.1,0.2-0.1h0.1c0.1,0,0.3-0.1,0.3,0
	c0.1,0,0.3-0.1,0.3-0.1c0.1,0,0-0.1,0.1-0.1c0.3-0.1,0.5-0.1,0.7-0.1c0-0.1,0-0.2-0.1-0.3c-0.1,0.1-1.8-0.8-2.9-0.8
	c-0.1,0-0.1-0.1-0.1-0.1c-0.1,0.1-0.1,0-0.1-0.1c-0.1-0.1-0.1-0.1-0.1-0.1h-0.1c0-0.1-0.1-0.1-0.1-0.1v0.2l-0.1-0.1
	c-0.1,0-0.1-0.1-0.1-0.1c0-0.1-0.3-0.1-0.3-0.1S18.2,22,18.1,22c0,0.1-0.1,0.1-0.1,0L17.9,22h-0.1c0-0.1-0.1-0.1-0.1-0.1
	c-0.1,0-0.1-0.1-0.1-0.1c-0.1-0.1-0.1-0.1-0.1-0.1c-0.1,0-0.3,0.1-0.3,0.1H17c-0.1,0-0.1,0,0,0c0-0.1-0.1-0.1-0.1-0.1
	c-0.1-0.1-0.1-0.1-0.2-0.1c-0.1-0.1-0.1,0-0.2-0.1c0-0.1-1.7-0.5-1.8-0.5c-0.1-0.1,0.1-0.6-0.1-0.7c-0.2-0.1,0.1,0-0.1-0.1
	c-0.1-0.1-0.1-0.1-0.2-0.1c0-0.1-0.1-0.1-0.1-0.1h-0.1c0,0-0.1-0.3-0.2-0.8C14,18.8,14,18.5,14,18.5c2.6,0.5,4.1,0.8,4.9,1.1h0.2
	c0.3,0.1,0.5,0.1,0.5,0.1c0.1,0,0.1,0,0.1,0.1c0,0.1,0.1,0.1,0.1,0.1c0.1,0.1,0.2,0.1,0.3,0.1h0.1c0.1,0.1,0.3,0.1,0.3,0.1
	s0.1,0,0.1,0.1c0.1,0.1,0.1,0.1,0.1,0.1c0.1,0,0.1,0,0.2,0.1c0.1,0.1,0.1,0.1,0.3,0.1h0.1c0.1,0.1,0.2,0.1,0.3,0.1
	c0,0,0.1,0,0.1,0.1s0.1,0.1,0.2,0.1c0.1,0,0.2,0,0.3,0.1h0.1c0.1,0,0.1,0.1,0.1,0.1c0.1,0.1,0.8,0.3,0.8,0.3c0.1,0,0.1,0.1,0.1,0.1
	c0.1,0.1,0.1,0.1,0.1,0.1h0.1c0.1,0.1,0.1,0.1,0.3,0.1c0,0,0.1,0,0.1,0.1c0.1,0.1,0.1,0.1,0.3,0.1l0.1,0.1c0.1,0,0.1,0.1,0.2,0.1
	l0.1,0.1c0.1,0,0.1,0.1,0.2,0.1s0.1,0.1,0.2,0.1c0.1,0.1,0.1,0.1,0.3,0.1c0,0,0.1,0,0.1,0.1c0.1,0,0.1,0.1,0.1,0.1s0.1,0.1,0.2,0.1
	c0.1,0,0.2,0.1,0.3,0.2c-0.1-0.1-0.1-0.3-0.1-0.5l-0.1-0.1c-0.1-0.3,0-0.5-0.1-0.7c-0.1-0.1-0.1-0.2-0.2-0.3
	c-0.1-0.1-0.1-0.1-0.1-0.1C25,21,25,20.7,24.8,20.5c0-0.1-0.1-0.1-0.1-0.2c-0.2-0.1-0.1-0.2-0.1-0.3s0.1-0.1,0.2-0.1
	C25,20,25.1,20,25.2,20c0.2-0.1,0.3,0,0.5,0.1c0.1,0.1,0.3,0.1,0.4,0.1c0.3,0.1,0.5,0,0.6,0.3c0,0,0.1,0,0.1,0.1
	c0.3,0.1,0.8,0.3,1,0.5c-0.1-0.1,0.1,0.1,0,0c0.1,0.1,0.3,0.1,0.3,0.1c0.3-0.1,0.4,0,0.4,0.3c0,0.1,0,0.1,0.1,0.2
	c0.1,0.1,0.1,0.3,0.2,0.4l-0.1,0.1v0.2C29.1,22.3,29.3,22.4,29.1,22.6z"/>
</svg>
