<?xml version="1.0" encoding="utf-8"?>
<!-- Generator: Adobe Illustrator 25.2.3, SVG Export Plug-In . SVG Version: 6.00 Build 0)  -->
<svg version="1.1" id="Layer_1" xmlns="http://www.w3.org/2000/svg" xmlns:xlink="http://www.w3.org/1999/xlink" x="0px" y="0px"
	 viewBox="0 0 40 40" style="enable-background:new 0 0 40 40;" xml:space="preserve">
<style type="text/css">
	.st0{fill:#D50032;}
</style>
<path class="st0" d="M33.5,36.3c0.1-0.2,0-0.4-0.1-0.6c0.1,0,0.1-0.1,0.1-0.1c-0.1-0.2-0.1-0.4,0-0.6c0-0.1,0-0.1-0.1-0.2
	c-0.1-0.1-0.1-0.2-0.2-0.3l-0.1-0.1C33,34.3,33,34.3,33,34.3C33,34.1,33,34.1,33,33.9s0-0.3-0.1-0.3v-0.1c0.1-0.1,0.1-0.1,0-0.1
	v-0.1c0-0.1,0-0.1-0.1-0.1c0.1-0.1,0.1-0.1,0.1-0.1c-0.1,0-0.1-0.1-0.1-0.1c-0.1-0.2-0.1-0.3,0.1-0.5c0.1-0.1,0.1-0.2,0.1-0.3
	c0.1-0.1,0.2-0.3,0.3-0.4v-0.1c0.1-0.1,0.1-0.1,0.1-0.2c0.1-0.1,0.1-0.3,0.1-0.4v-0.2v-0.1c0.1-0.2,0-0.4,0-0.6c0-0.3-0.1-0.5,0-0.7
	c0-0.1,0-0.2-0.1-0.3c0-0.1-0.1-0.1-0.1-0.3c-0.1-0.1-0.1-0.2,0-0.3c0-0.1,0-0.2-0.1-0.3c-0.1-0.1,0-0.2,0-0.3
	c0-0.1,0.1-0.1,0.1-0.2s0-0.1,0.1-0.1l0.1-0.1c-0.1-0.1,0-0.1,0-0.1c0.1-0.1,0.1-0.1,0.1-0.1c-0.1-0.1-0.1-0.1-0.1-0.2v-0.9v-1v-0.5
	v-0.5c0-0.1-0.1-0.3-0.1-0.5v-0.3v-0.6v-0.5v-0.5V21c0-0.1-0.1-0.3-0.1-0.5V20v-0.7v-0.5V18c0-0.3-0.1-0.5-0.1-0.7v-0.7v-0.5v-0.5
	V15c0-0.3-0.1-0.5-0.1-0.7v-0.5v-0.8v-0.7V12c-0.1-0.1-0.1-0.1-0.1-0.2V7.6c0-0.1,0-0.1-0.1-0.1V7.3V6.8V6V5.4C33.1,5.2,33,5,33,4.7
	V4.2V3.7V3.1V2.6c0-0.2,0-0.3-0.1-0.5V1.4c0.1,0,0.1,0,0,0c-0.1-0.2-0.3-0.3-0.3-0.5c0-0.1-0.1-0.1-0.1-0.1
	c-0.1-0.1-0.3-0.1-0.3-0.3C32.2,0.3,32,0.3,32,0.3c-0.1,0-0.1,0-0.2-0.1c-0.1,0-0.1-0.1-0.1-0.1h-0.1c-0.1-0.1-0.1-0.1-0.3-0.1h-0.6
	h-0.5h-0.5h-0.6c-0.1,0-0.1,0-0.1,0.1c0,0.1-0.1,0.1-0.1-0.1l-0.1-0.1c-0.1,0-0.1-0.1-0.1-0.1h-0.1c-0.1,0.1-0.1,0.1-0.1,0.1
	c-0.3,0.1-0.5,0.1-0.8,0.1h-0.5h-0.5H26h-0.5c-0.1,0-0.2,0-0.3,0.1H25h-0.5h-0.5h-0.5h-0.5h-0.5h-0.7h-0.5h-0.5h-0.5h-0.5h-0.6h-0.7
	h-0.6h-0.5h-0.3h-0.1c-0.1-0.1-0.1-0.1-0.1,0h-0.3H16c-0.1,0-0.1,0.1-0.1,0.1c-0.1,0.1-0.1,0.1-0.3,0.1h-0.8c-0.2,0-0.4,0.1-0.6,0.1
	c-0.1,0.1-0.2,0-0.3,0.1c-0.1,0-0.1-0.1-0.2,0c-0.1,0-0.2-0.1-0.3-0.1c-0.1-0.1-0.1-0.1-0.2-0.1c-0.2,0-0.4,0.1-0.5,0.1h-0.6
	c-0.2,0-0.3,0.1-0.5,0.1h-0.3l-0.1,0.1c0,0.1-0.1,0.1-0.1,0.1c-0.1-0.1-0.2-0.1-0.3-0.1c-0.2,0.1-0.3,0.1-0.5,0.1H9.8H9.6
	c-0.1,0-0.1,0-0.2-0.1c-0.1,0-0.1,0-0.1,0.1c0,0.1-0.1,0.1-0.1,0.1C9.1,0.4,9.1,0.4,9,0.5H8.9v0.1C8.8,0.5,8.8,0.5,8.8,0.5
	c0-0.1-0.1-0.1-0.1-0.1c-0.1,0-0.1,0.1-0.1,0.1c0,0.1,0.1,0.1,0.1,0.2c0.1,0,0.1,0,0.1,0.1v0.1C8.9,0.9,8.9,1,8.9,1H8.8
	c0-0.1-0.1-0.1-0.1-0.1c0-0.1,0-0.1-0.1-0.1c-0.1,0-0.1,0.1-0.1,0.1c-0.1,0-0.2-0.1-0.3-0.1C8.2,0.8,8.1,0.9,8,0.9
	C8,1,7.9,1,7.9,1.1C7.9,1.3,7.7,1.5,7.5,1.6c0,0.1-0.1,0.1-0.1,0.1C7.4,1.9,7.4,2,7.3,2.2c-0.1,0-0.1,0-0.1,0.1c0.1,0.2,0,0.3,0,0.5
	C7.2,2.9,7.1,3,7.1,3v0.1v0.1v0.2v0.1v0.3v0.3c0,0.3,0,0.7,0.1,1c0,0.3-0.1,0.7-0.1,0.9c0,0.4,0.1,0.8,0.1,1.2v1v0.5v0.5v0.5v0.3
	v0.5v0.5v0.5v0.5v0.3v0.7v0.4c0.1,0,0.1,0.1,0.1,0.1c0,0.1-0.1,0.1-0.1,0.1c-0.1,0.1-0.1,0.1-0.1,0.3v0.8v0.7v0.5v0.1
	c0.1,0.1,0,0.1,0,0.1v0.1c0,0.1,0.1,0.1,0.1,0.1v0.1c-0.1,0.1-0.1,0.2-0.1,0.3v0.8v0.5v0.5v0.5v0.3v0.3v0.5V21v0.5V22v0.7v0.7v0.8
	V25c0,0.3,0.1,0.5,0.1,0.8h0.1l0.3-0.1c0.1-0.1,0.1-0.1,0.2-0.1c0-0.1,0-0.1,0.1-0.1c0.1,0,0.1-0.1,0.2-0.1c0.1,0,0.2-0.1,0.2-0.1
	c0-0.1,0.1-0.1,0.1-0.1L8.3,25c0.1-0.1,0.3-0.2,0.4-0.3c0-0.1,0.1-0.1,0.1-0.1c0.1-0.1,0.1-0.1,0.3-0.1c0.2,0.2,0.2,0.1,0.3,0.1
	c0.1-0.1,0.1-0.1,0.1-0.1c0.1,0,0.2-0.1,0.3-0.1l0.1-0.1c0.1,0,0.1,0,0.1-0.1c0.1-0.1,0.1-0.1,0.1-0.1l0.1-0.1V24
	c0.1,0,0.3-0.1,0.3-0.2c0.1-0.1,0.3-0.1,0.3-0.2l0.1-0.1c0,0,0-0.1,0.1-0.1c0,0,0.1,0,0.1-0.1c0.1,0,0.1,0,0.1-0.1
	c0.1,0,0.1,0,0.1-0.1c0.1,0,0.1,0,0.1-0.1c0.1-0.1,0.2-0.1,0.3-0.1c0,0,0.1-0.1,0.1-0.1c0.1,0,0.1-0.1,0.1-0.1
	c0.1-0.1,0.2-0.1,0.3-0.2c0.1-0.1,0.1-0.1,0.2-0.1c0.2,0.1,0.3,0.1,0.3,0.1c-0.1,0-0.1-0.1-0.1-0.1h-0.3c-0.1,0-0.1,0-0.1-0.1
	c-0.1,0-0.1-0.1-0.2-0.1c0-0.1-0.1-0.1-0.1-0.1s0.1-0.1,0.1-0.1c0-0.1-0.1-0.1-0.1-0.2c-0.1-0.1-0.3-0.1-0.3-0.1
	c0-0.1,0-0.1-0.1-0.1c0-0.1-0.1-0.1-0.1-0.1c-0.1-0.1-0.1-0.1-0.1-0.1c-0.1,0-0.1-0.1-0.1-0.1c0-0.1-0.1-0.1-0.1-0.1h-0.2
	c-0.1,0-0.1-0.1-0.2-0.1c-0.1,0-0.1,0-0.1-0.1c-0.1-0.1-0.1-0.1-0.3-0.1h-0.1H10c-0.1-0.1-0.3,0-0.4,0c-0.1,0-0.1,0-0.1-0.1l0.1-0.1
	l0.1-0.1c0-0.1,0-0.1,0.1-0.1c0,0,0.1-0.1,0.1-0.1v0.2c0-0.1,0.1-0.1,0.1-0.1c0.1,0,0.1-0.1,0.1-0.1c0.1-0.1,0.1-0.1,0.1-0.2
	c0.1,0,0.1-0.1,0.1-0.1c0.1-0.1,0-0.1,0.1-0.1l0.1-0.1c0.1,0,0.1-0.1,0.1-0.1v-0.2h0.1c0-0.1,0-0.1,0.1-0.1s0.1-0.1,0.1-0.3
	c0-0.1,0-0.1,0.1-0.1c0.1,0,0.1-0.1,0.1-0.1c0.1-0.1,0.1-0.1,0.1-0.1c0,0,0.1,0,0.1-0.1c0.1-0.1,0.1-0.1,0.1-0.1
	c0.1-0.1,0.1-0.1,0.2,0c0.1,0,0.2-0.1,0.3-0.1c0.1,0,0.1-0.1,0.1-0.1c0-0.1,0.1-0.1,0.1-0.1c0.1,0,0.1-0.1,0.1-0.2
	c0.1,0,0.1-0.1,0.1-0.1c0.1-0.1,0.1-0.1,0.1-0.1c0.1,0,0.1-0.1,0.1-0.1s0.1-0.1,0.1-0.1c0.1-0.1,0.1-0.1,0.1-0.1
	c0.1-0.1,0.1-0.1,0.2-0.3h0.1c0.1-0.1,0.2-0.2,0.3-0.3v-0.1c0-0.1,0.1-0.1,0.1-0.1l0.1-0.1l0.2,0.1c0.1-0.1,0.1-0.1,0.1-0.2h0.1
	c0.1-0.1,0.1-0.1,0.1-0.1c0.1-0.1,0.1-0.1,0.1-0.2c0.1-0.1,0.2-0.1,0.3-0.1c0.1-0.1,0.3-0.1,0.3-0.3c0.1-0.1,0.2-0.1,0.3-0.2
	c0.1-0.1,0.1-0.1,0.3-0.1l0.3-0.3c0.1-0.1,0.3-0.1,0.3-0.3c0.1,0,0.1,0,0.1,0.1h0.1c0.1-0.1,0.1-0.1,0.3-0.2c0.1,0,0.1-0.1,0.1-0.1
	c0.1-0.1,0.1-0.1,0.2-0.1c0.1-0.1,0.1-0.1,0.2-0.1l0.1-0.1c0.1-0.1,0.1-0.1,0.1-0.1c0.1-0.1,0.1-0.1,0.1-0.1
	c0.1-0.1,0.1-0.1,0.1-0.1l0.1-0.1c0.1-0.1,0.2-0.1,0.3-0.1c0.1,0.1,0.3,0,0.3-0.1c0,0,0.1,0,0.1-0.1c0.1-0.1,0.1-0.1,0.2-0.1
	c0,0,0.1,0,0.1-0.1c0.1,0,0.1-0.1,0.1-0.1h0.1c0.1,0,0.1-0.1,0.2-0.1c0.1,0,0.1-0.1,0.1-0.1c0.1-0.1,0.1-0.1,0.1-0.1
	s0.1-0.1,0.1-0.1c0.1-0.1,0.1-0.1,0.1-0.1c0.1-0.1,0.1-0.1,0.2-0.1c0.1-0.1,0.2-0.1,0.3-0.2c0.1-0.1,0.1-0.1,0.1-0.1
	c0-0.1,0-0.1,0.1-0.1c0.1-0.1,0.1-0.1,0.2-0.2c0-0.1,0.1-0.1,0.1-0.1c0.1-0.1,0.1-0.1,0.2-0.1h0.1c0.3,0,0.5-0.1,0.6-0.4
	c0-0.1,0.1-0.1,0.1-0.1c0.1,0,0.1-0.1,0.1-0.1c0,0.1,0.1,0,0.1-0.1l0.1-0.1c0.1,0,0.2,0,0.3-0.1c0.1-0.1,0.1-0.1,0.1-0.1
	C21,11,21,11,21.1,11c0,0,0-0.1,0.1-0.1c0.1-0.1,0.3-0.1,0.3-0.1l0.1-0.1l0.1-0.1c0.1-0.1,0-0.2-0.1-0.3c-0.1-0.1-0.1,0-0.2-0.1h0.4
	c-0.1-0.1-0.3,0-0.4,0.1c-0.1,0-0.1,0.1-0.1,0.1s-0.1,0-0.2,0.1C21,10.5,21,10.5,21,10.5h-0.1c-0.1,0.1-0.1,0.1-0.1,0.1
	c-0.1,0.1-0.2,0.1-0.3,0.1s-0.3,0-0.3,0.1H20c-0.2,0.5-0.3,0.5-0.3,0.5h-0.3c-0.1,0-0.1,0-0.1,0.1c-0.1,0-0.1,0.1-0.3,0.1
	c-0.1,0-0.1,0.1-0.1,0.1c-0.1,0-0.1,0.1-0.1,0.1s-0.1,0-0.1,0.1h-0.1h-0.4c-0.1,0-0.1,0.1-0.3,0.1c-0.1,0-0.1,0-0.1,0.1
	c-0.1,0-0.1,0.1-0.2,0.1c0,0,0,0.1-0.1,0.1s-0.1,0.1-0.2,0.1s-0.1,0.1-0.2,0.1c-0.1,0-0.2,0-0.3,0.1H17c-0.1,0.1-0.1,0.1-0.3,0.1
	c-0.1,0-0.1,0.1-0.1,0.1s-0.1,0-0.2,0.1c-0.1,0.1-0.3,0.1-0.4,0.1c-0.1,0.1-0.1,0.1-0.1,0.1C15.8,13,15.8,13,15.8,13
	c-0.1,0.1-0.1,0.1-0.1,0c0,0-0.1,0-0.1-0.1c0-0.1-0.1-0.1-0.1-0.1c-0.1-0.1-0.1-0.1-0.3-0.1c-0.1-0.1-0.1-0.1-0.2-0.1
	c-0.1,0-0.1,0.1-0.1,0.1c-0.1,0.1-0.1,0.1-0.2,0.1c-0.1,0-0.1,0.1-0.1,0.1c-0.1,0.1-0.1,0.1-0.1,0.1c-0.1-0.1-0.3-0.1-0.4-0.1
	C14,12.9,14,12.9,14,12.8v-0.1v-0.1l0.1-0.3v-0.1c0-0.1-0.1-0.1,0-0.1L14,12c-0.1,0-0.1-0.1-0.2-0.1c0.1,0,0.1-0.1,0.1-0.1
	c-0.1,0-0.1,0-0.1,0.1c-0.1,0-0.1,0-0.1-0.1l0.1-0.1c0,0,0.1,0,0.1-0.1c-0.1-0.1-0.1-0.1-0.1,0c-0.1-0.1,0-0.1,0-0.1
	c0.1-0.1,0.1-0.1,0.1-0.1s0-0.1,0.1-0.1c0.1,0,0.1-0.1,0.1-0.1c0-0.1-0.1-0.1-0.1-0.1c0.1-0.1,0-0.2,0-0.3c-0.1-0.1-0.1-0.1-0.1-0.1
	c-0.3,0-0.3,0-0.3-0.1v-0.1c0.1-0.1,0-0.2-0.1-0.3c-0.1-0.1-0.1-0.1-0.1-0.1c0-0.1,0.1-0.1,0.1-0.1c0.1-0.1,0.3-0.1,0.4-0.1
	c0.1-0.1,0.1-0.1,0.2-0.1c0.1,0,0.2,0,0.3-0.1c0,0,0.1,0,0.1-0.1c0.1,0,0.1-0.1,0.2-0.1h0.1c0.1,0,0.1,0,0.3-0.1
	c0-0.1,0.1-0.1,0.1-0.1c0.1-0.1,0.1-0.1,0.2-0.1h0.1c0.1,0,0.1-0.1,0.2-0.1c0.1,0,0.1-0.1,0.1-0.1C15.7,9,15.8,9,15.8,9l0.3-0.1
	c0.1,0,0.1,0,0.2-0.1c0-0.1,0.1-0.1,0.1-0.1c0.1-0.1,0.2-0.1,0.3-0.1c0.1-0.1,0.1-0.1,0.2-0.1c0.1,0,0.3-0.1,0.4-0.1
	c0.1-0.1,0.2-0.1,0.3-0.1C17.6,8.1,17.8,8,17.9,8C18,8,18.2,7.9,18.2,7.9c0.1,0,0.3-0.1,0.3-0.1h0.1c0.1-0.1,0.2-0.1,0.3-0.1H19
	c0.1,0.1,0.2,0,0.3,0c0.1-0.1,0.3-0.1,0.3-0.1c0.1-0.1,0.2-0.1,0.3-0.1c0-0.1,0.1-0.1,0.1-0.1h0.2h0.1c0.1,0,0.1-0.1,0.2-0.1h0.1
	h0.6c0.1-0.1,0.3-0.1,0.4-0.1h0.1c0.1-0.1,0.1,0,0.1-0.1c0.1,0,0.3,0,0.5-0.1c0.1,0,0.3,0,0.5-0.1c0.1,0,0.3,0,0.3-0.1h0.1
	c0.1,0,0.3-0.1,0.5-0.1h0.1c0.1-0.1,0.3-0.1,0.5-0.1c0.1,0,0.3-0.1,0.3-0.1c0.1-0.1,0.1-0.1,0.1-0.1c0.1-0.1,0.2-0.1,0.3-0.1
	c0.2-0.1,0.3-0.1,0.5-0.1c0.3-0.1,0.5-0.1,0.7-0.1h0.3c0.1-0.1,0.1-0.1,0.2-0.1c0.1-0.1,0.1-0.1,0.3-0.1H27C27.2,6,27.4,6,27.6,6
	h0.1C27.8,6,27.9,6,28,6.1c0,0.1,0,0.1,0.1,0.1c0.1,0.1,0.1,0.3,0.1,0.4c0,0,0.1,0,0.1,0.1c0-0.1,0.1-0.1,0.1-0.1
	c0.1,0.1,0.1,0.1,0.1,0.1c0,0.1,0.1,0.2,0.1,0.3c0,0.1,0,0.1,0.1,0.1v0.1l0.1,0.1c0,0.1,0,0.1,0.1,0.3c0,0,0,0.1,0.1,0.1
	c0.1,0.1,0.1,0.1,0.1,0.1c0,0.1,0.1,0.1,0.1,0.1C28.9,8,28.9,8,28.9,8.1c0.1,0.1,0.1,0.1,0.1,0.2c0.1,0.1,0.1,0.1,0.1,0.2
	c0,0.1,0.1,0.1,0.1,0.3v0.1C29.1,8.9,29.1,9,29.1,9v0.1v0.1c-0.1,0.1-0.1,0.3-0.2,0.3v0.1c0,0.1-0.1,0.1-0.3,0.2
	c-0.1,0.1-0.1,0.1-0.1,0.2s-0.1,0.1-0.1,0.2h-0.1c-0.1,0.1-0.1,0.1-0.1,0h-0.1c-0.1,0-0.1,0.1-0.2,0.1s-0.1,0-0.1,0.1
	c-0.1,0.1-0.3,0.1-0.4,0.1c-0.1,0.1-0.1,0.1-0.1,0.1c-0.3,0.2-0.7,0.4-1.1,0.5c-0.1,0.1-0.3,0.1-0.4,0.2c-0.1,0.1-0.3,0.1-0.4,0.1
	c-0.1,0.1-0.3,0.1-0.5,0.3s-0.4,0.3-0.6,0.3c-0.2,0.1-0.4,0.3-0.6,0.3c-0.1,0.1-0.1,0.1-0.2,0.1c-0.1,0.1-0.3,0.2-0.5,0.3
	c-0.1,0.1-0.1,0.1-0.1,0.1c-0.1,0-0.2,0.1-0.3,0.1c-0.1,0.1-0.2,0.1-0.3,0.1c-0.1,0.1-0.3,0.2-0.5,0.3c0.2,0.4,0.1,0.4,0,0.5
	c-0.1,0.1-0.2,0.1-0.3,0.2c-0.1,0.1-0.1,0.1-0.1,0.1c-0.4,0.2-0.7,0.5-1.1,0.7c-0.1,0.1-0.1,0.1-0.2,0.1c-0.1,0.1-0.3,0.2-0.3,0.3
	c-0.1,0.1-0.3,0.1-0.4,0.3c0,0.1-0.1,0.1-0.1,0.1c-0.1,0.1-0.2,0.1-0.3,0.3c-0.1,0.1-0.1,0.1-0.3,0.2c-0.1,0-0.1,0.1-0.1,0.1
	c-0.1,0.1-0.2,0.3-0.3,0.3c-0.1,0.1-0.3,0.2-0.4,0.3c-0.1,0.1-0.1,0.1-0.2,0.2c-0.1,0.1-0.1,0.1-0.2,0.2c-0.2,0.1-0.4,0.3-0.6,0.5
	c-0.1,0.1-0.1,0.1-0.3,0.2c-0.1,0.1-0.3,0.2-0.3,0.3c-0.1,0-0.1,0.1-0.1,0.1c-0.1,0-0.1,0.1-0.1,0.1c-0.1,0.1-0.1,0.1-0.3,0.2
	l-0.1,0.1C16,19.2,16,19.2,16,19.2l-0.1,0.1l-0.1,0.1c-0.1,0-0.1,0.1-0.1,0.1l-0.1,0.1c0,0,0,0.1-0.1,0.1c-0.1,0-0.1-0.1-0.1-0.1
	v0.1c0,0-0.1,0-0.1,0.1c-0.1,0-0.1,0.1-0.1,0.1c-0.1,0-0.1,0-0.1,0.1S15,20.3,15,20.3c-0.1,0-0.1,0.1-0.1,0.1v0.1
	c-0.1,0.1-0.1,0.1-0.3,0.2c-0.1,0.1-0.1,0.2-0.2,0.3c-0.1,0.1-0.1,0.1-0.2,0.3c-0.5-0.3-0.5-0.3-0.5-0.2c-0.1,0.1-0.1,0.1-0.2,0.3
	c0,0.1-0.1,0.1-0.1,0.3c-0.1,0.1,0,0.1,0,0.1c0.1,0.1,0.1,0,0.1,0l0.3-0.1c0.1-0.1,0.2-0.1,0.3-0.2c0.1-0.1,0.1-0.1,0.2-0.1h0.1h0.1
	c0.1,0,0.1-0.1,0.1-0.1c0.1-0.1,0.1-0.1,0.2-0.1c0.1,0,0.1-0.1,0.1-0.1c0.1-0.1,0.1-0.1,0.2-0.1c0.1-0.1,0.1-0.1,0.3-0.1
	c0.1-0.1,0.1-0.1,0.1-0.1c0,0,0.1,0,0.1-0.1c0.1,0,0.1,0,0.1-0.1c0.1-0.1,0.2-0.1,0.3-0.1c0.1-0.1,0.1-0.1,0.3-0.2h0.1
	c0.1-0.1,0.3-0.1,0.3-0.3c0.1,0,0.1,0,0.1-0.1c0.1,0,0.1-0.1,0.1-0.1l0.1-0.1c0.1-0.1,0.3-0.1,0.3-0.3c0.1-0.1,0.2-0.1,0.3-0.1
	c0.1-0.1,0.3-0.1,0.3-0.2c0.1-0.1,0.3-0.3,0.5-0.3c0.1-0.1,0.1-0.1,0.2-0.1c0.1-0.1,0.3-0.1,0.3-0.2c0.1,0,0.1-0.1,0.1-0.1l0.1-0.1
	c0-0.1,0-0.1,0.1-0.1c0.1-0.1,0.2-0.1,0.3-0.3c0.2-0.1,0.4-0.3,0.6-0.4l0.1-0.1c0,0,0.1-0.1,0.1-0.1s0.1-0.1,0.2-0.1
	c0-0.1,0-0.1,0.1-0.1c0-0.1,0.1-0.1,0.1-0.1c0.1,0,0.1-0.1,0.3-0.2l0.1-0.1c0.1,0,0.1-0.1,0.3-0.1c0.1-0.1,0.3-0.1,0.3-0.2
	c0.1-0.1,0.1-0.1,0.1-0.1c0.1-0.1,0.1-0.1,0.2-0.1l0.1-0.1c0.1-0.1,0.3-0.2,0.4-0.3c0.1,0,0.1,0,0.1-0.1h0.1c0.1,0,0.1-0.1,0.1-0.1
	c0.1,0,0.1-0.1,0.1-0.1c0,0,0-0.1,0.1-0.1c0-0.1,0.1-0.1,0.1-0.1c0.1,0,0.2-0.1,0.3-0.1c0.1,0,0.1-0.1,0.1-0.1
	c0.1-0.1,0.1-0.1,0.2-0.2c0.1-0.1,0.3-0.2,0.3-0.3c0.1,0,0.1-0.1,0.2-0.1c0.1,0,0.1-0.1,0.1-0.1c0.1-0.1,0.1-0.1,0.2-0.1
	s0.1-0.1,0.2-0.1c0.1-0.1,0.1-0.1,0.2-0.1c0.1,0,0.1-0.1,0.1-0.1c0.1-0.1,0.1-0.1,0.1-0.1c0.1-0.1,0.1-0.1,0.1-0.1
	c0.1,0,0.1-0.1,0.1-0.1c0.1-0.1,0.2-0.1,0.3-0.1c0.1-0.1,0.2-0.1,0.3-0.2l0.3-0.1c0.1-0.1,0.1-0.1,0.2-0.1c0-0.1,0.1-0.1,0.1-0.1
	c0.1-0.1,0.3-0.3,0.4-0.3c0.1-0.1,0.1-0.1,0.1-0.1l0.1-0.1c0.1-0.1,0.1-0.1,0.1-0.1l0.1-0.1c0.1-0.1,0.1-0.1,0.1-0.1
	s0.1-0.1,0.2-0.1l0.1-0.1c0,0,0.1-0.1,0.1-0.1l0.1-0.1l0.1-0.1c0.1-0.1,0.1-0.1,0.1-0.1v0.1c-0.1,0.1-0.1,0.2-0.1,0.3
	c-0.1,0.1-0.1,0.3-0.2,0.5v0.1l-0.1,0.5c0,0.1,0,0.1-0.1,0.1c-0.1,0.1-0.1,0.2-0.2,0.3c0,0,0,0.1-0.1,0.1c-0.1,0.1-0.1,0.1-0.1,0.1
	c-0.1,0.1-0.1,0.1-0.2,0.1c-0.1,0-0.1,0.1-0.1,0.1c-0.1,0.1-0.1,0.1-0.2,0.1s-0.1,0.1-0.1,0.1h-0.1c0,0.1-0.1,0.1-0.1,0.1
	s-0.1,0-0.1,0.1C25.6,14,25.6,14,25.5,14c-0.1,0.1-0.1,0.1-0.3,0.1c0,0.1-0.1,0.1-0.1,0.1c-0.1,0.1-0.1,0.1-0.1,0.1H25
	c0,0.1-0.1,0.1-0.1,0.1c-0.1,0-0.1,0.1-0.1,0.1c0,0.1-0.1,0.1-0.1,0.1c-0.1-0.1-0.1-0.1-0.1,0c-0.1,0.1-0.1,0.1-0.1,0.1
	s-0.1,0-0.1,0.1c-0.1,0.1-0.2,0.1-0.3,0.1c-0.1,0-0.1,0.1-0.1,0.1c-0.1,0.1-0.1,0.1-0.1,0.1c-0.1,0.1-0.1,0.1-0.1,0.1
	c-0.1,0.1-0.1,0.1-0.3,0.1c-0.1,0.1-0.1,0.1-0.1,0.1c0,0.1-0.1,0.1-0.1,0.1c-0.1,0.1-0.1,0.1-0.2,0.1c0,0,0,0.1-0.1,0.1
	c-0.1,0-0.1,0.1-0.3,0.1h-0.1c0,0.1-0.1,0.1-0.2,0.2h-0.1c-0.1,0.1-0.2,0.1-0.3,0.1c-0.1,0.1-0.1,0.1-0.1,0.1
	c-0.1,0-0.1,0.1-0.1,0.1s-0.1,0-0.1,0.1c-0.1,0.1-0.3,0.2-0.4,0.3c-0.1,0-0.1,0.1-0.1,0.1c-0.1,0.1-0.1,0.1-0.3,0.1
	c-0.1,0.1-0.1,0.1-0.1-0.1c-0.1,0.1,0,0.1,0,0.1c-0.1,0.1-0.1,0.1-0.1,0.1c-0.1,0.1-0.2,0.1-0.3,0.2c-0.1,0-0.1,0.1-0.2,0.1
	c-0.1,0.1-0.1,0.1-0.2,0.1C20,18.1,20,18.1,20,18.1c0,0.1-0.1,0.1-0.1,0.1s-0.1,0.1-0.1,0.1s-0.1,0.1-0.2,0.1
	c0.2,0.1,0.2,0.1,0.1,0.2s-0.1,0-0.1,0c0,0.1-0.1,0.1-0.1,0.1h-0.1c-0.1,0.1-0.3,0.3-0.4,0.3c-0.1,0.1-0.1,0.1-0.1,0.1
	c-0.1,0.1-0.1,0.1-0.1,0.1c-0.1,0.1-0.1,0.1-0.3,0.2c0,0.1-0.1,0.1-0.1,0.1c-0.1,0-0.1,0.1-0.3,0.1c-0.1,0.1-0.1,0.1-0.1,0.2
	c0,0.1-0.1,0.1-0.1,0.1c-0.1-0.1-0.1,0-0.1,0v-0.1c-0.1,0.1-0.3,0.2-0.5,0.3c-0.1,0-0.1,0.1-0.1,0.1c-0.1,0.1-0.1,0.1-0.3,0.1h-0.1
	c-0.1,0.1-0.2,0.2-0.3,0.3c-0.1,0-0.1,0.1-0.1,0.1h-0.1c0,0.1,0,0.1-0.1,0.1C16.2,21,16.2,21,16,21.1c-0.1,0.1-0.1,0.1-0.2,0.1h-0.1
	c-0.1,0-0.2,0.1-0.3,0.1c-0.1,0.1-0.3,0.1-0.3,0.2s-0.1,0.1-0.1,0.1l-0.1,0.1c-0.1,0-0.2,0.1-0.3,0.1c-0.1,0-0.1,0-0.2,0
	C14.4,22,14.4,22,14.4,22c-0.1,0.1-0.1,0.1-0.2,0.2c-0.1,0.1-0.2,0.1-0.3,0.1c-0.1,0.1-0.1,0.1-0.1,0.1c0,0-0.1,0.1-0.1,0.1
	c0,0-0.1,0.1-0.1,0.1h-0.1c-0.1,0.1-0.1,0.1-0.2,0.1c0,0.1-0.1,0.1-0.1,0.1c-0.1,0-0.1,0.1-0.1,0.1c-0.1,0.1-0.1,0.1-0.1,0.1
	c-0.1,0-0.1,0.1-0.1,0.1l-0.1,0.1l-0.1,0.1c-0.1-0.1-0.2-0.1-0.3-0.1c-0.1,0-0.1,0.1-0.2,0.2l-0.5,0.3l-0.1,0.1V24
	c0,0-0.1,0.1-0.1,0.1c-0.1,0-0.1,0.1-0.1,0.1c-0.1,0.1-0.1,0.1-0.1,0.1c-0.1,0-0.1,0.1-0.1,0.1h-0.2c-0.1,0.1-0.1,0.1-0.3,0.1
	c0,0.1-0.1,0.1-0.1,0.1c-0.1,0.1-0.3,0.1-0.3,0.1c0,0-0.1,0-0.1,0.1h-0.1c-0.1,0.1-0.2,0.1-0.3,0.2c0,0,0,0.1-0.1,0.1
	c-0.1,0.1-0.1,0.1-0.2,0.1H9.8H9.7v0.1c-0.1,0.1-0.3,0.2-0.5,0.3c0,0.1-0.1,0.1-0.1,0.1H9.1C9,25.8,8.9,25.9,8.8,26
	c0,0,0,0.1-0.1,0.1c-0.1,0.1-0.2,0.2-0.3,0.3c0,0-0.1,0-0.1,0.1c-0.1,0-0.1,0.1-0.2,0.1L8,26.6c-0.1-0.1-0.2-0.1-0.2-0.1l-0.3,0.1
	c-0.1,0.1-0.1,0.1-0.2,0.1c-0.1,0.1-0.1,0.1-0.1,0.1v4.2v0.5v0.5c-0.1,0.1,0,0.1,0.1,0.1c0.1,0.1,0.1,0.1,0.1,0.2v0.3v0.1V33v0.3
	l-0.1,0.1v0.1v0.9v1v0.7v0.7v0.7v0.5v0.1c0.1,0.1,0.1,0.3,0.1,0.3c0.1,0.1,0.2,0.3,0.3,0.4c0,0.1,0.1,0.1,0.1,0.2
	c0-0.1,0,0.1,0.1,0.1c0.1,0.1,0.1,0.1,0.2,0.1c0.3,0,0.5,0.1,0.7,0.3C8.8,39.9,8.8,40,8.9,40h0.3c0.1,0,0.2,0,0.3-0.1h0.1
	C9.6,40,9.6,40,9.7,40h0.2c0.2,0,0.4,0,0.6-0.1c0.1,0,0.1,0,0.1-0.1c0.1,0.1,0.2,0.1,0.3,0.1c0,0,0.1,0,0.1-0.1h0.1
	c0.1,0.1,0.2,0.1,0.3,0.1h0.4c0.1,0,0.1,0,0.1-0.1c0-0.1,0.1-0.1,0.1-0.1l0.1,0.2c0.1,0.1,0.1,0.1,0.1,0.1h0.1
	c0.2,0,0.3-0.1,0.5-0.2c0.1-0.1,0.1-0.1,0.1-0.1l0.1-0.1l0.1-0.1c0.1,0.1,0.1,0.1,0.2,0.2c0.1,0.1,0.1,0.1,0.1,0.2
	c0.1,0.1,0.1,0.1,0.2,0.1h0.3h0.2c0.1,0,0.1-0.1,0.1,0h0.3h0.3h0.6h0.8h0.7h0.5h0.5h0.6h0.1l0.1-0.1c0.2,0.1,0.4,0.1,0.6,0.1h0.6
	h0.5h0.5h0.5c0.1,0,0.3-0.1,0.5-0.1h0.1h0.3h0.3h0.3h1.2h0.1h0.3c0.1,0.1,0.3,0,0.5,0h0.3c0.1,0,0.2-0.1,0.3-0.1h0.1h0.1
	c0.1,0.1,0.1,0.1,0.2,0.1h0.3c0.1,0,0.1,0,0.1-0.1c-0.1-0.1-0.1-0.1-0.1-0.3c0.1-0.1,0.1,0,0.2,0.1c0,0.1,0,0.1,0.1,0.1
	c0.1,0.1,0.1,0.1,0.1,0c0-0.1,0.1-0.1,0.1-0.1v0.1c0,0.1,0,0.1,0.1,0.1h0.5h0.6h0.2c0.1-0.1,0-0.2-0.1-0.3c0.1-0.1,0.1-0.1,0.1-0.1
	c0.1,0.1,0.1,0.1,0.1,0.1h0.1h0.1c0,0.1-0.1,0.1-0.1,0.1c0.2,0.1,0.3-0.1,0.3-0.1c0.1,0.1,0.1,0.1,0.2,0.1h0.1h0.9h0.5
	c0.1,0,0.1,0,0.1-0.1c0.1-0.1,0.2,0,0.3,0c0,0.1,0.1,0.1,0.1,0.1c0.3,0.1,0.5,0,0.8,0c0.1,0,0.3-0.1,0.4-0.1l0.3-0.1
	c0.1,0,0.1-0.1,0.1-0.1c0,0,0-0.1,0.1-0.1c0.1,0.1,0.1,0,0.2-0.1v-0.1c0.1-0.1,0.1-0.1,0.1,0H32c0.1,0.1,0.1,0.1,0.2-0.1
	c0.1-0.1,0.1-0.2,0.2-0.3h0.1c0.1-0.1,0.1-0.1,0.2-0.1c0.1-0.1,0.1-0.1,0.1-0.2c0.1-0.1,0.1-0.1,0.1-0.3v-0.3c0-0.1,0-0.1,0.1-0.1
	c0.1,0,0.1-0.1,0.1-0.1v-0.5c0-0.1,0-0.3,0.1-0.4v-0.2c0-0.1,0.1-0.1,0.1-0.1c0-0.1,0-0.1,0.1-0.1h-0.1
	C33.4,36.3,33.4,36.3,33.5,36.3z M7.2,2.8c0-0.1,0.1-0.1,0.1-0.1S7.2,2.7,7.2,2.8z M32.5,5.6c0.1,0.1,0.1,0.1,0,0.1
	c-0.2,0.2-0.1,0.3-0.2,0.5c0,0.1,0.1,0.1,0.1,0.2s0,0.1-0.1,0.2v0.1C32.4,6.8,32.2,7,32.2,7c0,0.1-0.1,0.2-0.1,0.3
	c0,0.1,0,0.2-0.1,0.3C32,7.7,32,7.8,32,7.8C32,7.9,32,8,31.9,8c-0.1,0.1-0.2,0-0.2,0c-0.2,0.1-0.3-0.1-0.4-0.2
	c-0.1-0.1-0.3-0.1-0.4-0.1c-0.1,0-0.1,0-0.1-0.1c-0.1-0.1-0.1-0.2-0.3-0.3c0,0,0-0.1-0.1-0.1c-0.1,0-0.3-0.1-0.3-0.1S30.1,7,30,7
	V6.8c-0.2,0.1-0.3,0-0.5-0.1h-0.1c-0.1,0-0.2-0.1-0.3-0.1V6.6c-0.1-0.1-0.1-0.1-0.2-0.1c-0.1,0-0.2-0.1-0.3-0.1h-0.1
	c-0.1-0.1-0.1-0.1-0.1-0.1v0.2c0.1-0.1,0.1-0.3,0.1-0.5c-0.1-0.2-0.1-0.3-0.3-0.3c-0.1-0.3-0.1-0.5-0.3-0.7
	c-0.1-0.1-0.1-0.2-0.1-0.3C28,4.5,28,4.4,28,4.4c0-0.1,0.1-0.1,0.1-0.2c0.1,0,0.1,0,0.2-0.1C28.4,4,28.6,4,28.7,4h0.1
	c0.1-0.1,0.1-0.1,0.3,0c0.1,0.1,0.2,0.1,0.3,0.1h0.1h0.1C29.7,3.9,29.8,4,30,4s0.4,0,0.7-0.1h0.1c0,0.1,0.1,0.1,0.1,0.1
	s0.1,0,0.2,0.1c0.1,0,0.1-0.1,0.2-0.1c0.1,0.1,0.1,0.1,0.1,0.1h0.1c0.1-0.1,0.2-0.1,0.3,0c0,0.1,0.1,0.1,0.1,0.1
	c0.1-0.1,0.1,0.1,0.3,0.1c0.1,0,0.1,0.1,0.1,0.1c0,0.1,0.1,0.3,0.1,0.4c0.1,0.1,0,0.2,0.1,0.3c0,0.1,0.1,0.1,0,0.3V5.4v0.2H32.5z"/>
</svg>
