<?xml version="1.0" encoding="utf-8"?>
<!-- Generator: Adobe Illustrator 25.2.3, SVG Export Plug-In . SVG Version: 6.00 Build 0)  -->
<svg version="1.1" id="Layer_1" xmlns="http://www.w3.org/2000/svg" xmlns:xlink="http://www.w3.org/1999/xlink" x="0px" y="0px"
	 viewBox="0 0 40 40" style="enable-background:new 0 0 40 40;" xml:space="preserve">
<style type="text/css">
	.st0{fill:#D50032;}
</style>
<path class="st0" d="M33.4,31.7v-0.1v-0.1c0-0.1,0-0.1-0.1-0.2c0-0.1-0.1-0.1,0.1-0.1v-0.1c-0.1-0.2-0.1-0.4-0.1-0.6
	c0.1-0.1-0.1-9.6-0.1-9.7c-0.1,0-0.1-0.1-0.1-0.1c-0.1-0.1,0.1-0.2,0-0.3c-0.1,0-0.1-0.1-0.1-0.1C33,20.3,33,20.2,33,20.2
	c0-0.1,0-0.3-0.1-0.4c0-0.1,0-1.2,0.1-1.3l0.1-0.1c0-0.1,0.1-0.1,0.1-0.1s-0.1-0.1-0.1-0.2c0-0.1,0.1-0.1,0.1-0.1
	c0.1-0.1,0.1-0.1,0.1-0.1c0-0.1,0.1-0.1,0.1-0.2c0.1-0.1,0.1-0.3,0.1-0.4c0-0.1-0.1-0.1,0-0.1v-0.6c0-0.1-0.1-0.3-0.1-0.4
	c0-0.1,0-0.1,0.1-0.2c0-0.1,0-0.2-0.1-0.3c-0.1-0.1-0.1-0.1-0.1-0.2v-0.3c0.1-0.1,0-0.2,0-0.3v-0.1c0,0.1-0.1,0.1-0.1,0.1v-0.1v-1.6
	v-0.3v-0.3v-0.5c0-0.2,0-0.4-0.1-0.6v-0.1v-0.1c-0.1-0.1-0.1-0.1-0.2-0.1l-0.1,0.1h-0.2c-0.1-0.1-0.1-0.1-0.1,0.1
	c-0.1,0.1-0.1,0.1-0.3,0.1l-0.1,0.1c-0.2,0.1-0.3,0.1-0.5-0.1c-0.1-0.1-0.1-0.1-0.1-0.1h-0.2c-0.1-0.1-0.1,0-0.1,0
	c-0.1,0-0.2,0-0.3-0.1c0-0.1-0.1-0.1-0.1-0.1c-0.1,0-0.1,0-0.1-0.1h-0.1c-0.1,0-0.3-0.1-0.5-0.1H30h-1.2c-0.3,0-0.5,0-0.7-0.1
	c-0.1,0-0.2,0-0.3-0.1h-0.1h-0.1c-0.1,0-0.1-0.1-0.1,0h-0.1c-0.1,0-0.1,0-0.3,0.1c-0.1,0-0.1,0-0.1-0.1c-0.1-0.1-0.1-0.1-0.2-0.1
	h-0.1h-0.2c0,0.1,0.1,0.1,0.1,0.1c0.1,0.1,0.1,0.1,0.1,0.2c0.1,0.1,0.1,0.1,0.1,0.1c0.1,0.1,0.1,0.1,0.1,0.2
	c0.1,0.1,0.1,0.1,0.1,0.1c0.1,0.1,0.1,0.1,0.1,0.1c0.1,0.1,0.1,0.1,0.1,0.1c0.1,0.1,0.3,0.1,0.4,0.3c0.1,0.1,0.1,0.1,0.1,0.1
	c0.1,0.1,0.3,0.1,0.3,0.2c0.1,0.1,0.2,0.1,0.3,0.2c0.1,0.1,0.1,0.1,0.3,0.2c0.1,0,0.1,0.1,0.1,0.1v0.1c-0.1,0.2-0.1,0.4,0,0.6v0.1
	c-0.1,0.1-0.1,0.1-0.1,0.2c-0.1,0.1-0.1,0.1-0.1,0.3s-0.1,0.3-0.1,0.5c-0.1,0.1-0.1,0.1-0.1,0.2C28.2,15,28.1,15,28,15.2
	c0,0.1-0.1,0.1-0.1,0C27.8,15,27.7,15,27.6,15s-0.1,0-0.2-0.1c-0.1-0.1-0.1-0.1-0.3,0c-0.1,0-0.3,0.1-0.4,0.1
	c-0.1,0.1-0.2,0.1-0.3,0.1c0,0,0,0.1-0.1,0.1l-0.1,0.1c-0.2,0-0.3,0.1-0.5,0.3c-0.1,0.1-0.3,0.1-0.4,0.3c-0.1,0.1-0.3,0.1-0.3,0.3
	c-0.1,0.1-0.1,0.1-0.2,0.1c-0.1,0.1-0.1,0.1-0.1,0.2c-0.1,0.1-0.1,0.1-0.3,0.2c-0.1,0.1-0.2,0.3-0.3,0.3c-0.1,0.1-0.2,0.2-0.3,0.3
	c-0.1,0.1-0.2,0.3-0.3,0.5c-0.1,0.1-0.1,0.1-0.1,0.1c0,0.1-0.1,0.2-0.1,0.3c0,0,0,0.1,0.1,0.1c0,0.1,0.1,0.1,0.1,0.2
	c0,0.1,0.1-0.1,0-0.1c-0.1,0.1-0.1,0.1-0.1,0.3c0,0.1,0.1,0.1,0.2,0.1c0.1,0,0.2,0,0.3-0.1c0.1-0.1,0.3-0.1,0.4-0.2
	c0.1-0.1,0.2-0.1,0.3-0.1h0.1c0.1-0.1,0.3-0.1,0.5-0.3c0.1-0.1,0.2-0.1,0.3-0.1c0.1-0.1,0.1-0.1,0.2-0.1c0.1-0.1,0.2-0.1,0.3-0.1
	c0.1-0.1,0.2-0.1,0.3-0.2c0.1,0,0.1-0.1,0.1-0.1c0.2-0.1,0.4-0.3,0.6-0.3c0.2-0.1,0.3-0.2,0.5-0.3c0.1-0.1,0.1-0.1,0.2-0.1
	c0-0.1,0.1-0.1,0.1-0.1c0.1-0.1,0.1-0.1,0.3-0.1c0.1-0.1,0.2-0.1,0.3-0.1c0.1,0,0.1-0.1,0.2-0.1c0.1-0.1,0.1-0.1,0.3-0.1
	c0.1-0.1,0.1-0.1,0.1-0.1c0.1-0.1,0.1-0.1,0.3-0.1c0.1-0.1,0.3-0.1,0.5-0.3c0.1-0.1,0.3-0.2,0.5-0.3c0.1-0.1,0.3-0.1,0.4-0.2
	c0.1-0.1,0.3-0.1,0.4-0.1h0.1c0.1-0.1,0.3-0.1,0.4-0.2c0.1,0,0.1-0.1,0.2-0.1c0,0,0.1-0.1,0.1,0c0.1,0,0.1,0.1,0,0.1
	c0,0.1-0.1,0.1-0.1,0.2c-0.1,0.1-0.1,0.3-0.1,0.4c0.1,0.1,0.2,0.5,0.2,0.7c0,0.1-0.1-0.3-0.1-0.2c0,0.1,0.1,0.5,0.1,0.6
	c0,0.1-0.1,0.2-0.2,0.3c-0.1,0.1-0.1,0.1-0.3,0.2c-0.1,0.1-0.1,0.1-0.1,0.1c-0.1,0.1-0.1,0.1-0.1,0.2c-0.1,0.1-0.1,0.1-0.1,0.1
	c-0.1,0.1-0.1,0.1-0.2,0.1c-0.1,0.1-0.3,0.1-0.3,0.1c0,0,0,0.1-0.1,0.1c-0.2,0-0.3,0.1-0.5,0.3h-0.1c-0.1,0.1-0.1,0.1-0.3,0.1h-0.2
	c-0.1,0.1-0.3,0.2-0.5,0.3c-0.3,0.1-0.5,0.3-0.7,0.3c-0.1,0.1-0.1,0.1-0.2,0.2c-0.1,0.1-0.3,0.1-0.3,0.2c-0.1,0.1-0.1,0.1-0.1,0.1
	c-0.2,0.1-0.4,0.3-0.7,0.4c-0.2,0.1-0.4,0.3-0.6,0.3c-0.1,0.1-0.3,0.2-0.5,0.3c-0.2,0.1-0.4,0.3-0.6,0.3c-0.1,0-0.1,0.1-0.1,0.1
	s-0.1,0-0.1,0.1c-0.1,0-0.1,0.1-0.1,0.1c-0.1,0-0.1,0.1-0.1,0.1c-0.1-0.1-0.1,0-0.1,0c-0.1,0-0.1,0.1-0.1,0.1
	c-0.1,0.1-0.1,0.1-0.2,0.1c-0.1,0-0.1,0.1-0.1,0.2v0.2c0,0.1-0.1,0.1-0.1,0.1c0,0.1-0.1,0.1-0.1,0.1H24c-0.2,0-0.4,0-0.6,0.1
	c-0.1,0-0.1,0.1-0.2,0.1c-0.1,0.1-0.2,0.1-0.3,0.2c-0.1,0-0.1,0.1-0.2,0.1c-0.2,0.1-0.4,0.3-0.6,0.3c-0.2,0.1-0.4,0.3-0.6,0.4
	c-0.1,0.1-0.1,0.1-0.3,0.2c-0.1,0.1-0.3,0.2-0.5,0.3c-0.1,0.1-0.2,0.1-0.3,0.1c0,0.1,0,0.1-0.1,0.1c-0.1,0.1-0.3,0.3-0.5,0.3
	c-0.1,0-0.1,0.1-0.2,0.1c-0.1,0-0.1,0.1-0.1,0.1c-0.1,0.1-0.1,0.1-0.1,0c-0.1-0.2-0.2-0.4-0.3-0.5c-0.1-0.2-0.1-0.3-0.1-0.5
	c-0.1-0.2-0.3-0.7-0.4-0.8c-0.1,0-0.1-0.1-0.1-0.1c-0.1-0.1-0.1-0.2-0.2-0.3c-0.1-0.1-0.1-0.2-0.3-0.3c-0.1-0.1-0.1-0.1-0.1-0.1
	l-0.1-0.1c-0.1-0.1-0.1-0.1-0.2-0.2c-0.1-0.1-0.1-0.1-0.1-0.2c0.1-0.1,0.1-0.2,0.3-0.1c0.1,0.1,0.1,0.1,0.2,0
	c0.1-0.1,0.1-0.1,0.1-0.1c0.1,0,0.1-0.1,0.1-0.1c0.1,0,0.3-0.1,0.4-0.1c0.1-0.1,0.3-0.1,0.5-0.3c0.1-0.1,0.2-0.1,0.3-0.1
	c0.1-0.1,0.1-0.1,0.1-0.1c0.1-0.1,0.2-0.1,0.3-0.1c0.1,0,0.3-0.1,0.3-0.1c0.1-0.1,0.1-0.2,0.1-0.3v-0.1v-0.4c0-0.1,0.1-0.1,0.1-0.3
	c0.1-0.1,0.1-0.3,0.1-0.4v-0.1c0-0.1,0-0.1,0.1-0.2c0.1-0.1,0.1-0.2,0.1-0.3c-0.1,0-0.2,0.1-0.3,0.1c-0.1,0.1-0.1,0.1-0.1,0.2
	c-0.1,0-0.1,0.1-0.1,0.1l-0.1,0.1c0,0.1-0.1,0.1-0.1,0.2c-0.1,0-0.1-0.1-0.1-0.1c-0.1-0.1-0.1,0-0.1,0.1C20,19,20,19,20,19.2
	c0,0.1-0.1,0.1-0.1,0.1h-0.1c-0.1,0-0.1,0-0.1-0.1C19.6,19,19.6,19,19.5,19V19c-0.1-0.1-0.1-0.1-0.3-0.1c-0.1,0-0.1,0.1-0.1,0.1
	C19,19,19,19.1,18.8,19.1c-0.1,0-0.1,0.1-0.2,0.1c-0.1,0.1-0.1,0.1-0.3,0.1c0,0,0,0.1-0.1,0.1c-0.1,0-0.2,0.1-0.3,0.1
	c-0.1,0.1-0.1,0.1-0.1,0.1c-0.1,0.1-0.1,0.1-0.1,0.1h-0.1c-0.1,0.1-0.1,0.1-0.2,0.1c-0.1,0.1-0.1,0.1-0.2,0.1h-0.1
	c-0.1,0-0.3,0.1-0.3,0.1c-0.1,0.1-0.1,0.1-0.2,0.1c-0.1,0-0.1,0.1-0.1,0.1c0,0.1,0,0.1-0.1,0.1c-0.1-0.1-0.1,0-0.2,0
	c0,0,0,0.1-0.1,0.1c0,0.1-0.1,0.1-0.1,0.1C16,20.8,16,20.8,16,20.8c0,0-0.1,0.1-0.1,0.1C15.8,21,15.8,21,15.7,21
	c-0.1,0.1-0.2,0.1-0.3,0.2c-0.1,0-0.1,0-0.1,0.1c-0.1,0-0.1,0.1-0.2,0.1c0,0.1-0.1,0.1-0.1,0.1c-0.1,0.1-0.2,0.1-0.3,0.2
	c-0.1,0-0.1,0.1-0.1,0.1h-0.1c-0.1-0.1-0.1,0.1-0.2,0.1c-0.1,0.1-0.1,0.1-0.1,0.1c0.1-0.3,0.1-0.3,0.1-0.3h-0.1
	c-0.1,0-0.2,0-0.3,0.1h-0.1c-0.1,0.1-0.1,0.1-0.1,0.2c0,0.1,0,0.1-0.1,0.1h-0.1c-0.1-0.1-0.1,0-0.1,0c-0.1,0.1-0.1,0.1-0.1,0.2
	c0.1,0,0.1,0.1,0.1,0.1c0.1,0.1,0.2,0.1,0.3,0.1s0.3,0.1,0.5,0.1h0.1c0.2,0.1,0.4,0.1,0.6,0.1h0.8h0.1c0.1,0.1,0.1,0.1,0.3,0.1
	c0.1,0,0.1,0,0.2,0.1h0.1c0.1,0,0.3,0.1,0.5,0.1H17c0.1,0,0.3,0.1,0.3,0.1s0.1,0.1,0.1,0.1c0.1,0.1,0.1,0.1,0.1,0.1
	c0.1,0.2,0.3,0.4,0.4,0.5c0.1,0.1,0.2,0.2,0.3,0.3c0.1,0.1,0.1,0.3,0.3,0.3c0.1,0.1,0.1,0.1,0.1,0.1c0.1,0.1,0.2,0.3,0.3,0.5
	c0.1,0,0.1,0.1,0.1,0.1c0,0.1,0.1,0.1,0.1,0.3c0.1,0,0.1,0,0.1,0.1c0.1,0.1,0.1,0.1,0.1,0.1c-0.2-0.2-0.2-0.1-0.2,0v0.1
	c0,0.1,0,0.1-0.1,0.2h-0.1c-0.1,0-0.1,0-0.1,0.1c-0.1,0-0.3,0.1-0.3,0.2h-0.1c-0.1,0.1-0.3,0.1-0.5,0.3c-0.1,0.1-0.3,0.1-0.3,0.1
	c-0.1,0.1-0.2,0.1-0.3,0.1c-0.1,0.1-0.2,0.1-0.3,0.1c-0.1,0-0.1,0.1-0.2,0.1c-0.1,0.1-0.1,0.1-0.2,0.1v0.1c-0.1,0.1-0.1,0.1-0.2,0.1
	c-0.1,0.1-0.1,0.1-0.3,0.1c-0.1,0-0.1,0.1-0.1,0.1v0.1h0.1c0.1,0,0.2,0,0.3-0.1c0.1,0,0.2-0.1,0.3-0.1c0.1-0.1,0.3-0.1,0.5-0.1
	c0.1,0,0.1,0.1,0.1,0.1c0.1-0.1,0.3,0,0.5,0.1h0.1c0.3,0.1,0.7,0.1,1,0.1c0.1,0,0.3-0.1,0.4,0c0.1,0,0.3-0.1,0.3-0.1
	c0.1,0,0.1,0,0.2,0.1c0.1,0.1,0.1,0.1,0.2,0.1c0.1,0,0.1-0.1,0.2-0.1c0.1,0,0.1,0,0.1,0.1c0.1,0.1,0.3,0.3,0.3,0.5
	c0.1,0.1,0.2,0.3,0.3,0.3l0.1,0.1c0.1,0,0.2,0,0.3-0.1c0,0,0.1-0.1,0.1-0.1c0.1-0.1,0.3-0.1,0.4-0.1c0.1-0.1,0.2-0.1,0.3-0.1
	c0.1-0.1,0.3-0.1,0.4-0.2c0-0.1,0.1-0.1,0.1-0.1c0.1,0,0.1-0.1,0.3-0.1c0.1-0.1,0.3-0.2,0.4-0.3c0.2-0.1,0.3-0.2,0.5-0.3
	c0.1-0.1,0.3-0.2,0.5-0.3c0.1-0.1,0.1-0.1,0.3-0.2h0.1c0.1,0,0.1-0.1,0.2-0.1c0-0.1,0.1-0.1,0.1-0.1s0.1-0.1,0.2-0.1
	c0.1,0,0.1-0.1,0.1-0.1v0.1c-0.1,0.1-0.1,0.3,0,0.4c0.1,0.2,0.3,0.7,0.3,0.9c0,0,0,0.1-0.1,0.1c-0.1,0.1-0.3,0.3-0.3,0.6v0.1v0.3
	c0.1,0.1,0.1,0.1,0,0.1C24.8,29,24.8,29,24.8,29l-0.1,0.1c-0.1,0.1-0.2,0.1-0.3,0.1c-0.1,0.1-0.3,0.1-0.3,0.3
	c-0.1,0.1-0.1,0.1-0.2,0.1c-0.1-0.1-0.2,0-0.3,0.1c-0.1,0-0.1,0-0.1,0.1c-0.1,0-0.1,0.1-0.1,0.1c-0.1,0.1-0.1,0.1-0.2,0.3
	c-0.1,0.1-0.1,0.1-0.3,0.2c-0.1,0-0.1,0.1-0.1,0.1c-0.1,0.1-0.1,0.1-0.2,0.1c-0.1,0-0.1,0.1-0.2,0.1h-0.1c-0.1,0.1-0.1,0.1-0.2,0.1
	c-0.1,0.1-0.1,0.1-0.2,0.1c-0.1,0.1-0.3,0.1-0.4,0.3c0,0-0.1,0-0.1,0.1h-0.1c-0.1,0.1-0.1,0.1-0.3,0.1c-0.1,0.1-0.2,0.1-0.3,0.2
	c-0.1,0.1-0.1,0.1-0.3,0.1c0,0.1,0,0.1-0.1,0.1c-0.1,0-0.1,0-0.1,0.1C20,31.9,20,31.9,19.8,32c-0.1,0.1-0.3,0.2-0.5,0.3
	c-0.1,0.1-0.1,0.1-0.3,0.1c-0.1,0.1-0.1,0.1-0.2,0.1c-0.1,0.1-0.1,0.1-0.3,0.1c-0.1,0.1-0.3,0.1-0.5,0.3C18.1,33,18,33,17.9,33
	c0,0.1,0,0.1-0.1,0.1c-0.1,0.1-0.2,0.1-0.3,0.1c-0.1,0.1-0.2,0.1-0.3,0.3c-0.1,0.1-0.1,0.1-0.1,0.1c0,0-0.1,0-0.1,0.1
	c-0.1-0.1-0.1-0.1-0.3-0.1c-0.1,0.1-0.1,0.1-0.3,0.1h-0.1c-0.1,0.1-0.2,0.1-0.3,0.1C16,34,16,34,15.9,34c-0.1,0-0.1,0-0.1,0.1h-0.1
	c-0.1,0.1-0.1,0.1-0.3,0.1c-0.1,0.1-0.2,0.1-0.3,0.2c-0.1,0.1-0.2,0.1-0.3,0.1c-0.1,0.1-0.1,0.1-0.2,0.1c-0.1,0.1-0.3,0.1-0.4,0.2
	c-0.1,0.1-0.1,0.1-0.2,0.1C14,35,14,35.1,14,35.1l-0.3,0.1c-0.1,0.1-0.1,0.1-0.3,0.1c-0.1,0.1-0.1,0.1-0.1,0.1
	c0,0.1-0.1,0.1-0.1,0.1c-0.1,0-0.1-0.1-0.1-0.1l-0.1,0.1c-0.1-0.1-0.1-0.1-0.2-0.1c-0.1,0-0.1,0-0.1-0.1c-0.1,0-0.1,0-0.1,0.1
	c-0.1,0.1-0.1,0-0.1,0c-0.1-0.1-0.1-0.1-0.2-0.3c-0.1-0.1-0.1-0.2-0.1-0.3c-0.1-0.1-0.1-0.1-0.1-0.3c-0.1-0.1-0.4-0.7-0.5-0.8
	c-0.1-0.1-0.2-0.3-0.3-0.5c-0.1-0.1-0.2-0.3-0.3-0.4c-0.1,0-0.1-0.1-0.1-0.1v-0.1c0.1-0.1,0.1-0.1,0.3-0.1c0.1,0,0.2-0.1,0.3-0.1
	c0.1,0,0.1-0.1,0.1-0.1c0.1,0.1,0.1,0,0.2-0.1c0.1-0.1,0.1-0.1,0.2-0.3c0.2-0.1,0.4-0.3,0.6-0.3c0.1-0.1,0.2-0.1,0.3-0.1
	c0.1,0,0.1,0,0.1,0.1c0.1,0.1,0.3,0.1,0.4,0c0.1,0,0.1-0.1,0.2-0.1c0.1-0.1,0.2-0.1,0.3-0.1c0.1-0.1,0.2-0.1,0.3-0.1
	c0.1-0.1,0.3-0.1,0.4-0.1c0.1,0,0.1-0.1,0.1-0.1c0.2-0.1,0.3-0.1,0.5-0.2c0.1-0.1,0.3-0.1,0.5-0.3c0.1-0.1,0.3-0.1,0.5-0.3
	c0.1-0.1,0.3-0.1,0.3-0.1c0.1-0.1,0.2-0.1,0.3-0.1c0.2-0.1,0.4-0.2,0.6-0.3c0.1-0.1,0.3-0.2,0.5-0.3c0.1-0.1,0.1-0.1,0.1-0.1
	c0,0,0.1,0,0.1-0.1c0.1-0.1,0-0.1-0.1-0.1h-0.5c-0.1,0-0.3-0.1-0.4-0.1c-0.1,0-0.3-0.1-0.4-0.1h-0.2h-0.7H15c-0.1,0-0.3,0-0.5,0.1
	h-0.1c-0.1,0-0.1,0-0.2,0.1H14C14,29.3,14,29.3,14,29.3c-0.1-0.1-0.1-0.1-0.1-0.1c-0.1,0.1-0.1,0-0.1,0c-0.1-0.1-0.3-0.3-0.3-0.3
	c-0.1-0.1-0.1-0.2-0.1-0.3c-0.1-0.1-0.1-0.3-0.1-0.4c0-0.1,0-0.3-0.1-0.4c0-0.1-0.1-0.3-0.1-0.3c-0.1-0.1-0.1-0.3-0.1-0.5
	c0-0.1,0-0.1-0.1-0.3c0-0.1,0-0.2,0.1-0.3c0-0.1,0-0.2,0.1-0.3v-0.1c0.1,0.5,0.1,0.5,0.3,0.4c0.1,0,0.1-0.1,0.1-0.1
	c0.1,0,0.1-0.1,0.1-0.1c0.1-0.1,0.1-0.1,0.2-0.1c0.3-0.1,0.5-0.3,0.7-0.5c0.1-0.1,0.1-0.1,0.3-0.3c0.1-0.1,0.1-0.1,0.2-0.2
	c0.1-0.1,0-0.1-0.1-0.1c-0.1-0.1-0.1,0-0.3,0c0,0.1-0.1,0.1-0.2,0.1c-0.1,0-0.2,0-0.3-0.1c-0.1,0-0.1,0-0.3-0.1h-0.3h-0.2
	C13.2,25,13.1,25,12.9,25c-0.1,0-0.3-0.1-0.3-0.1c-0.1,0-0.1-0.1-0.1,0c-0.1,0-0.3,0-0.4-0.1v0.1C12,25,12,25.1,12,25.2
	c0,0.1-0.1,0.1-0.1,0.3v0.3v0.1c-0.1,0.1-0.2,0.3-0.2,0.3v0.1v0.1c0,0.1,0,0.1,0,0.2v0.1c-0.1,0.1-0.1,0.2-0.1,0.3
	c0.1,0.1,0,0.1-0.1,0.3l-0.1,0.1c0,0.1,0,0.1-0.1,0.1c-0.1,0-0.1,0.1-0.1,0.1c0.1,0.1,0.1,0.1,0,0.1c0,0.1,0.1,0.1,0,0.2
	c-0.1,0.1-0.1,0.1,0,0.1V28v0.1c0.1,0.1,0.1,0.1,0.1,0.1v0.1c0.1,0.1,0.1,0.1,0.1,0.1c-0.1,0.1-0.1,0.1-0.2,0.1
	c-0.1-0.1-0.1-0.1-0.3,0c-0.1,0.1-0.1,0.1-0.2,0.1c-0.1,0-0.1,0-0.1-0.1c-0.1,0-0.1-0.1-0.1,0s-0.1,0.1-0.1,0.1
	c-0.1-0.1-0.1-0.1-0.1-0.1v0.1l-0.1,0.1c-0.1-0.1-0.1-0.1-0.1-0.3v-0.1c-0.1-0.1-0.1-0.1-0.1-0.1C10,28.2,10,28.2,10,28.3
	c-0.1,0-0.3,0-0.5-0.1c-0.1-0.1-0.1-0.1-0.1,0c-0.1,0.1-0.1,0.1-0.2,0H9.1C9,28.3,9,28.2,9,28.2c0-0.1,0.1-0.1,0.1-0.1
	C9.1,28,9,28,9,27.9c-0.1,0-0.1-0.1-0.2-0.1c-0.1,0-0.1-0.7-0.1-0.7c0-0.5,0-0.5,0.1-0.5l0.1-0.1C9,26.6,9,26.5,9,26.5v-0.1
	c0.1-0.1,0.1-0.2,0.1-0.3c0-0.1,0.1-0.1,0.1-0.1c0-0.1,0.1-0.1,0.1-0.3c0-0.1,0-0.1,0.1-0.1v0.2c0.1-0.1,0-0.1,0.1-0.2
	c0-0.1,0.1-0.1,0.1-0.1s-0.1-0.1-0.1-0.1c0.1,0,0.1-0.1,0.1-0.1s0-0.1-0.1-0.1V25c0-0.1,0.1-0.1,0.1-0.1c-0.1-0.1-0.1-0.2,0.1-0.3
	c0.1-0.1,0-0.2,0.1-0.3v-0.1c-0.1,0-0.1-0.1-0.1-0.1v-0.3c0,0,0.1-0.1,0-0.1v-0.2v-0.1c0.1-0.1,0.1-0.1,0.1-0.2v-0.1
	c0.1-0.1,0.1-0.1,0.1-0.3l1.3-2c0.1-0.1,0.2-0.3,0.3-0.4c0,0,0-0.1,0.1-0.1c0,0.1,0.1,0.1,0.1,0.1c0.1,0,0.1-0.1,0.1-0.1
	c0.1-0.1,0.2-0.2,0.3-0.2c0-0.1,0.1-0.1,0.1-0.1l0.1-0.1c0.1,0,0.1-0.1,0.1-0.1c0.1-0.1,0.1-0.1,0.2-0.1c0.1,0,0.1-0.1,0.2-0.1
	c0-0.1,0.1-0.1,0.1-0.2c0.1-0.1,0.3-0.1,0.3-0.2c0.1-0.1,0.2-0.1,0.3-0.1c0.1-0.1,0.2-0.1,0.3-0.2c0.1-0.1,0.1-0.1,0.2-0.1
	c0.1-0.1,0.3-0.1,0.3-0.1c0.1-0.1,0.3-0.2,0.5-0.3c0-0.1,0.1-0.1,0.1-0.1v-0.1v-0.1c0-0.1,0.1-0.1,0.1-0.1H15c0.1,0.1,0.1,0.1,0.1,0
	c0,0.1,0.1,0.1,0.1,0.1l0.1-0.1c0.1-0.1,0.2-0.1,0.3-0.1c0.1-0.1,0.3-0.1,0.3-0.2c0.1-0.1,0.1-0.1,0.3-0.1c0.1-0.1,0.3-0.1,0.3-0.2
	c0.1-0.1,0.1-0.1,0.1-0.1v-0.1c0.1-0.1,0.1-0.1,0.2-0.1c0.1,0.1,0.1,0.1,0.1,0c0.1-0.1,0.2-0.1,0.3-0.1c0.1-0.1,0.2-0.1,0.3-0.2
	c0.1-0.1,0.3-0.1,0.4-0.3c0.1-0.1,0.2-0.1,0.3-0.1c0.1-0.1,0.3-0.1,0.3-0.3h0.1c0.1,0,0.1-0.1,0.1-0.1c0.1,0,0.1,0,0.1-0.1h0.1
	c0.1-0.1,0.2-0.1,0.3-0.1c0.1-0.1,0.1-0.1,0.1-0.1c0.1,0,0.1-0.1,0.2-0.1h0.3h0.5h0.1c0.1,0.1,0.1,0.1,0.1,0.1l-0.1,0.1
	c0,0.1,0,0.3,0.1,0.3c0,0.1,0.1,0.1,0.1,0.1c0.1,0.1,0.1,0.1,0.1,0.1c0.1,0.1,0.1,0.1,0.1,0.1c0.1,0,0.1,0,0.1,0.1v0.1
	c0.1,0.1,0.1,0.1,0.2,0.2c0.1,0.1,0.1,0.1,0.1,0.3l0.1,0.1v-0.1c0.1-0.2,0.2-0.4,0.3-0.6c0.1-0.1,0.2-0.3,0.3-0.4
	c0.2-0.3,0.4-0.5,0.6-0.7c0.1-0.1,0.1-0.1,0.1-0.1c0.1-0.1,0.1-0.1,0.2-0.1s0.1-0.1,0.1-0.1c0.1-0.1,0.2-0.3,0.3-0.3
	c0.1-0.1,0.1-0.1,0.2-0.1c0-0.1,0.1-0.1,0.1-0.1c0.1-0.1,0.2-0.2,0.3-0.3c0.1-0.1,0.2-0.1,0.3-0.3c0.1-0.1,0.3-0.3,0.4-0.3
	c0.1-0.1,0.1-0.1,0.2-0.2c0.1-0.1,0.1-0.1,0.1-0.1c0.1-0.1,0.1-0.1,0.1-0.1c0.1-0.1,0.1-0.1,0.1-0.1c-0.1-0.1-0.2-0.2-0.3-0.3
	c-0.1-0.1-0.1-0.1-0.3-0.2c-0.2-0.1-0.3-0.3-0.5-0.5c-0.1-0.1-0.3-0.2-0.3-0.3c-0.1-0.1-0.2-0.1-0.3-0.2h-0.2c0,0.3-0.1,0.3-0.1,0.4
	c-0.1,0-0.1,0.1-0.1,0.1v0.1c-0.1,0-0.3,0.1-0.3,0.3c0,0.1,0,0.1-0.1,0.1c-0.1,0.1-0.1,0.1-0.1,0.2c0,0.1-0.1,0.1-0.1,0.1
	c0,0.1,0,0.1-0.1,0.1c0,0.1-0.1,0.3-0.1,0.4c-0.1,0.1-0.1,0.3-0.1,0.3c0,0.1-0.1,0.3-0.1,0.5c-0.1,0.1-0.1,0.2-0.1,0.3
	c0,0.1-0.1,0.3-0.1,0.3c-0.1,0.1-0.1,0.1-0.1,0.2v0.1c0,0.1-0.1,0.1-0.1,0.1c0,0.1,0,0.1-0.1,0.1h-0.3c-0.1,0.1-0.1,0.1-0.1,0.1
	c0-0.1,0.1-0.1,0.1-0.1c0-0.1-0.1-0.1-0.1-0.1c0,0.1-0.1,0.1-0.1,0.1c0,0.1-0.1,0.1-0.1,0.1c-0.1,0.1-0.1,0.1-0.3,0
	c-0.1-0.1-0.1-0.1-0.2-0.1c-0.1,0-0.2-0.1-0.3-0.1c-0.1,0-0.1,0-0.1-0.1c-0.1-0.1-0.1-0.1-0.1,0c-0.3,0.1-0.6-0.1-0.7-0.4
	c0-0.1,0-0.1-0.1-0.1h-0.2c0,0.1-0.1,0.1-0.1,0.1c-0.1,0.1-0.1,0-0.1-0.1c0-0.1,0-0.1-0.1-0.1c0-0.1,0-0.1,0.1-0.1v-0.1
	c0.1-0.1,0.1-0.2,0.1-0.3v-0.1v-0.3c0.1-0.2,0.1-0.3,0.1-0.5c0.1-0.1,0.1-0.2,0.1-0.3c0.1-0.1,0.1-0.3,0.1-0.5
	c0.1-0.1,0.1-0.3,0.1-0.3c0.1-0.1,0.1-0.3,0.1-0.3c0-0.1,0.1-0.1,0.1-0.1c0.1-0.1,0.1-0.3,0.1-0.4c0.1-0.1,0.1-0.3,0.1-0.3
	C20,11,20,10.8,20,10.7c0.1,0,0.1-0.1,0.1-0.1c0.1-0.1,0.1-0.1,0.2-0.2c0.1,0,0.1-0.1,0.1-0.1v-0.1c0.1-0.1,0.1-0.2,0.3-0.3
	c0-0.1,0-0.1,0.1-0.1c0.1-0.1,0.2-0.2,0.3-0.3c0-0.1,0.1-0.1,0.1-0.1c0.1-0.1,0.1-0.1,0.3-0.3C21.3,9,21.3,9,21.3,8.9
	c0,0,0-0.1,0.1-0.1c0-0.1,0.1-0.1,0.1-0.1s0.1-0.1,0.1-0.1c0.1-0.1,0.3-0.2,0.3-0.3c0.1-0.1,0.3-0.3,0.4-0.5
	c0.1-0.1,0.1-0.1,0.2-0.1h0.1c0.1-0.1,0.2-0.1,0.3-0.1c0.1,0,0.2,0,0.3-0.1c0.1,0,0.1,0.1,0.1,0.1c0.1,0,0.1,0,0.2,0.1
	c0.1-0.1,0.1-0.1,0.2-0.1c0.1-0.1,0.1-0.1,0.1,0c0.1,0.1,0.1,0.1,0.1,0.1C24,7.5,24,7.5,24,7.6h0.1c0.1-0.1,0.1-0.1,0.2-0.1
	c0.1,0,0.3,0.1,0.4,0.1c0.1,0,0.2,0,0.3,0.1h0.1h0.1c0.1,0.1,0.1,0.1,0.2,0h0.1c0,0.1,0.1,0,0.1,0c0.1,0,0.1,0,0.2-0.1v0.1
	c0.1,0,0.2,0.1,0.3,0.1c0.1-0.1,0.3-0.1,0.4-0.1c0.1,0.1,0.1,0,0.3,0h0.1c0.1,0,0.3,0.1,0.5,0c0.1,0.1,0.3,0.1,0.5,0.1h0.7h0.7
	c0.1,0,0.1,0,0.1-0.1c0.1-0.1,0.1-0.1,0.1,0l0.1,0.1h0.1h0.7c0.1,0,0.1-0.1,0.1-0.1c0.1-0.1,0.1-0.1,0.2,0c0.1,0,0.1,0.1,0.1,0.1
	h0.3c0-0.1,0-0.1,0.1-0.1c0-0.1,0.1-0.1,0.1-0.1h0.1c0,0.1,0.1,0.1,0.1,0.1c0.1,0.1,0.3,0.2,0.4,0.3h0.1c0.1,0.1,0.2,0.1,0.3,0.1H32
	C32,8,32,8,32.1,8c0.1,0.1,0.1,0,0.1,0c0.1-0.1,0.1-0.1,0.2-0.1c0.1,0.1,0.1,0.1,0.2,0.2c0,0,0.1,0.1,0.1,0.1c0.1,0,0.1,0.1,0.1,0.1
	C32.9,8.3,33,8.3,33,8.3c0.1,0,0.1-0.1,0.1-0.1V8.1V7.6V6.9V6.3V5.8V5.3V4.8V4.3V3.8V3.2V2.6C33.1,2.4,33,2.2,33,2V1.4
	c0-0.1,0-0.1-0.1-0.1c-0.1-0.1-0.3-0.3-0.3-0.5c-0.1-0.1-0.1-0.1-0.1-0.1c-0.1-0.1-0.3-0.1-0.3-0.3C32.1,0.3,32,0.2,32,0.3
	c-0.1,0-0.2,0-0.3-0.1c-0.1,0-0.1-0.1-0.3,0c0-0.1-0.1-0.1-0.1-0.1c-0.1,0-0.1-0.1-0.2-0.1h-0.1h-0.7h-0.5c-0.2,0-0.5-0.1-0.8-0.1
	C29,0,29,0.1,29,0.1c-0.1,0.1-0.1,0.1-0.1,0c-0.1-0.1,0.1,0.1,0,0.1c0,0-0.1,0-0.1-0.1h-0.1c-0.1,0.1-0.3,0.1-0.4,0.1h-0.3h-0.5
	h-0.5h-0.5h-0.5c-0.1,0-0.3,0.1-0.3,0.1h-0.1h-0.4h-0.5h-0.4H24h-0.5h-0.5h-0.3h-0.5h-0.5h-0.5h-0.7h-0.8h-0.3h-0.5h-0.5h-0.5h-0.2
	c-0.1-0.1-0.1-0.1-0.2-0.1c-0.1,0.1-0.1,0.1-0.1,0.1h-0.5h-0.1c-0.1,0.1-0.1,0.1-0.3,0.1c-0.1-0.1-0.2-0.1-0.3-0.1H16h-0.3
	c-0.1,0-0.1,0-0.2,0.1c-0.1,0-0.1,0-0.3,0.1h-0.1h-0.3c-0.1,0-0.2,0-0.3-0.1c-0.1-0.1-0.1-0.1-0.1-0.1h-0.5c-0.2,0-0.4,0-0.5,0h-0.6
	c-0.1,0-0.2,0.1-0.3,0.1c-0.1,0.1-0.1,0.1-0.1,0.1c-0.1-0.1-0.1-0.1-0.2-0.1h-1.9c-0.3,0.1-0.5,0.1-0.7,0H9.3c-0.1,0-0.1,0-0.1,0.1
	c0,0.1-0.1,0.1-0.1,0.1H9H8.8v0.1c-0.1,0-0.1-0.1-0.1-0.1V0.5c0-0.1-0.1-0.1-0.1-0.1c0,0.1-0.1,0.1,0,0.2c0,0.1,0,0.1,0.1,0.1
	c0,0,0.1,0,0.1,0.1c0,0,0,0.1,0.1,0.1C8.9,0.9,8.9,1,8.8,1c0,0.1,0,0.1-0.1,0.1C8.7,1,8.7,1,8.7,0.9C8.6,0.9,8.6,0.9,8.6,0.9
	C8.6,0.9,8.5,1,8.5,1C8.5,0.9,8.5,0.9,8.5,0.9c-0.1,0-0.1,0-0.1-0.1c-0.1,0.1-0.1,0-0.1,0C8.2,0.9,8.1,0.9,8,0.9
	C7.9,0.9,7.9,1,7.9,1.1C7.8,1.2,7.7,1.4,7.5,1.6C7.5,1.6,7.5,1.6,7.5,1.7C7.4,1.8,7.3,2,7.3,2c0,0.1,0,0.2,0,0.2
	c0,0.3,0,0.5-0.1,0.7V3v0.3v0.5v0.6c0,0.1,0,0.1,0.1,0.1s0.1-0.1,0.1-0.1c0-0.1,0.1-0.1,0.1-0.1v0.1c0,0.1-0.1,0.1-0.1,0.1
	c0-0.1-0.1-0.1-0.1-0.1c-0.1,0-0.1,0-0.1,0.1V5v0.5v0.3c0.1,0,0.1-0.1,0.1,0c0,0,0,0-0.1,0C7.2,5.8,7.2,5.9,7.2,5.9v0.3v0.3v0.3v0.3
	v0.2v0.5v0.5v0.3V9v0.3v0.3V10v0.5v0.7V12v0.8c0.1,0.2,0.1,0.5,0.1,0.7v0.5v0.7v0.7V16v0.2h0.1c-0.1,0.1-0.1,0.1-0.1,0.1
	c-0.1,0.1-0.1,0.1-0.1,0.1v0.5v0.7v0.8c0,0.1,0,0.1,0.1,0.1c-0.1,0.1-0.1,0.2,0,0.3C7.2,19,7.2,19,7.3,19.1H7.2
	c0,2.7-0.1,5.4-0.1,8.1c0.1-0.1,0,0.5,0,0.9v0.1v0.1v0.1c0.1,0.1,0.1,0.3,0.1,0.3V30c0,0.1-0.1,0.1-0.1,0.3v0.3
	c0,0.1,0.1,0.1,0.1,0.1c0.1,0.1,0.1,0.1,0.1,0.1v0.3c-0.1,0.1,0,0.2-0.1,0.3c0,0.1,0,0.1-0.1,0.2c0-0.1,0,0,0,0v1.1v0.7V34v0.5v0.3
	v0.3v2.5v0.5c0,0.2,0.1,0.4,0.3,0.6c0.1,0.1,0.1,0.2,0.1,0.3c0.1,0.1,0.1,0.1,0.1,0.2s0.1,0.1,0.1,0.2c0.1,0.1,0.1,0.1,0.2,0.1
	c0.3,0.1,0.5,0.1,0.7,0.3c0,0.1,0.1,0.1,0.1,0.1h0.3c0.1,0,0.1,0,0.2-0.1h0.1C9.5,40,9.5,40,9.5,40h0.2c0.2,0,0.4,0,0.6-0.1h0.1
	c0.1-0.1,0.1-0.1,0.1,0c0.1,0,0.2,0.1,0.3,0c0.1,0,0.1,0,0.1-0.1h0.1c0.1,0.1,0.2,0.1,0.3,0.1h0.3c0.1,0,0.1,0,0.1-0.1
	c0,0,0.1-0.1,0.1-0.1c0.1,0,0.1,0.1,0.1,0.1c0.1,0.1,0.1,0.1,0.1,0.1c0.1-0.1,0.1,0,0.1-0.1h0.1h0.1c0.1-0.1,0.2-0.1,0.3-0.2
	c0-0.1,0.1-0.1,0.1-0.1c0.1-0.1,0.1-0.1,0.1-0.1c0.1-0.1,0.1-0.1,0.1-0.1c0.1,0.1,0.1,0.1,0.1,0.1c0,0.1,0.1,0.1,0.1,0.2
	c0.1,0.1,0.1,0.1,0.1,0.1h0.3c0.1,0.1,0.1,0,0.2,0h0.1c0.1,0,0.3,0.1,0.4,0h0.1h0.5h1.9h0.3h0.3h1.1h0.3H19H19h0.1
	c0.2,0.1,0.4,0,0.6,0h0.7h0.6h0.5h0.5h0.3c0.1,0,0.1,0,0.1-0.1h0.2c0.3,0.1,0.5,0.1,0.8,0H24h0.2c0.1,0.1,0.1,0,0.3,0h0.1
	c0.1,0.1,0.3,0,0.5,0h0.3c0.1,0,0.2-0.1,0.3-0.1c0.1,0,0.1,0,0.2,0.1c0,0.1,0.1,0.1,0.1,0.1h0.5c0-0.1,0-0.2-0.1-0.3
	c0.1,0,0.1,0,0.2,0.1c0,0.1,0,0.1,0.1,0.1h0.1c0.1-0.1,0.1-0.1,0.1-0.1v0.1c0,0.1,0,0.1,0.1,0.1h0.5h0.2H28H28c0-0.1,0-0.1-0.1-0.2
	s-0.1-0.1,0-0.1c0-0.1,0.1-0.1,0.1,0c0.1,0.1,0.1,0.1,0.1,0.1s0.1,0.1,0.1,0.1v0.1c0.1,0.1,0.2,0,0.3-0.1l0.1-0.1
	c0.1,0.1,0.1,0.1,0.2,0.1c0,0.1,0.1,0.1,0.1,0.1c0.2,0,0.3-0.1,0.5-0.1c0.1,0,0.3,0.1,0.5,0.1c0.1-0.1,0.2-0.1,0.3-0.1h0.1
	c0.1-0.1,0.1-0.1,0.3,0h0.1c0.3,0.1,0.5,0.1,0.7,0c0.1,0,0.3-0.1,0.4-0.1c0.1-0.1,0.1-0.1,0.3-0.1c0.1-0.1,0.1-0.1,0.1-0.1
	s0.1-0.1,0.1-0.1c0.1,0,0.1-0.1,0.1-0.1c0.1-0.1,0.1-0.1,0.1-0.1h0.1c0.1,0,0.1,0,0.1-0.1c0.1-0.1,0.1-0.1,0.2-0.3
	c0.1-0.1,0.1-0.1,0.1-0.1c0.1,0,0.1-0.1,0.1-0.1c0.1-0.1,0.1-0.1,0.1-0.1c0.1-0.1,0.1-0.1,0.1-0.3v-0.2c0-0.1,0-0.1,0.1-0.1
	c0.1-0.1,0.1-0.1,0.1-0.1v-0.5v-0.2c0.1-0.1,0.1-0.2,0.1-0.3c0-0.1,0-0.1,0.1-0.2v-0.1h-0.1C33.3,36.5,33.3,31.9,33.4,31.7
	C33.4,31.7,33.4,31.8,33.4,31.7z M18.1,7.8c0.1-0.1,0-0.1,0-0.2c0.1,0,0.1-0.1,0-0.1c-0.1-0.1,0-0.2,0-0.3c0.1,0,0.1-0.1,0.1-0.1
	c0.1,0,0.1-0.1,0.1-0.1c0.1-0.1,0.2-0.2,0.3-0.3c0.1,0,0.1-0.1,0.1-0.1C18.8,6.6,19,6.5,19,6.4c0.1-0.1,0.1-0.1,0.1-0.1
	c0-0.1,0.1-0.1,0.1-0.1c0.1,0,0.1-0.1,0.3-0.1C19.6,6,19.6,6,19.8,6V6c0-0.1,0.1-0.1,0.1-0.1H20C20,5.9,20.1,6,20.2,6
	c0.1,0.1,0.2,0.1,0.3,0.1c0.1-0.1,0.2,0,0.3,0.1c0.1,0,0.1,0.1,0.1,0.1c0.1,0,0.1-0.1,0.1-0.1c0.1-0.1,0.1,0,0.1,0
	c0.1,0.1,0.1,0.1,0.1,0.1c0.1,0,0.2,0.1,0.3,0.1c0.1,0,0.1,0.1,0.1,0.1c0.1,0.1,0.1,0.1-0.1,0.3C21.4,7,21.3,7,21.3,7.2v0.1
	c-0.1,0.1-0.1,0.2-0.1,0.3v0.2c-0.1,0.1-0.1,0.3-0.1,0.5c-0.1,0.3-0.1,0.5-0.3,0.7c0,0-0.1,0.1-0.1,0.1c0,0.1-0.1,0.3-0.1,0.3
	c-0.1,0.1-0.1,0.1-0.1,0.3c0.1,0.1,0,0.1-0.1,0.1h-0.1c-0.1,0-0.1-0.1-0.3-0.1C20,9.9,20,9.8,20,9.7c-0.1-0.1-0.1-0.1-0.3-0.1
	c-0.1,0-0.1,0-0.2-0.1c-0.1,0-0.1-0.1-0.1-0.1c-0.1,0.1-0.1,0.1-0.2,0H19c0-0.1-0.1-0.1-0.2-0.1c-0.1-0.1-0.2-0.2-0.3-0.3
	C18.5,9,18.5,9,18.4,8.9c-0.1-0.1-0.1-0.1-0.1-0.2c0-0.1-0.1-0.1-0.1-0.2c-0.1-0.1-0.1-0.3-0.1-0.3C18.1,8.1,18,7.9,18.1,7.8z
	 M8.6,19.6c-0.1-0.1-0.1-0.3-0.1-0.4c-0.1,0-0.1,0,0-0.1c0.1-0.1,0.1-0.1,0.1-0.3c0-0.1,0-0.1,0.1-0.1c0.1-0.1,0.1-0.1,0.1-0.1
	c-0.1-0.1-0.1-0.1-0.1-0.1c0.1-0.1,0.1-0.1,0.1-0.1c0-0.1,0.1-0.1,0.1-0.1c0.1-0.1,0.2-0.1,0.3-0.2c0.1-0.1,0.1-0.1,0.2-0.3
	c0-0.1,0.1-0.1,0.1-0.1c0.1-0.1,0.1-0.1,0.1-0.1l0.1-0.1c0.1-0.1,0.3-0.3,0.5-0.3h0.1c0-0.1,0.1-0.1,0.1-0.1
	c0.1-0.1,0.1-0.1,0.3-0.1c0.1,0,0.1,0.1,0.1,0.1l0.1,0.1h0.3c0.1,0.1,0.2,0.1,0.3,0.1h0.1c0.1,0,0.1,0,0.1,0.1c0.1,0,0.1,0,0.1,0
	c0.1,0.1,0.1,0.1,0.1,0.1c0.1,0.1,0.1,0.1,0.1,0.1c0.1,0,0.1,0.1,0.1,0.1c0.1,0.1,0.2,0.1,0.3,0.2h0.1c0.1,0.1,0.2,0.1,0.3,0.2H13
	c0,0.1-0.1,0.2-0.1,0.3c-0.1,0-0.2,0.1-0.3,0.1c-0.1,0.1-0.1,0.1-0.2,0.1C12.3,19,12.3,19,12.2,19c-0.1,0.1-0.1,0.1-0.1,0.2
	c-0.1,0.1-0.1,0.1-0.2,0.2c-0.1,0.1-0.1,0.1-0.1,0.2c-0.1,0.1-0.1,0.1-0.2,0.1c-0.1,0.1-0.1,0.1-0.3,0.2c-0.1,0-0.1,0-0.1,0.1
	c-0.1,0.1-0.1,0.1-0.2,0.2c-0.1,0-0.1,0.1-0.2,0.1v0.2c-0.1,0-0.2,0.1-0.3,0.1c-0.1-0.1-0.2-0.1-0.2-0.1c-0.1-0.1-0.1-0.1-0.1-0.1
	c-0.1-0.1-0.3,0-0.4-0.1c-0.1,0-0.1,0.1-0.1,0H9.6c0,0-0.1-0.1-0.1-0.1c-0.1,0.1-0.1,0.1-0.1,0.1H9.3c-0.1-0.1-0.1-0.1-0.1-0.1
	c-0.1,0-0.1,0-0.1,0c-0.1,0-0.1-0.1-0.3-0.1c0-0.1-0.1-0.1-0.1-0.2C8.7,19.8,8.7,19.8,8.6,19.6L8.6,19.6L8.6,19.6z"/>
</svg>
