<?xml version="1.0" encoding="utf-8"?>
<!-- Generator: Adobe Illustrator 25.2.3, SVG Export Plug-In . SVG Version: 6.00 Build 0)  -->
<svg version="1.1" id="Layer_1" xmlns="http://www.w3.org/2000/svg" xmlns:xlink="http://www.w3.org/1999/xlink" x="0px" y="0px"
	 viewBox="0 0 40 40" style="enable-background:new 0 0 40 40;" xml:space="preserve">
<style type="text/css">
	.st0{fill:#D50032;}
</style>
<path class="st0" d="M33.1,4.6c0-0.1,0.1-0.2,0.1-0.3V4.1c0-0.1,0-0.1,0-0.1c0-0.1-0.1-0.1-0.1-0.1C33,3.8,33,3.8,33,3.7V3.6V3.4
	V3.1V3c0-0.1,0.1-0.3,0.1-0.5c0-0.1-0.1-0.1-0.1-0.1C33,2.3,33,2.2,33,2.1C33,2.1,33,2,33,2c-0.1-0.1-0.2-0.3-0.3-0.5
	c0-0.1-0.1-0.1-0.1-0.1c-0.1-0.1-0.1-0.2-0.2-0.3c-0.1-0.1-0.1-0.1-0.1-0.2c-0.1-0.1-0.1-0.1-0.1-0.3c-0.1-0.1-0.1-0.1-0.3-0.1
	c-0.3,0-0.5-0.1-0.7-0.3c0-0.1,0-0.1-0.1-0.1h-0.3c-0.1,0-0.1,0-0.2,0.1c0,0.1-0.1,0.1-0.1,0C30.5,0,30.4,0,30.3,0H30h-0.1
	c-0.1,0.1-0.1,0.1-0.2,0.1h-0.3l-0.1,0.1h-0.1c-0.1-0.1-0.1-0.1-0.1-0.1c-0.1,0-0.2-0.1-0.3,0.1c0,0,0,0.1-0.1,0.1
	C28.8,0.1,28.7,0,28.5,0c-0.1,0.1-0.2,0.1-0.3,0.1c-0.1,0-0.1,0-0.1,0.1c0,0.1,0,0.1-0.1,0.1l-0.1-0.1c-0.1-0.1-0.1-0.1-0.1-0.1
	h-0.2c-0.1,0.1-0.3,0.1-0.4,0.2c0,0.1-0.1,0.1-0.1,0.1c-0.1,0.1-0.1,0.1-0.1,0.1c0,0.1-0.1,0.1-0.1,0.1c-0.1-0.1-0.2-0.1-0.3-0.2
	c-0.1-0.1-0.1-0.1-0.1-0.2c-0.1-0.1-0.1-0.1-0.1-0.1c-0.1,0-0.3,0-0.3,0.1h-0.1h-0.1h-0.4H25h-0.5h-0.7c-0.2,0-0.3,0.1-0.5,0.1h-1
	h-0.3c-0.1,0-0.3,0-0.5-0.1h-0.2h-0.9h-0.9h-0.8h-0.4H18H18c-0.1-0.1-0.1,0-0.3,0h-0.5H17h-0.1h-0.3h-0.5c0,0-0.1,0-0.1,0.1
	c-0.1-0.1-0.2-0.1-0.3-0.1c-0.1,0.1-0.1,0-0.1,0h-0.1h-0.5c-0.1,0-0.1,0-0.1,0.1c-0.1,0-0.1,0.1-0.3,0.1c-0.1,0-0.1,0-0.2-0.1
	c-0.1,0-0.1-0.1-0.2-0.1h-0.3c-0.1,0-0.1,0-0.1,0.1C14,0.4,14,0.5,14.1,0.5c-0.1,0.1-0.1,0-0.2-0.1c0-0.1-0.1-0.1-0.1-0.1
	c-0.1-0.1-0.1-0.1-0.1,0c0,0.1,0,0.1-0.1,0.1V0.1h-0.1H13c-0.1,0-0.1,0.1-0.3,0.1c-0.1,0.1-0.3,0.1-0.4,0.1c0-0.1-0.1,0-0.1,0
	c0,0.1,0.1,0.1,0.1,0.1c-0.1,0.1-0.1,0.1-0.1,0L12,0.3c-0.1,0-0.2,0-0.3,0.1h-0.2h-0.3c-0.1,0-0.3,0-0.3,0h-1H9.2
	c-0.1,0-0.1,0-0.1,0.1H8.9H8.1C8,0.5,8,0.5,8,0.5c0,0.1,0,0.1-0.1,0.1c-0.1,0-0.1-0.1-0.2,0.1v0.1c0,0.1-0.1,0.1-0.1,0H7.5
	c-0.1-0.1-0.1-0.1-0.2,0C7.2,0.8,7.2,0.9,7.1,1C7.1,1.1,7,1.1,7,1.1C7,1.1,7,1.1,6.9,1.2c0,0.1-0.1,0.1-0.1,0.1c0,0.1,0,0.1-0.1,0.1
	c0,0-0.1,0.1-0.1,0.2v0.2c0,0.1,0,0.1-0.1,0.1S6.6,2.1,6.6,2.1v0.5v0.4c0,0,0,0.1,0,0.1v0.1c0,0-0.1,0-0.1,0.1c0,0.1,0,0.1,0.1,0.1
	c0,0.1,0,0.1-0.1,0.1c0,0.1-0.1,0.1,0,0.2v0.2c0,0.1,0.1,0.1,0.1,0.2c-0.1,0-0.1,0.1-0.1,0.1C6.6,4.6,6.6,4.8,6.6,5
	c-0.1,0.1,0,0.2,0.1,0.3c0.1,0,0.1,0.1,0.1,0.1C6.8,5.5,6.8,5.6,7,5.6C7,5.7,7,5.8,7.1,5.8c0,0.1,0,0.3,0,0.5c0,0.1,0.1,0.1,0,0.2
	v0.1c0.1,0.1,0,0.1,0,0.2c0,0,0.1,0,0.1,0.1C7.1,6.9,7.1,7,7.2,7C7.2,7,7.2,7.1,7.2,7.2s0,0.1-0.1,0.2c0,0,0,0.1-0.1,0.2
	C7,7.6,7,7.7,7,7.7S7,7.8,6.9,7.8C6.9,7.9,6.8,8,6.8,8c0,0.1-0.1,0.1-0.1,0.1v0.1c-0.1,0-0.1,0.1-0.1,0.1C6.6,8.5,6.6,8.6,6.6,8.7V9
	c0.1,0,0.1,0.1,0.1,0.1C6.6,9.2,6.6,9.4,6.6,9.4v0.4c0,0.1,0.1,0.2,0.1,0.3v0.1c-0.1,0.1,0,0.3,0,0.4c0.1,0.1,0.1,0.1,0.1,0.3
	c0,0.1,0.1,0.2,0,0.3c0,0.1-0.1,0.2,0.1,0.3c0,0.1,0,0.1-0.1,0.3v0.3l-0.1-0.1c-0.1,0.1-0.1,0.1-0.1,0.2v0.4
	c0.1,0.2,0.1,0.3,0.1,0.5V14v0.5c0,0.2,0,0.4,0.1,0.6v0.7v0.3l0.4,0.3c0.1,0,0.1,0,0.1,0.1c0.1,0.1,0.1,0.1,0.1,0.1
	c0.1,0,0.1,0.1,0.1,0.1c0.1,0,0.1,0,0.1,0.1h0.1v-0.1c0-0.1,0-0.1,0.1-0.1c0.1,0,0.1-0.1,0.2-0.1c0.1-0.1,0.1-0.1,0.1-0.1
	c0.1-0.1,0.1-0.1,0.1-0.1h0.1c0.1-0.1,0.1-0.1,0.1-0.1c0,0.1,0,0.1,0,0c0.1,0,0.1,0,0.1-0.1c0.1-0.1,0.1-0.1,0.1-0.1v-0.1h0.1
	c0.1,0.1,0.1,0,0.1,0c0.1-0.1,0.2-0.1,0.3-0.1h0.1l0.1-0.1c0.1-0.1,0.1-0.1,0.1-0.1l0.1,0.1c0.1-0.1,0-0.1,0-0.1
	c0.1-0.1,0.1-0.1,0.1-0.2c0-0.1,0.1-0.1,0.1-0.1c0.1-0.1,0-0.1,0-0.1l0.1-0.1c0.1,0.1,0.1,0,0.1,0c0.1,0,0.1,0.2,0.1,0.2
	c0.1,0.1,0.1,0.1,0.1,0.1c0.1,0.1,0.1,0.1,0.2,0.1c0.1,0,0.1,0,0.1,0.1h0.1h0.1c0.1,0.1,0.1,0.1,0.1,0h0.1c0,0,0-0.1,0.1-0.1H11
	l0.1-0.1v-0.1c0.1,0.1,0.1,0,0.1,0c0-0.1,0.1,0,0.1,0c0.1,0.1,0.1,0.1,0.3,0c0.1,0,0.1-0.1,0.1-0.1v0.1c0,0.1,0,0.1,0.1,0.1
	c0,0,0,0.1,0.1,0.1c0,0,0.1,0.1,0.1,0c0.1,0,0.1-0.1,0.1-0.1c-0.1-0.1-0.1-0.1,0-0.1h0.1c0.1,0,0.3,0,0.3-0.1c0.1,0,0.1,0,0.1-0.1
	l0.1,0.1h0.2c0.2-0.1,0.3-0.1,0.5-0.2c0,0,0.1,0,0.1-0.1h0.1c0.1,0,0.1,0,0.3-0.1c0,0.1,0.1,0.1,0.1,0.1c0.1,0.1,0.1,0.1,0.2,0
	c0.1,0,0.2-0.1,0.3-0.1c0.1,0,0.1-0.1,0.1-0.1c0-0.1-0.1-0.1-0.1-0.1h-0.3h-0.1c-0.1-0.1-0.1-0.1-0.3-0.1h-0.1
	c-0.1-0.1-0.1-0.1-0.1-0.1c-0.3-0.1-0.7-0.1-1.1-0.1c-0.1,0-0.1-0.1-0.1-0.1c0-0.1,0-0.1-0.1-0.3c0.1,0.1-0.1,0.1-0.1,0.1V14
	c0-0.1-0.1-0.2-0.3-0.3c0,0-0.1,0-0.1-0.1c-0.1-0.1-0.2-0.3-0.3-0.4c-0.1-0.1-0.1-0.3-0.3-0.4c-0.1-0.1-0.1-0.3-0.3-0.4
	c0-0.1-0.1-0.2-0.1-0.4c-0.1-0.2-0.2-0.3-0.3-0.5c-0.1-0.1-0.2-0.3-0.3-0.4c-0.1,0-0.1-0.1,0-0.1c0-0.1,0-0.1-0.1-0.3v-0.1
	c0-0.1,0.1-0.1,0.1-0.2v-0.1v-0.1c0.1,0,0.1-0.1,0.1-0.1s0-0.1,0.1-0.1c0.1,0.1,0.1,0.1,0.1,0.1c0.1-0.1,0.1-0.1,0.2-0.2l0.1-0.1
	c0-0.1,0.1-0.1,0.1-0.1c0-0.1,0-0.1,0.1-0.1c0.1-0.1,0.1-0.1,0.1-0.1c0.1-0.1,0.1-0.1,0.2-0.1C11.5,9,11.6,9,11.6,9
	c0.1-0.1,0.1-0.1,0.2-0.2c0-0.1,0.1-0.1,0.1-0.1c0.1,0,0.1,0,0.1-0.1h0.1c0,0.1,0,0,0.1,0c0-0.1,0.1-0.1,0.1-0.1h0.1
	c0.1-0.1,0.1-0.1,0.1-0.1c0.1-0.1,0.1-0.1,0.1-0.2V8.1h0.1C12.9,8,12.9,8,13,8c0.1-0.1,0.1,0,0.1,0c0.1,0,0.1,0,0.2,0.1h0.1
	c0.1-0.1,0.1,0,0.2-0.1h0.1c0.1-0.1,0.1-0.1,0.1-0.1h0.1c-0.1-0.1-0.1-0.1-0.1-0.1c-0.1-0.1-0.1-0.1-0.2-0.1
	c-0.1-0.1-0.1-0.1-0.1-0.1c-0.1-0.1-0.1-0.1-0.1-0.1c-0.1,0-0.1-0.1-0.2-0.2c-0.1-0.1-0.1-0.1-0.1-0.1V7C13,6.9,13,6.9,12.9,6.8
	c-0.1-0.1-0.1-0.1-0.1-0.1c-0.1-0.1-0.1-0.1-0.1-0.1l-0.1,0.1c0-0.1-0.1-0.1-0.1-0.1c-0.1,0-0.1-0.1-0.1-0.1
	c-0.1-0.1-0.1-0.1-0.1-0.1c-0.1,0-0.1-0.1-0.1-0.1c0,0,0,0.1,0,0c-0.1,0-0.1-0.1-0.2-0.1h-0.1c0-0.1-0.1-0.1-0.2-0.1
	c-0.1-0.1-0.1-0.3-0.2-0.3c0-0.1-0.1-0.1-0.1-0.1s-0.1-0.1-0.1-0.1l-0.1-0.1c-0.1,0-0.1-0.1-0.1-0.1c-0.1-0.1-0.1-0.1-0.2-0.1
	c-0.1,0-0.1,0-0.1-0.1c0,0-0.1,0-0.1-0.1c0-0.1-0.1-0.2-0.2-0.3V4.7c-0.1-0.1-0.1-0.1-0.2-0.1c-0.1,0-0.1-0.1-0.1-0.1
	c-0.1,0.1-0.1,0-0.2-0.1c0,0,0-0.1-0.1-0.1c0-0.1,0-0.1-0.1-0.1c0.1,0.1,0,0.1-0.1,0c-0.1,0-0.1-0.1-0.1-0.1c0,0-0.1,0-0.1-0.1
	c0,0,0,0,0-0.1C9.5,3.9,9.4,3.8,9.4,3.8H9.3c0,0-0.1,0-0.1-0.1C9.2,3.6,9.1,3.6,9.1,3.6V3.5C9,3.5,9,3.5,9,3.4H8.8H8.8
	C8.7,3.4,8.7,3.3,8.7,3.2c0-0.1,0.1-0.1,0.1-0.1C8.8,3,8.8,2.9,8.9,2.9C9,2.9,9,2.9,9,2.9c0,0,0.1-0.1,0.1-0.1c0,0,0.1,0,0.1-0.1
	h0.1c0.1-0.1,0.1-0.1,0.1,0c0.1,0.1,0.1,0.1,0.1,0.1h0.1c0.1,0,0.1,0,0.1-0.1c0.1,0,0.1,0,0.1,0.1c0.1,0,0.1,0,0.2,0.1
	C10,3,10,3.1,10,3.1c0.1,0.1,0.1,0.1,0.1,0.1c0.1,0.1,0.1,0.1,0.1,0c0.1,0,0.1-0.1,0.1,0l-0.1-0.1c0,0.1,0,0.1,0,0.1l0.1,0.1
	c0.1,0,0.1,0.1,0.1,0.1c0.1,0,0.1,0.1,0.1,0.1c0,0.1,0,0.1,0.1,0.1c0.1,0,0.1,0.1,0.1,0.1L10.8,4C10.9,4,11,4.1,11.1,4.1V4
	c0,0.1,0.1,0.1,0.1,0.1c0.1,0,0.1,0.1,0.1,0.1l0.1,0.1c0.1,0,0.1,0.1,0.1,0.1l0.1,0.1c0,0,0,0.1,0.1,0.1l0.1,0.1
	c0.1-0.1,0.1,0,0.1,0c0,0.1,0.1,0.1,0.1,0.1c0.1,0,0.1,0.1,0.1,0.1C11.9,5,11.9,5,11.9,5C12,5.1,12,5.1,12,5.2
	c0,0.1,0.1,0.1,0.1,0.1l0.1,0.1c0.1,0,0.1,0,0.1,0.1c0,0.1,0.1,0.1,0.1,0.1c0.1,0.1,0.1,0.1,0.1,0.2c0.1,0,0.1,0.1,0.1,0.1
	C12.7,5.9,12.7,6,12.9,6v0.1h0.1c0-0.1,0.1,0,0.1,0c0.1,0.1,0.1,0.1,0.3,0.1c0.1,0.1,0.1,0.1,0.3,0.2v0.1c-0.1,0.1-0.1,0.1,0,0.1
	c0.1,0,0.1,0.1,0.1,0.1c0.1,0.1,0.1,0.1,0.2,0.2C13.9,7,14,7.1,14,7.1v0.1c0.1,0,0.1,0.1,0.1,0.1c0.1,0,0.1,0,0.1,0.1
	c0,0.1,0.1,0.1,0.1,0.1c0,0.1,0.1,0.1,0.1,0.1c0.1,0,0.1,0,0.1,0.1c0,0.1,0.1,0.1,0.1,0.1c0.1,0,0.1,0.1,0.1,0.1L14.7,8
	c0.1,0,0.1,0.1,0.1,0.1c0.1,0.1,0.1,0.1,0.3,0.1C15.1,8,15.1,8,15.1,8c0.1,0.1,0.1,0.1,0.3,0.1c0.3,0.1,0.5,0.1,0.7,0.1
	c0.2,0.1,0.4,0.1,0.5,0.1c0.1,0,0.3,0.1,0.5,0.1h0.5c0.1,0.1,0.3,0.1,0.5,0.1c0.1,0,0.3,0.1,0.5,0.1c0.1,0,0.3,0,0.5,0.1h0.5
	c0.1,0,0.3,0.1,0.5,0.1c0.2,0,0.4,0.1,0.7,0.1h0.1c0.1,0,0.1,0,0.1,0.1c0.1,0.1,0.2,0.1,0.3,0h0.1c0.1,0,0.1,0,0.1,0.1
	c0,0,0.1,0,0.1,0.1c0.1,0,0.1,0,0.1,0.1c0.1,0.1,0.2,0.2,0.3,0.1V9C21.9,9,22,9,22.1,8.9c0.1,0,0.1,0,0.1,0.1
	c0.1,0.1,0.3,0.2,0.5,0.2h0.1c0.1,0.1,0.1,0.1,0.1,0.2l0.1,0.1C23,9.6,23,9.6,23.1,9.8c0.1-0.1,0.1-0.2,0-0.3
	c-0.1-0.1,0-0.1-0.1-0.1V9.2C23,9.1,23,9,23,9c0-0.1-0.1-0.3-0.1-0.3c-0.1-0.1-0.1-0.3-0.1-0.4c0-0.1-0.1-0.1-0.1-0.1
	c0.1-0.1,0.1-0.3,0.1-0.4c0.1,0,0.1,0.1,0.2,0c0.2,0,0.3,0,0.5-0.1h0.2c0.1,0.1,0.1,0.1,0.2,0.1c0.1,0,0.1-0.1,0.2,0
	c0.1,0.1,0.3,0,0.3,0h0.1c0.1,0.1,0.3,0,0.3,0.1c0.1,0,0.1-0.1,0.1,0c0.1,0,0.1,0.1,0.3,0c0.1,0,0.1,0,0.1,0.1
	C25.5,7.9,25.5,8,25.7,8c0.1,0.1,0.2,0.1,0.3,0.1c0.2,0,0.3,0,0.5,0.1h0.1c0.1,0.1,0.1,0.1,0.2,0.2l0.1,0.1c0.1,0.1,0.1,0.1,0.1,0.1
	c0.1,0.1,0.2,0.1,0.3,0.2c-0.1-0.2-0.1-0.1-0.1-0.1V9c0.1,0.1,0,0.2,0,0.3c-0.1,0.1-0.1,0.1-0.1,0.1v0.3c0,0.2-0.1,0.3,0,0.5
	c0,0.1,0,0.2-0.1,0.3c0,0.1-0.1,0.1-0.2,0.1h-0.3c-0.1,0-0.1,0-0.3,0.1c-0.1,0.1-0.2,0.1-0.3,0.2c-0.1,0.1-0.3,0.1-0.3,0.1
	c-0.1,0.1-0.3,0.1-0.4,0.3c-0.1,0-0.3,0.1-0.5,0c-0.1-0.1-0.1,0-0.2,0c-0.1,0.1-0.2,0.1-0.3,0.1h-0.1c-0.1-0.1-0.1-0.1-0.3-0.1
	c-0.1-0.1-0.1-0.1-0.1-0.1c0-0.1-0.1-0.1-0.1-0.1c-0.1-0.1-0.1-0.1-0.1-0.1v0.1c0.1,0.1,0,0.1,0,0.2c0,0.1-0.1,0.1-0.1,0.1
	c-0.1,0.1-0.1,0.1-0.1,0.1c-0.1,0.1-0.1,0.1-0.1,0.1v0.1c-0.1,0.1-0.1,0.1-0.1,0.1v0.1v0.1c0,0.1-0.1,0.1-0.1,0.1c0.1-0.1,0-0.1,0,0
	v0.1c0,0.1-0.1,0.1-0.1,0.1v0.1L23,12.4c0.1,0.1,0,0.1,0,0.1c0,0.1-0.1,0.1-0.1,0.3c-0.1,0.1-0.1,0.1-0.1,0.1s0,0.1-0.1,0.1
	c0,0.1-0.1,0.2-0.1,0.3c0,0.1-0.1,0.1-0.1,0.2c0.1,0,0,0.1,0,0.1v0.1c0,0.1,0,0.1-0.1,0.1c0,0.1-0.1,0.1-0.1,0.1s0.1,0.1,0,0.2
	c-0.1,0-0.1,0.1-0.1,0.1h0.1c0,0.1-0.1,0.1-0.1,0.1v0.1c0.1,0.1,0.3,0.2,0.4,0.3c0.1,0.1,0.1,0.1,0.2,0.2c0.1,0.1,0.1,0.1,0.2,0.1
	c0.1,0.1,0.3,0.2,0.5,0.3c0.1,0.1,0.3,0.2,0.3,0.3c0.1,0.1,0.1,0.1,0.2,0.2s0.1,0.1,0.2,0.1c0.1,0.1,0.2,0.2,0.3,0.3l0.1,0.1
	c0.1,0.1,0.1,0.1,0.3,0.1c0.1,0,0.1,0.1,0.1,0.1c0.1,0.1,0.1,0.1,0.1,0.1c0.1,0,0.1,0.1,0.1,0.1c0,0.1,0.1,0.1,0.1,0.1v-0.3
	c0.1,0,0.1,0,0.1,0.1c0.1,0,0.1,0.1,0.1,0.1c0.1,0.1,0.1,0.1,0.1,0.2s0.1,0.1,0.1,0.1c0.1,0,0.1,0,0.1,0.1s0.1,0.1,0.1,0.2
	s0.1,0.1,0.1,0.1c0,0.1,0.1,0.1,0,0.1H26c0,0-0.1,0-0.1,0.1c-0.1,0.1-0.1,0.1-0.1,0.1h-0.1c-0.1,0-0.1,0.1-0.1,0.1h-0.1
	c-0.1,0.1-0.1,0.1-0.1,0.1c-0.1,0.1-0.1,0.1-0.3,0.1c-0.1,0.1-0.2,0.2-0.3,0.3c-0.1,0.1-0.1,0.1-0.1,0.1c-0.1,0.1-0.1,0.1-0.1,0.1
	S24.7,19,24.7,19c-0.1-0.1-0.1-0.1-0.1-0.1c0-0.1-0.1,0-0.1-0.1h-0.1c-0.1-0.1-0.1-0.1-0.1-0.1c-0.1-0.1-0.1-0.1-0.1-0.1
	c-0.1,0-0.1-0.1-0.1-0.1h-0.1c-0.1-0.1-0.1-0.1-0.1-0.1c-0.1-0.1-0.1-0.1-0.3-0.1h-0.1c-0.1-0.1-0.1-0.1-0.1,0
	c-0.1,0-0.1-0.1-0.2-0.1h0.2H23c-0.1,0-0.1-0.1-0.1,0c-0.1,0-0.1-0.1-0.1-0.1c-0.1,0.1-0.1,0.1-0.1,0h-0.1h-0.1c0-0.1,0-0.1-0.1-0.1
	h-0.1c-0.1,0.1-0.1,0.1-0.2,0H22h-0.1C21.9,18,22,18,22,18l-0.1-0.1c0,0.1,0,0.1-0.1,0.1c-0.1,0-0.1-0.1-0.2-0.1
	c-0.1,0.1-0.1,0-0.2,0c-0.1,0.1-0.1,0-0.2,0.1c-0.1,0.1-0.1,0.1-0.1,0.1c-0.1,0.1-0.1,0.1-0.1,0h-0.1c-0.1,0.1-0.1,0.1-0.1,0.1
	c-0.1-0.1-0.2-0.1-0.3,0h-0.1h-0.2H20h-0.1l-0.1,0.1c0,0-0.1,0-0.1-0.1c0.1-0.1,0.1-0.1-0.1-0.1C19.6,18,19.6,18,19.6,18V18
	c0-0.1,0-0.1-0.1-0.1c-0.1,0-0.1-0.1-0.1-0.1l-0.1-0.1c0-0.1,0-0.1-0.1-0.1l-0.1-0.1c0-0.1-0.1-0.1-0.1-0.2c-0.1,0-0.1-0.1-0.1-0.1
	c-0.1-0.1-0.1-0.1-0.1-0.1c-0.1,0-0.1-0.1-0.1-0.1c0,0-0.1,0-0.1-0.1c0,0-0.1,0-0.1-0.1c-0.1-0.1-0.1-0.1-0.1-0.1
	c0.1,0.1,0.1,0.1,0.1,0.1c-0.1-0.1-0.2-0.1-0.3-0.1c-0.2,0.1-0.5,0.1-0.7,0.2c-0.3,0.1-0.5,0.2-0.9,0.3c-0.3,0.1-0.7,0.2-0.9,0.3
	c-0.3,0.1-0.7,0.2-0.9,0.3c-0.2,0.1-0.3,0.1-0.5,0.2c-0.3,0.1-0.5,0.1-0.7,0.3c-0.3,0.1-0.5,0.1-0.8,0.3c-0.1,0.1-0.3,0.1-0.5,0.1
	c-0.3,0.1-0.7,0.3-1.1,0.3c-0.2,0.1-0.4,0.1-0.6,0.2c-0.1,0-0.1,0.1-0.2,0.1c-0.1,0.1-0.3,0.2-0.2,0.3c0.1,0.1,0.1,0.1,0.1,0.1
	c0,0.1,0.1,0.1,0.1,0.1c0.1,0,0.1,0,0.1,0.1c0-0.1,0.1,0.1,0.2,0.1c0,0.1,0.1,0.1,0.1,0.1c0,0,0.1,0.1,0.1,0.1
	c0.1,0.1,0.1,0.1,0.1,0.1c0.1,0,0.1,0,0.1,0.1l0.1,0.1c0.1,0,0.1,0.1,0.2,0.1h0.1c0.1,0,0.1,0,0.1,0.1h0.1c0,0,0.1,0,0.1,0.1
	c0.1,0.1,0.2,0.1,0.3,0.3c0.1,0,0.1,0.1,0.1,0.1c0.1,0,0.1,0.1,0.1,0.1l0.1,0.1c0.1,0,0.1,0.1,0.1,0.1c0,0.1,0,0.1,0.1,0.1
	c0.1,0,0.1,0.1,0.1,0.1l0.1,0.1l0.1,0.1l0.1,0.1c0.1,0,0.1,0.1,0.1,0.1c0,0.1,0.1,0.1,0.1,0.1l0.1,0.1c0.1,0.1,0.1,0.1,0.1,0.1h0.1
	c0,0.1,0.1,0.1,0.1,0.1c0.1,0,0.1,0,0.1,0.1l0.1,0.1l0.1,0.1c0.1,0.1,0.1,0.1,0.1,0.1c0,0.1,0.1,0.1,0.1,0.1c0,0.1,0,0.1,0.1,0.1
	c0.1,0,0.1,0.1,0.2,0.1l0.1,0.1c0.1,0.1,0.1,0.1,0.1,0.1s0,0.1,0.1,0.1s0.1,0.1,0.2,0.1v-0.4l0.1,0.1c0.1,0,0.1,0,0.1,0.1
	c0.1,0.1,0.1,0.1,0.1,0.1c0.1,0.1,0.2,0.1,0.3,0.3c0.1,0,0.1,0.1,0.1,0.1c0,0.1,0.1,0.1,0.1,0.1v0.1v0.1c0.1,0.1,0.1,0.2,0.3,0.2
	l-0.1,0.1c0.1,0,0.1-0.1,0.1-0.1c0.1,0,0.1,0,0.1,0.1c0.1,0.1,0.1,0.1,0.1,0.1v0.1c0.1,0.1,0.1,0.1,0.1,0.1c0.1-0.1,0.1-0.1,0.1,0
	c0.1,0,0.1,0.1,0.1,0.1c0,0.1,0.1,0.1,0.1,0.1h0.1c0,0.1,0.1,0.1,0.1,0.1c0.1,0.1,0.1,0.1,0.3,0.1l0.1,0.1l0.1,0.1
	c0.1,0.1,0.2,0.1,0.3,0.1c0.1,0,0.1,0,0.1,0.1c0.1,0.1,0.3,0.1,0.4,0.1c0.1,0,0.1,0.1,0.3,0.1c0.1,0.1,0.3,0.1,0.4,0.1h0.1
	c0.1,0,0.1,0,0.2,0.1c0.1,0,0.1,0.1,0.1,0c0.1,0,0.1,0,0.1,0.1h0.1c0.1,0.1,0.3,0.1,0.4,0.1h0.4c0.1,0,0.1,0.1,0.3,0.1h0.1
	c0.1,0.1,0.2,0.1,0.3,0.1c0,0,0.1,0,0.1,0.1c0.1,0.1,0.1,0.1,0.3,0.1h0.1v-0.3C21,26.2,21,26.3,21,26.3c-0.1,0-0.1,0-0.1,0.1
	c-0.1,0.1-0.1,0.1-0.1,0.1c-0.1,0.1-0.2,0.1-0.3,0.1c-0.1,0-0.1,0.1-0.2,0.1l-0.1,0.1c-0.1,0-0.3,0.1-0.3,0.1
	c-0.1,0.1-0.1,0.1-0.1,0.1c-0.1,0-0.3,0.1-0.4,0.1c-0.2,0.1-0.4,0.1-0.5,0.1c-0.1,0.1-0.1,0.1-0.2,0h-0.1c-0.1,0-0.3-0.1-0.3-0.1
	c0,0-0.1,0-0.1-0.1c-0.1-0.1-0.3-0.1-0.3-0.1c-0.1-0.1-0.1-0.1-0.3-0.1c-0.1-0.1-0.1-0.1-0.3-0.1c-0.1-0.1-0.1-0.1-0.2-0.1
	c-0.1-0.1-0.1-0.1-0.2-0.1c-0.1-0.1-0.2-0.1-0.3-0.1c-0.1,0-0.1-0.1-0.3-0.1c-0.1,0-0.1-0.1-0.1-0.1C16,26,16,25.9,15.9,25.9
	c0-0.1-0.1-0.1-0.1-0.1c-0.1,0-0.1-0.1-0.3-0.1c0-0.1-0.1-0.1-0.1-0.1c-0.1-0.1-0.1-0.1-0.3-0.2c-0.1-0.1-0.1-0.1-0.1-0.1
	c-0.1,0-0.1-0.1-0.1-0.1c-0.1-0.1-0.1-0.1-0.2-0.2c-0.1-0.1-0.2-0.1-0.3-0.1v-0.1c-0.1,0-0.1-0.1-0.1-0.2c-0.1,0.1-0.1-0.1-0.2-0.1
	c-0.1-0.1-0.1-0.1-0.1-0.1c-0.1,0-0.1-0.1-0.1-0.1c0,0-0.1,0-0.1-0.1s0-0.1-0.1-0.1s-0.1,0-0.1-0.1c-0.1-0.1-0.1-0.1-0.2-0.2
	c-0.1-0.1-0.2-0.1-0.3-0.1c-0.1-0.1-0.1-0.1-0.1-0.1L13,23.4v0.1c-0.1,0-0.1-0.1-0.1-0.1l-0.1-0.1c-0.1-0.1-0.2-0.2-0.3-0.3
	c-0.1-0.1-0.1-0.1-0.2-0.1c-0.1,0-0.2,0-0.2-0.1c-0.1-0.1-0.1-0.1-0.1-0.1H12l-0.1-0.1c0-0.1-0.1-0.1-0.1-0.1
	c-0.1-0.1-0.1-0.1-0.1-0.1l-0.1-0.1c-0.1,0-0.1,0-0.1-0.1c0,0-0.1,0-0.1,0V22c-0.1-0.1-0.1-0.1-0.1-0.1c-0.1,0-0.1,0-0.1-0.1
	c-0.1,0-0.1,0-0.1-0.1c-0.1-0.1-0.1-0.1-0.1-0.2c-0.1,0-0.1-0.1-0.1-0.1c-0.1,0-0.1,0-0.1-0.1c-0.1,0-0.1,0-0.1-0.1l-0.1-0.1v-0.1
	C10.4,21,10.4,21,10.4,21c-0.1-0.1-0.1-0.1-0.1-0.1c0-0.1,0-0.1-0.1-0.1c-0.1,0-0.1-0.1-0.1-0.1c-0.1,0-0.1-0.1-0.2-0.1v-0.1
	l-0.1,0.2c0-0.1-0.1-0.1-0.1-0.1c-0.1-0.1-0.1-0.1-0.3-0.1v-0.1l-0.1-0.1l-0.1-0.1c-0.1,0-0.1-0.1-0.1-0.1C9,20,9,19.9,9,19.9
	c-0.1-0.1-0.2-0.1-0.3-0.2c-0.1-0.1-0.1-0.1-0.2-0.1c-0.1,0-0.1-0.1-0.2-0.2c-0.1,0-0.1-0.1-0.1-0.1C8,19.2,8,19.2,8,19.2
	S8,19.1,8,19.1C7.9,19,7.9,19,7.9,19c-0.1,0-0.2-0.1-0.3-0.1c-0.1-0.1-0.1-0.1-0.1-0.1c0-0.1-0.9-0.8-0.9-0.9c0,0,0-0.1-0.1-0.1
	c0,0.9-0.1,1.6-0.1,1.6v0.3c0.1,0.1,0.1,0.3,0,0.4v0.3v0.1c0.1,0.1,0.1,0.3,0.1,0.3c0,0,0,0.1,0.1,0.1v-0.1c0,0.1,0,0.2-0.1,0.3v0.1
	v0.5V22V22c0.1,0.1,0,0.3,0,0.5c0.1,0.1,0,0.2,0,0.3c0,0.1,0.1,0.2,0.1,0.3c0,0.1,0,0.3,0.1,0.4c0,0.2,0.1,0.4,0,0.5v0.3
	c0,0.1,0.1,0.3,0,0.5v0.2c0,0.2,0.1,0.3,0,0.5v0.2v0.5v0.2v0.5v0.2c0.1,0.1,0,0.3,0,0.5V28c0,0.1,0.1,0.3,0,0.5v0.1
	c0.1,0.3,0.1,0.5-0.1,0.7v0.2v0.3v0.2v0.5c-0.1,0.1,0,0.1,0,0.2v0.5c-0.1,0.1-0.1,0.1,0,0.3V32c-0.1,0.1,0,0.1,0,0.3v0.1v0.4v0.1
	v0.3c0.1,0.1,0,0.1,0,0.2c-0.1,0.1,0,0.2,0,0.3V34v0.3v-0.2c0,0.1,0,0.3,0.1,0.3v0.3C6.7,34.9,6.7,35,6.7,35
	c0.1,0.2,0.1,0.5,0.1,0.7c-0.1,0.1-0.1,0.1,0,0.2v0.4c-0.1,0.1,0,0.3,0,0.4v0.3c-0.1,0.1,0,0.3,0,0.4s0.1,0.1,0.1,0.3
	c0.1,0.1,0.1,0.3,0.1,0.5c0,0.1,0,0.1,0.1,0.1c0.1,0.1,0.3,0.3,0.3,0.5C7.4,39,7.4,39,7.4,39c0.1,0.1,0.3,0.1,0.3,0.3
	c0.1,0.1,0.2,0.1,0.3,0.1h0.2c0.1,0.1,0.1,0.1,0.1,0.1h0.1l0.1,0.1h0.3c0.1,0,0.2,0.1,0.3,0.1c0.2,0.1,0.3,0.1,0.5,0.1
	c0.1,0,0.1,0.1,0.3,0.1c0.1,0.1,0.1,0.1,0.1,0.1H10h0.1c0,0,0.1,0,0.1-0.1l0.1,0.1c0.1-0.1,0.2,0,0.3,0c0.1,0,0.1-0.1,0.1-0.1
	c0.1-0.1,0.1-0.1,0.1-0.1c0.3-0.2,0.3-0.2,0.3-0.2c0.1,0,0.1,0,0.1,0.1c0,0.1,0.1,0.1,0.1,0.3c0.1,0,0.1,0,0.1-0.1
	c0.2-0.1,0.4,0,0.6,0.1c0.1,0,0.1,0,0.1,0.1h0.1c0.1-0.1,0.3-0.1,0.3,0c0.1,0.1,0.1,0.1,0.1,0c0-0.1,0.1-0.1,0.1,0v0.1
	c0.1,0,0.1,0,0.2-0.1c0.1,0,0.1,0,0.1-0.1c0.1,0,0.1,0.1,0.1,0c0.1-0.1,0.1-0.1,0.1-0.1h0.1c0.1,0,0.1,0,0.1,0.1s0.1,0.1,0.1,0
	c0.1-0.1,0.1-0.1,0.3-0.1c0.1,0,0.1,0,0.2,0.1c0,0.1,0,0.1,0.1,0.1c0.1-0.1,0.1-0.1,0.1-0.1h0.1v0.1c0.1,0,0.1,0,0.2-0.1
	c0.1,0,0.1,0,0.1-0.1h0.1h0.1c0.1,0,0.1,0,0.1-0.1c0.1,0.1,0.1,0.1,0.1,0.1c0.1,0,0.1,0,0.1,0.1c0.1,0,0.1-0.1,0.1-0.1
	c0.1-0.1,0.1-0.1,0.1-0.1l0.1,0.1c0.1,0.1,0.1,0.1,0.1,0.1h0.1c0.1,0,0.1,0.1,0.1,0.1c0.1-0.1,0.2,0.1,0.3,0.1h0.1
	c0.1-0.1,0.1-0.1,0.1-0.1c0,0,0-0.1,0.1-0.1h0.1c0.1,0.1,0.1,0.1,0.1,0h0.1c0.1,0,0.1-0.1,0.1-0.1c0.1-0.1,0.1-0.1,0.1-0.1
	c0.1,0.1,0.1,0.1,0.3,0.1c0.1,0.1,0.1,0,0.3,0h0.5c0.1,0,0.1,0.1,0.1,0.1c0.1,0,0.1-0.1,0.1-0.1c0,0,0.1,0,0.1,0.1
	c0.1-0.1,0.1-0.1,0.2-0.1c0.1,0.1,0.1,0.1,0.1,0.1s0.1-0.1,0.1-0.1c0,0,0,0.1,0.1,0.1c0,0.1,0.1,0.1,0.1,0c0,0,0.1,0,0.1,0.1
	c0.1,0.1,0.1,0.1,0.2,0.1c0.1-0.1,0.3-0.1,0.3,0.1l0.1-0.1c0.1,0.1,0.1,0.1,0.1,0.1h0.3c0.1,0.1,0.1,0,0.1-0.1H20h0.1
	c0.1,0,0.2-0.1,0.3-0.1c0.1-0.1,0.2-0.1,0.3,0.1c0.1,0,0.1,0.1,0.1,0.1h0.1c0.1,0,0.1,0,0.1-0.1c0.1,0,0.1,0,0.1,0.1h0.2
	c0.1-0.1,0.1-0.1,0.1,0c0.1,0,0.1,0.1,0.1,0.1l0.1,0.1c0.1-0.1,0.1-0.1,0.1-0.1c0,0.1,0.1,0,0.1,0c0.1-0.1,0.1-0.1,0.3-0.1h0.1v-0.1
	h0.1c0,0.1,0.1,0.1,0.1,0.1c0.1-0.1,0.1-0.1,0.1-0.1c0.1,0,0.1-0.1,0.1-0.1c0-0.1,0.1-0.1,0.1-0.1c0.1,0,0.1,0.1,0.1,0.1
	c0,0,0.1,0,0.1-0.1h0.1c0.1,0,0.1,0,0.2-0.1h0.1c0.1,0,0.1,0,0.1,0.1c0,0.1,0,0.1,0.1,0.1c0.1,0.1,0.1,0.1,0.3,0.1
	c0.1,0,0.1,0,0.1,0.1c0.1,0.1,0.1,0,0.1,0H24c0.1,0.1,0.1,0.1,0.1,0c0.1,0.1,0.2,0.1,0.3,0.1h0.1c0.1-0.1,0.1-0.1,0.1,0
	c0.1-0.1,0.1-0.2,0.1-0.3c0.1,0,0.1,0,0.1,0.1c-0.1,0.1,0,0.1,0.1,0.1H25c0.1,0.1,0.1,0.1,0.3,0.1c0.1-0.1,0.1-0.1,0.2-0.1
	c0.1,0.1,0.1,0.1,0.2-0.1c0.1-0.1,0.1-0.1,0.1-0.1h0.1c0.1,0,0.1,0,0.1-0.1c0.1,0,0.1,0,0.1,0.1c0.1,0,0.1,0,0.1-0.1
	c0.1,0,0.1-0.1,0.1,0c0.1,0,0.1,0,0.1-0.1c0.1,0,0.1,0.1,0.1,0.1h0.1c0.1,0,0.1,0.1,0.1,0.1h0.1c0.1,0.1,0.1,0.1,0.1,0.1
	c0.1,0,0.1-0.1,0.1-0.1c0.1,0,0.3-0.1,0.4-0.1h0.1c0.1,0.1,0.1,0.1,0.3,0.1h0.1h0.1h0.1c0.1-0.1,0.1-0.1,0.1-0.1h0.3
	c0-0.1,0.1-0.1,0.1-0.1c0.1-0.1,0.1-0.1,0.1,0c0.1,0,0.1,0,0.1-0.1v-0.1c0-0.1,0-0.1,0.1-0.1h0.1c0.1,0.1,0.1,0.1,0.2,0.1
	c0.1,0,0.1,0.1,0.1,0.1c0.1,0.1,0.1,0.1,0.1,0.1c0.1-0.1,0.1-0.1,0.2-0.1c0.1,0.1,0.1,0.1,0.1,0.1H30c0-0.1,0.1-0.1,0.1-0.1
	c0.2-0.1,0.5-0.1,0.7-0.1c0.1,0,0.1,0,0.1-0.1c0-0.1,0.1-0.1,0.1-0.1c0.1,0.1,0.1,0.1,0.1,0h0.1V39h0.1v0.1c0,0,0.1,0.1,0.1,0
	c0-0.1,0.1-0.1,0.1-0.1c-0.1-0.1-0.1-0.1-0.1-0.1c0,0-0.1,0-0.1-0.1l-0.1,0.1v-0.1c0-0.1,0.1-0.1,0.1,0c0.1,0,0.1,0.1,0.1,0.1
	l0.1,0.1c0.1,0,0.1-0.1,0.1-0.1c0.1,0.1,0.2,0.1,0.3,0.1c0.1-0.1,0.2-0.1,0.3-0.1c0.1,0,0.1-0.1,0.1-0.1c0.1-0.2,0.3-0.5,0.4-0.6
	l0.1-0.1c0.1-0.1,0.1-0.3,0.2-0.4c0-0.1,0.1-0.1,0-0.1c0-0.3,0.1-0.5,0.1-0.7v-0.1c0.1-0.1,0.1-0.2,0.2-0.3v-0.1v-0.1
	c0-0.1,0-0.1-0.1-0.1c0.1-0.1,0-0.2,0.1-0.3v-0.1c0.1-0.1,0-0.3-0.1-0.4c-0.1,0-0.1,0-0.1-0.1C33,35,33,35,32.9,35
	c-0.1-0.1-0.1-0.1-0.1,0L32.7,35c0,0.1,0,0.1-0.1,0.1V35c0-0.1,0.1-0.1,0.1-0.1c0.1,0.1,0.1,0.1,0.1,0.1l0.1-0.1
	c0.1-0.1,0.1-0.1,0.1-0.1c0.1-0.1,0.1-0.1,0.1-0.2s0-0.1-0.1-0.1c0-0.1,0-0.1-0.1-0.3v0.1C32.9,34,32.9,34,32.9,34
	c0.1-0.1,0-0.1,0-0.1s-0.1-0.1-0.1-0.1h-0.1c0-0.1,0-0.1,0.1-0.1c0.1-0.1,0.3-0.1,0.3-0.3c0-0.1,0.1-0.2,0-0.3V33
	c0.1-0.1,0.1-0.2-0.1-0.3c-0.1-0.1-0.1-0.2,0-0.3c0.1-0.1,0-0.1,0-0.3C33,32,32.9,32,32.9,31.9v-0.1c0,0,0-0.1-0.1-0.1
	c0-0.1,0-0.1,0.1-0.2v-0.1c0-0.1,0.1-0.1,0.1-0.1l0.1-0.1v-0.3c0-0.1-0.1-0.1-0.1-0.1c0-0.1,0-0.1,0.1-0.1c0-0.1,0.1-0.1,0.1-0.1
	v-0.3c0-0.1,0-0.3-0.1-0.5C33,29.7,33,29.7,33,29.6s-0.1-0.1-0.1-0.1c0.1-0.1,0-0.1,0-0.1v-0.3v-0.3v-0.1c0-0.1,0-0.1,0.1-0.1
	c0.1-0.1,0.1-0.1,0.1-0.1c0-0.1,0-0.3-0.1-0.3c0-0.1,0-0.3,0.1-0.3v-0.2c0-0.1-0.1-0.2-0.1-0.3c0.1,0,0.1-0.1,0.1-0.2v-0.2
	c0-0.1,0-0.1,0.1-0.1v-0.1c0-0.1-0.1-0.3-0.1-0.4V26v-0.1v0.3v-0.4c-0.1-0.2-0.1-0.4,0-0.6c0,0,0.1,0,0.1-0.1c-0.1-0.2,0-0.5,0-0.7
	V24v-0.3c-0.1-0.2,0-0.3,0-0.5s0-0.3-0.1-0.4l-0.1-0.1c0,0-0.1,0-0.1-0.1c0-0.1,0-0.1,0.1-0.1c0.1-0.1,0.1-0.2,0.1-0.3V22
	c-0.1-0.1-0.1-0.1,0-0.2c0,0,0.1,0,0.1-0.1c0.1,0,0.1-0.1,0-0.1c0-0.1,0-0.1,0.1-0.2v-0.1v-0.5v-0.1v-0.5V20c0-0.1-0.1-0.1-0.1-0.1
	h-0.1c0-0.1,0-0.1-0.1-0.1c0-0.1-0.1-0.1,0-0.1c0,0,0.1-0.1-0.1-0.1c0,0,0-0.1,0.1-0.1v0.1c0.1,0.1,0.1,0.1,0.1,0.1
	c0.1-0.1,0.1-0.1,0.1-0.1v0.1v-0.2v-0.3v-0.4v-0.1c0-0.1,0-0.1-0.1-0.1V18v-0.1c0.1-0.1,0.1-0.3,0.1-0.4v-0.3c0-0.1-0.1-0.2-0.1-0.3
	v-0.3c0-0.1,0-0.1-0.1-0.2c0-0.2-0.1-0.4,0-0.5v-0.3c-0.1-0.1-0.1-0.3-0.1-0.3v-0.1c0.1-0.1,0.1-0.3,0.1-0.4v-0.3v-0.3v-0.4v-0.1
	v-0.1c0.1-0.1,0.1-0.1,0.1-0.1v-0.3L32.9,13c-0.1-0.1-0.1-0.1,0-0.1c0.1-0.1,0.1-0.3,0-0.5c-0.1-0.1-0.1-0.1-0.1-0.1
	c-0.1-0.1,0-0.1,0-0.1V12c-0.1-0.1-0.1-0.3,0-0.5c0.1-0.1,0.1-0.2,0.1-0.3v-0.3c0.1-0.1,0-0.1,0-0.1c-0.1,0-0.1-0.1-0.1-0.1
	c0-0.1-0.1-0.2,0-0.3v-0.2c0.1-0.1,0.1-0.3,0.1-0.5V9.5C33,9.4,33,9.2,33,9.1C33,9,32.9,9,32.8,8.8c-0.1,0-0.1-0.1-0.1-0.1
	c-0.1,0-0.1-0.1-0.1-0.1c0-0.1,0.1-0.1,0.1-0.1c-0.1-0.1-0.1-0.2-0.1-0.3c-0.1-0.1-0.1-0.1,0-0.1l0.1-0.1h0.1c0-0.1,0.1-0.3,0.1-0.4
	c0-0.1,0-0.2,0.1-0.3V7.4c0-0.1,0-0.2-0.1-0.3c-0.1-0.1-0.1-0.1-0.1-0.3V6.6c0-0.1,0.1-0.1,0.1-0.1V6.4c-0.1-0.1,0-0.1,0-0.3
	C32.8,6,32.8,6,32.9,6c0-0.1,0.1-0.1,0.1-0.1C33,5.8,33,5.7,33,5.7c0-0.1,0.1-0.1,0.1-0.3c0,0.6,0,0.6,0,0.5c0-0.1,0-0.2-0.1-0.3
	V5.4c0-0.1-0.1-0.1-0.1-0.1C33,5.3,33,5.3,33,5.2C32.9,5.1,33,5,33,4.9C33.1,4.8,33.1,4.7,33.1,4.6z M7.9,19.5c0,0-0.1-0.1,0-0.1
	C7.9,19.4,8,19.4,7.9,19.5C8,19.5,8,19.5,7.9,19.5z M10.3,22.1C10.4,22,10.4,22,10.3,22.1L10.3,22.1z M10.5,22.6
	C10.6,22.6,10.5,22.6,10.5,22.6L10.5,22.6z"/>
</svg>
