<?xml version="1.0" encoding="utf-8"?>
<!-- Generator: Adobe Illustrator 25.2.3, SVG Export Plug-In . SVG Version: 6.00 Build 0)  -->
<svg version="1.1" id="Layer_1" xmlns="http://www.w3.org/2000/svg" xmlns:xlink="http://www.w3.org/1999/xlink" x="0px" y="0px"
	 viewBox="0 0 40 40" style="enable-background:new 0 0 40 40;" xml:space="preserve">
<style type="text/css">
	.st0{fill:#D50032;}
</style>
<path class="st0" d="M6.6,23.7v1.1v0.1V25v1.1v0.1v0.2v0.9l0.1,0.1h0.1c0.3,0.1,0.5,0.1,0.7,0.1c0.1,0,0.1,0.1,0.1,0.1
	c0.1,0.1,0.3,0.1,0.5,0.2c0.2,0.1,0.4,0.1,0.6,0.2h0.1c0.1-0.1,0.1-0.2,0.2-0.2c0.1-0.1,0.1-0.1,0.1-0.3c-0.1-0.1-0.1-0.1,0-0.1
	C9,27.3,9,27.2,9,27.1v-0.1c0,0-0.1,0-0.1-0.1C8.9,26.9,9,26.9,9,26.7c0-0.1,0.1-0.1,0.1-0.3c0.1-0.1,0.1-0.1,0.1-0.3
	s0.1-0.2,0.1-0.3v-0.3v-0.1c0.1-0.1,0.1-0.2,0.1-0.3C9.4,25.1,9.4,25,9.4,25c0-0.1,0-0.2,0.1-0.3c0-0.1,0-0.2,0.1-0.3
	c0,0,0.1,0,0.1,0.1c0.1,0.1,0.1,0.1,0.1,0.1c0.1,0.1,0.1,0.1,0.2,0.1c0.1,0.1,0.3,0.1,0.4,0.1c0.1,0,0.1-0.1,0.1-0.1
	c0.1,0.1,0.3,0,0.5-0.1c0.1,0,0.1-0.1,0.2-0.1l0.1,0.1c0-0.1,0.1-0.1,0.1-0.1c0.1-0.1,0.1-0.2,0.2-0.3c0.1-0.1,0.2-0.1,0.3-0.3
	c0,0,0.1-0.1,0.1-0.1c0.1-0.1,0.2-0.2,0.3-0.3s0.1-0.3,0.2-0.3c0.1,0,0.1-0.1,0.1-0.1c0,0,0.1-0.1,0.1-0.1l0.4-0.3
	c0.1-0.1,0.1-0.2,0.3-0.3c0-0.1,0.1-0.1,0.1-0.2c0.1-0.1,0.3-0.3,0.3-0.4c0.1-0.1,0.1-0.2,0.3-0.3s0.2-0.2,0.3-0.3l0.1-0.1
	c0.1-0.1,0.3-0.3,0.3-0.5c0.1-0.1,0.1-0.1,0.1-0.1c0.3-0.1,0.3-0.3,0.5-0.4c0-0.1,0.1-0.1,0.1-0.1s0.1-0.1,0.1-0.1
	c0.1-0.1,0.3-0.3,0.3-0.4c0.1-0.1,0.1-0.2,0.3-0.2h0.1c0.1-0.1,0.1-0.1,0.2-0.1s0.2-0.1,0.3-0.2c0.1-0.1,0.1-0.3,0.3-0.3
	c0.1,0,0.1-0.1,0.1-0.1V18c0.1-0.1,0.1-0.1,0.1-0.1c0.1-0.1,0.2-0.1,0.3-0.3s0.3-0.2,0.3-0.3c0.1,0,0.1-0.1,0.1-0.1s0.1-0.1,0.1-0.1
	s0-0.1,0.1-0.1c0.1,0,0.1-0.1,0.2-0.1c0.1-0.1,0.2-0.1,0.3-0.1c0.1-0.1,0.3-0.1,0.3-0.2s0.1-0.1,0.3-0.2c0.1-0.1,0.1-0.1,0.2-0.1
	C18.9,16,18.9,16,19,16c0-0.1,0.1-0.1,0.1-0.1c0.1-0.1,0.3-0.3,0.5-0.3c0,0,0.1,0,0.1-0.1c0.1-0.1,0.3-0.1,0.3-0.3
	c0.3-0.1,0.3-0.3,0.5-0.3v-0.1c0.1,0,0.3-0.1,0.4-0.2c0-0.1,0.1-0.1,0-0.2c-0.1,0.1-0.5,0.3-0.7,0.4c-0.1,0-0.1,0.1-0.3,0.1
	c-0.1,0.1-0.2,0.1-0.3,0.1s-0.1,0.1-0.2,0.1c-0.1,0.1-0.3,0.1-0.3,0.1h-0.1c-0.1,0-0.1,0-0.1,0.1c-0.1,0-0.1,0.1-0.1,0.1
	s-0.1,0.1-0.1,0.1c-0.1,0.1-0.1,0.1-0.2,0.1c-0.1,0-0.1,0.1-0.1,0.1c-0.1,0.1-0.3,0.1-0.4,0.3c0,0.1-0.1,0.1-0.1,0.1
	c-0.1,0-0.3,0.1-0.3,0.1c0,0-0.1,0-0.1,0.1c-0.1,0-0.1,0.1-0.2,0.1c-0.1,0-0.1,0.1-0.1,0.1c-0.1,0.1-0.2,0.1-0.3,0.1
	c-0.1,0.1-0.1,0.1-0.1,0.1s0.1-0.1,0,0c-0.1,0.1-0.3,0.1-0.5,0.3c-0.1,0.1-0.1,0.1-0.1,0.1C16.4,17,16.3,17,16.2,17
	c-0.1,0.1-0.2,0.2-0.3,0.2c-0.1,0.1-0.3,0.1-0.5,0.3c-0.1,0.1-0.1,0.1-0.2,0.1L15,17.7l-0.1-0.1v-0.3c-0.2,0.1-0.3-0.1-0.5-0.2h-0.1
	c-0.1,0-0.1-0.1-0.1-0.1c0-0.1-0.1-0.1-0.1-0.1c-0.1-0.3-0.2-0.5-0.5-0.7c0-0.1,0-0.1-0.1-0.2h-0.1c-0.1,0.1-0.1,0.1-0.1,0
	c0-0.1-0.1-0.1-0.1-0.1c-0.1,0-0.1-0.1-0.2-0.1s-0.1-0.1-0.1-0.1c-0.2,0-0.3-0.1-0.5-0.2c-0.2-0.1-0.3-0.2-0.5-0.3
	c-0.1,0-0.1-0.1-0.1-0.1s-0.1,0.1-0.3,0.1v-0.1c-0.1-0.1-0.1-0.1-0.1-0.1c-0.1-0.1-0.2-0.1-0.3-0.1h-0.5c-0.2-0.1-0.4-0.1-0.6-0.3
	h-0.1c-0.1,0.1-0.3-0.1-0.4-0.2c-0.1,0-0.1,0-0.1,0.1c-0.1-0.1-0.1-0.1-0.1-0.1c-0.1-0.1-0.1-0.1-0.2-0.1c-0.1-0.1-0.1-0.1-0.3-0.1
	c-0.1,0-0.1,0-0.1-0.1c0-0.1-0.1-0.1-0.1-0.1c-0.1,0-0.1-0.1-0.3-0.1c-0.1-0.1-0.2-0.1-0.3-0.1c-0.1,0.1-0.3,0.1-0.5,0.1
	c-0.1,0-0.2,0-0.3-0.1c-0.1,0-0.1,0-0.1-0.1c-0.1,0-0.3-0.1-0.4-0.1c-0.1,0-0.1,0-0.1-0.1c-0.1,0-0.1,0-0.1-0.1
	c0,0.1,0.1,0.3,0.1,0.3V15c0.1,0.6,0.1,1.1,0.1,1.7c0,0.1,0,0.1,0.1,0.1C7,16.9,7,17,7,17v2.6c0,0.1,0,0.2-0.1,0.3
	c-0.1,0.1-0.1,0.3-0.1,0.4s-0.1,0.1-0.1,0.3v0.1v0.5v0.1c0.1,0.1,0.1,0.3,0,0.5C6.7,21.9,6.7,22,6.7,22c-0.3,0.2-0.3,0.4-0.3,0.5
	c0.1,0.3,0,0.7,0.1,1L6.6,23.7L6.6,23.7z"/>
<path class="st0" d="M20.7,18.9c0-0.1,0-0.1-0.1-0.1c-0.1-0.1-0.1-0.1-0.1,0v0.1c-0.1-0.1-0.2-0.1-0.3,0.1c0,0.1-0.1,0.1-0.1,0.1
	c0,0,0,0.1-0.1,0.1c-0.1,0.1-0.1,0.1-0.2,0.2c-0.1,0.1-0.3,0.1-0.3,0.3c0,0.1-0.1,0.1-0.1,0.1c-0.1,0-0.1,0.1-0.1,0.1
	c-0.1,0.1-0.1,0.1-0.2,0.2c-0.1,0.1-0.2,0.3-0.3,0.3s-0.2,0.2-0.3,0.3c-0.1,0.1-0.2,0.1-0.3,0.3c-0.1,0.1-0.1,0.2-0.2,0.3
	c-0.1,0-0.1,0-0.1,0.1s-0.1,0.1-0.3,0.1c0,0.1-0.1,0.1-0.1,0.1c0,0.1-0.1,0.1-0.1,0.1c-0.1,0.1-0.2,0.1-0.2,0.2
	c0,0.1-0.1,0.1-0.1,0.2c0,0.1-0.1,0.1-0.1,0.1c-0.1,0.1-0.1,0.1-0.1,0.3c0,0-0.1,0-0.1,0.1c-0.1,0-0.1,0.1-0.1,0.1
	c-0.1,0.1-0.1,0.1-0.3,0.2l-0.1,0.1C16.6,23,16.6,23,16.6,23l-0.3-0.1V23c-0.1,0.1-0.2,0.1-0.3,0.3c-0.1,0.1-0.1,0.1-0.3,0.3
	c-0.1,0-0.1,0.1-0.1,0.1c-0.1,0-0.1,0.1-0.2,0.1c-0.1,0-0.1,0.1-0.1,0.1c0,0.1-0.1,0.2-0.1,0.3c-0.1,0.2-0.2,0.4-0.4,0.5
	c0,0-0.1,0.1-0.1,0.1c0.1,0.1-0.1,0.2-0.1,0.3c-0.1,0.1-0.1,0.1-0.1,0.3c0.1,0.1,0.2,0.1,0.3,0.1c0.2,0,0.3,0,0.5,0.1
	c0.1,0,0.1,0,0.3,0.1c0.1-0.1,0.1-0.1,0.1-0.1c0.1-0.1,0.1-0.1,0.1-0.1c-0.1-0.1,0-0.1,0.1-0.3c0.1-0.1,0.1-0.1,0.1-0.1
	c-0.1-0.1,0-0.3,0.1-0.4c0.1,0,0.1-0.1,0.3-0.1c0.1,0.1,0.1,0,0.2-0.1c0.1,0,0.1-0.1,0.1-0.1c0.1-0.1,0.3-0.3,0.4-0.4
	s0.3-0.3,0.4-0.5c0.1,0,0.1-0.1,0-0.1c0-0.1,0.1-0.2,0.1-0.2c0.1,0,0.2-0.1,0.3-0.1s0.1-0.1,0.2-0.1s0.1-0.1,0.1-0.1
	c0.1,0,0.1-0.1,0.2-0.1c0.1-0.1,0.1-0.3,0.2-0.3c0,0,0-0.1,0.1-0.1c0.1-0.2,0.2-0.3,0.3-0.4c0.1-0.1,0.1-0.1,0.1-0.1
	c0.1-0.1,0.1-0.1,0.2-0.3c0.1-0.1,0.1-0.1,0.1-0.2c0.1-0.1,0.3-0.3,0.3-0.4c0.1-0.1,0.2-0.2,0.3-0.3c-0.1-0.1,0.1-0.1,0.1-0.1
	c-0.1,0-0.1-0.1-0.1-0.1c0-0.1,0.1-0.1,0.1-0.1c0.1-0.1,0.1-0.2,0.1-0.3l0.1-0.1c0.1-0.1,0.1-0.1,0.1-0.1c0.1,0,0.1-0.1,0.1-0.1
	c0.1-0.1,0.1-0.1,0.1-0.2s0.1-0.2,0.1-0.3C20.7,19.1,20.7,19,20.7,18.9z"/>
<path class="st0" d="M33.2,3.9c0.1-0.3,0-0.5,0-0.7V3c0.1-0.3,0.1-0.5,0-0.7c0-0.1-0.1-0.3-0.1-0.4c-0.1-0.3-0.3-0.5-0.3-0.7
	c-0.1-0.2-0.3-0.3-0.4-0.5c-0.1-0.1-0.1-0.1-0.2-0.1c-0.3,0-0.5-0.1-0.7-0.3c-0.1-0.1-0.1-0.1-0.2-0.1H31c-0.1,0-0.1,0-0.3,0.1
	c-0.1,0-0.1-0.1-0.1-0.1h-0.1c-0.1,0-0.2,0.1-0.3,0.1c-0.2,0-0.4,0-0.5,0.1h-0.3c-0.1-0.1-0.2-0.1-0.3,0.1c-0.2-0.1-0.3-0.1-0.5-0.1
	h-0.1c-0.1,0-0.3,0.1-0.3,0.1C28.2,0,28,0.1,27.8,0.1c-0.3,0.1-0.5,0.3-0.7,0.5c-0.1,0-0.1-0.1-0.2-0.1c-0.1-0.1-0.1-0.1-0.1-0.2
	c-0.1-0.1-0.1-0.1-0.2-0.1h-0.5h-0.5h-1.7c-0.5,0.1-1.1,0.1-1.7,0.1c-0.2,0-0.4,0-0.7-0.1c-0.1-0.1-0.3,0-0.5,0
	C20.5,0,19.6,0,18.7,0h-1.1H17c-0.1,0-0.1,0.1-0.2,0.1h-0.1c-0.3,0-0.3,0-0.3,0c-0.3,0.1-0.5,0-0.9,0c-0.1,0-0.3,0.1-0.4,0.1
	c-0.1,0-0.1,0.1-0.3-0.1c-0.1-0.1-0.1-0.1-0.2-0.1h-0.4c0.1,0.1,0.1,0.2,0.1,0.3c-0.1,0.1-0.1,0-0.2-0.1c0,0,0-0.1-0.1-0.1
	C14,0.1,14,0.1,14,0.2c0,0.1-0.1,0.1-0.1,0.1V0.1h-0.1c-0.3,0-0.7,0-0.9,0.1c-0.1,0-0.2,0-0.3,0h-0.1c0.1,0.1,0.1,0.1,0,0.1
	s-0.1,0-0.1-0.1c0-0.1-0.1-0.1-0.3-0.1c-0.1,0.1-0.3,0-0.4,0.1c-0.1,0-0.3,0.1-0.3,0.1h-1.1H9.6H9.5C9.3,0.5,9,0.5,8.8,0.5H8.6
	C8.2,0.4,8.2,0.5,8,0.7C8,0.7,7.9,0.6,7.8,0.6c-0.1,0-0.1,0-0.2,0.1c0,0.1-0.1,0.2-0.2,0.3C7.4,1,7.4,1,7.4,1
	C7.2,1.1,7.2,1.1,7.2,1.3c0,0.1,0,0.1-0.1,0.1C7.1,1.4,7.1,1.5,7.1,1.7C7.1,1.8,7.1,1.8,7,2C6.9,1.9,6.9,2,6.9,2v0.4
	C7,2.6,6.9,2.8,6.9,3c0,0.1-0.1,0.2-0.1,0.3c0.1,0.1,0.1,0.1,0,0.1c0,0.1-0.1,0.1-0.1,0.2C6.8,3.8,6.8,3.9,6.8,4
	c0,0.1,0,0.1-0.1,0.1v0.1c0.1,0.2,0.1,0.4,0,0.6C6.7,5,6.8,5,6.8,5c0.1,0.1,0.3,0.3,0.3,0.3c0.1,0.1,0.1,0.1,0.2,0.1
	c0.1,0.1,0.1,0.2,0.1,0.3s0.1,0.3,0.1,0.3v0.1c-0.1,0.1,0.1,0.3,0,0.5c0,0.1,0.1,0.2,0.1,0.3c0.1,0.1-0.2,0.5-0.3,0.5
	C7.2,7.7,7.2,7.7,7.1,7.8C7.1,7.9,7.1,7.9,7.1,7.9C6.9,8.1,6.8,8.3,6.8,8.4C6.7,8.6,6.7,8.8,6.7,9v0.1c-0.1,0.3,0,0.6,0,0.9v0.3
	c-0.1,0.2,0,0.4,0.1,0.5c0.1,0.1,0.1,0.3,0.1,0.4s0,0.3,0.1,0.3v0.1c0,0.1-0.1,0.2-0.1,0.3c-0.1,0.3-0.1,0.5-0.1,0.9
	c-0.1,0.1-0.1,0.4-0.1,0.7c0.1-0.2,0.1-0.5,0.1-0.5l0.1,0.1c0.3,0.1,0.5,0.2,0.8,0.3c0.2,0.1,0.5,0.1,0.7,0.2c0.1,0,0.1,0.1,0.3,0.1
	c0,0,0.1,0,0.1,0.1C8.8,14,8.9,14.1,9,14.1c0.1,0,0.1,0.1,0.3,0.1c0.1,0.1,0.3,0.1,0.4,0.1c1,0.3,2,0.7,3,1.1c0.1,0,0.3,0.1,0.4,0.1
	c0.1,0,0.2-0.1,0.3-0.1l0.1-0.3l0.1-0.1c0.1-0.1,0.1-0.1,0.2-0.1c0.1-0.1,0.1-0.2,0.1-0.3c0.1,0,0.1-0.1,0.1-0.1
	c0.1,0.1,0.1,0.1,0.3,0c0.1-0.1,0.2-0.1,0.3-0.2c0.1,0,0.1-0.1,0.3-0.1h0.1c0.1,0.1,0.1,0,0.2-0.1c0-0.1,0.1-0.1,0.1-0.1
	c0.1,0,0.2-0.1,0.3-0.1s0.2-0.1,0.3-0.1s0.2,0,0.3-0.1H16c0.1-0.1,0.1-0.1,0.3-0.1c0.1,0,0.3-0.1,0.3-0.1s0.1-0.1,0.3-0.1
	s0.2-0.1,0.3-0.1s0.1-0.1,0.2-0.1c0.1,0,0.2-0.1,0.3-0.1l0.5-0.1c0.1,0,0.1-0.1,0.3-0.1c0.1-0.1,0.1-0.1,0.2-0.1
	c0.2,0,0.2,0,0.3-0.1c0,0,0.1,0,0.1,0.1c0.1-0.1,0.1-0.1,0.3-0.1l0.1-0.1c0.1-0.1,0.1-0.1,0.1-0.1c0.1,0,0.1,0.1,0.1,0.1
	c0,0,0.1,0,0.1-0.1c0.1-0.1,0.1-0.1,0.2,0c0.1-0.1,0.1-0.1,0.3-0.1C19.9,12,20,12,20,12c0.1,0.1,0.3-0.1,0.4-0.1
	c0.1,0.1,0.2,0,0.3-0.1c0,0,0.1-0.1,0.1,0c0.1,0.1,0.2-0.1,0.3-0.1c0,0.1,0.1,0.1,0.1,0.1c0,0.1,0.1,0,0.1,0s0.1-0.1,0.2,0
	c0.1-0.1,0.1-0.1,0.3-0.1h0.3c0.1,0,0.2-0.1,0.3-0.1h0.1c0.1,0,0.3-0.1,0.5-0.1s0.3-0.1,0.4-0.1v-0.1c0.1,0.1,0.1,0.1,0.2,0.1
	c0.1,0.1,0.1,0.1,0.2,0.1c0.1-0.1,0.1-0.1,0.2-0.1s0.1-0.1,0.2-0.1c0.1,0.1,0.3,0.1,0.3,0.1h0.2c0,0.1,0.1,0.3,0.3,0.3
	c0,0.1-0.1,0.1-0.1,0.1s0.1,0.1,0.1,0.1s0.1,0,0.1-0.1c0,0.1,0.1,0.2,0.2,0.2c0.1,0.2,0.3,0.3,0.5,0.5c0.1,0,0.1,0.1,0.1,0.1v0.1
	c0.1,0,0.1,0.1,0.1,0.1c0,0.1,0.1,0.1,0.1,0.1c0.1,0.1,0.1,0.1,0.1,0.2c0,0,0,0.1,0.1,0.1c0.1,0.1-0.1,0.1,0.1,0.2
	c0.1,0,0.1,0.1,0.1,0.1c0.1,0.2,0.2,0.4,0.3,0.5l0.1,0.1c0,0.1,0.1,0.2,0.1,0.3c0,0.1,0.1,0.1,0.1,0.1c0.1,0.1,0.1,0.3-0.1,0.3
	c-0.1,0.1-0.1,0.1-0.1,0.3c0,0.1-0.1,0.1-0.1,0.1h-0.3c-0.1,0-0.2,0.1-0.3,0.1c-0.1,0.1-0.1,0.1-0.3,0.1v0.1
	c-0.1,0.1-0.3,0.1-0.3,0.1c-0.2,0.1-0.4,0.1-0.5,0.3c-0.1,0-0.1,0.1-0.2,0.1c-0.1,0.1-0.1,0.1-0.2,0.1c-0.1,0-0.2,0.1-0.3,0.1
	c0,0.1-0.1,0.1-0.1,0.1s-0.1,0.1-0.1,0.1c-0.2,0.1-0.3,0.2-0.5,0.3c-0.1,0.1-0.3,0.2-0.5,0.3c-0.1,0-0.2,0.1-0.3,0.2
	c-0.1,0.1-0.1,0.1-0.2,0.1c-0.2,0.1-0.3,0.1-0.5,0.3C22.2,18,22,18,22,18c-0.1,0.1-0.3,0.1-0.4,0.2s-0.2,0.3-0.1,0.5v0.1
	c0,0.1,0.1,0.1,0.1,0.1h0.1c0,0.1,0.1,0.1,0.1,0.1h0.1c0.1,0.1,0.1,0.1,0.1,0.1H22c0.1,0.1,0.3,0.1,0.4,0.1h0.1
	c0.1,0.1,0.3,0.1,0.3,0.2s0.3,0.1,0.3,0.1s0.2,0.1,0.3,0.2s0.2,0.1,0.3,0.1c0.1,0.2,0.1,0.4,0.3,0.5c0.1,0.1,0.1,0.2,0.1,0.3
	c0,0.1,0,0.2-0.1,0.3s-0.1,0.1-0.3,0.1c-0.1-0.1-0.3,0.1-0.3,0.2c-0.1,0-0.2,0.1-0.3,0.1s-0.1,0.1-0.2,0.1c0,0.1-0.1,0.1-0.1,0.1
	c0.2-0.5,0.2-0.5,0.1-0.5c-0.1,0.1-0.2,0.2-0.3,0.3c-0.1,0.1-0.2,0.2-0.3,0.3c-0.1,0.1-0.1,0.2-0.3,0.3C22,22.1,22,22.2,22,22.2
	c-0.1,0.1-0.1,0.2-0.3,0.3c-0.1,0-0.1,0.1-0.2,0.1c0,0-0.1,0-0.1,0.1c0,0.1-0.1,0.1-0.1,0.2c0,0.1-0.1,0.1-0.1,0.1s-0.1,0.1-0.1,0.1
	s-0.1,0.1-0.1,0.1c-0.1,0.1-0.1,0.2-0.2,0.3l-0.1,0.1c-0.2,0.1-0.3,0.1-0.3,0.3c0,0.1-0.1,0.3-0.2,0.3c-0.1,0-0.1,0-0.1,0.1
	c0.1,0.1-0.1,0.1-0.1,0.2c0,0.1-0.1,0.1-0.1,0.1c-0.1,0.1-0.1,0.1-0.1,0.1c0.1,0.1,0.1,0.3,0.1,0.5c-0.1,0.1-0.1,0.1-0.2,0.3
	c0.1,0,0.1,0.1,0.1,0.1c0.9,0,1.8,0,2.6-0.1c0.1,0,0.1,0.1,0.1,0c0-0.1,0.1,0,0.1,0h0.3c0.3,0.1,0.5,0.1,0.8,0c0.2,0,0.5,0.1,0.7,0
	h0.1l0.1,0.1c0.6-0.1,1.2,0,1.7,0c0.1,0,0.1-0.1,0.1-0.1h0.2c0.1,0,0.2,0.1,0.3-0.1c0.1,0.1,0.1,0,0.3,0c0.1,0,0.2-0.1,0.3-0.1
	c0.3-0.1,0.5-0.1,0.7-0.1c0.1,0,0.1-0.1,0.2-0.1c0.1,0.1,0.1,0.1,0.1,0h0.1c0.1,0.1,0.3-0.1,0.4-0.1c0-0.1,0.1-0.1,0.1-0.1
	c0.1,0,0.1,0,0.1,0.1c0.1,0.1,0,0.1,0,0.1c-0.1,0.1-0.1,0.1-0.2,0.1c-0.1,0.1-0.1,0.1-0.1,0.1s-0.1,0.1-0.1,0.2S29,25.7,29,25.7
	c-0.1,0.1-0.1,0.1-0.2,0.1l-0.1,0.1c0,0.1-0.1,0.1-0.1,0.1s-0.2,0.1-0.3,0.1c-0.1,0.1-0.1,0.1-0.3,0.1c-0.1,0-0.1,0.1-0.1,0
	c-0.1-0.1-0.1,0-0.1,0.1s-0.2,0.1-0.3,0.1h-0.9c-0.1,0-0.2-0.1-0.3,0h-0.5c-0.1-0.1-0.3,0-0.5,0c-0.1-0.1-0.3-0.1-0.5,0.1
	c-0.1,0.1-0.1,0.1-0.1,0s0-0.1-0.1-0.1h-0.7h-1.6h-0.9c-0.3,0.1-0.6,0.1-0.9,0c-0.1,0-0.1,0-0.1,0.1h-0.2c-0.1-0.1-0.2-0.1-0.3,0
	c-0.1,0-0.2-0.1-0.3-0.1h-0.2h-0.2c-0.1,0-0.1-0.1-0.2-0.1s-0.2,0-0.3,0.1s-0.1,0.1-0.2,0c-0.1,0-0.2,0-0.3-0.1
	c-0.1,0-0.2,0-0.3,0.1c-0.3-0.1-0.5-0.1-0.7-0.1c-0.1,0-0.1,0-0.3,0.1c-0.1,0-0.1,0-0.1-0.1H17c0,0-0.1-0.1-0.1-0.1L16.4,26
	c-0.1-0.1-0.1-0.1-0.1-0.1c-0.1,0.1-0.3,0-0.4,0h-0.1c-0.2,0.1-0.3-0.1-0.5,0c-0.1,0.1-0.1,0-0.1,0c-0.1,0-0.1-0.1-0.3,0h-0.2
	c-0.1,0-0.1,0.1-0.1,0.1h-0.1c-0.1-0.1-0.1-0.1-0.2-0.1c-0.1,0-0.1,0-0.1-0.1c-0.1-0.1-0.1,0.1-0.2,0.1c-0.1,0-0.1,0.1-0.1,0.1
	c0,0.1-0.1,0.1-0.2,0.3c-0.1,0.1-0.1,0.1-0.2,0.3c-0.1,0.1-0.1,0.2,0,0.3c0,0,0,0.1,0.1,0.1c0,0.1,0.1,0.1,0.1,0.1
	c-0.1,0.1-0.1,0.1-0.2,0.1s-0.1,0-0.1,0.1c-0.1,0.1-0.1,0.1-0.2,0.1c-0.2,0-0.3,0.1-0.3,0.2c-0.1,0-0.1,0.1-0.1,0.1
	c0.1,0.2-0.1,0.3-0.1,0.5c-0.1,0.1-0.1,0.1-0.2,0.1c-0.1,0-0.1,0-0.1,0.1c-0.1,0.1-0.2,0.3-0.3,0.3s-0.1,0.1-0.3,0.2
	c0.1,0.1,0.3,0.1,0.4,0.1c0.4,0.1,0.7,0.3,1.1,0.4c0.4,0.1,0.9,0.3,1.3,0.4c0.5,0.1,1,0.3,1.5,0.5c0.7,0.2,1.3,0.5,2,0.7
	c0.3,0.1,0.5,0.1,0.7,0.3c0.1,0,0.3,0.1,0.5,0.1c0.1,0.1,0.3,0.1,0.3,0.1c0.3,0.1,0.5,0.2,0.7,0.2c0.1,0.1,0.3,0.1,0.4,0.1
	c0.9,0.3,1.8,0.5,2.8,0.7c0.1,0.1,0.3,0.1,0.5,0.1c0.1-0.1,0.1,0,0.1,0.1c0,0.1,0,0.1-0.1,0.1c-0.2,0.1-0.3,0.2-0.5,0.3
	s-0.3,0.3-0.5,0.3c-0.1,0-0.2,0.1-0.3,0h-0.1c-0.1,0.1-0.1,0.1-0.3,0c-0.5-0.1-1.1-0.3-1.6-0.5c-0.5-0.1-0.9-0.3-1.3-0.5
	c-0.1,0-0.2-0.1-0.3-0.1c-0.3-0.1-0.5-0.2-0.9-0.3c-0.4-0.1-0.9-0.3-1.3-0.4c-0.4-0.1-0.9-0.3-1.3-0.5S15,31.1,14.7,31
	c-0.3-0.1-0.6-0.2-0.9-0.3c-0.3-0.1-0.6-0.2-0.9-0.3c-0.3-0.1-0.5-0.2-0.9-0.3c-0.1,0-0.2-0.1-0.3-0.1c-0.1,0-0.1-0.1-0.1-0.1
	c-0.1-0.1-0.1-0.1-0.3-0.1c-0.1,0-0.1-0.1-0.1-0.1h-0.2c-0.1,0.1-0.2,0-0.3-0.1c-0.1-0.1-0.1-0.1-0.3-0.1h-0.1
	c-0.1,0-0.1-0.1-0.2-0.1c-0.1,0-0.1-0.1-0.1-0.1c-0.1-0.1-0.3-0.1-0.5-0.1C9.6,29,9.4,29,9.2,28.9c-0.3-0.1-0.7-0.2-1.1-0.3
	c-0.1,0-0.2,0-0.3-0.1c0-0.1-0.1-0.1-0.1-0.1c-0.1-0.1-0.1-0.1-0.1-0.1c0,0,0,0.1-0.1,0.1c-0.2-0.1-0.3-0.1-0.4-0.1
	c-0.1,0-0.2-0.1-0.3-0.1c-0.1,0-0.3-0.1-0.4-0.1c-0.1,0.1-0.1,0.1-0.1,0.1c0,0.3-0.1,1.5-0.1,1.7v1v0.2v0.2c-0.1,0.3,0,0.7,0,0.9
	c0.1,0.2,0,0.4,0,0.6v0.3v0.1v0.9c0,0.1,0,0.1,0.1,0.3v0.1c0.1,0.3,0.1,0.5,0.1,0.7v0.9c0,0.1-0.1,0.3-0.1,0.5
	c0.1,0.1,0.1,0.2,0,0.3c0,0.3,0,0.5,0.1,0.7c0.1,0.1,0.1,0.3,0.1,0.5c0,0.1,0.1,0.1,0.1,0.2c0.2,0.1,0.3,0.3,0.3,0.5
	c0.1,0.1,0.1,0.1,0.1,0.2c0.1,0.1,0.3,0.1,0.3,0.3c0.1,0.1,0.1,0.1,0.3,0.1c0.1-0.1,0.1-0.1,0.2,0c0.1,0.1,0.1,0.1,0.3,0.1
	c0.1,0,0.1,0.1,0.1,0.1c0.3,0.1,0.5,0.1,0.7,0.1c0.2,0.1,0.3,0.1,0.5,0.1h0.1c0.3-0.2,0.5-0.2,0.6-0.2c0.1,0,0.1,0,0.2-0.1h0.3
	c0.1,0.1,0.3-0.1,0.3-0.1c0-0.1,0.1-0.1,0.1-0.1s0.1,0.1,0.1,0.1c0.1,0.1,0.1,0.1,0.1,0.2c0,0,0.1,0.1,0.1,0c0.3-0.1,0.5,0,0.7,0.1
	c0.1,0.1,0.1,0.1,0.1,0c0.1-0.1,0.2,0,0.3,0.1c0.1,0,0.1,0.1,0.1,0h0.1c0.1,0.1,0.3,0,0.4-0.1c0.1,0,0.1-0.1,0.2-0.1h0.1
	c0.1,0.1,0.1,0.1,0.2,0.1c0.1-0.1,0.3-0.1,0.5,0.1c0.1-0.1,0.1-0.1,0.1-0.1c0,0.1,0,0.1,0.1,0.1c0.1-0.1,0.2,0,0.3-0.1h0.2
	c0.1,0.1,0.1,0,0.3-0.1c0.1,0.1,0.2,0.1,0.3,0.1s0.1,0,0.2-0.1c0-0.1,0.1-0.1,0.1-0.1c0.1,0.1,0.1,0.1,0.1,0.1
	c0.1,0.1,0.1,0.1,0.2,0.1c0.1,0.1,0.1,0.1,0.2,0.1s0.1,0,0.1,0.1c0,0.1,0.1,0.1,0.3,0c0.1,0,0.2-0.1,0.3,0c0.1,0,0.3-0.1,0.3-0.1
	c0.1-0.1,0.1-0.1,0.1-0.1c0.1,0.1,0.2,0.1,0.3,0.1h0.1c0.2,0,0.4-0.1,0.6,0h0.1c0,0,0.1-0.1,0.1-0.1c0.1,0.1,0.1,0.1,0.1,0.1
	c0.1,0,0.1-0.1,0.3-0.1l0.1-0.1c0.2,0.1,0.3,0.1,0.5,0.1c0.1-0.1,0.1,0,0.2,0c0.1,0.1,0.3,0.1,0.5,0.1c0-0.1,0.1-0.1,0.1-0.1
	c0.1,0.1,0.1,0.1,0.2,0c0.1-0.1,0.1-0.1,0.2-0.1c0.1-0.1,0.1,0,0.2,0.1c0.1,0.1,0.3,0.1,0.4,0.1h0.1c0.1,0.1,0.1,0.1,0.3,0
	c0.1-0.1,0.1,0,0.1,0.1c0.1,0.1,0.2,0.1,0.3,0.1s0.2-0.1,0.3-0.1c0.1-0.1,0.1,0,0.3,0s0.2-0.1,0.3-0.2c0.1,0.1,0.1,0.1,0.1,0.1
	c0.1,0,0.1,0.1,0.1,0.1c0.1-0.1,0.3,0,0.3-0.1H23c0,0.1,0.1,0.1,0.1,0.1c0.1,0,0.1,0.1,0.2,0.1s0.2,0,0.3,0.1h0.1
	c0.1-0.1,0.1,0,0.3,0.1c0.1-0.1,0.1-0.1,0.1-0.1c0.1,0,0.1,0.1,0.1,0.1c0.1,0.1,0.1,0.1,0.1,0.1l0.1-0.1c0.1,0,0.1,0.1,0.1,0.1
	c0.1-0.1,0.1-0.2,0.1-0.3h0.1c0,0.2,0,0.2,0.2,0.2h0.1c0.1,0.1,0.3,0.1,0.4,0h0.1c0.1,0,0.1-0.1,0.1-0.1l0.1-0.1
	c0.1,0,0.3,0.1,0.3-0.1l0.1,0.1h0.1c0.1,0,0.2-0.1,0.3-0.1c0.1-0.1,0.1,0,0.2,0c0.1,0,0.2,0.1,0.3,0.1c0.1,0,0.1,0.1,0.1-0.1h0.2
	c0.2-0.1,0.3-0.1,0.5-0.1c0.1,0.1,0.2,0,0.3,0c0.1-0.1,0.1-0.1,0.2-0.1s0.2,0,0.3-0.1h0.1c0.1,0,0.1,0,0.1-0.1
	c0-0.1,0.1-0.1,0.1-0.1c0.1,0.1,0.3,0.1,0.4,0.2h0.1c0.1,0,0.3,0,0.3,0.1c0.1-0.1,0.3-0.1,0.5-0.1H30c0.1,0,0.1,0,0.1-0.1
	c0.1-0.1,0.1-0.1,0.1-0.1h0.7v-0.1c0.1-0.1,0.1,0,0.1,0.1c0.1-0.1,0.1-0.2,0-0.3l-0.1-0.1c0-0.1,0-0.1,0.1-0.1s0.1,0.1,0.1,0.1
	c0,0,0.1,0.1,0.1,0.1c0.1-0.1,0.1-0.1,0.1-0.1c0.1,0.1,0.1,0.1,0.2,0.1c0.1-0.1,0.3-0.1,0.3-0.1c0-0.1,0.1-0.1,0.1-0.1
	c0.1-0.3,0.2-0.5,0.4-0.6c0.1-0.1,0.1-0.1,0.1-0.1c0.1-0.1,0.1-0.3,0.1-0.3c0.1-0.1,0.1-0.1,0.1-0.2v-0.3c0.1-0.3,0.1-0.5,0.2-0.6
	c0.1-0.1,0.1-0.2,0-0.3v-0.1c0-0.1,0.1-0.2,0.1-0.3c0.1-0.1,0-0.3-0.1-0.5v-0.1c-0.1-0.1-0.1-0.1-0.1-0.1c-0.1,0.1-0.1,0.1-0.1,0.2
	c-0.1-0.1-0.1-0.2,0-0.3c0.1-0.1,0.1,0,0.2,0c0.1,0,0.1-0.1,0.1-0.1c0.1-0.1,0.1-0.3,0.1-0.5c-0.1-0.1-0.1-0.3-0.1-0.5v-0.1
	c0.1-0.1,0.1-0.1,0-0.2h-0.1v0.1c0.1,0,0.1-0.1,0.1-0.1c0.2-0.1,0.3-0.3,0.3-0.5V33c0-0.1,0-0.2-0.1-0.3c-0.1-0.1-0.1-0.1-0.1-0.3
	c0.1-0.1,0-0.2,0-0.3c-0.1-0.1-0.1-0.3-0.1-0.3v-0.2c0-0.1,0.1-0.1,0.1-0.2c0,0,0.1-0.1,0.1-0.1c0.1-0.1,0.1-0.3,0.1-0.3
	c0-0.1,0-0.1-0.1-0.1c0.1-0.1,0.1-0.1,0.1-0.1c0-0.2,0.1-0.3,0.1-0.5c-0.1-0.1-0.1-0.3-0.1-0.5c-0.1-0.1-0.1-0.3-0.1-0.5V29V29
	c0.1-0.1,0.1-0.3,0.1-0.5c0-0.1,0-0.2,0.1-0.3c0.1-0.3,0-0.4-0.1-0.5c0.1-0.1,0.1-0.1,0.1-0.3v-0.1c0-0.1,0-0.1,0.1-0.1v-0.1
	c0-0.1-0.1-0.3-0.1-0.3v-0.2v-0.7c-0.1-0.2,0-0.4,0-0.6C33,25,33,24.8,33,24.4v-0.1v-0.9v-0.3c-0.1-0.2-0.1-0.2-0.3-0.3
	c0.1-0.1,0.1-0.1,0.1-0.1c0.1-0.1,0.1-0.1,0.1-0.3v-0.1c-0.1-0.1,0-0.1,0.1-0.3L33,22v-0.3c0.1-0.1,0.1-0.3,0.1-0.4v-0.2v-0.5v-0.2
	c0-0.1-0.1-0.1-0.1-0.1c0-0.1-0.1-0.2-0.1-0.3h0.1c0.1,0,0.1-0.1,0.1-0.1V19v-0.3v-0.2c-0.1-0.1-0.1-0.1-0.1-0.1
	c0-0.1-0.1-0.3,0.1-0.3c0.1-0.1,0.1-0.1,0.1-0.2v-0.7v-0.1c0-0.4-0.1-0.7-0.1-1.1c0-0.1-0.1-0.3-0.1-0.5v-0.1C33,15.2,33,15,33,14.9
	v-0.3c0.1-0.1,0.1-0.1,0-0.1v-0.5c0.1-0.1,0.1-0.3,0.1-0.3v-0.1C33,13.3,33,13.3,33,13.2c0.1-0.1,0.1-0.3,0-0.4
	c0-0.1-0.1-0.2-0.1-0.3c0.1-0.1,0-0.1,0-0.1c-0.1-0.1-0.1-0.3,0-0.5c0.1-0.2,0.1-0.5,0.1-0.7c0-0.1-0.1-0.2-0.1-0.3v-0.1
	c0.1-0.2,0.1-0.5,0.1-0.7V9.9c0.1-0.2,0.1-0.4-0.1-0.5c-0.1-0.1-0.1-0.1-0.1-0.1c-0.1,0-0.1-0.1-0.1-0.1c0-0.1,0-0.1-0.1-0.2
	c-0.1,0-0.1-0.1-0.1-0.1c0.1-0.1,0.1-0.1,0.2-0.1c0.1-0.1,0.1-0.3,0.1-0.5c0-0.1,0-0.1,0.1-0.1C33,7.9,33,7.8,32.9,7.7
	c-0.1-0.1-0.1-0.2-0.1-0.3C32.8,7.2,33,6.7,33,6.5c0,0,0-0.1,0.1-0.1c0.1-0.1,0.1-0.3,0.2-0.4c0-0.1,0.1-0.1,0.1-0.1
	c0.1-0.1,0.1-0.3,0.1-0.5v0.1c0-0.1,0-0.1-0.1-0.2c-0.1-0.1-0.1-0.1-0.1-0.3c0.1-0.2,0.1-0.4,0.1-0.6c0-0.1,0-0.1,0.1-0.1V4.1
	C33.3,4,33.3,3.9,33.2,3.9z M28.9,11.9c-0.1,0.1-0.1,0.3-0.3,0.4c-0.1,0-0.1,0.1-0.1,0.1l-0.1,0.1c-0.1,0-0.1,0.1-0.2,0.1
	s-0.3,0.1-0.3,0h-0.1h-0.2c-0.1,0-0.1-0.1-0.1-0.1c0-0.1-0.1-0.1-0.1-0.1c-0.1,0-0.1,0.1-0.1,0.1c-0.1-0.1-0.1-0.1-0.1-0.1
	s-0.1-0.1-0.2-0.1c-0.1-0.1-0.3-0.1-0.5-0.1c-0.1,0-0.1,0-0.2,0.1c-0.1,0.1-0.1,0.1-0.1,0c-0.1-0.1-0.2-0.2-0.3-0.3
	c0.1-0.1,0.1-0.1,0.1-0.2c-0.1-0.1-0.1-0.1-0.1-0.2c-0.1-0.1-0.1-0.1-0.1-0.3l-0.1-0.1c-0.1-0.1-0.1-0.3-0.3-0.3
	c-0.1-0.1-0.1-0.1-0.1-0.3s-0.1-0.2-0.1-0.3c-0.1-0.1-0.1-0.1-0.1-0.3S25,10,25,9.8c-0.1-0.1-0.1-0.1-0.1-0.3
	c-0.1-0.1-0.1-0.1-0.1-0.3C24.7,9.2,24.6,9,24.5,9c0-0.1-0.1-0.3,0-0.3c0.1,0,0.1,0.1,0.1,0.1c0.1-0.1,0.3-0.1,0.5-0.1
	c0.1,0,0.1-0.1,0.1-0.1c0.1,0,0.3-0.1,0.4-0.1h0.3c0.1,0.1,0.1,0,0.2,0c0.1,0,0.1-0.1,0.1-0.1h0.1c0.1-0.1,0.1-0.1,0.1-0.1
	c0.1,0.1,0.1,0.1,0.2,0.1c0.1,0.1,0.3,0.1,0.3,0.1c0.1,0,0.3,0.1,0.4,0.1h0.1h0.2c0.1,0.1,0.2,0.1,0.3,0.2c0,0.1,0.1,0.1,0.1,0.1
	C28,8.9,28,9,28,9c0.2,0.2,0.3,0.4,0.5,0.6v0.1c0,0.1,0.1,0.1,0.1,0.2l0.1,0.1c0,0.1,0.1,0.3,0.1,0.4c0,0.1,0.1,0.3,0.2,0.3
	c0.1,0.1,0.1,0.1,0.1,0.1c0,0,0.1,0.1,0.1,0.1c0,0.1-0.1,0.1-0.1,0.1c0,0.1,0.1,0.1,0.1,0.3c0.1,0.1,0.1,0.1,0.1,0.2
	C29.1,11.6,28.8,11.8,28.9,11.9z"/>
</svg>
