<?xml version="1.0" encoding="utf-8"?>
<!-- Generator: Adobe Illustrator 25.2.3, SVG Export Plug-In . SVG Version: 6.00 Build 0)  -->
<svg version="1.1" id="Layer_1" xmlns="http://www.w3.org/2000/svg" xmlns:xlink="http://www.w3.org/1999/xlink" x="0px" y="0px"
	 viewBox="0 0 40 40" style="enable-background:new 0 0 40 40;" xml:space="preserve">
<style type="text/css">
	.st0{fill:#D50032;}
</style>
<path class="st0" d="M33.1,30.8v-0.3c-0.1-0.1-0.1-0.3-0.1-0.5C33,30,33,29.8,33,29.8v-0.8c0,0,0-0.1-0.1-0.1
	c-0.1,0.1-0.1,0.1-0.1,0.1l-0.1,0.1c0,0.1-0.1,0.1-0.1,0.2v0.1c-0.1,0.1-0.2,0.1-0.3,0.1c-0.1,0-0.1,0.1-0.1,0.1
	c-0.1,0.1-0.1,0.1-0.2,0.1h-0.1c-0.1,0.1-0.2,0.1-0.3,0.1C31.8,30,31.6,30,31.6,30c-0.1,0-0.1,0-0.2,0.1c-0.1,0-0.1,0.1-0.3,0.1H31
	c-0.3-0.1-0.7,0-1-0.1c-0.2,0-0.5,0-0.7,0.1c-0.1,0-0.2-0.1-0.3,0H29C28.9,30,28.8,30,28.7,30c-0.1,0-0.3,0-0.5,0.1
	c-0.1,0-0.1,0-0.1-0.1c0-0.1-0.1-0.1-0.1-0.1h-0.8c-0.5,0-0.9-0.1-1.4-0.1h-1.3h-0.1h-0.1c-0.1,0-0.3,0.1-0.5-0.1c0-0.1-0.1,0-0.1,0
	c-0.1-0.1-0.2,0-0.3-0.1c-0.1-0.1-0.2-0.1-0.3,0c0,0.1,0,0.1-0.1,0.1c-0.1-0.1-0.1-0.1-0.3-0.1c-0.1-0.1-0.1-0.1-0.3,0
	c-0.1,0-0.1-0.1-0.2-0.1c-0.1-0.1-0.3-0.1-0.3,0c-0.1,0-0.2,0.1-0.3,0c-0.1,0-0.1-0.1-0.1-0.1h-0.4h-0.2h-0.5h-0.2
	c-0.1-0.1-0.2,0-0.3,0h-0.1c-0.1,0.1-0.1,0-0.1-0.1c-0.1-0.1-0.1-0.1-0.3-0.1c-0.1,0.1-0.1,0.1-0.1,0.2c-0.1,0.1-0.1,0.1-0.1,0.1
	c-0.1,0.1-0.1,0.1-0.2,0.2c0,0.1-0.1,0.1-0.1,0.1c0,0.1,0,0.1,0.1,0.3c0.1,0,0.1,0.1,0.1,0.1c-0.1,0.1-0.1,0.1-0.2,0.1
	c0,0-0.1,0-0.1,0.1c-0.1,0.1-0.1,0.1-0.2,0.2C19,31.1,19,31.1,19,31.3c0,0.2-0.1,0.3-0.1,0.5c0,0-0.1,0.1-0.1,0l-0.1,0.1
	c0,0.1-0.1,0.2-0.2,0.3c-0.1,0.1-0.1,0.1-0.2,0.2c0.1,0.1,0.1,0.1,0.1,0.1c0.1,0.1,0.2,0.1,0.3,0.1c0.3,0.1,0.7,0.3,1,0.4
	c0.3,0.1,0.7,0.3,1,0.4c0.3,0.1,0.7,0.3,1,0.5c0.3,0.1,0.5,0.2,0.7,0.3c0.1,0.1,0.3,0.1,0.5,0.1c0,0,0.1,0,0.1,0.1
	c0.1,0.1,0.3,0.1,0.5,0.2c0.1,0,0.2,0.1,0.3,0.1c0.1,0,0.1,0,0.1,0.1c0.1,0,0.1,0,0.1,0.1c0.1,0.1,0.3,0.1,0.4,0.1h0.1
	c0.1,0.1,0.2,0.1,0.3,0.1C25,35,25.1,35,25.3,35c0.2,0,0.4,0.1,0.5,0.1c0.3,0.1,0.7,0.2,0.9,0.3c0.1,0.1,0.1,0.1,0.1,0.1h0.1
	c0.1,0,0.1,0,0.1,0.1c0,0.1-0.1,0.1-0.1,0.1c-0.1,0.1-0.2,0.2-0.3,0.2C26.6,36,26.5,36,26.4,36c-0.1,0.1-0.3,0.1-0.3,0.1
	c-0.1,0-0.1-0.1-0.1-0.1H26c-0.1,0.1-0.2,0.1-0.3,0c-0.3-0.1-0.7-0.3-0.9-0.4c-0.4-0.1-0.8-0.3-1.1-0.5c-0.1-0.1-0.2-0.1-0.3-0.1
	c-0.1,0-0.1-0.1-0.3-0.1c-0.1,0-0.1-0.1-0.1-0.1c-0.1-0.1-0.3-0.1-0.3-0.1c-0.3-0.1-0.7-0.3-1-0.5c-0.3-0.1-0.7-0.3-1-0.4
	c-0.2-0.1-0.5-0.2-0.7-0.3c-0.1-0.1-0.3-0.1-0.4-0.2c-0.3-0.1-0.5-0.2-0.8-0.3L18.4,33c-0.3-0.1-0.7-0.3-1-0.4
	c-0.5-0.3-1.1-0.5-1.6-0.7c-0.1-0.1-0.1-0.1-0.3-0.1c-0.1-0.1-0.1-0.1-0.3-0.1c-0.1,0-0.1,0-0.1-0.1c-0.1-0.1-0.3-0.1-0.5-0.2h-0.4
	c-1-0.5-2.1-0.8-3.2-1.3C10.1,29.8,9,29.4,8,29c0-0.1-0.1-0.1-0.1-0.1c-0.1-0.1-0.3-0.1-0.5,0v0.3c0,0.1,0,0.2,0.1,0.3
	c-0.1,0.1,0,0.1-0.1,0.1v0.1v0.1c0,0.3,0,0.5,0.1,0.8v0.1c0.1,0.1,0.1,0.1,0.1,0.2v0.1v0.2v0.8c0,0.1,0.1,0.1-0.1,0.1v0.3v0.3
	c0,0.1,0,0.1,0.1,0.1V33v2.3v0.1h0.2v0.1c0,0.1-0.1,0.3-0.1,0.5v0.1c-0.1,0-0.1,0.1-0.1,0.1c0,0.1,0,0.3-0.1,0.4
	c0,0.1-0.1,0.1-0.1,0.2c0.1,0.1,0.1,0.3,0.1,0.5c0,0,0,0.1,0.1,0.1c0.1,0,0.1,0.1,0.1,0.1v0.1c0.1-0.1,0.1-0.1,0.1,0
	c0,0.1,0.1,0.1,0.1,0.1C8,37.8,8.1,37.9,8,38h0.1c0.1,0,0.1,0.1,0.1,0.1c-0.1,0.1,0.1,0.2,0.1,0.3l0.1,0.1h0.2c0,0.1,0,0.1,0.1,0.1
	v0.1c0,0.1,0.1,0.1,0.1,0.2C8.7,39,8.7,39,8.8,39.1c-0.1,0.1-0.1,0.1-0.1,0.1c0.1,0.1,0.1,0.1,0.1,0c0.1-0.1,0.1-0.1,0.3,0
	c0.1,0,0.1,0.1,0.1,0.1h0.1c0.1,0,0.1,0.1,0.2,0.1c0.3-0.2,0.4-0.1,0.5-0.1h0.1c0.2,0.1,0.5,0.1,0.7,0.1h0.1h0.2
	c0.1,0,0.1,0.1,0.1,0.1h0.3l0.1-0.1c0.1,0.1,0.1,0.1,0.1,0.1c0.1,0,0.1,0,0.1-0.1c0.1,0,0.1,0.1,0.3,0.1c0.1-0.1,0.1-0.1,0.2-0.1
	c0.1,0,0.1-0.1,0.1-0.1c0.1,0,0,0.1,0.1,0.1c0.1,0,0.1,0.1,0.3,0h0.1c0.1,0.1,0.1,0.1,0.2-0.1c0,0.1,0.1,0.1,0.1,0.1
	c0.1,0,0.2,0,0.3,0.1h0.3c0.1,0.1,0.3,0.1,0.3,0.1c0.1,0,0.2,0,0.3,0.1c0.1-0.1,0.1-0.1,0.2,0h0.1h0.3h0.1c0.1,0.1,0.3,0.1,0.3,0.1
	c0.1-0.1,0.1-0.1,0.1-0.1h0.1c0.1,0.1,0.1,0.1,0.1,0.1c0.1-0.1,0.3,0.1,0.3-0.1h0.1c0,0.1,0.1,0.1,0.1,0.1h0.1
	c0.2,0,0.3,0.1,0.5,0.1c0.1,0,0.1,0,0.1-0.1c0,0,0.1,0,0.1-0.1c0.1,0.1,0.1,0.1,0.1,0.1h0.3c0.1-0.1,0.2-0.1,0.3-0.1
	c0.1,0.1,0.2,0.1,0.3,0.1c0,0,0.1,0,0.1-0.1c0.1,0,0.3,0,0.3,0.1c0.1,0,0.1,0.1,0.1,0.1c0.1-0.1,0.1-0.1,0.1,0
	c0,0.1,0.1,0.1,0.1,0.1h0.1c0.1,0,0.1-0.1,0.3-0.1c0.1,0,0.1,0.1,0.3,0.1c0.1,0,0.5-0.1,0.7-0.1v-0.1c0.1-0.1,0.1,0,0.1,0.1
	c0,0.1,0.1,0.1,0.1,0.1c0.1-0.1,0.2-0.1,0.3-0.1c0,0.1,0,0.1,0.1,0.1c0.1,0,0.1-0.1,0.2-0.1h0.1c0.1-0.1,0.1-0.1,0.3-0.1
	c0.1,0,0.1,0.1,0.2-0.1h0.2c0.1,0.1,0.1,0.1,0.3,0.1c0.1-0.1,0.1-0.1,0.1,0h0.1h0.1c0.1,0,0.1,0,0.1-0.1c0.1-0.1,0.1-0.1,0.1,0
	c0.1,0,0.1,0.1,0.1,0.1c0.1,0,0.2,0,0.3-0.1H22c0.1,0,0.1,0,0.1-0.1c0.1,0,0.2,0,0.3-0.1c0.1,0.1,0.1,0.1,0.2,0.1
	c0-0.1,0.1,0,0.1-0.1h0.2h0.1c0.1,0.1,0.1,0,0.2,0c0.1,0,0.1,0,0.2-0.1c0.1-0.1,0.1-0.1,0.1-0.1v0.1c0,0.1,0,0.1,0.1,0.1
	c0.1,0,0.1,0.1,0.3,0.1c0.1,0.1,0.1,0.1,0.2,0.1H24c0.1,0,0.1,0,0.1-0.1c0.1,0.1,0.1,0.1,0.1,0.1h0.2c0.1,0,0.1,0,0.1-0.1h0.1
	c0.1,0.1,0.1,0.1,0.2,0.1c0.1,0,0.1-0.1,0.1-0.1h0.3c0.1,0,0.1-0.1,0.2-0.1c0-0.1,0.1-0.1,0.1-0.1l0.1-0.1c0.1-0.1,0.2-0.1,0.3-0.3
	c0.1,0.1,0.2,0.1,0.3,0c0.1,0.1,0.2,0.1,0.3,0.1c0,0.1,0.1,0.2,0.1,0.3c0.1,0.1,0.2,0.1,0.3,0.1c0.1-0.1,0.1-0.1,0.1-0.1v-0.1
	c0.1,0,0.1-0.1,0.1-0.1c0.1-0.1,0.2-0.1,0.3-0.1c0.1,0,0.1-0.1,0.1-0.1c0-0.1,0.1-0.1,0.1-0.1c0.1-0.1,0.1-0.3,0.2-0.3
	c0.1,0,0.1,0,0.1,0.1c0.1-0.1,0.1-0.1,0.1-0.1c0-0.1,0-0.1,0.1-0.1c0.1,0.1,0.1,0.1,0.3,0.1v0.1c0.1,0.1,0.1,0.1,0.1,0.3
	c0.1,0.3,0.3,0.5,0.5,0.5h0.3h0.3h0.1c0.1,0.1,0.1,0.1,0.2,0.1c0.1-0.1,0.2-0.1,0.3-0.1c0.1,0,0.1,0,0.3-0.1c0.1,0,0.2-0.1,0.3-0.1
	h0.1c0.1-0.1,0.1-0.2,0.3-0.3c0,0,0.1,0,0.1,0.1c0.1-0.1,0.1-0.1,0.1-0.1c0-0.1,0.1-0.1,0.1-0.1c0.1,0.1,0.1,0,0.1,0
	c0.1-0.1,0.1-0.1,0.1-0.2c0.1,0,0.1-0.1,0.1-0.1c0.1,0.1,0.1,0.1,0.2,0c0-0.1,0.1-0.1,0.1-0.1c0.1-0.1,0.1-0.1,0.1-0.1v-0.3
	c0-0.1,0-0.1,0.1-0.1c0.1,0,0.1-0.1,0.1-0.1v-0.1l0.1,0.1c0-0.1,0.1-0.1,0.1-0.2v-0.1c0.1-0.1,0.1-0.1,0.1-0.1
	c0.1-0.1,0.1-0.1,0.1-0.1L32,37c0.1-0.1,0.1-0.2,0.1-0.3c0-0.1,0.1-0.1,0.1-0.2c0.1-0.1,0.1-0.1,0.1-0.3l0.1-0.1
	c0.1-0.1,0.1-0.1,0.1-0.2c-0.1-0.1-0.1-0.2-0.1-0.3c0-0.1,0-0.3,0.1-0.3v-0.1h0.1v0.1V35v-0.3v-0.3c0.1-0.1,0.1-0.1-0.1-0.1h-0.1
	c0.1-0.1,0.1-0.1,0.1-0.2v-0.3v-0.1v-0.1c0-0.1,0-0.1,0.1-0.1c0.1-0.1,0.1-0.3,0.1-0.3c0-0.1-0.1-0.1-0.1-0.1v-0.1
	c0.1-0.1,0-0.1-0.1-0.2c0-0.1-0.1-0.1-0.1-0.1c0.1-0.1,0-0.1,0.1-0.3c0,0.1,0.1,0.1,0.1,0.1v-0.3v-0.3h-0.1c0-0.1,0-0.1,0.1-0.1
	c0.1-0.1,0.1-0.2,0.1-0.3v-0.1c0-0.1-0.1-0.3,0-0.3v-0.2C33.1,30.9,33,30.8,33.1,30.8z"/>
<path class="st0" d="M21.5,28.3c0.1,0,0.1,0,0.1-0.1c0.1,0,0.1,0,0.1-0.1c0.1-0.1,0.2-0.2,0.3-0.3c0.1-0.1,0.3-0.3,0.3-0.5v-0.1
	c0-0.1,0-0.1,0.1-0.1c0.1-0.1,0.1-0.1,0.2-0.1c0.1-0.1,0.1-0.1,0.2-0.1h0.1c0.1,0,0.1-0.1,0.2-0.2c0-0.1,0.1-0.1,0.1-0.1
	c0.1-0.2,0.1-0.3,0.3-0.3c0-0.1,0-0.1,0.1-0.1c0-0.1,0.1-0.1,0.1-0.1c0.1-0.1,0.1-0.2,0.2-0.3c0.1-0.1,0.1-0.2,0.2-0.3
	c0-0.1,0.1-0.2,0.2-0.3c-0.1-0.1,0.1-0.1,0.1-0.1c0-0.1-0.1-0.1-0.1-0.1c0.1-0.1,0.1-0.1,0.2-0.2c0-0.1,0.1-0.1,0.1-0.1l0.1-0.1
	v-0.1c0.1-0.1,0.1-0.1,0.1-0.2c0-0.1,0.1-0.1,0-0.3c0.1-0.1,0.1-0.1,0.1-0.3c0.1-0.1,0-0.1-0.1-0.1c-0.1,0.1-0.1,0.1-0.1,0.1
	c-0.1-0.1-0.1-0.1-0.1,0c0,0.1-0.1,0.1-0.1,0.1c0,0.1-0.1,0.1-0.1,0.1c-0.1,0-0.1,0.1-0.1,0.1c-0.1,0.1-0.1,0.2-0.2,0.3
	c-0.1,0-0.1,0.1-0.1,0.1h-0.1c-0.1,0-0.1,0.1-0.1,0.1c-0.1,0.1-0.1,0.1-0.2,0.1c0,0.1-0.1,0.1-0.1,0.1c-0.1,0.1-0.3,0.3-0.3,0.4
	h-0.1C23,25.1,23,25.1,23,25.1c-0.1,0.1-0.1,0.2-0.2,0.3l-0.1,0.1c-0.1,0.1-0.1,0.1-0.1,0.1c-0.1,0-0.1,0.1-0.1,0.1
	c0,0.1-0.1,0.1-0.1,0.1c-0.1,0-0.1,0.1-0.1,0.1c-0.1,0.1-0.1,0.1-0.1,0.2c-0.1,0.1-0.1,0.1-0.1,0.3c0,0,0,0.1-0.1,0.1
	c0,0.1-0.1,0.1-0.1,0.1c-0.1,0.1-0.1,0.1-0.1,0.1l-0.2-0.1c0,0.1-0.1,0.1-0.1,0.1c-0.1,0.1-0.1,0.1-0.1,0.1
	c-0.1,0.1-0.1,0.2-0.2,0.3c-0.1,0.1-0.1,0.1-0.1,0.1c-0.1,0.1-0.1,0.1-0.1,0.1c-0.1,0.1-0.1,0.1-0.1,0.1L21,27.9
	C21,27.9,21,28,21,28.1c0,0.1-0.1-0.1-0.1-0.1c-0.1,0.1-0.1,0.1-0.1,0.3c-0.1,0.1-0.1,0.1-0.2,0.2c-0.1,0.1-0.1,0.1-0.1,0.1
	s0,0.1-0.1,0.1c0,0.1-0.1,0.1-0.1,0.1c-0.1,0.1-0.1,0.1-0.1,0.1s0,0.1,0.1,0.1c0.1,0,0.2,0,0.3,0.1h0.1c0.1-0.1,0.1,0,0.1,0h0.1
	c0.1,0.1,0.1,0.1,0.1,0.1c0,0,0.1,0,0.1-0.1c0.1-0.1,0.1-0.1,0.1-0.1v-0.1c0-0.1,0.1-0.1,0.1-0.1c0.1,0,0.1-0.1,0.1-0.1
	c-0.1-0.1,0-0.2,0-0.3H21.5z"/>
<path class="st0" d="M7.5,27c0,0.1,0,0.3,0.1,0.4c0.1,0.1,0.1,0.2,0.1,0.3c0,0.1,0.1,0.1,0.1,0.1V28h0.1c1.4,0.6,2.9,1.1,4.3,1.7
	c0.7,0.3,1.2,0.5,2,0.7c0,0,0.1,0,0.1,0.1c0.1,0.1,0.1,0.1,0.1,0.1c0.1,0,0.1,0,0.1,0.1c0,0.1,0.1,0.1,0.1,0.1h0.1
	c0.1,0.1,0.2,0.1,0.3,0.1c0.1,0,0.1,0.1,0.1,0.1c0.1,0.1,0.3,0.1,0.4,0.2c0.1,0.1,0.3,0.1,0.5,0.1h0.1c0.1-0.1,0.1-0.1,0.1-0.1
	c0.1-0.1,0.1-0.1,0-0.3v-0.1c0.1-0.1,0.1-0.1,0.1-0.1s0.1-0.1,0-0.1c0.1-0.1,0.2-0.3,0.2-0.5c0,0,0.1,0,0.1-0.1
	c0-0.1,0.1-0.1,0.1-0.1c0-0.1,0.1-0.1,0-0.3c0.1-0.1,0.1-0.1,0.1-0.1v-0.1v-0.1c0-0.1,0-0.1,0.1-0.3c0,0,0.1-0.1,0.1-0.1
	c-0.1-0.1-0.1-0.2,0-0.3c0-0.1,0-0.1,0.1-0.2c0.1,0,0.1,0.1,0.1,0.2c0.1,0,0.1,0.1,0.2,0.1c0,0.1,0,0.1,0.1,0.1
	c0.1,0.1,0.1,0.1,0.2,0h0.1c0.1,0.1,0.2,0,0.3,0c0.1-0.1,0.1-0.1,0.2-0.1c0-0.1,0.1-0.1,0.1-0.1c0.1-0.1,0.1-0.1,0.1-0.1
	c0-0.1,0.1-0.2,0.1-0.3l0.1-0.1c0.1-0.1,0.1-0.3,0.2-0.3v-0.1c0.1-0.1,0.1-0.1,0.1-0.2c0-0.1,0-0.1,0.1-0.1c0.1-0.1,0.2-0.3,0.3-0.4
	l0.1-0.1c0.1-0.1,0.1-0.1,0.1-0.2c0.1-0.1,0.1-0.1,0.2-0.3c0-0.1,0-0.1,0.1-0.1c0.1-0.1,0.1-0.1,0.2-0.3c0.1-0.1,0.1-0.3,0.3-0.3
	l0.1-0.1c0.1-0.1,0.1-0.2,0.2-0.3c0.1-0.1,0.1-0.1,0.1-0.2c0,0,0.1-0.1,0.1-0.1c0.1-0.1,0.1-0.1,0.1-0.1l0.1-0.1
	c0.1-0.1,0.1-0.1,0.2-0.2c0.1-0.1,0.1-0.1,0.2-0.2c0.1-0.1,0.1-0.2,0.2-0.3c0.1-0.1,0.1-0.3,0.3-0.3c0.1-0.1,0.1-0.1,0.1-0.1
	c0.1,0,0.1-0.1,0.1-0.1l0.1-0.1c0.1-0.1,0.1-0.1,0.2-0.1c0.1-0.1,0.1-0.2,0.2-0.3c0.1,0,0.1-0.1,0.1-0.1c0.1,0,0.1,0,0.1-0.1
	c0.1-0.1,0.2-0.1,0.3-0.2c0.1-0.1,0.1-0.2,0.3-0.3c0-0.1,0-0.1,0.1-0.1c0.1-0.1,0.1-0.1,0.1-0.2c0-0.1,0-0.1,0.1-0.1l0.1-0.1
	c0-0.1,0.1-0.1,0.1-0.1h0.1c0,0,0-0.1,0.1-0.1c0.1,0,0.2-0.1,0.3-0.1c0.1-0.1,0.1-0.1,0.1-0.1c0.1-0.1,0.1-0.1,0.1-0.2
	c0.1,0,0.1-0.1,0.1-0.1c0.1-0.1,0.1-0.1,0.1-0.1c0.1-0.1,0.3-0.2,0.4-0.3c0-0.1,0.1-0.1,0.1-0.1c0.1-0.1,0.1-0.1,0.1-0.1
	c0.1-0.1,0.2-0.1,0.3-0.2c0.1-0.1,0.1-0.1,0.3-0.2h0.1c0-0.1,0.1-0.1,0.1-0.1c0-0.1,0.1-0.1,0-0.2c-0.1,0-0.1,0.1-0.1,0.1
	c-0.1,0.1-0.2,0.1-0.3,0.2c-0.1,0-0.1,0.1-0.1,0.1c-0.1,0.1-0.1,0.1-0.2,0.1c-0.1,0.1-0.3,0.1-0.4,0.2h-0.1c-0.1,0-0.1,0.1-0.3,0.1
	c-0.1,0-0.1,0.1-0.1,0.1s-0.1,0-0.1,0.1h-0.1c-0.1,0.1-0.1,0.1-0.2,0.1c-0.1,0.1-0.3,0.1-0.3,0.2c-0.1,0-0.1,0.1-0.2,0.1
	c-0.1,0-0.1,0.1-0.1,0.1c-0.1,0.1-0.1,0.1-0.2,0.1c-0.1,0-0.1,0.1-0.1,0.1c-0.1,0-0.1,0.1-0.1,0.1c-0.1,0-0.1,0.1-0.3,0.1
	c-0.1,0.1-0.1,0.1-0.2,0.1c-0.1,0-0.1,0.1-0.1,0.1C21,22,21,22.1,20.9,22c0,0,0,0.1-0.1,0.1c-0.1,0.1-0.1,0.1-0.2,0.1
	c0,0-0.1,0-0.1,0.1c-0.1,0.1-0.1,0.1-0.3,0.1c-0.1,0.1-0.1,0.1-0.2,0.1c-0.1-0.1,0-0.1,0-0.2c-0.1,0-0.3,0-0.3-0.1h0.1
	c0.1,0,0.1,0,0.1-0.1c0-0.1,0-0.1,0.1-0.1C20,22,19.9,22,19.8,22c-0.3,0.1-0.4-0.1-0.6-0.1c-0.2-0.1-0.4-0.1-0.6-0.1h-0.2
	c-0.1,0-0.1,0.2-0.3,0.2c0-0.1-0.1-0.1-0.1-0.1c0-0.1-0.1-0.1-0.1-0.1h-0.4c-0.1,0-0.1,0.1-0.1,0c-0.3-0.1-0.5,0-0.7,0h-0.1
	c-0.2,0.1-0.3,0.1-0.5-0.1c-0.1,0.1-0.1,0.1-0.1,0.1c-0.1-0.1-0.1-0.1-0.1-0.1h-0.3c-0.1-0.1-0.2-0.1-0.3,0c-0.1,0.1-0.1,0-0.1,0
	c-0.1,0-0.1-0.1-0.1-0.1h-0.3c-0.1,0-0.3,0-0.4,0.1c-0.1-0.1-0.3-0.1-0.5,0h-0.3h-0.1c-0.1,0-0.3,0.1-0.5,0.1h0.1h-0.3l-0.1-0.3
	c0-0.1,0.1-0.1,0.1-0.1c0.1-0.1,0.1-0.1,0.1-0.1h0.8c0.3,0.1,0.5,0.1,0.7,0.1c0.1,0,0.2-0.1,0.3-0.1h0.1c0.1,0.1,0.2,0.1,0.3,0h0.3
	c0.1,0,0.3,0.1,0.5,0.1h3.4H20c-0.1-0.1-0.1-0.1-0.2-0.2h-0.1c-0.1,0-0.1,0.1-0.1,0.1c-0.1,0.1-0.1,0.1-0.2,0.1v-0.1
	c-0.1-0.1-0.1-0.1-0.1-0.1h-0.1h-0.1c0-0.1-0.1-0.1-0.1-0.1L19.1,21c-0.1,0-0.1-0.1-0.1-0.1c0.1-0.1,0.1-0.3,0.1-0.4
	c0.1-0.1,0.1-0.1,0.1-0.1c0.1,0,0.1-0.1,0.2-0.2c0-0.1,0.1-0.1,0.1-0.2c0.1-0.1,0.1-0.1,0.1-0.1c0.1-0.1,0.1-0.1,0.1-0.1
	c0.1-0.1,0.1-0.1,0.2-0.1c0.1,0,0.1,0.1,0.1,0c0.1-0.1,0.3-0.1,0.3-0.3c0-0.1,0.1-0.1,0.1-0.1s0.1,0,0.1-0.1c0.1,0.1,0.1,0.1,0.1,0
	c0.1-0.1,0.1-0.1,0.1-0.1s0.1,0,0.1-0.1c0.1-0.1,0.3-0.1,0.3-0.1c0.1,0,0.1,0,0.1-0.1c0.1-0.1,0.1-0.1,0.3-0.1
	c0.1,0.1,0.1,0,0.3-0.1c0.1-0.1,0.1-0.1,0.1-0.1c0.1,0,0.2-0.1,0.3-0.1c0.1-0.1,0.1-0.1,0.1-0.1c0.1,0,0.2-0.1,0.3-0.1
	c0.1-0.1,0.2-0.1,0.3-0.1c0.1-0.1,0.1-0.1,0.2-0.1c0.1,0,0.1,0,0.1-0.1c0.1,0,0.2,0,0.3-0.1v0.4c0.4,0,0.4,0,0.5,0
	c0-0.1,0.1-0.1,0.1-0.1c0.1-0.1,0.1-0.1,0.1-0.1c0.1,0.1,0.1,0.1,0.1,0.1c0.1-0.1,0.1-0.1,0.1-0.1c0,0,0.1,0,0.1,0.1
	C24,18.1,24,18,24.1,18s0.1-0.1,0.1-0.1h0.1h0.1c0.1,0,0.2-0.1,0.3-0.1h0.1c0.1,0.1,0.1,0,0.1,0c0.1,0,0.1-0.1,0.1-0.1
	c0.1,0.1,0.2-0.1,0.3,0c0.1-0.1,0.2-0.1,0.3-0.1h0.2c0.1-0.1,0.3-0.1,0.4-0.1c0.1-0.1,0.3-0.1,0.3-0.2c0.1,0.1,0.1,0.1,0.1,0.1
	c0.1,0.1,0.1,0.1,0.2,0.1c0.1-0.1,0.1-0.1,0.1-0.1c0.1,0,0.1,0,0.2-0.1c0.1,0,0.1,0.1,0.1,0.1c0,0,0.1,0,0.1,0.1
	c0.1,0.1,0.1,0.1,0.2,0.1c-0.1,0.1,0.1,0.2,0.3,0.3c-0.1,0-0.1,0.1-0.1,0.1c0.1,0,0.1,0.1,0.1,0.1c0,0,0-0.1,0.1-0.1
	c0,0.1,0.1,0.1,0.1,0.1v0.1l0.1,0.1l0.1,0.1c0.1,0.1,0.1,0.1,0.1,0.1c0.1,0.1,0.1,0.1,0.1,0.2c0.1,0,0.1,0.1,0.1,0.1
	c0,0.1,0,0.1,0.1,0.1c0.1,0,0.1,0.1,0.1,0.1c0,0.1,0,0.1,0.1,0.1l0.1,0.1c0.1,0.1,0.1,0.2,0.1,0.3c0.1,0.1,0.1,0.2,0.2,0.3V20
	c0.1,0,0.1,0.1,0.1,0.1c0.1,0.1,0.1,0.2,0.1,0.3v0.1c0,0.1-0.1,0.1-0.1,0.1c-0.1,0.1-0.1,0.1-0.1,0.1l-0.1,0.1c-0.1,0-0.1,0-0.1,0.1
	c-0.1,0-0.1,0-0.3,0.1c-0.1,0.1-0.1,0.1-0.2,0.2c-0.1,0.1-0.2,0.1-0.3,0.1c-0.1,0.1-0.3,0.1-0.3,0.1c-0.1,0.1-0.1,0.1-0.1,0.1
	c-0.1,0.1-0.1,0.1-0.3,0.1h-0.1c-0.1,0.1-0.1,0.2-0.3,0.2c-0.1,0-0.1,0.1-0.1,0.1h-0.1c-0.1,0.1-0.1,0.1-0.2,0.2
	c-0.1,0.1-0.2,0.1-0.3,0.2c-0.1,0.1-0.1,0.1-0.2,0.1c-0.1,0.1-0.1,0.1-0.1,0.1c-0.1,0.1-0.3,0.1-0.3,0.2c-0.1,0.1-0.3,0.1-0.4,0.3
	c0.1-0.2,0.1-0.1,0,0.1c0,0.1-0.1,0.1,0.1,0.2c-0.1,0.1-0.1,0.1,0.1,0.1c0,0,0.1,0,0.1,0.1h0.1c0,0,0.1,0,0.1,0.1h0.1h0.1
	c0.1,0,0.1,0,0.1,0.1c0.1,0,0.3,0,0.3,0.1c0.1,0.1,0.2,0.1,0.3,0.1c0.1,0.1,0.3,0.2,0.5,0.3c0.1,0.1,0.1,0.1,0.1,0.2
	c0,0.1,0.1,0.1,0.1,0.3c0.1,0.1,0.1,0.3,0.1,0.5c0,0.1-0.1,0.2-0.2,0.2c-0.1,0-0.3,0.1-0.3,0.2c-0.1,0-0.1,0-0.2,0.1
	c-0.1,0.1-0.1,0.1-0.1,0.1c-0.1,0.1-0.1,0.1-0.2,0.1c0,0.1-0.1,0.1-0.1,0.1c-0.1,0-0.1,0.1-0.1,0.1c-0.1,0-0.1,0.1-0.1,0.1
	c-0.1,0.1-0.1,0.1-0.1,0.2c0,0.1-0.1,0.1-0.1,0.1c-0.1,0.1-0.1,0.1-0.2,0.1v0.1c-0.1,0.1-0.1,0.2-0.3,0.3c-0.1,0.1-0.1,0.1-0.1,0.1
	c0,0.1-0.1,0.1-0.1,0.2c-0.1,0.1-0.1,0.1-0.2,0.3c-0.1,0.1-0.1,0.2-0.3,0.3h-0.1c-0.1,0.1-0.1,0.1-0.1,0.3c-0.1,0.1-0.1,0.2-0.2,0.3
	c0,0.1-0.1,0.1-0.1,0.1s-0.1,0.1-0.1,0.1c0,0.1-0.1,0.1-0.1,0.1C24.1,29,24.1,29,24.1,29v0.1c0,0.1,0.1,0.2,0.1,0.3v0.1
	c0,0.1-0.1,0.1-0.1,0.2l0.1,0.1h0.3h1h0.6c0,0,0.1,0,0.1-0.1l0.1,0.1h0.3H27c0.1,0,0.3,0.1,0.3,0h0.3h0.1h0.3c0.1,0,0.2,0,0.3,0.1
	c0.1,0,0.1-0.1,0.1-0.1c0.2,0.1,0.4,0.1,0.6,0.1h1h0.1c0.1,0,0.1-0.1,0.1,0c0.1,0,0.3,0,0.4-0.1c0.1,0.1,0.1,0,0.3,0
	c0.1,0,0.2-0.1,0.3-0.1c0.1,0,0.2-0.1,0.3,0c0.2,0,0.3-0.1,0.5-0.1c0.1,0,0.1,0,0.2-0.1h0.1c0.1-0.1,0.1-0.1,0.1-0.1
	c0.1,0.1,0.3,0,0.4-0.1c0.1,0,0.1-0.1,0.1-0.1v-0.1v-2.8v-0.3h0.1c0.1-0.1,0-0.1-0.1-0.2c0,0-0.1-0.1,0-0.1c0,0,0.1,0,0.1,0.1v-0.4
	v-0.5c0-0.1,0.1-0.3,0.1-0.4v-0.3c-0.1,0-0.1-0.1-0.1-0.1c0.1-0.1,0-0.1,0-0.1c-0.1,0-0.1,0.1-0.1,0.1c-0.1-0.2,0-0.3,0.1-0.5
	c-0.1,0-0.1-0.1-0.1-0.1c0-0.1,0.1-0.1,0-0.1v-0.1v-0.1L32.6,23c-0.1,0-0.1-0.1-0.1-0.1c0.1-0.1,0.1-0.1,0.1-0.2v-0.2l0.1-0.1
	c0.1-0.1,0.1-0.1,0.1-0.1v0.1c0.1-0.1,0.1-0.3,0-0.4v-0.3h0.1v-0.5c0,0,0-0.1-0.1-0.1c0-0.1-0.1-0.3-0.1-0.3v-0.2v-0.3
	c0,0,0-0.1-0.1-0.1c0-0.1,0-0.1-0.1-0.1c0-0.1-0.1-0.1-0.1-0.2v-0.1c0.1-0.1,0.1-0.1,0-0.1v-0.1v-0.2c0-0.1-0.1-0.1-0.1-0.3v-0.5
	v-0.1c0.1-0.1,0.1-0.1,0-0.1v-0.1V18c0.1,0.1,0.1,0.1,0.1,0.1c0.1,0,0.1,0,0.1-0.1c0.1-0.1,0.1-0.1,0.1-0.2c0.1-0.2,0-0.3,0.1-0.5
	c0-0.1-0.1-0.1-0.1-0.2c0.1-0.1,0.1-0.1,0.1-0.1c-0.1,0-0.1-0.1-0.1-0.1c0-0.1,0-0.1-0.1-0.2c-0.1-0.1-0.1-0.1-0.1-0.2
	c0.1-0.1,0.1-0.3,0-0.5c0,0-0.1-0.1-0.1-0.1v-0.5c0-0.1,0-0.1,0.1-0.1c0.1-0.3,0.1-0.5,0.1-0.7c0-0.1-0.1-0.3-0.1-0.3
	c0,0-0.1-0.1-0.1-0.1h0.1c0.1-0.1,0.1-0.1,0.1-0.2c-0.1-0.1,0-0.2,0-0.3h0.1c0.1-0.1,0.1-0.2,0-0.3c-0.1-0.1-0.1-0.1-0.1-0.2
	c0-0.1,0.1-0.3,0-0.4v-0.1c0-0.1,0-0.1-0.1-0.1c0-0.1-0.1-0.2-0.1-0.3c-0.1-0.1-0.1-0.1-0.2-0.2c-0.1-0.1-0.1-0.1-0.1-0.1
	c0.4,0.3,0.4,0.3,0.4,0.3c-0.1-0.1-0.1-0.1-0.1-0.3v-0.2c-0.1,0-0.1,0.1-0.1,0.1v-0.1c0.1-0.1,0.1-0.2,0-0.3
	c-0.1-0.3-0.1-0.5-0.1-0.8c0-0.1,0.1-0.1,0.1-0.1c-0.1-0.1-0.1-0.1-0.1-0.1c0.1-0.1,0.1-0.2,0-0.3c-0.1-0.1-0.1-0.1-0.1-0.2
	c0-0.1-0.1-0.1-0.1-0.3c0-0.1-0.1-0.1-0.1-0.1l-0.1-0.1c-0.1-0.2-0.1-1,0-1.1c0.1,0.1,0.1,0.2,0.1,0.3c0.1,0,0.1-0.1,0.1-0.1V8.6
	c0-0.1,0-0.1,0.1-0.1h0.1c0-0.1,0.1-0.2-0.1-0.3c0-0.1-0.1-0.1,0.1-0.3c0,0.1,0,0.1,0.1,0.1c0-0.1,0.1-0.1,0-0.1
	c-0.1,0-0.1-0.1,0-0.1c0-0.1,0.1-0.1,0.1-0.1c0,0.1,0,0.1,0.1,0.2c0-0.1,0.1-0.1,0.1-0.1c0-0.1,0.1-0.1,0.1-0.1c0,0,0-0.1-0.1-0.1
	c0.1,0,0.1-0.1,0.1-0.1V7.3c0-0.1-0.1-0.1,0.1-0.3c-0.1-0.1-0.1-0.2-0.1-0.3V6.7c0-0.1,0-0.1-0.1-0.2c-0.1,0-0.1-0.1-0.1-0.1v0.1
	h0.1c0-0.1,0.1-0.1-0.1-0.3c-0.1,0-0.1,0.1-0.1,0.1c-0.1-0.1-0.1-0.2-0.1-0.3h-0.1C32,6.1,31.9,6,31.8,6l-0.1-0.1V5.9
	c0.1,0.1,0.1,0.1,0.3,0.1c0,0.1,0.1,0.1,0.1,0.1c0.1-0.1,0.1-0.1,0.1-0.1V5.7c-0.1-0.1,0-0.1,0.1-0.1v0.1c0,0.1,0.1,0.2,0.1,0.3
	c0.1,0,0.1,0,0.1-0.1c-0.1,0.2-0.1,0.2,0.1,0.2c0.1,0,0.1-0.1,0.1-0.2V5.9c0.1-0.1,0.1-0.1,0.1-0.1c-0.1-0.1-0.1-0.1,0-0.1
	c0.1-0.1,0.1-0.1,0.1-0.3c0.1-0.1,0-0.1,0-0.1c0-0.1-0.1-0.2-0.1-0.3c0-0.1,0-0.1,0.1-0.3V4.4h-0.1c0,0,0-0.1,0.1-0.1
	c0.1-0.1,0.1-0.1,0.1-0.1V4c-0.1-0.1-0.1-0.1,0-0.3V3.6c-0.1-0.1-0.1-0.3-0.1-0.3c0-0.1,0-0.1-0.1-0.2c-0.1-0.1-0.1-0.1-0.1-0.3
	c-0.1-0.1-0.1-0.1-0.1-0.3c0,0-0.1,0-0.1-0.1c0.1-0.1-0.1-0.1-0.1-0.3c0,0,0-0.1-0.1-0.1c-0.1,0.1-0.1,0-0.2-0.1V1.9l-0.1-0.1
	c-0.1,0-0.1-0.1-0.1-0.1c0-0.1-0.1-0.3-0.1-0.5v0.1c-0.1,0-0.1,0-0.1-0.1V1c-0.1-0.1-0.1-0.1-0.1-0.1c0-0.1-0.1-0.1-0.1-0.1h-0.1
	c-0.1-0.1-0.3-0.1-0.3-0.2c-0.1,0-0.1-0.1-0.2,0c0-0.1-0.1-0.1-0.1-0.1c-0.1,0-0.1,0-0.2-0.1h-0.1c-0.1-0.1-0.1-0.1-0.1-0.1h-0.1
	c-0.1-0.1-0.2-0.1-0.3-0.1c-0.1,0-0.2-0.1-0.3,0.1h-0.3c-0.1-0.1-0.1,0-0.1,0.1c-0.1-0.1-0.1,0-0.2-0.1c0-0.1-0.1-0.1-0.1,0
	c-0.1,0.1-0.1,0.1-0.3,0.1c-0.1-0.1-0.1-0.1-0.1-0.1s-0.1,0-0.1-0.1c-0.1-0.1-0.1-0.1-0.1-0.1c-0.1,0.1-0.1,0.1-0.1,0
	s-0.2-0.1-0.3,0.1c-0.1,0-0.1,0-0.1-0.1c-0.1,0-0.1,0-0.2,0.1h-0.1l-0.1-0.1c-0.1,0.1-0.1,0-0.1-0.1l-0.1-0.1
	c-0.1,0.1-0.2,0.1-0.3,0.1h-0.1c-0.1,0.1-0.1,0.1-0.1,0.1H27c-0.1,0.1-0.1,0.1-0.2,0c0-0.1,0.1-0.1,0.1-0.1c-0.1,0-0.1-0.1-0.1,0
	c-0.1,0.1-0.2,0-0.3-0.1C26.1,0.1,26,0.1,26,0.1l-0.1,0.1c-0.1-0.1-0.1-0.1-0.1,0.1h-0.1c0-0.1-0.1-0.1-0.1-0.1
	c-0.1-0.1-0.1-0.1-0.2,0c-0.1,0-0.2-0.1-0.3,0.1c-0.1-0.1-0.1-0.1-0.1-0.1c0,0.1-0.1,0.1-0.1,0.1h-0.1c-0.1,0.1-0.1,0.1-0.2,0.1
	c-0.1,0.1-0.1,0.1-0.1,0.1l-0.1-0.1h-0.3c-0.1,0.1-0.1,0-0.2,0c-0.1-0.1-0.1-0.1-0.2,0h-0.1h-0.3c-0.1,0-0.3,0.1-0.3,0h-0.2
	c-0.1,0-0.1,0-0.2-0.1c-0.1-0.1-0.1-0.1-0.1,0c-0.1,0.1-0.1,0.1-0.3,0.1h-0.1c-0.1,0.1-0.2,0-0.3,0h-0.2c-0.1-0.1-0.1,0-0.1,0h-0.1
	c-0.2,0-0.2-0.1-0.2-0.1c-0.1-0.1-0.1-0.1-0.2,0h-0.1h-0.1v0.1c-0.1,0-0.1,0-0.1-0.1c-0.1,0-0.1-0.1-0.1,0v0.1
	c-0.1-0.1-0.2-0.1-0.2-0.1c-0.1,0-0.1-0.1-0.1-0.1c-0.1,0.1-0.1,0.1-0.1,0.1c-0.1-0.1-0.1-0.1-0.1,0c-0.1,0.1-0.1,0.1-0.1,0.1
	c0,0-0.1,0-0.1,0.1h-0.1c-0.1-0.1-0.1-0.1-0.1,0H20H20c0,0,0,0.1-0.1,0.1c-0.1-0.1-0.1-0.1-0.2-0.1h-0.1c-0.1-0.1-0.2,0-0.3,0h-0.2
	h-0.1c-0.1,0.1-0.2,0.1-0.3,0c-0.1,0-0.2,0.1-0.2-0.1h-0.2v0.1h-0.1c-0.1-0.1-0.1-0.1-0.1,0h-0.1h-0.3V0.4V0.3c-0.1,0-0.1,0-0.2,0.1
	c-0.1,0-0.1,0.1-0.1,0.1c-0.1-0.1-0.3-0.1-0.3-0.1c0-0.1-0.1-0.1-0.1-0.1c-0.1,0.1-0.1,0.1-0.2,0.1c-0.1-0.1-0.3,0-0.3,0
	c-0.1,0-0.1,0.1-0.2,0c-0.1,0-0.1-0.1-0.3,0h-0.7c-0.1,0.1-0.1,0.1-0.1,0.1c-0.1-0.1-0.1-0.1-0.3,0l-0.1-0.1c-0.1,0-0.2,0-0.3,0.1
	c-0.1,0-0.3,0.1-0.4,0.1c-0.1-0.1-0.1-0.1-0.2-0.1c-0.1,0.1-0.1,0.1-0.1,0.1C14,0.5,14,0.4,14,0.4c-0.1,0-0.1,0-0.1,0.1v0.1
	c-0.1,0.1,0,0.3,0,0.3C14,0.9,14,1,14,1h-0.1c-0.2-0.1-0.3-0.2-0.2-0.3c0.1-0.1,0.1-0.1-0.1-0.2c0-0.1-0.1-0.1-0.1-0.1h-0.1v0.1
	c-0.1,0-0.1,0-0.1,0c-0.1-0.1-0.1-0.1-0.1-0.1c-0.1-0.1-0.1,0-0.2,0.1c-0.1,0-0.1,0.1-0.2,0h-0.1c-0.1,0-0.3-0.1-0.4,0
	c-0.1,0.1-0.1,0.1-0.2,0H12c-0.1-0.1-0.1,0.1-0.3,0h-0.1c-0.1,0-0.1,0-0.2,0.1V0.3h-0.1c-0.1,0-0.1,0-0.1,0.1h-0.2
	c-0.1,0-0.1,0-0.1,0.1c0,0,0,0.1-0.1,0.1c-0.1,0-0.1-0.1-0.1-0.1c-0.1,0-0.1,0.1-0.1,0.2h-0.1c-0.1-0.1-0.1-0.1-0.3,0
	c-0.1-0.1-0.2-0.1-0.3-0.1h-0.1h-0.1c-0.1,0-0.1,0.1-0.1,0H9.9c-0.1,0-0.2,0.1-0.2,0.1H9.7C9.6,0.7,9.6,0.7,9.6,0.7
	c-0.1,0-0.1,0-0.1,0.1H9.4c-0.1-0.1-0.1,0-0.2,0.1H9.1C9.1,0.9,9,1,9,1C9,1,9.1,1,9.1,1.1c0,0.1-0.1,0.1-0.2,0.1
	c-0.1-0.1-0.1,0-0.1,0c0,0.1-0.1,0.1-0.1,0.1v0.3c-0.1,0.1-0.1,0.1,0,0.1l0.1,0.1v0.1c-0.1,0-0.1-0.1-0.2-0.1c-0.1-0.1-0.1,0-0.2,0
	v0.1C8.4,2,8.3,2,8.3,2c0,0.1,0,0.1,0,0.2c0,0.1,0,0.1-0.1,0.1c-0.1,0-0.1,0.1-0.1,0.1H8.1C8.1,2.6,8,2.6,8,2.7h0.1
	c0,0,0,0.1-0.1,0.1v0.1C8.1,2.9,8,3,7.9,3.1c0,0.1-0.1,0.1-0.1,0.1C7.8,3.4,7.8,3.5,7.8,3.6c-0.1,0-0.1,0-0.1,0.1v0.1
	c0,0.1,0,0.1-0.1,0.1c0,0.1,0,0.1,0,0.2c0.1,0.1,0.1,0.1,0.1,0.2s-0.1,0.1,0,0.2v0.3C7.6,4.9,7.6,4.9,7.7,5c0.1,0.1,0.1,0.1,0,0.3
	v0.3c0,0,0.1,0,0,0.1v0.3c0,0.1,0.1,0.2-0.1,0.3v0.1c0,0,0,0.1-0.1,0.1c-0.1,0,0.1,0.1,0.1,0.2c0.1,0.1,0.1,0.1,0.1,0.2
	c0,0.1,0,0.1-0.1,0.1v0.1C7.5,6.9,7.5,7,7.5,7c0,0.1,0,0.1,0.1,0.1c0.1,0,0,0.1,0,0.1c0,0,0,0-0.1,0v0.3c0,0.1,0.1,0.1,0.1,0.3
	c0,0.1,0.1,0.3,0.1,0.4c-0.1,0.1,0,0.1,0.1,0.1C7.7,8.5,7.7,8.6,7.7,8.7h0.1V9v0.1c-0.1,0-0.1,0.1-0.1,0.1c0,0.1,0.1,0.1,0,0.2v0.1
	v0.1v0.3v0.1c0-0.1,0.1-0.1,0.1-0.1c0.1,0,0.1,0.1,0.1,0.1v0.3c0,0,0,0.1-0.1,0.1c-0.1,0.1-0.1,0.1-0.1,0.1v0.1
	c0.1,0.1,0.1,0.1,0.1,0.1c-0.1,0.1-0.1,0.1-0.1,0.1c0.1-0.1,0.1-0.1,0.1-0.1c0,0.1-0.1,0.2-0.1,0.3c0,0.1-0.1,0.1-0.1,0.3v-0.1
	c0,0.1,0.1,0.2,0.1,0.3c0,0.1-0.1,0.1-0.1,0.1l-0.1-0.1v0.1v0.1c0.1,0.2,0.1,0.3,0.1,0.5c0,0.1-0.1,0.1-0.1,0.1V13v0.5v0.1
	c0,0.1-0.1,0.1-0.1,0.1v0.1v0.5l0.1,0.1V15c-0.1,0.1-0.1,0.1-0.1,0.2c0,0.1,0,0.1,0.1,0.1c0.1,0.1,0.1,0.1,0.1,0.2v0.1
	c0.1,0.1,0.1,0.1,0,0.2v-0.1c0.1,0.1,0.1,0.1,0.1,0.1L7.6,16c-0.1,0-0.1,0-0.1-0.1v-0.1v0.1v0.5c0,0.1,0.1,0.2,0.1,0.3v0.3L7.5,17
	v0.1v0.2v0.1c0.1,0.1,0,0.1,0,0.2v0.2v0.5v0.5V19v0.2v0.1c0,0.2,0.1,0.3,0.1,0.5c0,0.1,0,0.1,0.1,0.1c0,0.1,0,0.1-0.1,0.3v0.2
	c-0.1,0.1-0.1,0.2-0.1,0.3c-0.1,0.1-0.1,0.2-0.1,0.3c0,0.1,0.1,0.3,0,0.3l0.1,0.1c0.1-0.1,0.1-0.1,0.1-0.1c0.1-0.1,0.1-0.1,0.2-0.2
	h0.1c0.1,0,0.1-0.1,0.1-0.1C8.1,21,8.1,21,8.1,21C8.2,21,8.2,21,8.2,21c0.1-0.1,0.3-0.1,0.3-0.3c0.1-0.1,0.2-0.1,0.3-0.1
	c0.1-0.1,0.1-0.1,0.1-0.1C9,20.4,9,20.3,9,20.3c0.1,0,0.1-0.1,0.2-0.1c0.1,0,0.1,0,0.1-0.1C9.4,20.1,9.5,20,9.6,20
	c0.1,0,0.1,0,0.1-0.1c0.1-0.1,0.3-0.1,0.4-0.3c0.3,0.1,0.3,0,0.3-0.1c0.1-0.1,0.1-0.1,0.1-0.1c0-0.1,0.1-0.1,0.1-0.1
	c0.1,0,0.1-0.1,0.1-0.1c0.1,0,0.1-0.1,0.1-0.1c0.1-0.1,0.1-0.1,0.2-0.1c0.1,0,0.1-0.1,0.1-0.1l0.3-0.1c0.1,0,0.1-0.1,0.1-0.1
	c0.1-0.1,0.1-0.1,0.3-0.2l0.1-0.1c-0.1-0.1-0.1-0.1-0.1,0c-0.1,0.1-0.2,0.1-0.3,0.1c-0.1,0-0.1,0.1-0.1,0.1c-0.1,0-0.3,0-0.3-0.1
	c-0.1-0.1-0.1-0.1-0.1-0.1c0.1-0.1,0.1-0.1,0.1-0.2c0-0.1-0.1-0.1-0.1-0.1c-0.1,0-0.1-0.1-0.2-0.1c-0.1,0-0.1,0-0.1-0.1
	c0,0-0.1,0-0.1-0.1h-0.1c-0.1-0.1-0.2-0.1-0.3-0.3c0-0.1-0.1-0.1-0.1-0.1l-0.3-0.1H9.6c-0.1-0.1-0.3-0.1-0.5-0.1c0,0.1,0,0.1,0,0.1
	l-0.1-0.1v-0.1l0.1-0.1c0-0.1,0-0.1,0.1-0.1c0.1,0,0.1-0.1,0.1-0.1c-0.1-0.1,0.1-0.1,0.1-0.1c0.1-0.1,0.1-0.1,0.1-0.1
	c0-0.1,0.1-0.1,0.1-0.1c0.1-0.1,0.1-0.2,0.2-0.2v-0.1c0.1-0.1,0.1-0.1,0.1-0.2v-0.1c0.1,0.1,0.2,0.1,0.2-0.1c0-0.1,0.1-0.2,0.1-0.3
	l0.1-0.1c0.1,0.1,0.1,0,0.1-0.1c0,0,0-0.1,0.1-0.1l0.1-0.1c0.1,0,0.1,0,0.1,0.1c0.1-0.1,0.2-0.1,0.3-0.3l0.1-0.1
	c0.1-0.1,0.1-0.1,0.2-0.3c0.1,0,0.1-0.1,0.1-0.1c0.1,0,0.1-0.1,0.1-0.1V15c0.1-0.1,0.1-0.1,0.3-0.2c0.1-0.1,0.1-0.2,0.3-0.3l0.1-0.1
	c0-0.1,0.1-0.1,0.1-0.2l0.1-0.1C12,14.1,12,14,12,14c0.1-0.1,0.3-0.2,0.3-0.3c0.1-0.1,0.4,0.1,0.5,0.1c0.1-0.1,0.1-0.1,0.3-0.2
	c0.1-0.1,0.3-0.2,0.4-0.3c0.1-0.1,0.2-0.1,0.3-0.3c0.1,0.1,0.1,0.1,0.1,0c0.1-0.1,0.1-0.1,0.1-0.1c0.1,0,0.2-0.1,0.3-0.2
	c0.1,0,0.1-0.1,0.1-0.1c0-0.1,0-0.1,0.1-0.1c0.1-0.1,0.2-0.1,0.3-0.3c0.1-0.1,0.1-0.1,0.2-0.1c0.1-0.1,0.2-0.1,0.3-0.1h0.1
	c0.1-0.1,0.2-0.1,0.3-0.2c0.1-0.1,0.1-0.1,0.2-0.1c0.1-0.1,0.2-0.1,0.3-0.1h0.1c0.1,0,0.1-0.1,0.1-0.1c0.1-0.1,0.1-0.1,0.1-0.1
	c0.1-0.1,0.3-0.2,0.5-0.3v0.1c0.1-0.1,0.1-0.1,0.1-0.1c0.1-0.1,0.1-0.1,0.1-0.1c0-0.1,0.1-0.1,0.1-0.1c0.1,0,0.1-0.1,0.1-0.1
	c0-0.1,0.1-0.1,0.1-0.1c0.3,0,0.4-0.1,0.5-0.3c0-0.1,0.1-0.1,0.1-0.1c0.1,0,0.1,0,0.1-0.1c0.1-0.1,0.1-0.1,0.1-0.1
	c0.1,0,0.3-0.1,0.3-0.1c0.1-0.1,0.1-0.1,0.1-0.1c0.1-0.1,0.1-0.1,0.1-0.1c0.1-0.1,0.2-0.1,0.3-0.2c0.1-0.1,0.1-0.1,0-0.1
	c-0.1-0.1-0.1-0.1-0.1-0.1c-0.1,0-0.1-0.1-0.3-0.1h-0.1c-0.1,0.1-0.2,0.1-0.3,0.1c-0.1,0-0.1,0-0.1,0.1c0,0-0.1,0.1-0.1,0.1h-0.1
	c-0.1,0-0.1,0.1-0.3,0.1c-0.1,0.1-0.3,0.1-0.3,0.1c-0.1,0.1,0.1,0.2,0,0.2h-0.1c-0.2,0-0.4,0.1-0.6,0.1c-0.1,0-0.1,0.1-0.2,0.1
	s-0.3,0.1-0.3,0.1l-0.3,0.1c-0.1,0.1-0.2,0.1-0.3,0.2c-0.1,0-0.1,0.1-0.1,0.1c-0.1,0-0.2,0.1-0.3,0.1c-0.1,0.1-0.3,0.1-0.5,0.1
	c-0.1,0-0.1,0.1-0.1,0.1c-0.1,0.1-0.3,0.1-0.3,0.1c-0.1,0.1-0.2,0.1-0.2,0c-0.1-0.1-0.2-0.1-0.3-0.2c-0.1-0.1-0.2-0.1-0.3,0.1
	C13.3,11,13.3,11,13.3,11c-0.1,0.1-0.1,0.1-0.1,0.1c-0.1,0.1-0.1,0.1-0.1,0.1c-0.1-0.1-0.3-0.1-0.5-0.2v-0.1
	c0.1-0.1,0.1-0.1,0.1-0.1v-0.2c0-0.1,0-0.3-0.1-0.3l-0.1-0.1c0,0,0-0.1,0.1-0.1c-0.1,0-0.1,0.1-0.2,0c0.1,0,0.1,0,0.1-0.1
	c0-0.1-0.1,0-0.1-0.1c0,0.1-0.1-0.1,0.1-0.2c-0.1,0-0.1,0-0.1-0.1c0-0.1,0-0.2-0.1-0.3c-0.1-0.1-0.1-0.1,0-0.2
	c0.1-0.1-0.1-0.2-0.1-0.3c0-0.1-0.1-0.1-0.1-0.1c0-0.1,0.1-0.1,0.1-0.1l0.1-0.1h0.1l0.1-0.1h0.2c0.2,0.1,0.2,0.1,0.3,0.1
	c0,0,0-0.1,0.1-0.1c0.1,0,0.1-0.1,0.3-0.1c0.1,0,0.1,0,0.1-0.1h0.1c0.1-0.1,0.3-0.1,0.4-0.1h0.1c0.1-0.1,0.3-0.1,0.3-0.1h0.1
	c0.1,0,0.1,0,0.1-0.1c0.1,0,0.1-0.1,0.2-0.1c0.2-0.1,0.3-0.1,0.5-0.2c0.2-0.1,0.4-0.2,0.7-0.3c0.1-0.1,0.3-0.1,0.5-0.1
	c0.1-0.1,0.3-0.1,0.3-0.1c0.1-0.1,0.2-0.1,0.3-0.1c0.1,0,0.1,0,0.1-0.1C17,7.1,17.1,7,17.2,7C17.2,7,17.4,7,17.4,6.9
	c0.2,0,0.4,0,0.5-0.1c0.1-0.1,0.3-0.1,0.4-0.1c0.1,0,0.1,0,0.1-0.1h0.1c0.2,0,0.5-0.1,0.7-0.1c0.1,0,0.1-0.1,0.3-0.1s0.3,0,0.5-0.1
	c0.1,0,0.3,0,0.4-0.1c0.1,0,0.2-0.1,0.3-0.1c0.1-0.1,0.1-0.1,0.3-0.1c0.1-0.1,0.3-0.1,0.4-0.1c0.2,0,0.4-0.1,0.6-0.1
	C22,6,22.1,5.9,22.3,5.9c0.1,0,0.3,0,0.4-0.1c0.1-0.1,0.1-0.1,0.1-0.1h0.1c0.3-0.1,0.5-0.1,0.7-0.1c0.1,0,0.2,0.1,0.3,0.1
	c0,0.1,0.1,0.2,0.1,0.3H24C24,6.3,24,6.3,24,6.4s0.1,0.3,0.1,0.3c0.1,0.1,0.1,0.2,0.1,0.3V7c0.1,0.1,0.1,0.3,0.2,0.3
	c0.1,0.1,0.1,0.1,0.1,0.2c0.1,0.1,0.1,0.2,0.1,0.3c0,0.1-0.1,0.1-0.1,0.3v0.1c-0.1,0.1-0.1,0.1-0.1,0.3c-0.1,0.1-0.1,0.1-0.1,0.1
	s-0.1,0-0.1,0.1c-0.1,0-0.1,0.1-0.1,0.1c-0.1,0-0.1,0.1-0.1,0.1c0,0.1-0.1,0.1-0.1,0.2c-0.1,0-0.1-0.1-0.1,0c-0.1,0-0.2,0-0.3,0.1
	c-0.1,0.1-0.1,0.1-0.3,0.1c-0.1,0-0.1,0.1-0.1,0.1c-0.3,0.1-0.5,0.3-0.8,0.4c-0.2,0.1-0.5,0.1-0.7,0.3c-0.1,0.1-0.1,0.1-0.1,0.1
	c-0.1,0.1-0.3,0.2-0.5,0.3c-0.3,0.1-0.5,0.3-0.7,0.3c-0.1,0.1-0.2,0.1-0.3,0.2c-0.2,0.2-0.5,0.3-0.7,0.5h-0.1
	c-0.1,0.1-0.2,0.1-0.3,0.2c-0.1,0.1-0.3,0.3-0.5,0.3c-0.1,0.1-0.3,0.2-0.5,0.3c-0.3,0.1-0.5,0.3-0.7,0.5c-0.1,0.1-0.3,0.3-0.5,0.4
	c-0.1,0.1-0.1,0.1-0.1,0.1c-0.1,0.1-0.3,0.2-0.4,0.3c0,0,0,0.1-0.1,0.1c-0.1,0.1-0.3,0.2-0.5,0.3c-0.1,0.1-0.3,0.3-0.4,0.3
	c-0.1,0.1-0.1,0.1-0.1,0.1c-0.1,0.1-0.1,0.1-0.3,0.2c-0.1,0.1-0.2,0.1-0.3,0.3c-0.1,0.1-0.3,0.3-0.5,0.4c-0.1,0.1-0.1,0.1-0.3,0.2
	c-0.1,0.1-0.2,0.2-0.3,0.3C14.2,15.9,14.1,16,14,16C14,16,14,16,14,16.1c-0.1,0-0.1,0.1-0.1,0.1c0,0.1-0.1,0.1-0.1,0.1
	c-0.1,0.2-0.1,0.2-0.2,0.3v0.1c-0.1,0-0.1-0.1-0.1-0.1c-0.1,0.1-0.1,0.1-0.1,0.1c-0.1,0.1-0.1,0.1-0.1,0.1c-0.1,0.1-0.3,0.2-0.4,0.3
	c-0.1,0.1-0.2,0.3-0.3,0.4c-0.1,0.1-0.2,0.1-0.2,0.3c-0.1,0-0.1,0-0.1,0.1c-0.1,0.1-0.1,0.1-0.1,0.3c0,0.1,0,0.1,0.1,0.1
	c0,0.1,0,0.1-0.1,0.1c0.1-0.1,0.3-0.1,0.3-0.3c0.1-0.1,0.2-0.1,0.3-0.2c0.1-0.1,0.3-0.1,0.4-0.2l0.3-0.3c0.1,0.1,0.2,0,0.3-0.1
	c0.1-0.1,0.1-0.1,0.1-0.1c0.1-0.1,0.1-0.1,0.3-0.2c0.1-0.1,0.1-0.1,0.2-0.1c0.1-0.1,0.2-0.1,0.3-0.1c0.1-0.1,0.1-0.1,0.3-0.1
	c0.1-0.1,0.1-0.1,0.1-0.1c0.1-0.1,0.1-0.1,0.3-0.1l0.1-0.1c0.1,0,0.1-0.1,0.1-0.1c0.1,0,0.1-0.1,0.2-0.1c0.1-0.1,0.1-0.1,0.3-0.2
	c0.1-0.1,0.3-0.1,0.3-0.2c0.1-0.1,0.1-0.1,0.1-0.1c0.1-0.1,0.1-0.1,0.1-0.1c0.1,0,0.1-0.1,0.1-0.1c0.1,0,0.1,0,0.1-0.1
	c0.1-0.1,0.1-0.1,0.3-0.1c0.1-0.1,0.3-0.2,0.4-0.3c0.1-0.1,0.1-0.1,0.3-0.1l0.1-0.1c0.1-0.1,0.1-0.1,0.3-0.1
	c0.1-0.1,0.1-0.1,0.3-0.2c0.1-0.1,0.2-0.1,0.3-0.2c0.1-0.1,0.1-0.1,0.1-0.1c0.1-0.1,0.3-0.1,0.3-0.2c0.1-0.1,0.1-0.1,0.2-0.1
	c0.1,0,0.1-0.1,0.2-0.1c0.1-0.1,0.1-0.1,0.1-0.1c0.1-0.1,0.1-0.1,0.2-0.1c0.1-0.1,0.1-0.1,0.2-0.1c0.1,0,0.1-0.1,0.1-0.1
	c0.1-0.1,0.1-0.1,0.3-0.1c0.1-0.1,0.1-0.1,0.3-0.2c0.1-0.1,0.3-0.1,0.3-0.3c0.1,0,0.1-0.1,0.1-0.1c0.1-0.1,0.2-0.1,0.3-0.2
	c0-0.1,0-0.1,0.1-0.1c0.1,0,0.1,0,0.1-0.1h0.1c0.1,0,0.1-0.1,0.2-0.1c0.1-0.1,0.1-0.1,0.1-0.1c0.1-0.1,0.1-0.1,0.2-0.2
	c0.1-0.1,0.2-0.1,0.3-0.2c0.1-0.1,0.2-0.1,0.3-0.2c0-0.1,0.1-0.1,0.1-0.1c0.1-0.1,0.2-0.1,0.3-0.2c0.1-0.1,0.1-0.1,0.3-0.2H23
	c0-0.1,0.1-0.1,0.1-0.1c0.1-0.1,0.1-0.1,0.1-0.1c0.1-0.1,0.3-0.1,0.4-0.2c0.1-0.1,0.1-0.1,0.2-0.1c0.1,0,0.1-0.1,0.1-0.1
	C24,10,24,10,24,10l0.3-0.3c0.1-0.1,0.1-0.1,0.1-0.1c0.3-0.1,0.5-0.1,0.7-0.2c0.1-0.1,0.1-0.1,0.1-0.1c-0.1,0.1-0.1,0.1-0.1,0.2
	c-0.1,0.1-0.1,0.1-0.1,0.2C25,9.8,25,10,25,10.1l0.4,0.4c-0.1,0.1-0.1,0.1-0.1,0.3c-0.1,0.1-0.1,0.1-0.1,0.1l-0.1,0.1
	C25,11,25,11.1,24.9,11.1c-0.1,0-0.1,0.1-0.1,0.1c-0.1,0-0.1,0.1-0.1,0.1c-0.1,0.1-0.2,0.1-0.3,0.1c-0.1,0-0.1,0-0.1,0.1h-0.1
	c-0.1,0.1-0.2,0.1-0.3,0.1H24c-0.1,0.1-0.1,0.1-0.1,0.1c-0.1,0.1-0.1,0.1-0.1,0.1c-0.1,0-0.2,0-0.3,0.1c-0.1,0.1-0.1,0.1-0.2,0.1
	c-0.1,0-0.1,0.1-0.2,0.1c-0.1,0.1-0.2,0.1-0.3,0.1c0,0.1-0.1,0.1-0.1,0.1c-0.1,0.1-0.3,0.3-0.4,0.3c-0.1,0.1-0.2,0.1-0.3,0.2H22
	C21.9,13,21.9,13,21.9,13c-0.1,0-0.1,0-0.1,0.1c-0.1,0.1-0.2,0.1-0.3,0.1c-0.1,0.1-0.1,0.1-0.2,0.1l-0.1,0.1
	c-0.1,0.1-0.1,0.1-0.1,0.1c-0.1,0.1-0.2,0.1-0.3,0.1c-0.1,0.1-0.1,0.1-0.1,0.1c-0.1,0.1-0.1,0.1-0.2,0.1c-0.1,0.1-0.1,0.1-0.2,0.1
	c-0.1,0.1-0.3,0.1-0.4,0.3c-0.1,0.1-0.1,0.1-0.2,0h-0.1c0.1,0,0.1,0.1,0.1,0.1c-0.1,0.1-0.3,0.2-0.4,0.3c-0.1,0.1-0.1,0.1-0.1,0.1
	c-0.1,0.1-0.2,0.1-0.3,0.2c-0.1,0.1-0.1,0.1-0.1,0.1c-0.1,0-0.1,0.1-0.1,0.1c-0.1,0.1-0.1,0.1-0.3,0.1v0.1c-0.1,0-0.1,0.1-0.1,0.1
	l-0.1,0.1c-0.1,0.1-0.2,0.1-0.3,0.2c-0.1,0.1-0.1,0.1-0.3,0.1h-0.2c-0.1,0-0.2,0.1-0.3,0.2c-0.1,0.1-0.1,0.1-0.3,0.1
	c-0.1,0.1-0.1,0.1-0.1,0.2c0,0.1-0.1,0.1-0.1,0.1c-0.1-0.1-0.1,0-0.2,0.1c-0.1,0-0.1,0.1-0.2,0.1c-0.1-0.3-0.1-0.3-0.2-0.3
	c-0.1,0.1-0.2,0.1-0.3,0.2c-0.1,0.1-0.1,0.1-0.2,0.1c-0.1,0.1-0.3,0.1-0.5,0.3c-0.1,0.1-0.1,0.1-0.3,0.1c-0.1,0.1-0.2,0.2-0.3,0.2
	c-0.1,0-0.1,0.1-0.1,0.1c-0.1,0.1-0.1,0.1-0.3,0.1c0,0.1-0.1,0.1-0.1,0.1C14.2,17.9,14,18,13.9,18c0,0-0.1,0-0.1,0.1
	c-0.1,0-0.1,0.1-0.1,0.1c-0.1,0.1-0.1,0.1-0.1,0.1c-0.1,0-0.2,0.1-0.3,0.1c-0.1,0.1-0.3,0.1-0.3,0.3c-0.1,0.1-0.1,0.1-0.3,0.1
	c-0.1,0.1-0.2,0.1-0.3,0.3c-0.1,0.1-0.1,0.1-0.3,0.1h-0.1c-0.1,0.1-0.1,0.1-0.1,0.1c-0.1,0.1-0.3,0.3-0.5,0.4
	c-0.1,0.1-0.1,0.1-0.2,0.1c-0.1,0.1-0.1,0.1-0.1,0.1c0,0.1,0,0.1-0.1,0.1c-0.1,0.1-0.2,0.1-0.3,0.1v0.1c-0.1,0.1-0.2,0.1-0.3,0.1
	c-0.1,0-0.1,0-0.1,0.1c-0.1,0.1-0.3,0.1-0.3,0.1c0,0.1-0.1,0.1-0.1,0.1c-0.1,0.1-0.2,0.1-0.3,0.3c-0.1,0-0.1,0.1-0.1,0.1H9.6
	c-0.1,0.1-0.3,0.2-0.5,0.3c-0.1,0.1-0.2,0.1-0.3,0.3H8.8c-0.1-0.1-0.2,0.1-0.3,0.1c0,0.1,0,0.1-0.1,0.1c-0.1,0.1-0.1,0.1-0.2,0.1
	C8.2,22,8.1,22,8,22c-0.1,0-0.1,0-0.1,0.1c-0.1,0-0.1,0.1-0.1,0.1c-0.1,0.1-0.1,0.1-0.2,0.1v0.3v0.3c0,0.1,0,0.1-0.1,0.1
	c-0.1,0-0.1,0-0.1,0.1c-0.1,0.1-0.1,0.1-0.1,0.1c-0.1-0.1-0.1-0.1-0.1,0v0.1c0,0.1,0,0.1,0.1,0.2c0.1,0.1,0.1,0.1,0.2,0.2
	c0,0,0.1,0.1,0.1,0.1c0.1-0.1,0.1-0.1,0.1-0.1v0.1v0.3v0.5c0.1,0.1,0.1,0.2,0.1,0.3c-0.1,0.1,0,0.2,0,0.3c0,0.1,0,0.1,0.1,0.2
	c0,0.1-0.1,0.1-0.1,0.1c0,0.1,0.1,0.1,0.1,0.1v0.1c-0.1,0.1-0.1,0.2-0.1,0.3c0,0.1,0,0.1-0.1,0.2c-0.1,0.1-0.1,0.3-0.1,0.4v0.1
	C7.5,26.9,7.4,27,7.5,27L7.5,27z M27.9,15.5c0.1,0,0.3,0,0.4-0.1c0.1,0,0.1,0,0.1,0.1h0.1h0.1h0.1c0.1-0.1,0.1,0,0.1,0
	c0.1,0,0.1,0.1,0.1,0.1c0.1,0,0.1,0.1,0.3,0.1c0.1,0.1,0.2,0.1,0.3,0.1c0,0.1,0.1,0.1,0.1,0.1h0.1c0.1,0.1,0.2,0.1,0.2,0.2h0.1
	c0,0.1,0.1,0.1,0.1,0.1l0.3,0.5c0,0.1,0,0.1,0.1,0.1c0.1,0.1,0.1,0.1,0.1,0.1c0,0.1,0.1,0.1,0.1,0.3s0.1,0.2,0.1,0.3l0.1,0.1
	c0.1,0.1,0.1,0.1,0.1,0.1c0,0.1-0.1,0.1-0.1,0.1c0,0.1,0.1,0.1,0.1,0.1V18c0,0.1-0.1,0.1-0.1,0.3c-0.1,0.1-0.1,0.2-0.3,0.3
	c-0.1,0-0.1,0.1-0.1,0.1c-0.1,0-0.1,0.1-0.1,0.1c-0.1,0.1-0.1,0.1-0.2,0.1c-0.1,0-0.2,0-0.3-0.1h-0.1h-0.1c-0.1,0-0.1-0.1-0.1-0.1
	l-0.1-0.1c-0.1,0-0.1,0-0.1,0.1c-0.1-0.1-0.1-0.1-0.1-0.1c-0.1,0-0.1,0-0.1-0.1c-0.1-0.1-0.2-0.1-0.3-0.1c-0.1,0-0.1-0.1-0.1,0
	c-0.1,0-0.1,0-0.1-0.1c-0.1-0.1-0.1-0.1-0.1-0.2c0-0.1,0.1-0.1,0.1-0.1c-0.1-0.1-0.1-0.1-0.1-0.1c-0.1-0.1-0.1-0.1-0.1-0.2v-0.1
	c-0.1-0.1-0.1-0.1-0.1-0.3c-0.1-0.1-0.1-0.1-0.1-0.2c0-0.1-0.1-0.1-0.1-0.2c0-0.1-0.1-0.1-0.1-0.2C28,16.6,28,16.5,28,16.5
	c-0.1-0.1-0.1-0.1-0.1-0.2c-0.1-0.1-0.1-0.1-0.1-0.1c-0.1-0.1-0.1-0.2-0.2-0.3c0.1-0.1,0-0.1,0.1-0.3c0.1,0.1,0.1,0.1,0.1,0.1
	C27.7,15.5,27.7,15.4,27.9,15.5z M25.6,6.7c-0.1-0.1-0.3-0.1-0.4-0.2h-0.1c-0.1,0-0.1-0.1-0.3-0.1c-0.1-0.1-0.1-0.1-0.1-0.1
	c-0.1,0-0.1-0.1-0.2-0.1h-0.1c-0.1-0.1-0.1-0.1-0.1-0.1c0.1,0,0.1-0.1,0.1-0.1c0.1-0.1,0.1-0.3,0-0.4c-0.1-0.1-0.1-0.2-0.3-0.3
	c0-0.2-0.1-0.3-0.2-0.5c0-0.1-0.1-0.1-0.1-0.3v0.1c0-0.1,0.1-0.1,0.1-0.1c0.1,0,0.1,0,0.1-0.1c0.1-0.1,0.2-0.1,0.3-0.1h0.1
	c0.1-0.1,0.1,0,0.2,0c0.1,0.1,0.2,0.1,0.3,0.1h0.1h0.1c0.1-0.1,0.3-0.1,0.3-0.1H26h0.1c0.1-0.1,0.1-0.1,0.1-0.1h0.1
	c0.1,0,0.1-0.1,0.2,0c0.1,0.1,0.1,0.1,0.1,0.1c0-0.1,0-0.1,0.1-0.1c0.1,0,0.1,0,0.2,0.1H27c0.1,0,0.1,0.1,0.2,0.1
	c0.1,0,0.1,0.1,0.1,0.1c0,0.1,0.1,0.2,0.1,0.3c0.1,0.1,0,0.1,0.1,0.2c0,0.1,0.1,0.1,0,0.2V5.3v0.2v0.1c-0.1,0.1-0.1,0.3-0.1,0.3
	c0,0.1,0,0.1,0.1,0.2c0,0.1-0.1,0.1-0.1,0.1c0,0.1-0.1,0.1-0.1,0.1c0.1,0.1,0,0.2-0.1,0.3c0,0.1-0.1,0.2-0.1,0.3
	c0,0.1,0,0.1-0.1,0.2c-0.1,0.1-0.1,0.1-0.1,0.1C27,7.4,27,7.5,26.9,7.6l-0.1,0.1c-0.1,0-0.3-0.1-0.3-0.2c-0.1,0-0.3,0-0.3-0.1
	l-0.1-0.1c-0.1-0.1-0.1-0.1-0.2-0.2C26,7.1,26,7,26,7c-0.1,0-0.2-0.1-0.3-0.1C25.7,6.8,25.6,6.8,25.6,6.7z"/>
</svg>
