<?xml version="1.0" encoding="utf-8"?>
<!-- Generator: Adobe Illustrator 25.2.3, SVG Export Plug-In . SVG Version: 6.00 Build 0)  -->
<svg version="1.1" id="Layer_1" xmlns="http://www.w3.org/2000/svg" xmlns:xlink="http://www.w3.org/1999/xlink" x="0px" y="0px"
	 viewBox="0 0 40 40" style="enable-background:new 0 0 40 40;" xml:space="preserve">
<style type="text/css">
	.st0{fill:#D50032;}
</style>
<path class="st0" d="M15.9,20.2c0-0.1,0.1-0.1,0.1-0.1c0.1-0.1,0.1-0.1,0.1-0.3h0.1c0.1,0,0.1,0.1,0.1,0.1c0.1,0.1,0.1,0.1,0.2,0.1
	h0.1c0.1,0,0.1,0.1,0.1,0.1c0.1,0.1,0.1,0.1,0.2,0.1c0.1,0.1,0.2,0.1,0.3,0.1h0.1h0.1c0.1,0.1,0.1,0.1,0.3,0.1
	c0.1,0.1,0.1,0.1,0.2,0.1h0.1c0.1,0.1,0.1,0.1,0.2,0.1c0,0,0,0.1,0.1,0.1c0.1,0,0.1,0.1,0.1,0.1c0.1,0,0.1,0.1,0.2,0.1v0.1
	c0.1,0.1,0.1,0.1,0.3,0.1h0.1c0.1,0.1,0.2,0.1,0.3,0.1c0.1,0.1,0.3,0.1,0.3,0.1c0.1,0,0.1,0.1,0.1,0.1c0.1,0,0.2,0.1,0.3,0.1
	c0.1,0.1,0.1,0.1,0.3,0.1h0.1c0.1,0.1,0.1,0.1,0.2,0.1l0.1,0.1c0,0.1,0.1,0.1,0.1,0.1c0.1,0,0.1,0,0.1-0.1c0.1,0,0.1,0,0.1,0.1
	c0.1,0.1,0.1,0.1,0.1,0.1c0.1,0,0.1,0,0.1-0.1c0.1,0,0.1,0,0.1-0.1v-0.1c0-0.1-0.1-0.1-0.1-0.1c-0.1-0.1-0.1-0.1-0.2-0.1
	c-0.1-0.1-0.1-0.1-0.1-0.1c-0.1-0.1-0.1-0.1-0.3-0.1c-0.1-0.1-0.1-0.1-0.1-0.1c-0.1,0-0.2-0.1-0.3-0.1v-0.1c-0.1,0-0.1-0.1-0.1-0.1
	c0-0.1-0.1-0.1-0.1-0.1c-0.1-0.1-0.2-0.1-0.3-0.1H19h-0.1v-0.1c0-0.1,0-0.1-0.1-0.1c-0.1-0.1-0.1-0.1-0.1-0.1
	c-0.1,0.1-0.1,0.1-0.1,0.1c0-0.1-0.1-0.1-0.1-0.1c-0.1-0.1-0.1-0.1-0.1-0.1c-0.1-0.1-0.1-0.1-0.2-0.1h0.1c-0.1-0.1-0.1-0.1-0.1-0.1
	c-0.1-0.1-0.2-0.1-0.3-0.3l-0.3-0.3c-0.1-0.1-0.1-0.1-0.2-0.1c-0.1-0.1-0.1-0.1-0.3-0.1c-0.1-0.1-0.2-0.1-0.3-0.3h-0.1
	c-0.1-0.1-0.2-0.1-0.3-0.2c0,0,0-0.1-0.1-0.1c-0.1,0-0.1-0.1-0.2-0.1c0-0.1-0.1-0.1-0.1-0.1h-0.1c-0.1-0.1-0.1-0.1-0.3-0.3
	c-0.1-0.1-0.2-0.2-0.3-0.3c-0.1-0.1-0.1-0.1-0.2-0.1c0-0.1-0.1-0.1-0.1-0.2c-0.1-0.1-0.1-0.1-0.1-0.1c-0.1-0.1-0.1-0.1-0.3-0.1
	c-0.1,0-0.2,0-0.3-0.1c-0.1-0.1-0.1-0.3-0.3-0.3v-0.1c-0.1-0.1-0.1-0.1-0.1,0c-0.1,0-0.1-0.1-0.1-0.1L14,16.4
	c-0.3,0.2-0.3,0.1-0.3,0c-0.1-0.1-0.2-0.3-0.4-0.3c0,0,0-0.1-0.1-0.1l-0.1-0.1c-0.1,0-0.1-0.1-0.1-0.1c-0.1-0.1-0.1-0.1-0.3-0.2
	c-0.1-0.1-0.1-0.1-0.1-0.1c-0.1-0.1-0.1-0.1-0.2-0.3h-0.1c0-0.1-0.1-0.1-0.1-0.1C12.3,15,12.3,15,12.2,15h-0.1
	c-0.1-0.1-0.3-0.1-0.3-0.3c-0.1,0.1-0.1,0.1-0.1,0c0-0.1-0.1-0.1-0.1-0.1c-0.1,0-0.1-0.1-0.2-0.1c0,0,0-0.1-0.1-0.1
	c-0.1-0.1-0.1-0.1-0.1-0.2c-0.1-0.1-0.2-0.2-0.3-0.3c0,0-0.1-0.1-0.1-0.1c-0.1-0.1-0.2-0.1-0.3-0.3c-0.1-0.1-0.1-0.1-0.1-0.1
	c-0.1-0.1-0.2-0.1-0.3-0.3c-0.1-0.1-0.2-0.2-0.3-0.3c-0.1,0-0.1-0.1-0.3-0.1c-0.1-0.1-0.1-0.1-0.2-0.1c-0.1-0.1-0.1-0.1-0.2-0.2
	c0-0.1-0.1-0.1-0.1-0.1c-0.1-0.1-0.2-0.2-0.3-0.3c-0.1-0.1-0.1-0.1-0.2-0.2c-0.2,0.1-0.2,0.1-0.3,0.1H8.5c-0.1-0.1-0.1-0.2-0.2-0.3
	c0-0.1-0.1-0.1-0.1-0.1c0-0.1-0.1-0.1-0.1-0.2L8,11.2c-0.1,0-0.1-0.1-0.3-0.1C7.7,11,7.7,11,7.7,10.9c0-0.1-0.1-0.1-0.1-0.1H7.4
	c-0.1-0.1-0.1-0.2-0.1-0.3v6.7c0.1,0.1,0.1,0.1,0.1,0.1c0,0.1,0,0.1-0.1,0.1c0,0.1-0.1,0.1-0.1,0.2v0.7v0.3h0.1
	c0.1-0.1,0.2-0.3,0.3-0.4c0.1-0.1,0.1-0.1,0.1,0h0.2H8c-0.1,0.1-0.1,0.3,0,0.4v0.1c0,0,0,0.1,0.1,0.1c0,0.1,0.1,0.1,0.1,0.3
	c0.1,0.1,0.1,0.1,0.1,0.3c0.1,0.1,0.1,0.1,0.1,0.1v0.1c0,0.1,0.1,0.1,0.1,0.2c0.1,0,0.1,0.1,0.1,0.1c0,0,0,0.1,0.1,0.1
	c0.1,0.1,0.3,0.3,0.3,0.3C9,20.3,9,20.4,9,20.4c0.1,0.1,0.1,0.2,0.3,0.3c0.1,0.1,0.1,0.1,0.2,0.1l0.1,0.1c0.1,0.1,0.3,0.1,0.3,0.3
	l0.1,0.1c0.1,0.1,0.1,0.1,0.1,0.1c0.1,0,0.1,0.1,0.1,0.1c0.1,0.1,0.2,0,0.3,0.1c0.1,0.1,0.1,0.1,0.2,0.1c0.1,0,0.1,0.1,0.1,0.1
	c0.1,0.1,0.1,0.1,0.1,0.1c0.1,0.1,0.2,0.2,0.3,0.3c0.1,0.1,0.1,0.1,0.3,0.2c0.1,0,0.1,0.1,0.1,0.1c0.1,0.1,0.3,0.1,0.3,0.1
	c0.1,0,0.1,0.1,0.1,0.1c0.1,0,0.1,0.1,0.1,0.1c0.1,0,0.1,0,0.2,0.1c0,0.1,0,0.1,0.1,0.1c0.1,0,0.2,0.1,0.3,0.1
	c0.1,0.1,0.1,0.1,0.1,0.1c0.1,0,0.1,0.1,0.1,0.1c0.1,0.1,0.1,0.1,0.1,0.1c0.1,0.1,0.1,0.1,0.1,0.1l0.1,0.1c0.5-0.4,0.6-0.3,0.7-0.3
	c0.1,0,0.1,0.1,0.2,0.1c0.1,0,0.1,0,0.2,0.1c0,0,0.1,0.1,0.1,0.1h0.1c0.1,0.1,0.2,0.1,0.3,0.1c0.1,0.1,0.1,0.1,0.1,0.1l0.1,0.1
	c0.1,0,0.2,0.1,0.3,0.1c0.1,0.1,0.2,0.1,0.3,0.1c0.1,0.1,0.1,0.1,0.2,0.1h0.1c0.1,0.1,0.1,0.1,0.1,0.1c0.1,0.1,0.1,0.1,0.3,0.1
	c0.1,0.1,0.1,0.1,0.2,0.1c0.1,0.1,0.1,0.1,0.3,0.2c0,0.1,0.1,0.1,0.1,0.1c0.1,0.1,0.1,0.1,0.2,0.1c0.1,0,0.1,0.1,0.1,0.1
	c0.1,0.1,0.1,0.1,0.1,0.1c0.1,0,0.1,0.1,0.1,0.1c0.1,0.1,0.1,0.1,0.2,0.1c0.1,0.1,0.2,0.1,0.2,0.1l0.1,0.1c0.1,0,0.1-0.1,0.1-0.1
	c0.1,0.1,0.1,0.1,0.1,0.1h0.3h0.1c0,0.1,0.1,0.1,0.1,0.1c0.1,0.1,0.1,0.1,0.1,0.1c0,0.1,0.1,0.1,0.1,0.1c0.1,0,0.1-0.1,0.1-0.1v-0.1
	c0.1,0.1,0.1,0.1,0.1,0.1c0,0.1,0.1,0.1,0.1,0.1h0.3c0.2,0.1,0.4,0.1,0.6,0.1c0.1,0,0.1,0,0.1-0.1v-0.1c0-0.1-0.1-0.3-0.2-0.3
	c-0.1,0-0.1,0-0.1-0.1c0-0.1-0.3-0.3-0.3-0.3c-0.1,0-0.1-0.1-0.1-0.1c-0.1-0.1-0.1-0.1-0.1-0.1c-0.1-0.1-0.2-0.2-0.3-0.3
	c-0.1-0.1-0.2-0.1-0.3-0.3c-0.1-0.1-0.1-0.1-0.2-0.1c-0.1-0.1-0.1-0.1-0.2-0.1c-0.1,0-0.1,0-0.1-0.1c-0.2-0.1-0.4-0.3-0.5-0.4
	c-0.1-0.1-0.3-0.3-0.4-0.3c-0.1-0.1-0.1-0.1-0.2-0.1c0-0.1-0.1-0.1-0.1-0.1c-0.1-0.1-0.3-0.2-0.5-0.3l0.1-0.1v-0.1
	c-0.1-0.1-0.1-0.1,0-0.2c0-0.1,0-0.1-0.1-0.1c0.1-0.1,0.1-0.1,0.1-0.1c0-0.1,0-0.1,0.1-0.2c0.1-0.1,0.1-0.1,0.1-0.1
	c0.1-0.1,0.1-0.2,0.1-0.3V21v-0.1c0.1-0.1,0.1-0.2,0-0.3v-0.1c-0.1-0.1-0.1-0.1,0-0.1C15.8,20.4,15.9,20.4,15.9,20.2z"/>
<path class="st0" d="M33.4,32.4c0-0.1,0-0.3-0.1-0.3v-0.3c0-0.1-0.1-0.3-0.1-0.4c0-0.1-0.1-0.1-0.1-0.1c0.1-0.1,0.1-0.3,0.1-0.3
	h-0.1v-0.3l0.1-0.1c0.1,0,0-0.1,0-0.1c0-0.1-0.1-0.1,0.1-0.2c0,0,0-0.1-0.1-0.1v-0.1c0.1-0.1,0.1-0.2,0.1-0.3c0,0,0-0.1-0.1-0.1v0.1
	c-0.1,0-0.1-0.1-0.1-0.1C33,29.6,33,29.6,33,29.5c0.1-0.1,0.1-0.1,0.1-0.1c0.1-0.1,0.1-0.1,0.1-0.1c0-0.1,0-0.1-0.1-0.1
	c-0.1,0-0.1-0.1,0-0.2c0-0.1,0.1-0.1,0-0.1h-0.1v-0.3c0.1-0.1,0.1-0.1,0.1-0.2c0-0.1,0-0.1-0.1-0.1v0.1v-0.1c0.1,0,0.1,0,0.1,0.1
	v-0.1v-0.1c-0.1-0.2-0.1-0.3,0-0.5v-0.1v-0.7c0-0.1,0.1-0.3,0.1-0.5c0,0.1,0,0.1,0,0.1c0-0.1,0-0.1,0.1-0.1V26
	c-0.1-0.2-0.1-0.6-0.1-0.7c0-0.1,0.1-0.1,0.1-0.1v-0.3v-0.7c0-0.2,0-0.4-0.1-0.6V23v-0.7v-0.5v-0.5v-0.7c0-0.1,0-0.3,0-0.5v-0.5
	v-0.6v-0.5v-0.5c0-0.3-0.1-0.5-0.1-0.7v-0.6v-0.7v-0.6v-0.7c0-0.2-0.1-0.4-0.1-0.6v-0.5v-0.5v-0.4v-0.2v-0.1
	c-0.1-0.1-0.1-0.1-0.1-0.3V8c0-0.1,0-0.1-0.1-0.1V7.7v-1V5.9V5.4V4.7C33,4.5,33,4.3,33,4.1V3.4V2.9V2.2c0-0.3-0.1-0.5-0.1-0.7
	c0-0.1,0-0.1-0.1-0.1c-0.1-0.1-0.3-0.3-0.3-0.5c-0.1-0.1-0.1-0.1-0.1-0.1c-0.1-0.1-0.3-0.2-0.3-0.3c-0.1-0.1-0.2-0.1-0.3-0.1
	c-0.1,0.1-0.1,0.1-0.2,0c-0.1-0.1-0.1-0.1-0.2-0.1h-0.1c0-0.1-0.1-0.1-0.1-0.1C31.1,0,30.9,0,30.6,0h-0.7h-0.5h-0.1
	c-0.1,0-0.1,0-0.2,0.1c0,0.1-0.1,0.1-0.1,0C29,0,28.9,0,28.9,0c-0.2,0.1-0.3,0.1-0.3,0.1h-0.1c-0.1,0-0.1,0.1-0.1,0.1h-0.3h-1h-0.3
	h-0.3H26h-0.6h-0.4C25,0.3,25,0.3,24.9,0.3c-0.1,0.1-0.1,0.1-0.2,0.1h-0.2h-0.5h-0.6H23h-0.5h-0.3h-0.3h-0.3h-0.5h-0.5h-0.5H20h-0.7
	h-0.7h-0.7h-0.5h-0.3h-0.3c-0.1-0.1-0.1-0.1-0.2,0h-0.1h-0.5H16c-0.1,0.1-0.1,0.1-0.3,0.1H15h-0.3c-0.1-0.1-0.3,0-0.5,0.1h-0.5h-0.1
	c-0.1,0-0.3,0-0.3-0.1c-0.1-0.1-0.1-0.1-0.1-0.1H13c-0.1,0-0.3,0-0.5,0.1H12c-0.1,0-0.3,0-0.5,0.1h-0.1c-0.1,0-0.1,0-0.1,0.1
	s-0.1,0.1-0.1,0C11.1,0.4,11,0.4,11,0.4h-0.6c-0.2,0.1-0.3,0.1-0.5,0.1H9.7c-0.1,0-0.1-0.1-0.2-0.1c-0.1,0-0.1,0-0.1,0.1
	c0,0.1-0.1,0.1-0.1,0.1H9.1H9C9,0.6,9,0.6,9,0.7C9,0.7,9,0.7,8.9,0.6c0,0,0-0.1-0.1-0.1L8.8,0.6c0,0.1,0.1,0.2,0.1,0.2
	c0.1,0,0.1,0.1,0.1,0.1C9,1,9,1,9,1v0.1H8.8V0.9c0-0.1,0-0.1-0.1-0.1C8.7,0.8,8.7,0.9,8.7,1C8.6,0.9,8.5,0.8,8.4,0.8
	C8.3,0.8,8.2,0.9,8.1,1C8,1,8,1,8,1C8,1.2,7.8,1.4,7.6,1.6c-0.1,0-0.1,0.1-0.1,0.1c0,0.1-0.1,0.3-0.1,0.4C7.4,2.2,7.4,2.2,7.4,2.3
	c0,0.2,0,0.4-0.1,0.6v0.1C7.3,3,7.3,3.1,7.3,3.2v0.5v0.7v0.1c0.1,0,0.1,0,0.1-0.1c0-0.1,0-0.1,0.1-0.1v0.2c0,0.1-0.1,0.1-0.1,0.1
	c-0.1,0-0.1,0-0.1-0.1c0,0.1,0,0.1,0,0.2v0.6v0.7h0.1C7.4,6,7.3,6,7.3,6v0.3v0.3v1.1v0.7v0.5v0.5c0,0.1,0.1,0.1,0.1,0.1
	c0.1,0,0.1-0.1,0.1-0.1c0.1-0.1,0.1-0.1,0.2-0.1c0.1-0.1,0.1-0.1,0.1-0.1c0.1,0.1,0.2,0.1,0.3,0C8,9.2,8,9.1,8.1,9.1
	C8.2,9.1,8.2,9,8.2,8.9c0.1-0.1,0.1-0.3,0.3-0.3c0.1-0.1,0.2-0.1,0.3-0.1c0.1-0.1,0.1-0.1,0.1-0.1c0.1-0.1,0.1-0.1,0.1-0.1
	C8.9,8.1,9.1,8,9.3,8.1h0.1V8V7.8c-0.1,0-0.1,0-0.1-0.1s0-0.1,0.1-0.1c0.1,0,0.1,0,0.2,0.1c0,0,0.1,0.1,0.1,0c0.1-0.1,0.1,0,0.1,0
	C9.9,7.9,10,8,10.1,8c0.1,0.1,0.3,0.1,0.3,0.1c0.1,0.1,0.1,0.1,0.1,0.1c0.1,0,0.2,0.1,0.3,0.2c0.1,0.1,0.1,0.1,0.2,0.1
	c0,0,0.1,0.1,0.1,0.1c0.1,0.1,0.1,0.1,0.3,0.1c0.1,0.1,0.3,0.3,0.4,0.3h0.1c0,0.1,0,0.1,0,0.1c-0.1,0.1-0.1,0.3,0,0.4
	c0.1,0,0.1,0.1,0.1,0.1c0.1,0.1,0.1,0.1,0.1,0.1C12,9.9,12,9.9,12,9.9c0.1,0,0.1,0,0.2,0.1c0.1,0.1,0.1,0.1,0.1,0.1l0.1,0.1
	c0,0.1,0.1,0.1,0.1,0.1c0.1,0.1,0.1,0.1,0.1,0.1c0.1,0.1,0.1,0.1,0.2,0.2c0.1,0.1,0.1,0.2,0.2,0.3c0.1,0.1,0.2,0.3,0.3,0.4
	c0,0,0.1,0,0.1,0.1c0.1,0.1,0.1,0.1,0.2,0.3c0.1,0.1,0.1,0.1,0.2,0.1c0.1,0,0.1,0.1,0.1,0.1c0.1,0.1,0.1,0.1,0.2,0.2l0.1,0.1
	c0.1,0.1,0.1,0.1,0.1,0.1c0.1,0.1,0.2,0.2,0.3,0.3c0.1,0.1,0.2,0.3,0.3,0.3c0.1,0,0.1,0,0.1,0.1c0.1,0,0.1,0.1,0.1,0.1
	c0.1,0.1,0.1,0.1,0.3,0.2c0,0.1,0.1,0.1,0.1,0.1c0.1,0.1,0.1,0.1,0.2,0.2h0.1c0,0.1,0.1,0.1,0.1,0.1c0.1,0,0.1,0,0.1,0.1
	c0.1,0.1,0.1,0.1,0.3,0.2c0.1,0.1,0.1,0.1,0.1,0.1c0,0.1,0.1,0.1,0.1,0.1c0.1,0.1,0.1,0.1,0.2,0.1c0.1,0.1,0.1,0.1,0.2,0.2h0.1
	c0.1,0.1,0.2,0.2,0.3,0.3c0.1,0.1,0.1,0.2,0.3,0.3c0,0,0,0.1,0.1,0.1c0.1,0.1,0.3,0.3,0.5,0.3c0,0.1,0.1,0.1,0.1,0.1l0.1,0.1
	c0.1,0.1,0.1,0.1,0.2,0.2c0.1,0.1,0.1,0.1,0.1,0.2c0.1,0.1,0.1,0.1,0.1,0.1c0.1,0,0.1,0.1,0.2,0.1c0.1,0,0.1,0.1,0.1,0.1
	c0.1,0.1,0.1,0.1,0.2,0.2c0.1,0.1,0.1,0.1,0.1,0.1c0.1,0.1,0.1,0.1,0.1,0.1c0.1,0,0.1,0.1,0.1,0.1c0.1,0.1,0.1,0.1,0.1,0.1
	c0.1,0,0.1,0,0.1-0.1c0.1,0.1,0.1,0.1,0.2,0.1c0,0.1,0,0.1,0.1,0.1h0.5c0.1,0.1,0.1,0.1,0.1,0.1c0,0.1,0.1,0.1,0.1,0.1
	c0.1,0.1,0.1,0.1,0.1,0.1c0,0.1,0.1,0.1,0.1,0.1c0.1,0.1,0.1,0.1,0.3,0.1l0.1,0.1c0.1,0.1,0.2,0.1,0.3,0.2l0.1,0.1
	c0.1,0.1,0.1,0.1,0.2,0.1c0,0.1,0.1,0.1,0.1,0.1c0.1,0.1,0.1,0.1,0.3,0.3h0.1c0.1,0,0.1,0.1,0.1,0.1c0.1,0.1,0.1,0.1,0.3,0.1
	c0,0.1,0.1,0.1,0.1,0.1c0.1,0,0.1,0.1,0.1,0.1c0.1,0,0.1,0.1,0.1,0.1c0.1-0.1,0.1,0,0.1,0.1c0.1,0,0.1,0,0.1,0.1
	c0,0,0.1,0.1,0.1,0.1c0.1,0.1,0.2,0.1,0.3,0.3c0.1,0,0.1,0.1,0.1,0.1h0.1c0.1,0.1,0.2,0.1,0.3,0.1l0.2-0.9c0.1,0,0.1,0.1,0.2,0.1
	c0.1,0.1,0.1,0.1,0.1,0.1c0.1,0.1,0.1,0.1,0.2,0.2h0.1c0,0.1,0.1,0.1,0.1,0.1c0.1,0.1,0.1,0.1,0.1,0.1c0.1,0,0.1,0.1,0.3,0.1
	c0.1,0.1,0.1,0.1,0.2,0.1C24,20,24,20,24,20c0.1,0.1,0.1,0.1,0.1,0.1c0.1,0.1,0.1,0.1,0.2,0.1l0.1,0.1c0.1,0.1,0.1,0.1,0.2,0.1
	l0.1,0.1c0.1,0,0.1,0.1,0.1,0.1l0.1,0.1c0.1,0,0.1,0.1,0.2,0.1c0.1,0.1,0.2,0.1,0.3,0.2c0.1,0.1,0.1,0.1,0.1,0.1
	c0.1,0.1,0.1,0.1,0.3,0.1c0.1,0,0.1,0,0.1,0.1h0.1c0.1-0.1,0.2,0.1,0.3,0.1l0.1,0.1c0.1,0.1,0.1,0.1,0.3,0.2
	c0.1,0.1,0.1,0.1,0.2,0.1c0.1-0.1,0.1,0,0.1,0c0.1,0.1,0.1,0.1,0.2,0.1l0.1,0.1c0.1,0,0.1,0,0.3-0.1v-0.3h0.1c0.1-0.1,0.1,0,0.1,0
	c0.1,0.1,0.1,0.1,0.1,0.3c0,0.1,0.1,0.2,0.1,0.3c0,0.1,0.1,0.1,0.1,0.1l0.1,0.1c0.1,0,0.1,0.1,0.1,0.1c-0.1,0.1-0.1,0.2-0.1,0.3
	c-0.1,0.1-0.1,0.1,0,0.3l0.1-0.1c-0.1,0-0.1,0.1-0.1,0.1c0,0.1-0.1,0.1-0.1,0.1v0.1l-0.1,0.1c-0.1,0.1-0.1,0.1-0.1,0.1l-0.1,0.1
	c0,0,0,0.1-0.1,0.1c-0.1,0.1-0.1,0.1-0.1,0.3c0,0.1-0.1,0.1-0.1,0.1h-0.1c-0.1,0.1-0.1,0.1-0.1,0.2c-0.1,0-0.1,0.1-0.1,0.1
	c0,0.1-0.1,0.1-0.1,0.1c-0.1,0.1-0.1,0.1-0.1,0.2c-0.1,0.1-0.1,0.2-0.1,0.3c0,0.1,0,0.1-0.1,0.1c-0.1-0.1-0.1,0-0.1,0.1
	s0,0.1-0.1,0.1v0.1v0.1H26c-0.1,0.1-0.1,0.1-0.1,0.1c-0.1,0-0.1-0.1-0.1-0.1l-0.1-0.1h-0.3c-0.1,0.1-0.1,0-0.3,0.1h-0.1
	c-0.1-0.1-0.1-0.1-0.3-0.1c-0.1,0.1-0.1,0.1-0.2,0h-0.1c-0.1,0.1-0.1,0-0.2-0.1c-0.1,0-0.1-0.1-0.1-0.1c-0.1,0.1-0.1,0.1-0.1,0
	c-0.1-0.1-0.2,0-0.3-0.1H24c-0.1-0.1-0.1-0.1-0.3-0.1c-0.1-0.1-0.1-0.1-0.1-0.1c-0.1,0-0.1,0-0.1-0.1c-0.1-0.1-0.1-0.1-0.1-0.1h-0.1
	c-0.1-0.1-0.1-0.1-0.3-0.1c-0.1,0-0.1,0-0.2-0.1c-0.1-0.1-0.1,0-0.1,0h-0.1c-0.1-0.1-0.1-0.1-0.2-0.1c0-0.1-0.1,0-0.1,0
	c-0.1-0.1-0.2-0.1-0.3-0.1h-0.1c-0.1-0.1-0.1-0.1-0.3-0.1c-0.1-0.1-0.2-0.1-0.3-0.1c-0.1,0-0.1-0.1-0.1-0.1
	c-0.1-0.1-0.2-0.1-0.3-0.1c0.1,0.1,0.1,0.1,0.1,0.1c0.1,0.1,0.2,0.1,0.3,0.3c0.1,0.1,0.2,0.3,0.3,0.3c0.1,0,0.1,0.1,0.1,0.1
	c0.1,0.1,0.2,0.3,0.2,0.5v0.1c0.1,0.1,0.1,0.1,0,0.1c0,0.1,0,0.1,0.1,0.1v0.1c0,0,0.1,0.1,0,0.1c0,0.1-0.1,0.1-0.1,0.1
	c-0.1,0.1-0.2,0.2-0.3,0.3c-0.1,0.1-0.1,0.3-0.3,0.3c-0.1,0-0.1,0.1-0.2,0.1c0,0-0.1,0.1-0.1,0.1c0.1,0.1,0.1,0.1,0.1,0.1
	c0.1,0.1,0.1,0.1,0.1,0.1l0.1,0.1c0.1,0.1,0.1,0.1,0.1,0.1c0,0,0,0.1,0,0c0.1,0,0.1,0,0.1-0.1c0.1,0.1,0.1,0.1,0.2,0.1
	c0.1,0.1,0.1,0.1,0.3,0.1c0.1,0,0.1,0,0.1,0.1h0.1c0.1,0,0.1,0.1,0.1,0.1c0.1,0,0.1,0.1,0.2,0.1c0.1,0.1,0.2,0.1,0.3,0.1
	c0.1,0,0.2,0.1,0.3,0.1c0.1,0.1,0.3,0.1,0.5,0.2c0.1,0.1,0.3,0.1,0.5,0.3c0.1,0,0.1,0.1,0.2,0.1c0.1,0.1,0.3,0.1,0.5,0.1
	c0.1,0.1,0.1,0.1,0.3,0.1c-0.1,0-0.1,0.1-0.3,0.1c-0.1,0.1-0.3,0.1-0.5,0.1c-0.4-0.1-0.5,0-0.7,0C23.2,29,23,29,22.8,29.1
	c-0.1,0.1-0.3,0.1-0.3,0.1c-0.2,0-0.3,0-0.5,0.1c-0.1,0-0.1,0-0.1-0.1c-0.1-0.1-0.1-0.1-0.1-0.1h-0.3c0,0-0.1,0-0.1-0.1
	c-0.1-0.1-0.1-0.1-0.3-0.1c-0.1-0.1-0.1-0.1-0.1,0c-0.1-0.1-0.1-0.1-0.1-0.1c-0.1-0.1-0.1-0.1-0.2-0.1l-0.1-0.1
	c-0.1-0.1-0.2-0.1-0.3-0.1c-0.1-0.1-0.2-0.1-0.3-0.1c-0.3,0-0.5-0.1-0.5-0.3L19.5,28c-0.1-0.1-0.1-0.1-0.1-0.1
	c-0.1,0-0.1-0.1-0.1-0.1c0-0.1-0.1-0.1-0.1-0.1c0-0.1-0.1-0.1-0.1-0.1c-0.1-0.1-0.2-0.1-0.3-0.1c-0.1,0-0.1-0.1-0.1-0.1
	c0-0.1-0.1-0.1-0.1,0c0-0.1,0-0.1-0.1-0.1c-0.1-0.1-0.1-0.1-0.1-0.1c-0.1-0.1-0.1-0.1-0.1-0.1L18.5,27c0-0.1-0.1-0.1-0.1-0.1
	c-0.1-0.1-0.3-0.1-0.3-0.2c-0.2,0.2-0.3,0.1-0.4,0.1s-0.1-0.1-0.1-0.1c-0.1-0.1-0.1-0.1-0.1-0.1c-0.1,0-0.1-0.1-0.1-0.1
	c-0.2-0.1-0.3-0.2-0.5-0.3c-0.1,0-0.1-0.1-0.3-0.1c-0.1,0-0.1-0.1-0.1-0.1c-0.1-0.1-0.1-0.1-0.2-0.2c-0.1-0.1-0.2-0.1-0.3-0.1
	c-0.1,0-0.2-0.1-0.3-0.1c-0.1-0.1-0.1-0.1-0.1-0.1c-0.1,0-0.1-0.1-0.1-0.1c-0.1,0-0.2-0.1-0.3-0.1c-0.1-0.1-0.1-0.1-0.2-0.1
	c-0.1-0.1-0.1-0.1-0.1-0.1C15,25.1,14.9,25,14.8,25l-0.1-0.1c-0.1-0.1-0.1-0.1-0.2-0.1c-0.1,0.1-0.1,0-0.1-0.1
	c-0.1-0.1-0.1-0.1-0.1-0.1c-0.1-0.1-0.2-0.1-0.3-0.2c-0.1-0.1-0.1-0.1-0.1-0.1c-0.1,0-0.1-0.1-0.2-0.1c-0.1,0-0.2-0.1-0.3-0.1
	C13.3,24,13.3,24,13.2,24s-0.1-0.1-0.2-0.1c-0.1-0.1-0.1-0.1-0.1-0.1c-0.1,0-0.1-0.1-0.1-0.1c-0.1-0.1-0.1-0.1-0.2-0.1h-0.4
	c-0.1-0.1-0.1-0.1-0.1-0.1c-0.1,0-0.1-0.1-0.1,0c-0.1,0-0.1-0.1-0.1-0.1c-0.1,0-0.1-0.1-0.3-0.1c-0.1,0-0.1-0.1-0.1-0.1
	C11.4,23,11.4,23,11.2,23c-0.1,0-0.1-0.1-0.1-0.1C11,22.8,11,22.8,11,22.8h-0.1c-0.1-0.1-0.1-0.1-0.2-0.1c-0.1,0-0.1,0-0.1-0.1
	l-0.1-0.1C10.4,23,10.1,23,10.1,23c-0.1-0.1-0.1-0.1-0.1-0.1c-0.1-0.1-0.3-0.2-0.5-0.3c-0.1,0-0.1,0-0.1-0.1c-0.1,0-0.1,0-0.1-0.1
	c-0.2,0.1-0.3-0.1-0.3-0.1c-0.1,0-0.1-0.1-0.2-0.1H8.7l-0.1-0.1C8.6,22,8.4,22,8.2,21.9c-0.1-0.1-0.1-0.1-0.1-0.1
	C8,21.9,8,21.8,8,21.7c0-0.1,0-0.1-0.1-0.1v0.1c0-0.1,0-0.1-0.1-0.1c-0.1-0.1-0.1-0.2-0.2-0.3c-0.1,0-0.1-0.1-0.1-0.1
	c-0.1-0.1-0.3-0.2-0.3-0.3v-0.1v0.1v0.8v0.5v0.5V23v0.3v0.4V24v0.2c-0.1,0.1-0.1,0.3-0.1,0.5c0,0.1,0.1,0.3,0.1,0.4
	c0.1,0,0.1,0.1,0.1,0.1l-0.1,0.1c-0.1,0.1-0.2,0.1-0.1,0.2c0,0.1-0.1,0.2-0.1,0.3c-0.1,0.1-0.1,0.2,0,0.3c0.1,0.1,0.1,0.1,0.1,0.2
	c0,0.1,0,0.3,0.1,0.5v0.1c0,0.1,0,0.1,0.1,0.1c0,0.1,0,0.2,0.1,0.3c0.1,0.1-0.3,0.1-0.3,0.1v0.1c0.1,0,0.1,0.1,0.1,0.1
	c0.1,0,0.1,0.1,0,0.1c0.1,0.1,0.1,0.1,0.1,0.3v0.1v0.1C7.5,28,7.5,28,7.5,28v0.1c-0.1,0.1-0.1,0.2,0,0.3c0.1,0.3,0.1,0.5,0.1,0.8
	c0,0.1-0.1,0.1-0.1,0.1c0.1,0.1,0.1,0.1,0.1,0.2c-0.1,0.1-0.1,0.1,0,0.3c0.1,0.1,0.1,0.1,0.1,0.1c0,0.1,0.1,0.2,0.1,0.3
	c0,0.1,0.2-0.1,0.2-0.1h0.1c0.1,0.3,0.1,1.1,0,1.2c-0.1-0.1-0.1-0.2-0.1-0.3c-0.1,0-0.1,0.1-0.1,0.1v0.1c0.1,0.1,0,0.1-0.1,0.1H7.6
	c0,0.1-0.1,0.3,0.1,0.3c0,0.1,0.1,0.1-0.1,0.2H7.6v0.1c0.1,0,0.1,0.1,0,0.1l-0.1,0.1C7.5,32,7.5,32,7.5,32S7.4,32,7.4,32.1
	c-0.1,0-0.1,0.1-0.1,0.1c0,0.1,0,0.1,0.1,0.1c-0.1,0-0.1,0-0.1,0.1c-0.1-0.1,0,0-0.1,0.1v0.1c0.1,0.1,0.1,0.2,0.1,0.2v0.1
	c0,0.1,0,0.2,0.1,0.3c0.1,0,0.1,0.1,0.1,0.1v0.2H7.4c0,0.1-0.1,0.1,0.1,0.3c0.1,0,0.1-0.1,0.1-0.1c0.1,0.1,0.1,0.3,0.1,0.3h0.1
	c0.1,0,0.2,0.1,0.3,0.1L8,33.9v0.1C8,34.1,7.9,34,7.8,34c0-0.1,0-0.1-0.1-0.1c-0.1,0.1-0.1,0.1-0.1,0.1v0.1c0.1,0.1,0,0.1-0.1,0.1
	c0-0.1,0.1-0.1,0-0.1c0-0.1-0.1-0.2-0.1-0.3c-0.1,0-0.1,0.1-0.1,0.1c0.1-0.1,0.1-0.2-0.1-0.2c-0.1,0.1-0.1,0.1-0.1,0.3
	c0,0.1,0,0.1-0.1,0.1c0,0.1-0.1,0.1,0,0.1c0.1,0,0.1,0.1,0,0.1c-0.1,0.1-0.1,0.2-0.1,0.3c-0.1,0.1-0.1,0.1,0,0.2v0.3
	c0,0.1,0.1,0.2,0,0.3v-0.1h0.1l-0.1,0.1c-0.1,0.1-0.1,0.1-0.1,0.1v0.2c0.1,0.1,0.1,0.1,0,0.3v0.2c0.1,0.1,0.1,0.2,0.1,0.3
	s0,0.1,0.1,0.2c0.1,0.1,0.1,0.1,0.1,0.3c0.1,0,0.1,0.1,0.1,0.3c0,0,0.1,0,0.1,0.1c-0.1,0.1,0.1,0.1,0.1,0.2c0,0.1,0,0.1,0.1,0.1
	c0.1,0,0.1,0.1,0.1,0.1c0,0.1,0,0.1,0.1,0.2v0.1C8,38.1,8,38.2,8,38.2c0,0.2,0.1,0.3,0.1,0.5h0.1v-0.1c0.1,0,0.1,0,0.1,0.1
	c0,0.1,0,0.1-0.1,0.2c0.1,0.1,0.1,0.1,0.1,0.1c0.1,0.1,0.1,0.1,0.1,0.1h0.1c0.1,0.1,0.3,0.1,0.3,0.1c0.3-0.1,0.3-0.1,0.4-0.1
	c0.1,0,0.1,0.1,0.1,0.1c0.1,0.1,0.1,0.1,0.2,0.1c0.1,0,0.1,0,0.1,0.1c0.1,0.1,0.1,0.1,0.1,0c0.1,0,0.1,0,0.1,0.1
	c0.1,0,0.2,0.1,0.3,0.1c0.1,0,0.2,0,0.3-0.1h0.2h0.3c0.1,0,0.1,0,0.1-0.1c0.1,0,0.1,0,0.1,0.1c0.1,0.1,0.1,0.1,0.1,0.1
	c0.1-0.1,0.2-0.1,0.3-0.1h0.1c0,0,0,0.1,0.1,0.1c0.1,0.1,0.1,0.1,0.1,0.1h0.1c0.1,0.1,0.3,0.1,0.3,0H12c0.1,0.1,0.1,0.1,0.2-0.1
	c0.1,0,0.1,0,0.1-0.1c0.1,0.1,0.1,0.1,0.1,0.1c0.1,0,0.1,0.1,0.2,0.1c0,0.1,0,0.1,0.1,0.1c0.1,0,0.2-0.1,0.3,0h0.1
	c0.1-0.1,0.1-0.1,0.2-0.1h0.1c0.1-0.1,0.1-0.1,0.2,0c-0.1,0-0.1,0.1-0.1,0.1h0.1c0.1-0.1,0.2-0.1,0.3,0.1c0.1,0,0.1,0.1,0.1,0.1
	c0,0,0.1-0.1,0.1-0.1c0.1,0.1,0.1,0.1,0.1,0c0.1-0.1,0.1-0.1,0.1,0c0.1,0,0.1,0.1,0.1,0.1c0.1,0.1,0.1,0,0.1-0.1
	c0.1,0.1,0.2,0.1,0.3,0c0.1,0.1,0.1,0.1,0.1,0h0.1c0.1,0,0.1,0,0.1-0.1c0.1,0,0.1-0.1,0.2,0v-0.1c0.1-0.1,0.1,0,0.1,0h0.5h0.3
	c0.1,0,0.1,0,0.2,0.1h0.2h0.1h0.2c0.1-0.1,0.3-0.1,0.4-0.1c0.1,0,0.1,0.1,0.2,0.1c0.1,0,0.1,0,0.2,0.1c0.1,0,0.1,0.1,0.1,0
	c0.1-0.1,0.1-0.1,0.3-0.1c0.1,0,0.1,0,0.1-0.1c0.1,0,0.2,0,0.3,0.1h0.2h0.1h0.1c0.1-0.1,0.1-0.1,0.1,0c0.1,0.1,0.1,0.1,0.1,0.1
	c0.1-0.1,0.1,0,0.1-0.1h0.1c-0.1,0-0.1-0.1-0.1-0.1c0.1-0.1,0.1,0,0.1,0c0,0.1,0.1,0.1,0.1,0.1v-0.1c0.1,0.1,0.2,0.1,0.2,0.2
	c0.1,0,0.1,0,0.1,0.1c0.1-0.1,0.1-0.1,0.1-0.1c0.1,0.1,0.1,0.1,0.1-0.1c0.1-0.1,0.1-0.1,0.1-0.1h0.1h0.1H20H20h0.1
	c0-0.1,0.1-0.1,0.1-0.1c0.1,0.1,0.1,0.1,0.3,0.1h0.1c0.1,0.1,0.2,0,0.3,0c0.1,0,0.1-0.1,0.2-0.1h0.1h0.3c0.1,0.1,0.1,0,0.2,0.1h0.2
	v-0.1h0.1h0.1c0.1-0.1,0.1-0.1,0.1-0.1c0.1,0,0.1,0.1,0.3,0.1v0.1c0.1,0.1,0.1,0,0.3,0c0-0.1,0.1-0.1,0.1-0.1c0.1,0.1,0.3,0,0.3,0.1
	h0.5c0.1,0,0.1-0.1,0.3,0c0.1,0,0.2,0,0.3-0.1h0.2c0.1,0.1,0.1,0.1,0.3,0.1h0.1c0.1-0.1,0.1-0.1,0.1-0.1c0.1,0.1,0.1,0.1,0.3-0.1
	c0.1,0.1,0.5,0.1,0.6,0.1s0.2,0,0.3-0.1l0.1,0.1c0.1-0.1,0.3-0.1,0.4-0.1c0.1,0.1,0.1,0.1,0.2,0.1c0.1,0,0.1-0.1,0.1-0.1
	c0.1,0,0.1,0.1,0.1,0.1c0.1,0,0.1,0,0.1-0.1v-0.1c0.1-0.1,0-0.3,0-0.4c-0.1,0-0.1,0-0.1-0.1h0.1C27,39,27,39.1,27,39.2
	c-0.1,0.1-0.1,0.1,0.1,0.3l0.1,0.1c0.1,0.1,0.1,0.1,0.1,0h0.1l0.1,0.1h0.1v0.1c0.1,0,0.1,0,0.2-0.1c0.1-0.1,0.1-0.1,0.2,0h0.1
	c0.1,0,0.3,0,0.5-0.1c0.1-0.1,0.1,0,0.2,0c0.1,0.1,0.1,0.1,0.1,0.1c0.1,0,0.1-0.1,0.3,0h0.1c0.1-0.1,0.1-0.1,0.2-0.1v0.1h0.1h0.1
	h0.1c0.1,0,0.1,0,0.1-0.1h0.1h0.1c0.1,0,0.1-0.1,0.1-0.1H30c0.1,0.1,0.2,0.1,0.3,0h0.1c0.1,0,0.1,0.1,0.3,0c0.1,0,0.1,0.1,0.1,0h0.1
	c0.1,0.1,0.1,0,0.1,0H31c0-0.1,0-0.1,0.1-0.1c0-0.1,0.1-0.1,0.1-0.1c0.1-0.1,0.1-0.1,0.1-0.1c0,0,0-0.1,0.1-0.1c0.1,0.1,0.1,0,0.1,0
	c0.1,0,0.1-0.1,0.1-0.1c0-0.1,0.1-0.1,0.1-0.1c0-0.1-0.1-0.1-0.1-0.1c0-0.1,0.1-0.2,0.1-0.1c0.1,0,0.1-0.1,0.1-0.1
	c0-0.1,0.1-0.1,0.1-0.1c0-0.1,0-0.2,0.1-0.3c0-0.1,0-0.1-0.1-0.1c0-0.1-0.1-0.1-0.1-0.1V38c0.1,0,0.1,0.1,0.2,0.1
	c0.1-0.1,0.1-0.1,0.1-0.1s0.1-0.1,0-0.1c0-0.1,0.1-0.1,0.1-0.1v-0.1v-0.1c0-0.1,0-0.1,0.1-0.1c0.1-0.1,0.1-0.1,0.1-0.1v0.1l0.1,0.1
	c0-0.1,0.1-0.1,0.1-0.3c-0.1,0.1-0.1,0.1-0.1,0.1c0.1-0.1,0.1-0.1,0.1-0.1l0.1-0.1c0-0.1,0.1-0.2,0.1-0.3c0.1-0.1,0.1-0.1,0.1-0.2
	c0-0.1,0.1-0.2,0.1-0.3c0-0.1,0.1-0.1,0.1-0.1V36c0.1-0.1,0.1-0.1,0.1-0.2v-0.2v-0.2V35v-0.3c-0.1-0.1-0.1-0.2-0.1-0.3
	c0.1-0.1,0.1-0.1,0-0.3v-0.1c0-0.1,0-0.2,0.1-0.3c0-0.1-0.1-0.1,0.1-0.3v-0.1v-0.1c0.1-0.1-0.1-0.3,0-0.4h0.4
	c-0.1-0.1-0.1-0.1-0.1-0.2c0-0.1,0-0.1,0.1-0.1c0.1,0,0.1-0.1,0.1-0.1C33.4,32.6,33.4,32.6,33.4,32.4C33.4,32.4,33.4,32.4,33.4,32.4
	c-0.1,0.2-0.1,0.1-0.1,0.1C33.3,32.4,33.3,32.4,33.4,32.4z M32.3,23.8c-0.1,0.1-0.1,0.1-0.1,0.1c-0.2,0.1-0.3,0.3-0.5,0.5
	c-0.1,0.2-0.4,0.3-0.5,0.5C31.1,25,31,25,30.9,25.1c-0.1,0.2-0.3,0.3-0.5,0.5c-0.1,0.1-0.3,0.3-0.4,0.3C30,26,30,26.1,30,26.1
	c-0.1,0.1-0.3,0.1-0.3,0.3c-0.1,0-0.1,0.1-0.1,0.1c-0.1-0.1-0.2-0.1-0.3-0.1c-0.1-0.1-0.1-0.1-0.1-0.3V26c-0.1-0.1-0.1-0.1,0-0.1
	c0.1,0,0.1-0.1,0.1-0.1c0-0.1-0.1-0.3-0.2-0.4c-0.1-0.1-0.1-0.2-0.1-0.3c0-0.1-0.1-0.3-0.2-0.3c-0.1-0.1-0.1-0.1-0.1-0.2
	c0-0.1-0.1-0.3-0.1-0.3c0,0-0.1-0.1-0.1-0.1c0-0.1-0.1-0.2-0.1-0.3c-0.1-0.1-0.1-0.2-0.1-0.3c0-0.1-0.1-0.1-0.1-0.3
	c0-0.1,0.1-0.3,0-0.3c-0.1,0,0-0.1,0-0.1l0.2-0.2c0.1-0.1,0.1-0.1,0.2-0.2c0-0.1,0.1-0.2,0.1-0.3c0.1-0.1,0.1-0.3,0.1-0.4
	c0-0.2,0-0.4,0.1-0.5c0.1-0.1,0.1-0.3,0.2-0.3c0.1,0,0.3,0,0.5,0.1c0.1,0.1,0.1,0.1,0.2,0.2h0.3c0.1,0,0.1,0,0.1,0.1
	c0.1,0.1,0.1,0.2,0.3,0.3c0.1,0,0.1,0.1,0.1,0.1c0.1,0.1,0.1,0.3,0.3,0.3c0,0,0.1,0,0.1,0.1c0.1,0.1,0.1,0.1,0.3,0.1
	c0.1,0.1,0.2,0.2,0.3,0.3c0.1,0,0.1,0.1,0.1,0.1c0.1-0.1,0.2,0.1,0.3,0.1c0.1,0.1,0.1,0.3,0.3,0.3l0.1,0.1v0.1
	c0.1,0,0.1,0.1,0.1,0.1c0.1,0,0.1,0.1,0.1,0.1c0.1,0.1,0.1,0.1,0.1,0.1C32.5,23.6,32.4,23.7,32.3,23.8z"/>
</svg>
