<?xml version="1.0" encoding="utf-8"?>
<!-- Generator: Adobe Illustrator 25.2.3, SVG Export Plug-In . SVG Version: 6.00 Build 0)  -->
<svg version="1.1" id="Layer_1" xmlns="http://www.w3.org/2000/svg" xmlns:xlink="http://www.w3.org/1999/xlink" x="0px" y="0px"
	 viewBox="0 0 40 40" style="enable-background:new 0 0 40 40;" xml:space="preserve">
<style type="text/css">
	.st0{fill:#D50032;}
</style>
<path class="st0" d="M33.5,36.2c0.1-0.1,0-0.2,0-0.3c-0.1-0.1-0.1-0.2-0.1-0.3c0.1-0.1,0.1-0.1,0-0.1c0-0.2-0.1-0.4,0-0.6
	c0-0.1,0-0.1-0.1-0.1c-0.1-0.1-0.1-0.1-0.1-0.3c-0.1-0.1-0.1-0.1-0.1-0.1c-0.1-0.1-0.1-0.1-0.2-0.3h-0.1c0-0.1-0.1-0.1-0.1-0.3
	c0-0.1,0-0.2-0.1-0.3v-0.1c0.1-0.1,0.1-0.1,0-0.1v-0.1c0-0.1,0-0.1-0.1-0.1c0.1-0.1,0.1-0.1,0.1-0.1l-0.1-0.1c0-0.1-0.1-0.1-0.1-0.2
	v-0.1c0.1-0.1,0.1-0.3,0.2-0.3c0.1-0.1,0.1-0.2,0.1-0.3c0.1-0.1,0.1-0.3,0.3-0.3v-0.1c0.1-0.1,0.1-0.1,0.1-0.2
	c0-0.1,0.1-0.1,0.1-0.2c0-0.1,0-0.2-0.1-0.3v-0.1c0-0.1,0.1-0.1,0.1-0.3s0-0.3-0.1-0.5v-0.5V29c0-0.1-0.1-0.1-0.1-0.2
	c-0.1-0.1-0.1-0.3-0.1-0.5c0-0.1,0-0.2-0.1-0.3v-0.1c0-0.1,0.1-0.2,0.1-0.3c0-0.1,0-0.1,0.1-0.1l0.1-0.1c-0.1-0.1,0-0.1,0-0.2
	c0.1,0,0.1-0.1,0.1-0.1v-0.5V26c-0.1-0.1-0.1-0.3-0.1-0.5v-0.5v-0.7v0.2v-0.5v-0.5c0-0.2-0.1-0.4-0.1-0.6v-0.5v-0.6v-0.5v-0.3v-0.5
	c0-0.2-0.1-0.3-0.1-0.5v-0.3V19v-0.5v-0.6v-0.5c0-0.2,0-0.4-0.1-0.6V16v-0.6v-0.5v-0.6v-0.5C33,13.6,33,13.5,33,13.3v-0.7v-0.3v-0.5
	v-0.5c0-0.2,0-0.4-0.1-0.6v-0.5V9.8V9.3V8.8V8.3c0-0.2-0.1-0.3-0.1-0.5V7.2V6.5V6.3V5.9V5.4V5V4.5c-0.1-0.1-0.1-0.3-0.1-0.5V3.5V2.7
	V2.1V1.9c-0.1-0.1-0.1-0.3-0.1-0.4s0-0.1-0.1-0.1c-0.1-0.1-0.3-0.3-0.3-0.5c0-0.1-0.1-0.1-0.1-0.1C32.2,0.6,32,0.5,32,0.4
	c-0.1-0.1-0.2-0.1-0.3-0.1c-0.1,0.1-0.1,0-0.3-0.1c-0.1,0-0.1-0.1-0.3,0c-0.1-0.1-0.1-0.1-0.1-0.1c-0.1-0.1-0.3-0.1-0.4-0.1h-0.7
	h-1.2c-0.1,0-0.1,0-0.1,0.1c-0.1,0.1-0.1,0.1-0.1-0.1c0,0-0.1,0-0.1-0.1c-0.1,0-0.2-0.1-0.3,0h-0.1c-0.2,0-0.3,0.1-0.5,0.1H27h-0.7
	h-0.9c-0.1,0-0.1,0-0.3,0.1H25h-0.5H24h-0.5h-0.5h-0.5h-0.5h-0.5h-0.5h-0.5h-0.7h-0.5h-0.6h-0.5h-0.5h-0.7c-0.1-0.1-0.1-0.1-0.1,0
	h-0.1h-0.5c-0.1,0-0.1,0.1-0.1,0.1c-0.2,0.1-0.3,0.1-0.3,0.1H15h-0.3h-0.3c-0.1,0.1-0.3,0.1-0.5,0.1c-0.1-0.1-0.1-0.1-0.3,0
	c-0.1,0-0.3-0.1-0.4-0.1l-0.1-0.1c-0.1,0-0.2,0-0.3,0.1h-0.5c-0.2,0-0.4,0-0.6,0.1h-0.5h-0.2v0.1c-0.1,0.1-0.1,0.1-0.1,0
	C11.1,0.4,11,0.3,11,0.3c-0.2,0.1-0.3,0.1-0.4,0.1c-0.3,0-0.5,0-0.7,0.1c-0.1,0-0.1-0.1-0.2-0.1H9.4C9.3,0.5,9.2,0.5,9.2,0.5
	c-0.1-0.1-0.1,0-0.1,0H8.9c0,0,0.1,0.1,0.1,0.1c-0.1,0-0.1-0.1-0.2-0.1V0.5V0.4C8.6,0.5,8.6,0.5,8.6,0.6c0,0.1,0.1,0.1,0.1,0.1
	c0.1,0,0.1,0,0.1,0.1c0.1,0.1,0.1,0.1,0.1,0.1V1C8.9,1,8.8,1,8.8,1C8.7,1,8.7,1,8.7,1V0.9H8.7H8.6C8.6,1,8.6,1,8.5,1
	C8.5,1,8.5,1,8.5,1c0-0.1-0.1-0.1-0.1-0.1H8.3L8,1C7.9,1,7.9,1,7.9,1C7.9,1.3,7.7,1.5,7.6,1.7c-0.1,0-0.1,0.1-0.1,0.1
	C7.4,1.9,7.4,2,7.3,2.1C7.2,2.2,7.2,2.3,7.2,2.3v0.1c0,0.2,0,0.4-0.1,0.6v0.1v0.3v0.5v0.6c0,0.1,0,0.1,0.1,0.1
	c0.1-0.1,0.1-0.1,0.1-0.1c0-0.1,0.1-0.1,0.1-0.1c0,0.1,0,0.1,0.1,0.1v0.1c0,0.1-0.1,0.1-0.2,0.1c0-0.1-0.1-0.1-0.1-0.1
	c0,0.1,0,0.1,0,0.1v0.5v0.3V6h0.1C7.2,6.1,7.2,6.1,7.1,6.1C7.2,9.8,7.2,13.3,7.2,17h0.1c0,0.1-0.1,0.1-0.1,0.1
	c-0.1,0.1-0.1,0.1-0.1,0.1v0.3v0.5v0.5v0.7c0.1,0.1,0.1,0.1,0,0.1c0,0.1,0,0.1,0.1,0.3v0.1C7.1,20,7.1,20,7.2,20
	c0,0.1-0.1,0-0.1,0.1v0.7v0.8v0.7v0.8v0.3v0.3v0.5v0.7v0.2v0.5v0.5v0.5v0.5v0.5v0.8v0.5v0.7c0,0.1,0.1,0.1,0.1,0.2v0.3v0.3v0.3
	c0,0.1,0.1,0.1,0.1,0.2V33c0,0.1,0.1,0.2-0.1,0.3v0.1v0.2V34v0.6v0.5v0.5v0.6v0.5v0.5v0.6c0,0.1-0.1,0.2,0,0.3
	c0.1,0.1,0.1,0.3,0.1,0.4c0.1,0.1,0.2,0.3,0.3,0.4c0,0.1,0.1,0.1,0.1,0.1c0.1,0.1,0.1,0.2,0.3,0.3C8,39.4,8,39.5,8.1,39.5
	c0.3,0,0.5,0.1,0.6,0.3l0.1,0.1c0.1,0,0.1,0.1,0.1,0.1h0.3h0.1c0.1-0.1,0.1-0.1,0.1,0L9.5,40h0.1c0.1-0.1,0.1-0.1,0.2,0
	c0.1,0,0.1,0,0.1-0.1c0.1,0,0.1,0.1,0.1,0h0.3c0.1,0,0.2,0,0.3-0.1c0.1,0.1,0.2,0.1,0.3,0.1c0.1,0,0.1-0.1,0.1-0.1
	c0-0.1,0.1-0.1,0.1-0.1c0.1,0.1,0.1,0.1,0.2,0.1h0.1h0.5c0.1,0,0.1,0,0.1-0.1c0-0.1,0.1-0.1,0.1-0.1c0.1,0.1,0.1,0.1,0.2,0.1
	c0,0.1,0.1,0.1,0.1,0.1c0.2,0,1.6-0.1,1.7-0.1c0.1,0,0.3-0.1,0.4,0c0,0.1,0.1,0.1,0.1,0.1c0.1-0.1,0.1-0.1,0.3-0.1
	c0.3,0,0.5,0.1,0.7,0.1h0.5h0.6c0.1,0,0.3-0.1,0.5-0.1H17h0.2h0.2c0.1,0,0.1,0.1,0.2,0c0.1-0.1,0.1,0.1,0.1,0h0.1h0.1
	c0.1,0.1,0.2,0,0.3,0c0.1,0,0.2-0.1,0.3,0h0.1H19h0.5H20h0.5h0.5h0.5c0.1-0.1,0.1-0.1,0.2,0h0.1h0.4c0.3,0,0.5-0.1,0.8,0
	c0.1,0,0.3-0.1,0.5,0c0.1,0,0.1-0.1,0.1-0.1c0.1,0.1,0.1,0.1,0.3,0.1l0.1-0.1c0,0.1,0.1,0.1,0.1,0.1h0.3c0.3,0,0.5,0.1,0.7-0.1
	c0.1,0,0.1-0.1,0.1-0.1c0.1,0.1,0.1,0,0.2,0.1c0,0.1,0.1,0.1,0.1,0.1h0.5l0.1-0.1c-0.1-0.1-0.1-0.1-0.1-0.3c0.1,0,0.1,0,0.2,0.1
	l0.1,0.1c0.1,0.1,0.1,0.1,0.1,0c0.1-0.1,0.1-0.1,0.1,0v0.1c0,0.1,0,0.1,0.1,0.1H27h0.3h0.3h0.1c0.1-0.1-0.1-0.2-0.1-0.3
	c0.1-0.1,0.1-0.1,0.2-0.1c0,0.1,0.1,0.1,0.1,0.1s0.1,0,0.1,0.1c-0.1,0-0.1,0.1-0.1,0.1c0.1,0,0.3-0.1,0.3-0.1c0,0,0-0.1,0.1-0.1
	c0,0,0,0.1,0.1,0.1c0.1,0.1,0.1,0.1,0.3,0.1h0.7c0.2,0,0.5,0,0.7-0.1H30c0.1-0.1,0.1-0.1,0.3-0.1c0.1,0.1,0.1,0.1,0.3,0.1h0.7
	c0.1,0,0.2-0.1,0.3-0.1l0.1-0.1c0.1-0.1,0.2-0.1,0.3-0.1c0.1,0,0.1,0,0.1-0.1c0-0.1,0-0.1,0.1-0.1c0.1,0,0.1-0.1,0.2-0.1
	c0.1-0.1,0.1-0.1,0.1-0.1c0.1,0,0.1,0,0.1,0.1c0.1,0,0.1,0,0.1-0.1c0.1-0.1,0.1-0.2,0.2-0.3c0.1-0.1,0.1-0.1,0.1-0.1h0.1
	c0.1-0.1,0.1-0.1,0.1-0.3c0.1-0.1,0.1-0.1,0.1-0.2c-0.1-0.1,0-0.2,0-0.3v-0.1c0.1,0,0.1-0.1,0.1-0.1V37c0-0.1,0-0.2,0.1-0.3
	c0-0.2,0-0.3,0.1-0.5v-0.1c-0.1,0-0.1,0-0.1,0.1C33.4,36.4,33.3,36.3,33.5,36.2z M18.3,24.7c-0.1,0.1-0.1,0.1-0.2,0.1l-0.1,0.1
	C18,25,17.8,25,17.7,25.1c-0.1,0.1-0.1,0.2-0.1,0.3c-0.1,0.1-0.2,0.2-0.3,0.3l-0.1,0.1c-0.1,0.1-0.7,0.3-0.7,0.5
	c0,0.1-0.1,0.2-0.1,0.3c-0.1,0-0.1,0.1-0.1,0.1c-0.1,0.1-0.1,0.1-0.1,0.1c-0.1,0.1-0.3,0.3-0.5,0.3c-0.2-0.1-0.2-0.1-0.2-0.1
	c0,0.1,0,0.1-0.1,0.1c0,0.1-0.1,0.2-0.2,0.3c-0.1,0.1-0.1,0.1-0.2,0.1c-0.1,0.1,0,0-0.1,0.1c-0.1,0.1-0.1,0.1-0.2,0.3
	c-0.1,0.2-0.1,0.1-0.3,0.3c-0.1,0.1-0.3,0.3-0.5,0.3c-0.1,0.1-0.1,0.1-0.2,0.2c-0.1,0.1-0.1,0.1-0.2,0.2c-0.1,0.1-0.1,0.1-0.1,0.3
	c-0.1,0.1-0.3,0.3-0.3,0.4c0,0-0.9,0.9-1,1.1c0,0.1-0.1,0.1-0.1,0.1c-0.1,0.1-0.7,0.8-0.7,0.9c-0.1,0.1-0.1,0.1-0.1,0.2
	c-0.1,0-0.1,0.1-0.1,0.1c0,0.1-0.3,0.5-0.3,0.5c-0.1,0.1-0.1,0.1-0.1,0.3c-0.7,0.2-2,0.9-2.8,1.3c-0.1-0.7,1.1-2.3,1.1-2.5
	c0-0.1,0.1-0.2,0.1-0.2c-0.2-0.1,0.1-0.1,0.1-0.1l0.1-0.2c0.1-0.1,0-0.3,0.1-0.5c0.1,0,0.1,0,0.1-0.1c0.1-0.1,0.1-0.3,0.1-0.4
	c0.1-0.1,0.1-0.1,0.1-0.1c0.1,0,0.1-0.1,0.1-0.1c0.1-0.1,0-0.3,0.1-0.3c0.1,0,0.1-0.1,0.1-0.1c0.1-0.1,0.1-0.1,0.1-0.1v-0.1v-0.1
	c0.1-0.1,0.1-0.1,0.1-0.2c0,0,0.1-0.1,0.1-0.2h0.1l0.1-0.1c0,0-0.1,0-0.1-0.1c0,0,0-0.1,0.1-0.1c0-0.1,0.1-0.1,0.1-0.1
	c-0.1,0,0-0.1,0-0.1l0.1-0.1v-0.1v0.1c0.1-0.1,0.1-0.1,0.2-0.3c0.1-0.1,0.1-0.1,0.1-0.3c0.1-0.1,0.1-0.2,0.1-0.3
	c0.1-0.1,0.1-0.2,0.2-0.3c0.1-0.1,0.1-0.1,0.2-0.3c0.1-0.1,0.1-0.2,0.2-0.3c0.1-0.1,0.1-0.1,0.1-0.2c0-0.1,0-0.1,0.1-0.1
	c0.1,0,0.1-0.1,0.1-0.1c0,0,0.1-0.1,0-0.1c-0.1,0.1-0.1,0.1-0.2,0.1C12,26,12,26,12.1,26c0.1-0.1,0.1-0.1,0.1-0.1
	c0.1,0.1,0.1,0.1,0.1,0v-0.1c0.1,0,0.1-0.1,0.1-0.1c0-0.1,0-0.1,0.1-0.1c0.1,0,0.1,0,0.1-0.1c0.1,0,0.1-0.1,0.1-0.1v-0.1
	c0.1-0.1,0.1-0.1,0.1-0.1c0.1-0.1,0.1-0.1,0.1-0.3c0.1,0.3,0.2,0.2,0.3,0.1c0,0,0.1,0,0.1-0.1c0.1-0.1,0.1-0.1,0-0.1
	c-0.1-0.1-0.1-0.1,0-0.1c0-0.1,0.1-0.1,0.1-0.1c0.1,0,0.1,0,0.3,0.1c-0.1-0.1,0.1-0.1,0.1-0.3h-0.1c-0.1,0-0.1-0.1-0.1-0.1
	c0-0.1,0.1-0.1,0.1-0.1c0.1,0,0.1-0.1,0.1-0.1c0.1,0,0-0.1,0-0.1c0.1-0.1,0.1-0.1,0.1-0.1c0-0.1,0.1-0.1,0.1-0.1
	c0.1,0,0.1-0.1,0.1-0.1v-0.1h0.2c0-0.1-0.1-0.1,0-0.1c0-0.1,0.1-0.1,0.1-0.1c0,0.1,0.1,0.1,0.1,0.1c0.1-0.1,0.1-0.1-0.1-0.1
	c0-0.1,0.1-0.1,0.1-0.1c0-0.1,0-0.1,0.1-0.1c0,0,0.1,0,0.1-0.1c0-0.1,0.1-0.1,0.1-0.2c0.1-0.1,0.1-0.1,0.1-0.1
	c0.1-0.1,0.1-0.1,0.1-0.1v-0.1c0-0.1,0-0.1,0.1-0.1c0.1,0,0.1-0.1,0.1-0.1c0-0.1,0.1-0.1,0.1-0.1s0.1-0.1,0.1-0.1
	c0.1,0,0.1,0,0.1,0.1c0.1-0.2,0.3-0.3,0.3-0.5c0.1,0,0.1-0.1,0.1-0.1c0.1-0.1,0.1-0.1,0.1-0.1c0-0.1,0.1-0.1,0.1-0.1V21h0.1
	c0.1-0.1,0.1-0.1,0.1-0.2v0.3c0-0.1,0.1-0.1,0.1-0.2c0.1-0.1,0.1-0.1,0.1-0.1c0-0.1,0.1-0.1,0.1-0.1s0.1,0,0.1-0.1
	c0.1-0.1,0.1-0.1,0.1-0.1c0.1,0,0.1-0.1,0.1-0.1c0.1-0.1,0.3-0.1,0.3-0.1c0-0.1,0.2-0.1,0.2-0.1c-0.1-0.1,0.2-0.2,0.2-0.3l0.1-0.1
	H17c0.1,0,0.1-0.1,0.1-0.1c0.1-0.1,0.1,0,0.1,0c0.1-0.1,0.1-0.1,0.1-0.1c0.1,0,0.1-0.1,0.2-0.1c0.1,0.1,0.1,0.1,0.1,0.1
	c0.3-0.1,0.3-0.1,0.6,0v-0.1v0.1v0.1h0.1c0.1,0,0.2,0.1,0.3,0.1c0.1,0.1,0.1,0.3,0.1,0.5h0.1c0.1,0.1,0.1,0.1,0.1,0.1
	c0,0.1,0.1,0.2,0.1,0.3v0.1l0.1,0.1V21c0,0.1,0,0.1,0.1,0.3v0.1c0.1,0.1,0.1,0.1,0.1,0.1l0.1,0.1c0.1,0.1,0.1,0.1,0.1,0.2
	c0,0.1,0.1,0.1,0.1,0.2c0,0.1,0.1,0.1,0.1,0.3v0.2v0.1c-0.1,0.1-0.1,0.1-0.1,0.2c-0.1,0.1-0.1,0.1-0.1,0.1c0.1,0.1,0,0.1,0,0.1
	c-0.1,0.1-0.1,0.2-0.3,0.3v0.1c-0.1,0.1-0.1,0.1-0.3,0.2c-0.1,0-0.1,0.1-0.1,0.1c0,0.1,0,0.1-0.1,0.1c0,0.1,0,0.1-0.1,0.1
	c-0.1,0-0.1,0.1-0.1,0.1c-0.1,0.1-0.1,0.1-0.2,0.2c-0.1,0.1-0.1,0.1-0.1,0.1C18.5,24.5,18.5,24.6,18.3,24.7z M25.8,21.8
	c-0.1,0.1-0.1,0.5-0.1,1v-0.1c0.1,0.8-0.1,1.6-0.4,2.3v0.1v0.3c-0.1,0.1-0.1,0.1-0.1,0.3l-0.1,0.1C25.1,25.9,25.1,26,25,26v0.1
	c0,0.1-0.1,0.1-0.1,0.2c-0.1,0.1-0.2,0.3-0.3,0.4c-0.1,0.1-0.1,0.2-0.2,0.2c-0.1,0.1-0.1,0.1-0.1,0.1s-0.1,0.1-0.1,0.1
	c0,0-0.1,0-0.1,0.1c-0.1,0.1-0.2,0.2-0.3,0.3c-0.1,0-0.1,0.1-0.1,0.1c-0.1,0-0.1,0-0.1,0.1c0,0,0.1,0.1,0.1,0.1
	c-0.4,0.4-0.7,0.9-1.1,1.1c-0.1,0-0.1,0.1-0.1,0.1c-0.1,0-0.1,0.1-0.1,0.1c-0.1,0-0.1,0.1-0.1,0.1l-0.1,0.1v0.1
	c-0.1,0.1-0.1,0.1-0.1,0.1c0,0.1-0.1,0.1-0.1,0.1c-0.1,0-0.1,0.1-0.1,0.1c-0.1,0.1-0.1,0.1-0.1,0.1h-0.1c0,0.1-0.1,0.1-0.1,0.1
	S22,30.2,22,30.3c0,0,0,0.1-0.1,0.1c0,0.1-0.1,0.1-0.1,0.1c-0.1,0.1-0.1,0.1-0.1,0.1v0.1c-0.1,0.1-0.1,0.1-0.1,0.1l-0.1,0.1
	c0,0.1-0.1,0.1-0.1,0.1L21.4,31h-0.1c0,0.1-0.1,0.1-0.1,0.1l-0.1,0.1c0,0.1-0.1,0.1-0.1,0.1c0,0.1,0,0.1-0.1,0.1V31
	c-0.1,0,0,0.1-0.1,0.1c0,0-0.1,0.1-0.1,0.1c-0.1,0-0.1,0.1-0.1,0.1l-0.1,0.1c0,0,0,0.1-0.1,0.1c0,0,0,0.1-0.1,0.1
	c0,0.1-0.1,0.1-0.1,0.1c-0.1,0.1-0.1,0.1-0.1,0.2l-0.1,0.1v0.1h-0.1h-0.1h-0.1c-0.1,0-0.1,0-0.1,0.1v0.1c0,0.1,0,0.1-0.1,0.1
	c0,0.1-0.1,0.1-0.1,0.1v-0.3H20C20,32.4,20,32.4,20,32.5v0.2v0.1c0,0,0.1,0,0,0.1C20,33,20,33,20,33c0.1,0.1,0,0.1-0.1,0.3v0.1
	c-0.1,0.1-0.1,0.1-0.2,0.3c-0.1,0.1-0.1,0.1-0.1,0.3c0,0.1,0,0.1-0.1,0.1c0,0-0.1,0-0.1-0.1L19.5,34c-0.1,0.1,0,0.1,0,0.1
	c-0.1,0.1-0.1,0.1-0.1,0.3c-0.1,0.1-0.2,0.2-0.3,0.3c-0.2,0.1-0.3-0.1-0.3-0.2c0-0.1,0.1-0.1,0-0.2l0.1-0.1c0-0.1,0-0.1-0.1-0.1
	C19,34,19,34,19,33.9c0-0.1,0-0.1-0.1-0.2c0.1-0.1,0.1-0.1,0.1-0.2v-0.1v-0.1c0-0.1,0.1-0.1,0-0.1c0,0,0-0.1-0.1-0.1V33
	c0.1-0.1,0-0.2,0.1-0.3c0-0.1-0.1-0.1-0.1-0.1c0,0-0.1-0.1,0-0.1c0-0.1-0.1-0.2,0-0.3c0-0.1-0.1-0.2,0-0.3c0-0.1,0-0.1-0.1-0.1
	c0-0.1,0-0.1,0.1-0.3v-0.1c-0.1-0.1,0-0.2,0-0.3c-0.1-0.1-0.1-0.2-0.1-0.3v-0.3c-0.1-0.1-0.1-0.3-0.1-0.5v-0.1
	c-0.1-0.1-0.1-0.2-0.1-0.3c0.1-0.1,0.1-0.1,0.1-0.1c0-0.7,0.1-1.1,0.1-0.9c0,0.4,0.3-0.5,0.5-0.9l0.1,0.9c0.5-0.7,1.1-1.3,1.6-2
	c0.1-0.2,0.3-0.4,0.3-0.6c0.1-0.1,0.3-0.2,0.4-0.3h-0.3c0.1-0.3,1-1,1.6-2.4c0-0.1,0.5-1.1,0.5-1.1c0.1-0.3,0.1-0.5,0.1-0.7
	c0,0,0.1-0.1,0.1-0.1v-0.1c0.1-0.3,0.2-0.4,0.3-0.7c0.1-0.3,0.1-0.5,0.1-0.5c0.1-0.1,0.5-0.5,0.5-0.6c0.1-0.1,0.1-0.1,0.2-0.2
	c0-0.1,0.1-0.1,0.1-0.1c0,0.1,0.1,0.2,0.1,0.3c0.1,0.3,0.3,0.5,0.4,0.8v0.2c0.1,0.1,0.1,0.3,0.1,0.5v0.3c-0.1,0.1,0,0.1,0,0.3v0.4
	H25.8z M26,16.5c0,0-0.1,0.1-0.1,0.1l-0.1-0.1c0.1,0.1,0.1,0.1,0,0.1v0.1c-0.1,0.1-0.1,0.1-0.1,0.1c-0.1,0-0.1,0-0.1,0.1
	c0,0,0,0.1-0.1,0.1c0,0.1,0,0.1,0.1,0.1v0.1h-0.1c-0.1,0-0.1,0.1-0.1,0.1c-0.1,0.1-0.1,0.1-0.1,0.1c0,0.1-0.1,0.1-0.1,0.1
	s0,0.1-0.1,0.1c-0.1,0.1-0.1,0.1-0.1,0.1s0,0.1-0.1,0.1c0,0.1-0.1,0.1-0.1,0.3c0,0,0,0.1-0.1,0.1C25,18.3,25,18.4,25,18.4
	c-0.1,0.1-0.1,0.3-0.2,0.3c-0.1,0.1-0.1,0.1-0.1,0.1v0.1c-0.1,0-0.1,0.1-0.1,0.1c-0.1,0.1-0.1,0.1-0.1,0.1v0.1c-0.1,0-0.1,0-0.1,0.1
	c0,0.1-0.1,0.1-0.1,0.1c-0.1-0.1-0.1-0.1-0.1-0.1v0.1c-0.1,0.1-0.1,0.1-0.1,0.1h-0.1c-0.1,0.1-0.1,0.4-0.3,0.4V20l-0.1,0.1
	c-0.3,0.4-0.7,0.9-0.9,1.1h-0.1v0.1c0,0.1,0,0.1-0.1,0.1c0,0.1,0,0.1-0.1,0.1c0,0.1,0,0.1-0.1,0.1c0,0.1-0.1,0.1-0.1,0.1
	c-0.1,0-0.1,0.1-0.1,0.1c0,0,0.1,0.1,0,0.1c-0.1,0-0.1,0.1-0.1,0.1c-0.1,0-0.1,0.1-0.1,0.1c-0.1,0.1-0.1,0.1-0.1,0.2
	c0,0.1-0.1,0.1-0.1,0.1c0-0.1,0-0.1-0.1-0.1c0,0-0.1,0-0.1,0.1c-0.1,0.1-0.3,0.1-0.4,0.1h-0.3c-0.1-0.1-0.1-0.1-0.1-0.1
	c-0.1,0-0.2,0-0.3-0.1c-0.1-0.1-0.1-0.1-0.1-0.1h-0.1c-0.1,0-0.2,0-0.3-0.1c0,0-0.5-0.7-0.5-0.7c0.1-0.1,0,0-0.1-0.1v-0.1
	c-0.1-0.1-0.3,0-0.2-0.1c-0.1-0.1-0.1-0.1-0.1-0.1c-0.1-0.1-0.1-0.2-0.1-0.3h-0.1c0-0.1-0.1-0.1,0-0.1c0-0.1-0.1-0.1-0.1-0.1
	c-0.1-0.1-0.1-0.1-0.1-0.2v-0.1c-0.1-0.1-0.1-0.1-0.1-0.3c0,0,0-0.1-0.1-0.1c0-0.1-0.1-0.2-0.1-0.3l-0.1-0.1c0-0.1-0.1-0.1-0.1-0.1
	l-0.2-0.1c0,0,0-0.1-0.1-0.1c-0.1-0.1-0.1-0.1-0.1-0.2c0,0,0-0.1-0.1-0.1v-0.1c-0.1-0.1-0.1-0.1-0.1-0.1c-0.1-0.1-0.1-0.1-0.1-0.3
	c0,0,0-0.1-0.1-0.1c-0.1-0.1-0.1-0.1-0.1-0.3v-0.1c-0.4-0.3-0.4-0.3-0.4-0.3l-0.1-0.1L17.7,17c0-0.1,0-0.1-0.1-0.1
	c0-0.1-0.1-0.1-0.1-0.1c-0.1,0-0.1-0.2-0.2-0.2c-0.1-0.1-0.1-0.3-0.1-0.5l0.5-0.8c0.1-0.1,0.1-0.2,0.3-0.4c0.3-0.1,0.4-0.1,0.7,0
	c0.1,0.1,0.1,0.2,0.3,0.3c0,0.1,0.1,0.1,0.1,0.1c0,0.1,0.1,0.1,0.1,0.1c0.1,0.1,0.1,0.1,0.1,0.1s0.1,0,0.1,0.1
	c0,0.1,0.1,0.2,0.1,0.3c0,0.1,0.3-0.1,0.3,0c0,0,0,0.1,0.1,0.1c0.1,0,0.1,0.1,0.1,0.1c0.1,0.1,0.1,0.1,0.1,0.1s0.1,0.1,0.1,0.2
	c0,0.1,0.1,0.1,0.1,0.1c0.1,0,0.1,0,0.1,0.1C20,16.5,20,16.4,20,16.4c-0.5-0.9-0.1-1.7-0.3-2.1v-0.1c0.3-0.5,0.9-0.9,1.6-1.1h0.1
	h0.5c0.1,0,0.3,0,0.4,0.1c0.1,0.1,0.3,0.1,0.3,0.1c0.1-0.1,0.3-0.1,0.5,0.1c0.1,0.1,0.2,0.3,0.3,0.3c0.3,0.2,0.2,0.5,0.3,0.8
	c0,0.3-0.1,1.1-0.1,1.4c-0.1,0.2-0.1,0.4-0.3,0.7h-0.1c-0.2-0.1-0.2,0.5-0.5,0.5c-0.4,0.1-1.1,0.4-1.4,0.5h-0.1
	c-0.1-0.1-0.4-0.2-0.6-0.3c0,0.1,0.1,0.1,0.1,0.1c0.1,0.1,0.1,0.1,0.1,0.3v0.1c0.1,0.1,0.1,0.1,0.1,0.1c0,0.1,0.1,0.1,0.1,0.1
	c0.1,0.1,0.1,0.3,0.1,0.3c0.1,0.1,0.1,0.1,0.1,0.2c0,0.1,0.1,0.1,0.1,0.1c0.1,0,0.1,0.1,0.1,0.1h0.1c0.1,0,0.1,0,0.2-0.1
	c0.1-0.1,0.1-0.1,0.2-0.1c0,0,0-0.1,0.1-0.1c0,0,0.1,0,0.1-0.1c0.1,0,0.1-0.1,0.1-0.1c0-0.1,0.3-0.3,0.3-0.3s0.1,0,0.1,0.1v-0.1
	c0.1-0.1,0.1-0.1,0.1-0.1c0-0.1,0.1-0.1,0.1-0.1c0.1,0,0.1-0.1,0.1-0.1s0.1,0,0.1-0.1c0-0.1,0.1-0.1,0.1-0.1c0-0.1,0.1-0.1,0.1-0.1
	h0.1c0.1,0,0.1,0,0.1-0.1c0.1,0,0.1-0.1,0.1-0.1c0-0.1,0.1-0.1,0.1-0.1c0.1,0,0.1,0,0.1-0.1c0.1-0.1,0.1-0.1,0.1-0.1l0.1-0.1
	c0.1-0.1,0.1-0.1,0.1-0.1c0.4,0.1,0.4,0.1,0.4,0.1c0.1,0.1,0.1,0.1,0.1,0c-0.1-0.1-0.1-0.1-0.1-0.1l0.1,0.1l0.1-0.1V17h0.1
	c0-0.1,0.1-0.1,0.1-0.1c-0.1,0,0-0.1,0.1-0.1H24c-0.1,0-0.1-0.1-0.1-0.1c0.1,0,0.1-0.1,0.1-0.1l0.1-0.1c0-0.1,0-0.1-0.1-0.1
	c-0.1-0.1,0.1-0.1,0-0.1c0.1,0,0.1,0,0.1,0.1c0-0.1,0.1-0.1,0.1-0.1v-0.1c-0.1,0-0.1,0,0-0.1h0.1c0-0.1,0.1-0.1,0.1-0.1
	c0-0.1,0-0.1,0.1-0.1c0-0.1,0.1-0.1,0.1-0.1c0.1-0.1,0.1-0.1,0.2-0.1c0,0.1,0,0.1,0,0c0.1-0.1,0.1-0.1,0.1-0.1
	c0-0.1,0.3-0.3,0.3-0.3c0.1,0,0.1-0.1,0.1-0.1c0-0.1,0.1-0.1,0.1-0.1c0.1-0.1,0.9-1,1-1h0.1c0.1-0.1,0.1-0.1,0.2,0
	c0,0.1,0,0.1,0.1,0h0.1c0,0,0.1-0.1,0.1,0c0.1,0,0.1,0,0.1,0.1h0.1c0.1-0.1,0.1-0.1,0.2,0C27.2,14.6,26,16.4,26,16.5z M31.5,5.9
	c-0.1,0.3-0.1,0.1-0.2,0.3h-0.1c-0.1,0.1-0.1,0.1-0.1,0.1h-0.1c0,0-0.1,0-0.1,0.1c-0.1,0,0,0.1,0.1,0.1C31,6.5,31,6.6,31,6.6
	C31,6.6,31,6.7,31,6.7l-0.1,0.3c-0.1,0.1-0.1,0.3-0.1,0.3c0,0.1,0.1,0.1,0.1,0.1h-0.1c-0.1,0.1-0.1,0.1-0.1,0.3c0,0-0.1,0-0.1,0.1
	c-0.1,0.1-0.1,0.1-0.2,0.2v0.1c-0.1,0.1-0.2,0.3-0.3,0.3l-0.1,0.3C30,8.7,30,8.7,29.9,8.8c-0.1,0.1-0.1,0.2-0.2,0.3
	c-0.2-0.1-0.2-0.1-0.2,0.1l-0.1,0.1c-0.1,0.1-0.1,0.1-0.1,0.1v0.1c-0.1,0.1-0.1,0.1-0.1,0.1c0,0.1-0.1,0.1-0.1,0.1
	c-0.1,0.2-0.1,0.2-0.2,0.2V10v0.1c-0.1,0.1-0.1,0.2-0.3,0.3c-0.1,0.1-0.1,0.3-0.2,0.3c-0.1,0.1-0.1,0.5-0.1,0.4
	c-0.1,0-0.1,0.1-0.1,0.1c0,0.1-0.1,0.1-0.1,0.1c-0.1,0-0.1,0.1-0.1,0.2c0,0.1-0.1,0.1-0.1,0.2C28,11.8,28,11.8,28,11.9
	c-0.1,0.1-0.1,0.2-0.1,0.2c-0.1,0-0.1,0.1-0.1,0.1c-0.1,0.1-0.1,0.2-0.1,0.3c-0.1,0.2-0.2,0.3-0.3,0.5c-0.1,0.1-0.1,0.1-0.1,0.2
	c0,0.1-0.1,0.2-0.1,0.3c-0.2-0.1-0.2-0.1-0.2-0.1c-0.2,0.3-0.4,0.7-0.7,0.9h-0.1c-0.1,0.1-0.1,0.1-0.1,0.3c-0.2,0.2-0.4,0.5-0.7,0.7
	c-0.1,0.1-0.3,0.1-0.3,0.1c-0.1-0.1-0.1-0.2-0.3-0.2c0-0.1,0-0.1-0.1-0.1c-0.1,0-0.1,0-0.3,0.1c-0.1,0-0.1-0.3,0-0.4
	c-0.1,0-0.1,0.1-0.2,0.1c-0.1,0.1-0.1,0-0.1-0.1c-0.1-0.1-0.1-0.3-0.2-0.3l-0.1-0.1c0,0,0-0.1-0.1-0.1c-0.1-0.5-0.2-0.5-0.3-0.5
	c-0.1,0.1,0,0,0,0c0.1-0.1,0.1-0.2,0.3-0.6c0.1,0.1,0.1,0.1,0.2,0.1c0.1-0.1,0.9-1.1,0.9-1.1c0.1-0.1,1.8-2.7,1.9-2.8
	c0-0.1,0.1-0.1,0.1-0.1C27,9.2,27,9.1,27,9.1c0.1,0,0.1,0,0.1-0.1c0.1-0.1,0.1-0.1,0.2-0.2c0.1-0.1,0.1-0.1,0.2-0.2
	C27.6,8.6,27.8,8,27.8,8c0.1-0.1,0.3-0.5,0.3-0.5c0.1-0.1,0.1-0.1,0.1-0.1c0.1-0.1,0.1-0.1,0.1-0.1c-0.1-0.1-0.1-0.1-0.1-0.1
	c0.1,0,0.2-0.1,0.2-0.2V6.9c0.1-0.1,0.1-0.1,0.1-0.1c0.1,0,0.1,0,0.1-0.1c0-0.1,0.1-0.1,0.1-0.2c0.1,0,0.1-0.1,0.1-0.1
	c0.1-0.1,0.1-0.3,0.2-0.3v0.2c0.1,0,0.1-0.1,0.1-0.1c0.1,0,0.1-0.1,0.1-0.1C29.5,6,29.5,6,29.5,6C29.6,6,29.6,6,29.6,5.9
	c0-0.1,0.2-0.5,0.3-0.5c0.1,0,0.3-0.3,0.3-0.5c0.3-0.5,0.2-0.5,0.2-0.5h0.1c0-0.1,0.1-0.3,0.1-0.3c0-0.1,0.1-0.1,0.1-0.1
	c0.1,0,0.1-0.1,0.1-0.1c0,0,0.1-0.4,0.2-0.4c0.1,0.1,0.1,0.1,0.1,0.1C31,3.6,31,3.7,31.1,3.7c0,0.1,0.1,0.1,0.1,0.1
	C31.2,3.8,31.2,4,31.2,4L31.3,4c0.2,0,0.2,0,0.2,0.1c-0.1,0.5,0.2,0.9,0.1,1.5C31.6,5.7,31.7,5.7,31.5,5.9z"/>
</svg>
